<svg xmlns="http://www.w3.org/2000/svg" class="i -comversational" viewBox="0 0 346 40"><title>Comversational™</title> <g> <path fill="#6AA342" d="M56.914 6.906C51.477-.578 41-2.237 33.518 3.2c-7.485 5.438-9.144 15.913-3.706 23.397 2.418 3.328 5.836 5.498 9.542 6.41v5.398c0 .817.927 1.29 1.588.808L53.208 30.3c7.483-5.435 9.143-15.91 3.706-23.394"></path> <path fill="#5A9A4D" d="M30.16 27.034c2.394 3.076 5.658 5.102 9.194 5.972V22.73l-9.194 4.304z"></path> <path fill="#479159" d="M39.354 33.006v5.4c0 .816.927 1.288 1.588.807l10.083-7.325-11.67-9.16v10.278z"></path> <path fill="#FFF" d="M67.25 8.232c0-1.32 1.044-2.365 2.366-2.365h.522c1.013 0 1.72.522 2.15 1.228L78 16.402l5.746-9.337c.49-.8 1.167-1.198 2.118-1.198h.523c1.32 0 2.364 1.044 2.364 2.365V25.31c0 1.32-1.04 2.365-2.36 2.365-1.29 0-2.33-1.075-2.33-2.365V14.59l-4.15 6.39c-.49.736-1.1 1.197-1.96 1.197-.86 0-1.47-.46-1.96-1.198l-4.08-6.3v10.69c0 1.29-1.04 2.3-2.33 2.3s-2.31-1.01-2.31-2.3V8.23zm35.482 17.724L95.76 9.276c-.154-.368-.277-.736-.277-1.136 0-1.32 1.044-2.335 2.366-2.335 1.22 0 2.02.707 2.39 1.66l5.37 13.913 5.44-14.068c.3-.763 1.13-1.5 2.27-1.5 1.29 0 2.33.984 2.33 2.273 0 .37-.13.768-.25 1.045l-7.03 16.832c-.49 1.17-1.38 1.88-2.68 1.88h-.31c-1.29 0-2.18-.702-2.67-1.87m19.63-.83V8.357c0-1.32 1.05-2.367 2.37-2.367h11.912c1.17 0 2.12.96 2.12 2.12 0 1.17-.95 2.09-2.12 2.09h-9.58v4.36h8.2c1.17 0 2.12.96 2.12 2.12 0 1.17-.95 2.09-2.12 2.09h-8.2v4.52h9.737c1.166 0 2.12.95 2.12 2.12 0 1.168-.954 2.09-2.12 2.09h-12.07c-1.324 0-2.368-1.04-2.368-2.36m23.67-16.78c0-1.32 1.04-2.364 2.36-2.364h7.464c2.734 0 4.853.767 6.265 2.18 1.2 1.198 1.845 2.888 1.845 4.915v.06c0 3.38-1.69 5.47-4.3 6.55l3.284 3.99c.46.58.77 1.08.77 1.81 0 1.32-1.108 2.18-2.244 2.18-1.072 0-1.78-.52-2.332-1.22l-4.606-5.83h-3.78v4.7c0 1.32-1.05 2.366-2.37 2.366S146 26.65 146 25.328V8.358zm9.52 8.08c2.3 0 3.622-1.23 3.622-3.04v-.063c0-2.02-1.414-3.07-3.717-3.07h-4.7v6.18h4.793zm15.33 8.784c-.52-.37-.89-1.044-.89-1.782 0-1.227.98-2.18 2.21-2.18.613 0 1.042.215 1.35.43 1.63 1.2 3.41 1.936 5.5 1.936 1.934 0 3.1-.76 3.1-2.02v-.06c0-1.2-.737-1.814-4.33-2.735-4.33-1.105-7.126-2.303-7.126-6.573v-.06c0-3.903 3.133-6.483 7.525-6.483 2.61 0 4.885.676 6.82 1.905.523.31 1.045.953 1.045 1.875 0 1.23-.984 2.18-2.213 2.18-.46 0-.83-.12-1.196-.335-1.565-.92-3.04-1.447-4.514-1.447-1.81 0-2.76.83-2.76 1.874v.06c0 1.41.92 1.87 4.64 2.82 4.36 1.13 6.82 2.7 6.82 6.45v.06c0 4.27-3.253 6.66-7.89 6.66-2.827 0-5.68-.86-8.08-2.58m20.813-.77l7.49-16.93c.52-1.17 1.47-1.88 2.76-1.88h.28c1.29 0 2.21.702 2.73 1.87l7.5 16.92c.156.34.25.642.25.95 0 1.26-.986 2.272-2.246 2.272-1.11 0-1.85-.646-2.28-1.63l-1.446-3.38h-9.46l-1.507 3.533c-.4.92-1.2 1.474-2.184 1.474-1.225 0-2.18-.983-2.18-2.21 0-.34.125-.68.28-1.015zm13.3-5.96l-2.98-7.1-2.98 7.1h5.96zm16.204-8.14h-4.55c-1.2 0-2.18-.99-2.18-2.19s.98-2.18 2.18-2.18h13.82c1.2 0 2.18.98 2.18 2.18 0 1.2-.98 2.18-2.18 2.18h-4.55V25.3c0 1.32-1.047 2.364-2.367 2.364s-2.364-1.044-2.364-2.365V10.35zm17.18-2.18c0-1.32 1.042-2.37 2.363-2.37 1.32 0 2.366 1.042 2.366 2.362v17.14c0 1.32-1.045 2.363-2.366 2.363-1.32 0-2.36-1.04-2.36-2.36V8.17zm11.23 8.63v-.07c0-6.11 4.82-11.12 11.453-11.12s11.396 4.942 11.396 11.06v.06c0 6.11-4.82 11.12-11.458 11.12-6.63 0-11.39-4.95-11.39-11.06m17.904 0v-.066c0-3.686-2.7-6.757-6.51-6.757-3.81 0-6.45 3.01-6.45 6.697v.06c0 3.69 2.704 6.76 6.51 6.76s6.45-3.01 6.45-6.69m11.23-8.57c0-1.32 1.045-2.365 2.366-2.365h.49c1.14 0 1.815.554 2.46 1.383l9.123 11.974V8.14c0-1.29 1.042-2.335 2.332-2.335s2.335 1.045 2.335 2.335v17.11c0 1.32-1.04 2.364-2.36 2.364h-.15c-1.138 0-1.81-.553-2.458-1.382l-9.46-12.41v11.52c0 1.29-1.05 2.333-2.34 2.333-1.29 0-2.33-1.044-2.33-2.334V8.24zm25.14 16.218l7.49-16.924c.52-1.17 1.477-1.876 2.766-1.876h.28c1.29 0 2.21.7 2.73 1.87l7.497 16.92c.155.34.25.65.25.957 0 1.26-.986 2.273-2.245 2.273-1.106 0-1.84-.647-2.274-1.63l-1.44-3.38h-9.46l-1.502 3.53c-.4.92-1.2 1.473-2.18 1.473-1.23 0-2.18-.98-2.18-2.21 0-.34.12-.675.27-1.01zm13.3-5.96l-2.98-7.093-2.98 7.094h5.96zm12.838-10.32c0-1.32 1.048-2.363 2.37-2.363 1.32 0 2.367 1.043 2.367 2.363V23.2h8.754c1.2 0 2.15.954 2.15 2.15 0 1.2-.95 2.15-2.15 2.15H332.4c-1.32 0-2.363-1.042-2.363-2.364V8.17zM0 16.808v-.067C0 10.63 4.607 5.62 11.21 5.62c3.227 0 5.407.86 7.19 2.182.49.37.92 1.044.92 1.874 0 1.29-1.044 2.303-2.334 2.303-.645 0-1.075-.25-1.413-.46-1.32-.99-2.703-1.54-4.392-1.54-3.62 0-6.23 3.01-6.23 6.69v.06c0 3.68 2.55 6.76 6.24 6.76 2 0 3.32-.62 4.67-1.69.37-.31.86-.52 1.41-.52 1.2 0 2.21.98 2.21 2.18 0 .74-.37 1.32-.8 1.69-1.93 1.69-4.2 2.7-7.64 2.7C4.7 27.86 0 22.97 0 16.8"></path> <path fill="#FCED00" d="M47.38.498c-3.39-.836-7.015-.603-10.35.763l3.57 6.99L47.38.5z"></path> <path fill="#6F976D" d="M59.903 14.18c-.394-2.548-1.37-5.044-2.99-7.274-.524-.722-1.108-1.372-1.718-1.984l-2.3 3.744 7.008 5.514z"></path> <path fill="#318964" d="M39.354 22.73l11.778 2.418-7.234-10.445"></path> <path fill="#378376" d="M43.898 14.703l7.235 10.445 1.762-16.483"></path> <path fill="#9CAF5D" d="M40.6 8.245l3.3 6.458 8.995-6.038"></path> <path fill="#00737D" d="M51.132 25.148l8.665-5.254c.36-1.877.4-3.808.106-5.714l-7.008-5.515-1.763 16.483z"></path> <path fill="#6AA342" d="M32.035 17.984l-2.372 8.385c.052.07.095.15.148.22.12.15.24.29.35.44l9.2-4.31-7.32-4.75z"></path> <path fill="#DEDA21" d="M40.6 8.245L37.03 1.26c-1.218.5-2.4 1.132-3.513 1.94-2.295 1.668-4.037 3.812-5.2 6.195L43.9 14.703l-3.3-6.458z"></path> <path fill="#007A76" d="M59.797 19.895l-8.665 5.254L53 30.45l.208-.152c3.586-2.604 5.818-6.37 6.59-10.406"></path> <path fill="#0A816E" d="M39.354 22.73l11.67 9.158L53 30.453l-1.868-5.305"></path> <path fill="#A4BC38" d="M32.035 17.984l-5.24-3.645c-.595 4.08.315 8.39 2.868 12.03l2.372-8.39z"></path> <path fill="#C1CB30" d="M28.318 9.395c-.764 1.566-1.273 3.235-1.522 4.944l5.24 3.64 8.39-4.47-12.108-4.12z"></path> <path fill="#88AF3E" d="M40.425 13.52l-8.39 4.464 7.32 4.745L43.9 14.7"></path> <path fill="#CBCB43" d="M40.6 8.245l12.295.42 2.3-3.743C52.99 2.712 50.28 1.212 47.38.498L40.6 8.245z"></path> </g> </svg>
