<?xml version="1.0" standalone="no"?>
<!DOCTYPE svg PUBLIC "-//W3C//DTD SVG 1.1//EN" "http://www.w3.org/Graphics/SVG/1.1/DTD/svg11.dtd" >
<svg>
<metadata>
Created by FontForge 20090914 at Fri Nov 11 14:29:07 2016
 By www-data
URW Software, Copyright 1994 by URW
</metadata>
<defs>
<font id="AlternateGotNo3D" horiz-adv-x="1024" >
  <font-face 
    font-family="AlternateGotNo3D"
    font-weight="400"
    font-stretch="normal"
    units-per-em="2048"
    panose-1="0 0 0 0 0 0 0 0 0 0"
    ascent="1685"
    descent="-363"
    x-height="1017"
    cap-height="1365"
    bbox="-191 -512 1516 1762"
    underline-thickness="130"
    underline-position="-137"
    unicode-range="U+0020-U+F002"
  />
<missing-glyph horiz-adv-x="314" 
d="M31 0v1365h252v-1365h-252zM252 31v1303h-190v-1303h190z" />
    <glyph glyph-name=".notdef" horiz-adv-x="314" 
d="M31 0v1365h252v-1365h-252zM252 31v1303h-190v-1303h190z" />
    <glyph glyph-name="space" unicode=" " horiz-adv-x="314" 
 />
    <glyph glyph-name="exclam" unicode="!" horiz-adv-x="444" 
d="M285 412h-127l-49 953h225zM321 218v-218h-198v218h198z" />
    <glyph glyph-name="quotedbl" unicode="&#x22;" horiz-adv-x="741" 
d="M274 819h-152l-35 546h223zM619 819h-153l-35 546h223z" />
    <glyph glyph-name="numbersign" unicode="#" horiz-adv-x="904" 
d="M594 976l73 389h135l-73 -389h113l-26 -139h-113l-61 -325h123l-26 -140h-123l-69 -372h-135l70 372h-174l-70 -372h-135l70 372h-112l28 140h110l61 325h-118l29 139h115l73 389h134l-72 -389h173zM568 837h-173l-61 -325h174z" />
    <glyph glyph-name="dollar" unicode="$" horiz-adv-x="840" 
d="M364 1509l109 0.000976562v-126c104.667 -12.667 196.667 -63.334 276 -152.001l-140 -138c-53.333 70 -115.666 105 -186.999 105c-44.667 0 -80.334 -13.333 -107.001 -40c-28 -28 -42 -66.333 -42 -115c0 -54.667 18 -101 54 -139c22.667 -24 76.667 -65.333 162 -124
c102 -70 173.333 -133 214 -189c49.333 -69.333 74 -152 74 -248c0 -148.667 -55.333 -254.667 -166 -318c-36.667 -21.333 -82.667 -35.333 -138 -42v-156h-109v157c-116.667 14 -219.334 79 -308.001 195l142 131c34.667 -42.667 64.667 -73.667 90 -93
c41.333 -32.667 88 -49 140 -49c47.333 0 83.333 16.333 108 49c24 30.667 36 68.667 36 114c0 58 -18.333 107.667 -55 149c-26 29.333 -85.333 77 -178 143c-90 64 -152.667 119.667 -188 167c-50.667 68 -76 147.333 -76 238c0 88.667 23.667 164.667 71 228
c52.667 70 125.334 112 218.001 126v127z" />
    <glyph glyph-name="percent" unicode="%" horiz-adv-x="1100" 
d="M438 1140v-253c0 -159.333 -62.667 -239 -188 -239c-126 0 -189 79.667 -189 239v253c0 159.333 63 239 189 239c125.333 0 188 -79.667 188 -239zM183 1162v-297c0 -38 4 -64 12 -78c10.667 -20 29 -30 55 -30c25.333 0 43.333 10 54 30c8 14 12 40 12 78v297
c0 38 -4 64 -12 78c-10.667 20 -28.667 30 -54 30c-26 0 -44.333 -10 -55 -30c-8 -14 -12 -40 -12 -78zM775 1365h113l-564 -1365h-114zM1038 478v-253c0 -159.333 -62.667 -239 -188 -239c-126 0 -189 79.667 -189 239v253c0 159.333 63 239 189 239
c125.333 0 188 -79.667 188 -239zM783 500v-297c0 -37.333 4 -63.333 12 -78c10 -20 28 -30 54 -30s44.333 10 55 30c8 14 12 40 12 78v297c0 38 -4 64 -12 78c-10.667 20 -28.667 30 -54 30c-26.667 0 -45 -10 -55 -30c-8 -14 -12 -40 -12 -78z" />
    <glyph glyph-name="ampersand" unicode="&#x26;" horiz-adv-x="961" 
d="M692 632l183 -22.9961c-8.66699 -127.333 -45 -240 -109 -338c28 -40.667 74.667 -69.667 140 -87v-204c-91.333 4.66699 -177.333 49.667 -258 135c-37.333 -36.667 -70 -63.667 -98 -81c-52.667 -32 -109.334 -48 -170.001 -48c-84.667 0 -155.667 29.333 -213 88
c-66 67.333 -99 149.666 -99 246.999c0 79.333 25 161.333 75 246c22 38.667 58 87 108 145c-60 123.333 -90 233 -90 329c0 95.333 25 174.666 75 237.999c53.333 66.667 123 100 209 100c71.333 0 130.333 -24.333 177 -73c52 -54 78 -123 78 -207
c0 -80.667 -27.333 -159.334 -82 -236.001c-23.333 -32.667 -69.666 -91 -138.999 -175c44.667 -106 96.667 -195 156 -267c30.667 57.333 49.667 127.666 57 210.999zM392 866.004c78 90 117 178.333 117 265c0 74 -26.667 111 -80 111c-30.667 0 -53.667 -14.333 -69 -43
c-14.667 -26 -22 -58 -22 -96c0 -73.333 18 -152.333 54 -237zM343 530.004c-44.667 -64.667 -67 -125.335 -67 -182.002c0 -39.333 10.667 -74.666 32 -105.999c24 -36.667 54.333 -55 91 -55c43.333 0 86 22.667 128 68c-74 78.667 -135.333 170.334 -184 275.001z" />
    <glyph glyph-name="quotesingle" unicode="'" horiz-adv-x="403" 
d="M281 819h-159l-35 546h229z" />
    <glyph glyph-name="parenleft" unicode="(" horiz-adv-x="537" 
d="M359 1450l120 -81.999c-50.667 -80 -92 -160.667 -124 -242c-66.667 -172 -100 -344 -100 -516c0 -171.333 33.333 -343 100 -515c32 -82 73.333 -162.667 124 -242l-120 -83c-60.667 81.333 -112 166.666 -154 255.999c-94 198 -141 392.667 -141 584
c0 192 47 387 141 585c42 88.667 93.333 173.667 154 255z" />
    <glyph glyph-name="parenright" unicode=")" horiz-adv-x="537" 
d="M176 -230l-119 83c50.667 79.333 91.667 160 123 242c67.333 172 101 343.667 101 515c0 172 -33.667 344 -101 516c-31.333 81.333 -72.333 162 -123 242l119 82c61.333 -81.333 113 -166.333 155 -255c94 -198.667 141 -393.667 141 -585s-47 -386 -141 -584
c-42 -88.667 -93.667 -174 -155 -256z" />
    <glyph glyph-name="asterisk" unicode="*" horiz-adv-x="627" 
d="M211 1106l-136 31l46 143l130 -55l-13 140h151l-13 -140l130 55l46 -143l-136 -32l91 -105l-121 -89l-72 119l-73 -119l-121 89z" />
    <glyph glyph-name="plus" unicode="+" horiz-adv-x="840" 
d="M763 780v-162h-260v-256h-166v256h-260v162h260v251h166v-251h260z" />
    <glyph glyph-name="comma" unicode="," horiz-adv-x="355" 
d="M277 218v-218l-119 -282h-79l91 282h-91v218h198z" />
    <glyph glyph-name="hyphen" unicode="-" horiz-adv-x="294" 
d="M294 604v-171h-294v171h294z" />
    <glyph glyph-name="period" unicode="." horiz-adv-x="355" 
d="M277 218v-218h-198v218h198z" />
    <glyph glyph-name="slash" unicode="/" horiz-adv-x="760" 
d="M540 1365h172l-506 -1502h-172z" />
    <glyph glyph-name="zero" unicode="0" horiz-adv-x="840" 
d="M763 931l-0.000976562 -496.999c0 -77.333 -5.5 -140.833 -16.5 -190.5s-29.167 -93.834 -54.5 -132.501c-58.667 -87.333 -149.334 -131 -272.001 -131s-213 43.667 -271 131c-48 72 -72 179.667 -72 323v497c0 76.667 5.5 140 16.5 190s29.5 94.333 55.5 133
c58 87.333 148.333 131 271 131s213.334 -43.667 272.001 -131c30.667 -46.667 50.334 -98.667 59.001 -156c8 -51.333 12 -107 12 -167zM274.999 973.001v-581.002c0 -58 2.33301 -96.667 7 -116c18.667 -72 64.667 -108 138 -108c56.667 0 96.667 21.333 120 64
c13.333 24 21 49 23 75c1.33301 20.667 2 49 2 85v581c0 58.667 -2.33301 97.334 -7 116.001c-18.667 72 -64.667 108 -138 108c-56.667 0 -96.667 -21.333 -120 -64c-13.333 -24 -21 -49 -23 -75c-1.33301 -21.333 -2 -49.666 -2 -84.999z" />
    <glyph glyph-name="one" unicode="1" horiz-adv-x="840" 
d="M563 1365l0.000976562 -1365h-198v1045h-198v125c52 22.667 101.667 49.667 149 81c57.333 40.667 100.666 78.667 129.999 114h117z" />
    <glyph glyph-name="two" unicode="2" horiz-adv-x="840" 
d="M732 184l-0.000976562 -184.002h-665v184c177.333 232 295 392 353 480c57.333 87.333 95 159.333 113 216c14.667 46.667 22 95.334 22 146.001c0 114.667 -44.333 172 -133 172c-43.333 0 -77.666 -15.333 -102.999 -46c-27.333 -33.333 -41 -80.666 -41 -141.999
c0 -10.667 0.333008 -24.667 1 -42h-198c0 52.667 2 95.667 6 129c12.667 102 56.667 178.333 132 229c58.667 39.333 128.667 59 210 59c101.333 0 182 -31.667 242 -95c59.333 -63.333 89 -152 89 -266c0 -86 -17.667 -168.333 -53 -247
c-36 -79.333 -117.333 -203.333 -244 -372l-166 -221h435z" />
    <glyph glyph-name="three" unicode="3" horiz-adv-x="840" 
d="M363 623l0.00195312 190c35.333 1.33301 61 3.66602 77 6.99902c68.667 15.333 103 76.333 103 183c0 130 -42.333 195 -127 195c-52.667 0 -90 -23.667 -112 -71c-12 -26 -18 -55.333 -18 -88c0 -4.66699 0.333008 -12 1 -22h-198c-0.666992 12.667 -1 22 -1 28
c0 102.667 32.667 186.334 98 251.001c60 59.333 138.667 89 236 89c94 0 168 -28 222 -84c64.667 -66.667 97 -165 97 -295c0 -86 -15.333 -152.333 -46 -199c-23.333 -35.333 -63.333 -64 -120 -86c39.333 -11.333 68.666 -23.666 87.999 -36.999
c66.667 -46.667 100 -141 100 -283c0 -136.667 -30.667 -240.334 -92 -311.001c-64 -73.333 -150.333 -110 -259 -110c-97.333 0 -177.333 31 -240 93c-68 66.667 -102 158 -102 274c0 12 0.333008 26 1 42h204v-28c0 -62.667 13 -111 39 -145c24 -32 57.667 -48 101 -48
c95.333 0 143 76.333 143 229c0 90.667 -18.333 152 -55 184c-28.667 25.333 -75.334 39.333 -140.001 42z" />
    <glyph glyph-name="four" unicode="4" horiz-adv-x="840" 
d="M451 347h-422v213l404 805h216v-834h155v-184h-155v-347h-198v347zM451 531v502l-238 -502h238z" />
    <glyph glyph-name="five" unicode="5" horiz-adv-x="840" 
d="M708 1365l-0.000976562 -184h-424l-6 -311c63.333 56.667 132.333 85 207 85c98 0 169.333 -37.333 214 -112c28 -46 45 -95.333 51 -148c6.66699 -61.333 10 -130 10 -206c0 -129.333 -8 -221 -24 -275c-45.333 -156 -152 -234 -320 -234
c-102 0 -180.667 29.667 -236 89c-58.667 62.667 -88 153.667 -88 273c0 8.66699 0.333008 22.667 1 42h198c-0.666992 -17.333 -1 -29.333 -1 -36c0 -120 42.333 -180 127 -180c62.667 0 102.667 28.333 120 85c12 40.667 18 117.667 18 231c0 112 -9.33301 190 -28 234
c-20 46.667 -56.667 70 -110 70c-36 0 -66 -12.667 -90 -38c-15.333 -15.333 -31.666 -39.333 -48.999 -72h-182l14 687h598z" />
    <glyph glyph-name="six" unicode="6" horiz-adv-x="840" 
d="M747 1011l-197.999 0.000976562c0 63.333 -6 106 -18 128c-21.333 38.667 -57.333 58 -108 58c-55.333 0 -93.333 -21 -114 -63c-18.667 -38.667 -28 -114 -28 -226v-169c26.667 36 54.334 62 83.001 78c35.333 20 77 30 125 30c184 0 276 -135.667 276 -407
c0 -306.667 -114 -460 -342 -460c-110.667 0 -195 38.333 -253 115c-30.667 40.667 -52.834 89.667 -66.501 147s-20.5 129.666 -20.5 216.999v487c0 104.667 11.667 185 35 241c29.333 69.333 74.666 121.333 135.999 156c49.333 28 106 42 170 42
c96 0 173.667 -30 233 -90c58 -59.333 88 -138.333 90 -237v-47zM281.001 575.001l0.000976562 -187.001c0 -146.667 46.667 -220 140 -220c54 0 91.667 23 113 69c17.333 39.333 26 100 26 182c0 92.667 -12.333 157.334 -37 194.001c-20.667 30.667 -53.334 46 -98.001 46
c-51.333 0 -99.333 -28 -144 -84z" />
    <glyph glyph-name="seven" unicode="7" horiz-adv-x="840" 
d="M733 1365v-146l-305 -1219h-207l302 1181h-445v184h655z" />
    <glyph glyph-name="eight" unicode="8" horiz-adv-x="840" 
d="M601 719c60 -25.333 102.665 -63.334 127.998 -114.001c25.333 -52 38 -124.333 38 -217c0 -71.333 -7 -131 -21 -179s-37 -90 -69 -126c-60 -68.667 -145.333 -103 -256 -103c-111.333 0 -197 34.333 -257 103c-32 36 -55 78 -69 126s-21 107.667 -21 179
c0 102 15.667 179.667 47 233c24.667 42.667 64.334 75.334 119.001 98.001c-53.333 26 -90.333 58.667 -111 98c-25.333 46.667 -38 114 -38 202c0 117.333 28.333 208 85 272c56 62.667 137.667 94 245 94c106.667 0 188 -31.333 244 -94c56.667 -64 85 -154.667 85 -272
c0 -96.667 -15.333 -168.667 -46 -216c-21.333 -33.333 -55.666 -61.333 -102.999 -84zM417.998 1197c-86 0 -129 -64.333 -129 -193c0 -128 44 -192 132 -192c87.333 0 131 63.667 131 191c0 129.333 -44.667 194 -134 194zM417.998 617.999c-92.667 0 -139 -75 -139 -225
s47.333 -225 142 -225c94 0 141 74.333 141 223c0 151.333 -48 227 -144 227z" />
    <glyph glyph-name="nine" unicode="9" horiz-adv-x="840" 
d="M93 354l197.998 -0.000976562c0 -63.333 6 -106 18 -128c22 -38.667 58 -58 108 -58c55.333 0 93.333 21 114 63c18.667 38.667 28 114 28 226v169c-27.333 -36 -55 -62 -83 -78c-35.333 -20 -77 -30 -125 -30c-184 0 -276 135.667 -276 407c0 306.667 114 460 342 460
c110.667 0 195 -38.333 253 -115c30.667 -40.667 52.834 -89.667 66.501 -147s20.5 -129.666 20.5 -216.999v-487c0 -104.667 -11.667 -185 -35 -241c-29.333 -69.333 -74.666 -121.333 -135.999 -156c-49.333 -28 -106 -42 -170 -42c-96 0 -173.667 30 -233 90
c-58 59.333 -88 138.333 -90 237v47zM558.998 789.999l-0.000976562 187c0 146.667 -46.667 220 -140 220c-54 0 -91.667 -23 -113 -69c-17.333 -39.333 -26 -100.333 -26 -183c0 -92 12.333 -156.333 37 -193c20.667 -30.667 53.667 -46 99 -46
c50.667 0 98.334 28 143.001 84z" />
    <glyph glyph-name="colon" unicode=":" horiz-adv-x="355" 
d="M277 218v-218h-198v218h198zM277 1017v-218h-198v218h198z" />
    <glyph glyph-name="semicolon" unicode=";" horiz-adv-x="355" 
d="M277 1017v-218h-198v218h198zM277 218v-218l-119 -282h-79l91 282h-91v218h198z" />
    <glyph glyph-name="less" unicode="&#x3c;" 
d="M955 1210v-207l-666 -316l666 -317v-205l-887 434v177z" />
    <glyph glyph-name="equal" unicode="=" horiz-adv-x="840" 
d="M763 606v-162h-686v162h686zM763 948v-162h-686v162h686z" />
    <glyph glyph-name="greater" unicode="&#x3e;" 
d="M69 165v207l666 316l-665 317v205l886 -434v-177z" />
    <glyph glyph-name="question" unicode="?" horiz-adv-x="727" 
d="M443 415h-173.998v61c0 102.667 10 187.667 30 255c16.667 54.667 53 132.334 109 233.001c37.333 66.667 56 117.334 56 152.001c0 29.333 -9 51.666 -27 66.999c-16.667 14.667 -37.334 22 -62.001 22c-39.333 0 -72 -20.667 -98 -62
c-15.333 -24.667 -30.333 -58.334 -45 -101.001l-191 55c28 91.333 65.333 158.333 112 201c58.667 54 135.667 81 231 81c76.667 0 140 -19.333 190 -58c65.333 -50.667 98 -119.667 98 -207c0 -45.333 -10.333 -90.333 -31 -135
c-12.667 -27.333 -36.334 -66.333 -71.001 -117c-52 -78 -84.333 -135 -97 -171c-18 -46.667 -28 -109.667 -30 -189v-87zM459.002 218v-218h-198v218h198z" />
    <glyph glyph-name="at" unicode="@" horiz-adv-x="965" 
d="M880 362l-129.998 0.000976562l-25 56c-44.667 -50.667 -94.667 -76 -150 -76c-54.667 0 -93.667 10.667 -117 32c-33.333 29.333 -50 75.666 -50 138.999v384c0 60.667 15 106.334 45 137.001c33.333 33.333 77.666 50 132.999 50c42.667 0 83.667 -17.667 123 -53v44
c0 48 -16.667 84.667 -50 110c-44 33.333 -98.333 50 -163 50s-118 -17.333 -160 -52c-30 -24.667 -48 -54.334 -54 -89.001c-3.33301 -19.333 -5 -46 -5 -80v-638c0 -75.333 13 -130 39 -164c42 -55.333 105.667 -83 191 -83c74.667 0 142 22 202 66l102 -95
c-76.667 -80.667 -178.334 -121 -305.001 -121c-55.333 0 -108.5 7.5 -159.5 22.5s-92.5 35.5 -124.5 61.5c-36 28.667 -64.333 67.167 -85 115.5s-31 99.5 -31 153.5v713c0 102.667 30 182.667 90 240c70 66.667 169.667 100 299 100c101.333 0 185 -21.667 251 -65
c89.333 -58.667 134 -146.667 134 -264v-694zM579.002 868.001v-309.001c0 -33.333 6 -54.666 18 -63.999s27.667 -14 47 -14c23.333 0 41 6.33301 53 19c8 8.66699 12 28.334 12 59.001v309c0 33.333 -6 54.666 -18 63.999c-11.333 8.66699 -27 13 -47 13
c-24 0 -41.333 -6 -52 -18c-8.66699 -9.33301 -13 -29 -13 -59z" />
    <glyph glyph-name="A" unicode="A" horiz-adv-x="923" 
d="M608 297h-291l-55 -297h-207l262 1365h290l276 -1365h-217zM572 492l-112 611l-109 -611h221z" />
    <glyph glyph-name="B" unicode="B" horiz-adv-x="933" 
d="M104 0v1365h316c120 0 214.667 -27.333 284 -82c77.333 -61.333 116 -149.666 116 -264.999c0 -90 -26 -162.667 -78 -218c-33.333 -36.667 -82.333 -64.667 -147 -84c71.333 -20.667 125 -47 161 -79c64 -57.333 96 -140.666 96 -249.999
c0 -121.333 -38 -217.666 -114 -288.999c-70 -65.333 -167 -98 -291 -98h-343zM316 809.997h77c66 0 118 18 156 54c37.333 35.333 56 81.333 56 138c0 52 -17.333 93.667 -52 125c-31.333 28.667 -83.333 43 -156 43h-81v-360zM316 194.997h105.999
c70.667 0 123.334 17.667 158.001 53c35.333 36 53 82.333 53 139c0 64 -20.333 117.333 -61 160c-42 45.333 -101.667 68 -179 68h-77v-420z" />
    <glyph glyph-name="C" unicode="C" horiz-adv-x="909" 
d="M830 921h-211v28c0 158.667 -53.333 238 -160 238c-58 0 -99.667 -22.333 -125 -67c-15.333 -28 -24.666 -58 -27.999 -90c-2.66699 -30.667 -4 -66 -4 -106v-454c0 -95.333 7.66699 -163.333 23 -204c22.667 -58.667 68.334 -88 137.001 -88
c108.667 0 163 89.333 163 268v34h211c0.666992 -23.333 1 -40.333 1 -51c0 -132 -26.667 -236.667 -80 -314c-62.667 -90 -161 -135 -295 -135c-142 0 -244 50.667 -306 152c-32.667 52.667 -52 111 -58 175c-5.33301 53.333 -8 117.333 -8 192v381
c0 130.667 8.33301 221.334 25 272.001c29.333 90.667 82.666 155 159.999 193c53.333 26.667 114.666 40 183.999 40c116 0 206.333 -35.667 271 -107c67.333 -74.667 101 -179 101 -313c0 -10.667 -0.333008 -25.334 -1 -44.001z" />
    <glyph glyph-name="D" unicode="D" horiz-adv-x="923" 
d="M104 0v1365h334c265.333 0 397 -142.333 395 -427v-511c2 -284.667 -129.667 -427 -395 -427h-334zM316 195l103 -0.00195312c72.667 0.666992 124.667 22.334 156 65.001c20 28 32.667 60 38 96c5.33301 36.667 8 79.667 8 129v395c0 60 -3.33301 106.5 -10 139.5
s-18.667 61.5 -36 85.5c-31.333 42.667 -83.333 64.334 -156 65.001h-103v-975z" />
    <glyph glyph-name="E" unicode="E" horiz-adv-x="764" 
d="M723 1365v-195h-407v-359h300v-195h-300v-421h407v-195h-619v1365h619z" />
    <glyph glyph-name="F" unicode="F" horiz-adv-x="752" 
d="M316 607v-607h-212v1365h625v-195h-413v-368h305v-195h-305z" />
    <glyph glyph-name="G" unicode="G" horiz-adv-x="918" 
d="M451 678l385.002 -0.00195312v-678h-110l-37 116c-28.667 -38.667 -57 -67.667 -85 -87c-48.667 -32.667 -106 -49 -172 -49c-62.667 0 -118.834 14.167 -168.501 42.5s-87.5 67.5 -113.5 117.5c-28.667 55.333 -46 115.333 -52 180c-5.33301 54.667 -8 116 -8 184v376
c0 130.667 8.33301 221.334 25 272.001c28.667 90 82 154.333 160 193c54 26.667 115.333 40 184 40c152 0 259.333 -60.667 322 -182c33.333 -64 49.666 -158 48.999 -282h-212c0 80.667 -8 139.334 -24 176.001c-26.667 60 -72 90 -136 90
c-59.333 0 -101.333 -23.333 -126 -70c-14.667 -28 -23.334 -58 -26.001 -90c-2.66699 -30 -4 -65.333 -4 -106v-417c0 -102 7.66699 -176 23 -222c22.667 -69.333 70.334 -104 143.001 -104c61.333 0 104 27.333 128 82c18.667 42 28 105 28 189v55h-173v174z" />
    <glyph glyph-name="H" unicode="H" horiz-adv-x="930" 
d="M615 601h-299v-601h-212v1365h212v-569h299v569h212v-1365h-212v601z" />
    <glyph glyph-name="I" unicode="I" horiz-adv-x="419" 
d="M316 1365v-1365h-212v1365h212z" />
    <glyph glyph-name="J" unicode="J" horiz-adv-x="531" 
d="M215 1365l212 -0.00292969v-1031c-0.666992 -96.667 -7.66699 -161 -21 -193c-18.667 -49.333 -48 -85.166 -88 -107.499s-95 -33.5 -165 -33.5h-126v198h48c54.667 0.666992 92 13.334 112 38.001c18 22.667 27.333 60.334 28 113.001v1016z" />
    <glyph glyph-name="K" unicode="K" horiz-adv-x="908" 
d="M316 1365v-565l305 565h227l-289 -496l330 -869h-231l-230 644l-112 -191v-453h-212v1365h212z" />
    <glyph glyph-name="L" unicode="L" horiz-adv-x="763" 
d="M316 1365v-1170h420v-195h-632v1365h212z" />
    <glyph glyph-name="M" unicode="M" horiz-adv-x="1202" 
d="M1098 1365v-1365h-201v1004l-238 -1004h-118l-236 1004v-1004h-201v1365h309l189 -857l191 857h305z" />
    <glyph glyph-name="N" unicode="N" horiz-adv-x="965" 
d="M861 1365v-1365h-190l-366 908v-908h-201v1365h212l344 -849v849h201z" />
    <glyph glyph-name="O" unicode="O" horiz-adv-x="926" 
d="M835 931l-0.000976562 -497c0 -76.667 -6 -140 -18 -190s-32 -94.333 -60 -133c-63.333 -87.333 -161.333 -131 -294 -131c-133.333 0 -231.666 43.667 -294.999 131c-33.333 46.667 -55 98.667 -65 156c-8.66699 51.333 -13 107 -13 167v497c0 76.667 6 140 18 190
s32 94.333 60 133c64 87.333 162.333 131 295 131s230.667 -43.667 294 -131c34 -46.667 55.667 -98.667 65 -156c8.66699 -51.333 13 -107 13 -167zM301.999 927l0.00195312 -489.001c0 -65.333 2.66699 -110 8 -134c19.333 -84 70.333 -126 153 -126
c63.333 0 107.666 24.667 132.999 74c14 26.667 22 56 24 88c2 26.667 3 59.334 3 98.001v489c0 66 -2.66699 111 -8 135c-18.667 83.333 -69.334 125 -152.001 125c-64 0 -108.667 -24.667 -134 -74c-14 -26.667 -22 -55.667 -24 -87c-2 -27.333 -3 -60.333 -3 -99z" />
    <glyph glyph-name="P" unicode="P" horiz-adv-x="890" 
d="M316 553l-0.000976562 -553h-212v1365h351c130.667 0 226.334 -29.333 287.001 -88c72 -69.333 108 -175.333 108 -318s-36 -248.667 -108 -318c-32 -30.667 -70.667 -53 -116 -67s-102.333 -21 -171 -21h-139zM315.999 748h92c78 0 132.667 12.333 164 37
c40 30 60 88 60 174s-20 144 -60 174c-31.333 24.667 -86 37 -164 37h-92v-422z" />
    <glyph glyph-name="Q" unicode="Q" horiz-adv-x="926" 
d="M897 97l-0.000976562 -196.999c-56 -0.666992 -107.667 9 -155 29c-43.333 19.333 -77.666 47.666 -102.999 84.999c-59.333 -22.667 -119.333 -34 -180 -34c-130 0 -227 43.667 -291 131c-33.333 46 -55 98 -65 156c-8.66699 51.333 -13 107 -13 167v497
c0 76.667 6 140 18 190s32 94.333 60 133c64 87.333 162.333 131 295 131s230.667 -43.667 294 -131c34 -46.667 55.667 -98.667 65 -156c8.66699 -51.333 13 -107 13 -167v-497c-1.33301 -128.667 -18.333 -222 -51 -280c21.333 -35.333 59 -54.333 113 -57z
M301.999 927.001l0.00195312 -489.001c0 -65.333 2.66699 -110 8 -134c19.333 -84 70.333 -126 153 -126c63.333 0 107.666 24.667 132.999 74c14 26.667 22 56 24 88c2 26.667 3 59.334 3 98.001v489c0 66 -2.66699 111 -8 135c-18.667 83.333 -69.334 125 -152.001 125
c-64 0 -108.667 -24.667 -134 -74c-14 -26.667 -22 -55.667 -24 -87c-2 -27.333 -3 -60.333 -3 -99z" />
    <glyph glyph-name="R" unicode="R" horiz-adv-x="899" 
d="M316 560v-560.001h-212v1365h332c117.333 0 207.333 -27.333 270 -82c81.333 -70.667 122 -173.667 122 -309c0 -173.333 -61.333 -291.666 -184 -354.999l201 -619h-222l-181 560h-126zM316 754.999l77 -0.000976562c58 0 99.333 5.33301 124 16
c62 26.667 93 90.667 93 192c0 74.667 -17.333 129 -52 163c-20 20.667 -44.333 33.334 -73 38.001c-25.333 4 -56 6 -92 6h-77v-415z" />
    <glyph glyph-name="S" unicode="S" horiz-adv-x="873" 
d="M821 1044l-202 -59.998c-32.667 135.333 -93.334 203 -182.001 203c-38 0 -70 -12.667 -96 -38c-27.333 -26.667 -41 -60.334 -41 -101.001c0 -50 19 -95.667 57 -137c24.667 -26.667 85 -76.667 181 -150c98 -76 166 -137 204 -183c58.667 -71.333 88 -155 88 -251
c0 -100.667 -33.667 -183.334 -101 -248.001c-68.667 -66 -159.667 -99 -273 -99c-233.333 0 -371.666 128 -414.999 384l202 59c28 -163.333 99 -245 213 -245c48 0 86 14.667 114 44c28 28.667 42 66 42 112c0 48 -17.667 92 -53 132c-29.333 34 -79.333 78.667 -150 134
c-102.667 80 -164.334 130 -185.001 150c-94.667 91.333 -142 191 -142 299c0 107.333 38.333 192.333 115 255c64.667 54 145 81 241 81c196.667 0 324.334 -113.667 383.001 -341z" />
    <glyph glyph-name="T" unicode="T" horiz-adv-x="768" 
d="M491 1170v-1170h-212v1170h-265v195h741v-195h-264z" />
    <glyph glyph-name="U" unicode="U" horiz-adv-x="930" 
d="M614 1365h212v-925c0 -110 -9.66699 -191.667 -29 -245c-52 -143.333 -162.667 -215 -332 -215c-126 0 -220 41 -282 123c-36 47.333 -58.333 100.333 -67 159c-8 52.667 -12 112 -12 178v925h212v-959c0 -77.333 10 -133 30 -167c24 -40.667 63.667 -61 119 -61
s95 20.333 119 61c20 33.333 30 89 30 167v959z" />
    <glyph glyph-name="V" unicode="V" horiz-adv-x="887" 
d="M589 0h-262l-293 1365h218l206 -1038l180 1038h214z" />
    <glyph glyph-name="W" unicode="W" horiz-adv-x="1305" 
d="M1033 0h-198l-176 926l-164 -926h-199l-255 1365h205l155 -880l164 880h184l179 -880l138 880h198z" />
    <glyph glyph-name="X" unicode="X" horiz-adv-x="921" 
d="M575 712l319 -712h-234l-208 496l-194 -496h-231l304 712l-292 653h233l182 -438l170 438h231z" />
    <glyph glyph-name="Y" unicode="Y" horiz-adv-x="902" 
d="M552 533v-533h-212v533l-306 832h233l182 -577l189 577h229z" />
    <glyph glyph-name="Z" unicode="Z" horiz-adv-x="797" 
d="M756 195v-195h-715v199l478 971h-433v195h664v-195l-476 -975h482z" />
    <glyph glyph-name="bracketleft" unicode="[" horiz-adv-x="537" 
d="M456 1365v-177h-161v-1205h161v-177h-355v1559h355z" />
    <glyph glyph-name="backslash" unicode="\" horiz-adv-x="760" 
d="M220 1365l506 -1502h-172l-506 1502h172z" />
    <glyph glyph-name="bracketright" unicode="]" horiz-adv-x="537" 
d="M81 -194v177h161v1205h-161v177h355v-1559h-355z" />
    <glyph glyph-name="asciicircum" unicode="^" 
d="M244 750h-190l342 620h233l342 -620h-191l-268 478z" />
    <glyph glyph-name="underscore" unicode="_" 
d="M0 -137h1024v-130h-1024v130z" />
    <glyph glyph-name="grave" unicode="`" 
d="M597 1183h-144l-148 182h198z" />
    <glyph glyph-name="a" unicode="a" horiz-adv-x="810" 
d="M726 0l-197.998 -0.000976562c-10.667 29.333 -16 69 -16 119c-32 -34.667 -60.333 -61.667 -85 -81c-45.333 -34.667 -94 -52 -146 -52c-63.333 0 -112.333 22.333 -147 67c-39.333 50 -59 117.667 -59 203c0 72 17 132 51 180c37.333 54 115.666 108.333 234.999 163
c30 14 80.333 36 151 66v54c0 52 -7.33301 88.333 -22 109c-16.667 24 -42.667 36 -78 36c-40 0 -70 -16 -90 -48c-12 -20 -19.667 -52.333 -23 -97h-201c7.33301 91.333 34.333 162 81 212c61.333 66.667 147.666 100 258.999 100c94 0 163.667 -26 209 -78
c26.667 -31.333 43 -65.666 49 -102.999c4.66699 -30.667 7 -71 7 -121v-453c-0.666992 -122 7 -214 23 -276zM512.002 523.999c-64 -34 -114.333 -66.667 -151 -98c-56 -48.667 -84 -101.667 -84 -159c0 -33.333 9 -60.333 27 -81c18.667 -22 41.667 -33 69 -33
c54.667 0 101 30.667 139 92v279z" />
    <glyph glyph-name="b" unicode="b" horiz-adv-x="792" 
d="M89 0l-0.000976562 1365h191v-449c79.333 76.667 154.333 115 225 115c76.667 0 131 -35 163 -105c20 -42.667 32 -88 36 -136s6 -101 6 -159v-245c0 -98.667 -5 -170.334 -15 -215.001c-27.333 -123.333 -90.666 -185 -189.999 -185c-70 0 -145 38.333 -225 115v-101
h-191zM279.999 205.001c48.667 -34.667 93 -52.001 133 -52.001c42.667 0 71.667 17.667 87 53c10 22.667 15.667 47.334 17 74.001c1.33301 25.333 2 57 2 95v267c0 84.667 -6.33301 141 -19 169c-15.333 35.333 -44.333 53 -87 53c-40 0 -84.333 -17.333 -133 -52v-607z
" />
    <glyph glyph-name="c" unicode="c" horiz-adv-x="773" 
d="M715 665l-191.001 0.000976562c0.666992 15.333 1 26.333 1 33c0 110 -41 165 -123 165c-50.667 0 -85.667 -18.333 -105 -55c-16 -31.333 -24 -90.333 -24 -177v-246c0 -86 8 -144.667 24 -176c19.333 -36.667 54 -55 104 -55c82.667 0 124 57.333 124 172
c0 7.33301 -0.333008 19 -1 35h191c0.666992 -22.667 1 -38.334 1 -47.001c0 -222.667 -104.667 -334 -314 -334c-117.333 0 -202.666 35.667 -255.999 107c-28 37.333 -45.667 79 -53 125c-7.33301 44 -11 93.667 -11 149v294c0 91.333 8.33301 159 25 203
c44 119.333 142.333 179 295 179c209.333 0 314 -108.667 314 -326c0 -8.66699 -0.333008 -24 -1 -46z" />
    <glyph glyph-name="d" unicode="d" horiz-adv-x="792" 
d="M703 0h-190.999v101c-80 -76.667 -155 -115 -225 -115c-76 0 -130.333 35 -163 105c-20 42.667 -32 88 -36 136s-6 101 -6 159v245c0 99.333 5 171 15 215c27.333 123.333 90.666 185 189.999 185c70.667 0 145.667 -38.333 225 -115v449h191v-1365zM512.001 812
c-48.667 34.667 -93 52 -133 52c-42.667 0 -71.667 -17.667 -87 -53c-12.667 -28 -19 -84.333 -19 -169v-267c0 -84 6.33301 -140.333 19 -169c15.333 -35.333 44.333 -53 87 -53c40 0 84.333 17.333 133 52v607z" />
    <glyph glyph-name="e" unicode="e" horiz-adv-x="798" 
d="M713 478l-439.999 -0.000976562v-92c0 -86.667 8 -145.667 24 -177c19.333 -36.667 54.333 -55 105 -55c82 0 123 56 123 168v30h191v-43c0 -106 -23.667 -185.333 -71 -238c-54.667 -60.667 -135.667 -91 -243 -91c-118 0 -203.333 35.667 -256 107
c-28 37.333 -45.667 79 -53 125c-7.33301 44.667 -11 94.667 -11 150v304c0 104 10.333 177 31 219c49.333 101.333 143.666 152 282.999 152c104 0 184 -31.333 240 -94c34 -37.333 55.333 -80 64 -128c8.66699 -47.333 13 -103.666 13 -168.999v-168zM522.001 644.999
l-0.000976562 55c0 56 -8.33301 97 -25 123c-19.333 31.333 -52.666 47 -99.999 47c-46.667 0 -80 -15.667 -100 -47c-16 -26 -24 -67 -24 -123v-55h249z" />
    <glyph glyph-name="f" unicode="f" horiz-adv-x="501" 
d="M499 1017l0.000976562 -171.002h-158v-846h-191v846h-138v171h138v97c0 78.667 8 133.334 24 164.001c34.667 67.333 106 101 214 101c38.667 0 81 -4.66699 127 -14v-178c-36.667 12 -65 18 -85 18c-32.667 0 -56.334 -10.667 -71.001 -32
c-12 -17.333 -18 -50.666 -18 -99.999v-56h158z" />
    <glyph glyph-name="g" unicode="g" horiz-adv-x="827" 
d="M816 1028l0.000976562 -202.998c-19.333 17.333 -41 26 -65 26c-29.333 0 -54.333 -13 -75 -39c13.333 -48 20 -103.333 20 -166c0 -132.667 -28 -232.334 -84 -299.001c-52.667 -62.667 -127.334 -94 -224.001 -94c-20.667 0 -44.667 2 -72 6
c-30 -14 -45 -33.667 -45 -59c0 -26.667 20 -42.334 60 -47.001c24.667 -3.33301 70.334 -7 137.001 -11c78 -4 134.333 -11.333 169 -22c112 -34 168 -110.333 168 -229c0 -90 -34 -154.667 -102 -194c-69.333 -39.333 -170 -59 -302 -59c-235.333 0 -353 61.333 -353 184
c0 44 16.667 81 50 111c24 20.667 60.667 39.667 110 57c-36.667 14.667 -63.334 29.334 -80.001 44.001c-27.333 22.667 -41 52 -41 88c0 46.667 18.333 83.667 55 111c22 16 56.667 32 104 48c-49.333 26 -86 58.333 -110 97c-40 66.667 -60 154.667 -60 264
c0 129.333 28 227.666 84 294.999c52 62.667 128.333 94 229 94c62.667 0 115.334 -12.667 158.001 -38c32 -18.667 62.333 -49.334 91 -92.001c15.333 52 39.666 87.667 72.999 107c26.667 14.667 61.667 21.334 105 20.001zM271.001 698.002v-113
c0 -110 38.333 -165 115 -165s115 55 115 165v113c0 110.667 -38.333 166 -115 166s-115 -55.333 -115 -166zM293.001 -27.998c-33.333 -28.667 -50.001 -58.332 -50.001 -88.999c0 -30 13.667 -51.333 41 -64c30 -13.333 78.667 -20 146 -20c129.333 0 194 28.667 194 86
c0 37.333 -26.333 60.333 -79 69c-21.333 3.33301 -71.666 6.66602 -150.999 9.99902c-22 1.33301 -55.667 4 -101 8z" />
    <glyph glyph-name="h" unicode="h" horiz-adv-x="788" 
d="M280 1365l-0.000976562 -479c84 96.667 168 145 252 145c111.333 0 167 -78.667 167 -236v-795h-191v745c0 45.333 -5 75.333 -15 90c-12 19.333 -30.667 29 -56 29c-55.333 0 -107.666 -34.333 -156.999 -103v-761h-191v1365h191z" />
    <glyph glyph-name="i" unicode="i" horiz-adv-x="369" 
d="M280 1017v-1017h-191v1017h191zM280 1365v-198h-191v198h191z" />
    <glyph glyph-name="j" unicode="j" horiz-adv-x="396" 
d="M116 1017l191 -0.000976562v-1032c0 -83.333 -6.33301 -141.666 -19 -174.999c-21.333 -58 -61.666 -100 -120.999 -126c-39.333 -16.667 -84.333 -25 -135 -25c-26 0 -53 3 -81 9v185c23.333 -4 42.666 -6 57.999 -6c42.667 0 72 16.667 88 50
c12.667 25.333 19 69 19 131v989zM307 1365v-198h-191v198h191z" />
    <glyph glyph-name="k" unicode="k" horiz-adv-x="766" 
d="M280 1365v-754l230 406h217l-207 -332l226 -685h-215l-142 476l-109 -174v-302h-191v1365h191z" />
    <glyph glyph-name="l" unicode="l" horiz-adv-x="369" 
d="M280 1365v-1365h-191v1365h191z" />
    <glyph glyph-name="m" unicode="m" horiz-adv-x="1207" 
d="M280 1017l-0.00195312 -131c84 96.667 168 145 252 145c88.667 0 142 -48.333 160 -145c86.667 96.667 173 145 259 145c111.333 0 167 -78.667 167 -236v-795h-191v745c0 45.333 -5 75.333 -15 90c-12 19.333 -30.667 29 -56 29
c-55.333 0 -107.666 -34.333 -156.999 -103v-761h-191v745c0 45.333 -5 75.333 -15 90c-12 19.333 -30.667 29 -56 29c-55.333 0 -107.666 -34.333 -156.999 -103v-761h-191v1017h191z" />
    <glyph glyph-name="n" unicode="n" horiz-adv-x="788" 
d="M280 1017l-0.000976562 -131c84 96.667 168 145 252 145c111.333 0 167 -78.667 167 -236v-795h-191v745c0 45.333 -5 75.333 -15 90c-12 19.333 -30.667 29 -56 29c-55.333 0 -107.666 -34.333 -156.999 -103v-761h-191v1017h191z" />
    <glyph glyph-name="o" unicode="o" horiz-adv-x="788" 
d="M706 666v-315c0 -103.333 -10.333 -176.333 -31 -219c-48.667 -101.333 -142.334 -152 -281.001 -152c-98.667 0 -175.667 27.667 -231 83c-36.667 35.333 -59.334 76.666 -68.001 123.999c-8.66699 44 -13 98.667 -13 164v315c0 103.333 10.333 176.333 31 219
c48.667 101.333 142.334 152 281.001 152c98.667 0 175.667 -27.667 231 -83c36.667 -35.333 59.334 -76.666 68.001 -123.999c8.66699 -44 13 -98.667 13 -164zM273 677v-337c0 -63.333 9 -109.333 27 -138c20.667 -32 52 -48 94 -48s73.333 16 94 48c18 28 27 74 27 138
v337c0 64 -9 110 -27 138c-20.667 32 -52 48 -94 48s-73.333 -16 -94 -48c-18 -28 -27 -74 -27 -138z" />
    <glyph glyph-name="p" unicode="p" horiz-adv-x="792" 
d="M89 1017l190.999 0.000976562v-101c80 76.667 155 115 225 115c76.667 0 131 -35 163 -105c20 -42.667 32 -88 36 -136s6 -101 6 -159v-245c0 -98.667 -5 -170.334 -15 -215.001c-27.333 -123.333 -90.666 -185 -189.999 -185c-70.667 0 -145.667 38.333 -225 115v-449
h-191v1365zM279.999 205.001c48.667 -34.667 93 -52 133 -52c42.667 0 71.667 17.667 87 53c12.667 28 19 84.333 19 169v267c0 64 -2 105.667 -6 125c-12 64.667 -45.333 97 -100 97c-40.667 0 -85 -17 -133 -51v-608z" />
    <glyph glyph-name="q" unicode="q" horiz-adv-x="792" 
d="M703 1017l0.000976562 -1365h-191v449c-79.333 -76.667 -154.333 -115 -225 -115c-76 0 -130.333 35 -163 105c-20 42.667 -32 88 -36 136c-4 47.333 -6 100.333 -6 159v245c0 98.667 5 170.334 15 215.001c27.333 123.333 90.666 185 189.999 185
c70 0 145 -38.333 225 -115v101h191zM512.001 812.999c-48 34 -92.333 51 -133 51c-42.667 0 -71.667 -17.667 -87 -53c-12.667 -28 -19 -84.333 -19 -169v-267c0 -84.667 6.33301 -141 19 -169c15.333 -35.333 44.333 -53 87 -53c40 0 84.333 17.333 133 52v608z" />
    <glyph glyph-name="r" unicode="r" horiz-adv-x="523" 
d="M89 1017l191 0.000976562v-176c30 75.333 67.333 127.666 112 156.999c37.333 22 81 33 131 33v-221c-33.333 12.667 -64 19 -92 19c-52.667 0 -92 -17.667 -118 -53c-16 -21.333 -25.667 -45 -29 -71c-2.66699 -25.333 -4 -56.333 -4 -93v-612h-191v1017z" />
    <glyph glyph-name="s" unicode="s" horiz-adv-x="741" 
d="M684 792l-173 -76.001c-18 46.667 -36.667 80.334 -56 101.001c-28 30.667 -62.333 46 -103 46c-26.667 0 -48.667 -6.66699 -66 -20c-22.667 -17.333 -34 -40.666 -34 -69.999c0 -30.667 14.333 -58 43 -82c21.333 -17.333 64.666 -44 129.999 -80
c101.333 -55.333 170 -101.333 206 -138c48 -49.333 72 -113.666 72 -192.999c0 -86.667 -27.667 -158 -83 -214c-57.333 -57.333 -134.333 -86 -231 -86c-103.333 0 -187.666 35.667 -252.999 107c-38 41.333 -69.667 100.666 -95 177.999l178 63
c16.667 -51.333 34.334 -89 53.001 -113c31.333 -40.667 70.666 -61 117.999 -61c30 0 55 8.66699 75 26c22 19.333 33 44.666 33 75.999s-12.667 59 -38 83c-20.667 20 -55.667 43.667 -105 71c-87.333 48 -144 81.667 -170 101c-85.333 65.333 -128 146.333 -128 243
c0 81.333 28.333 149 85 203c56 53.333 127 80 213 80c157.333 0 267 -81.667 329 -245z" />
    <glyph glyph-name="t" unicode="t" horiz-adv-x="560" 
d="M534 1017l0.000976562 -171h-174v-542c0 -52 9.66699 -89 29 -111s49.333 -33 90 -33c21.333 0 45.666 4 72.999 12v-172c-46.667 -9.33301 -89.667 -14 -129 -14c-96.667 0 -165.667 25.333 -207 76c-23.333 28 -37 62 -41 102c-4 32.667 -6 72.667 -6 120v562h-147v171
h147v280h191v-280h174z" />
    <glyph glyph-name="u" unicode="u" horiz-adv-x="788" 
d="M699 1017l0.000976562 -1017h-191v131c-84 -96.667 -168 -145 -252 -145c-111.333 0 -167 78.667 -167 236v795h191v-744c0 -46 5 -76.333 15 -91c12 -19.333 30.667 -29 56 -29c55.333 0 107.666 34.333 156.999 103v761h191z" />
    <glyph glyph-name="v" unicode="v" horiz-adv-x="718" 
d="M471 0h-200l-251 1017h204l144 -647l129 647h200z" />
    <glyph glyph-name="w" unicode="w" horiz-adv-x="1107" 
d="M865 0h-180l-132 625l-128 -625h-180l-218 1017h195l122 -635l125 635h174l130 -635l113 635h193z" />
    <glyph glyph-name="x" unicode="x" horiz-adv-x="754" 
d="M487 531l240 -531h-208l-145 360l-144 -360h-203l236 531l-221 486h208l126 -313l119 313h203z" />
    <glyph glyph-name="y" unicode="y" horiz-adv-x="725" 
d="M507 1017h196.998l-221 -974c-30 -130.667 -56 -214.667 -78 -252c-45.333 -79.333 -113.666 -127 -204.999 -143c-37.333 -6 -87 -9.33301 -149 -10v196c12.667 -0.666992 23 -1 31 -1c50.667 0 91.334 13.333 122.001 40c35.333 31.333 53 73.333 53 126
c0 23.333 -4.33301 53.333 -13 90l-224 928h201l149 -695z" />
    <glyph glyph-name="z" unicode="z" horiz-adv-x="699" 
d="M651 184v-184h-603v191l384 642h-352v184h571v-191l-384 -642h384z" />
    <glyph glyph-name="braceleft" unicode="{" horiz-adv-x="601" 
d="M245 584c44 -24.667 75.668 -59.3389 95.001 -104.006c12.667 -31.333 19 -76.666 19 -135.999v-173c2.66699 -66 9.33398 -107 20.001 -123c22.667 -43.333 81 -65 175 -65v-177c-124 0.666992 -204 6 -240 16c-52.667 16.667 -91.167 47.834 -115.5 93.501
s-36.5 109.834 -36.5 192.501v207c0 68.667 -11 116.334 -33 143.001c-23.333 26 -51.333 42.667 -84 50v161c35.333 8.66699 64 26.334 86 53.001c19.333 24 29.666 67.667 30.999 131v232c-1.33301 102 23 174.667 73 218c30.667 29.333 70.667 47.333 120 54
c39.333 4.66699 105.666 7 198.999 7v-186c-60.667 -0.666992 -107.667 -10 -141 -28c-25.333 -15.333 -40.666 -37.666 -45.999 -66.999c-5.33301 -18 -8 -46.667 -8 -86v-177c0 -72 -10.333 -125.667 -31 -161c-16.667 -28.667 -44.334 -53.667 -83.001 -75z" />
    <glyph glyph-name="bar" unicode="|" 
d="M408 1365h208v-1706h-208v1706z" />
    <glyph glyph-name="braceright" unicode="}" horiz-adv-x="601" 
d="M357 584c-42 23.333 -71.332 52.001 -87.999 86.001c-17.333 36.667 -26 86.667 -26 150v177c-1.33301 58.667 -7.66602 97 -18.999 115c-23.333 43.333 -82.333 65.333 -177 66v186c123.333 0.666992 203 -4.66602 239 -15.999c104 -33.333 155.333 -121 154 -263v-232
c1.33301 -63.333 11.666 -107 30.999 -131c21.333 -26.667 49.666 -44.334 84.999 -53.001v-161c-32 -7.33301 -59.667 -24 -83 -50c-22 -26.667 -33 -74.334 -33 -143.001v-207c0 -111.333 -23.333 -190.333 -70 -237c-32 -32 -72.333 -51 -121 -57
c-40.667 -4.66699 -108 -7.33398 -202 -8.00098v177c59.333 0 106 8.66699 140 26c10.667 6 20.667 15.833 30 29.5s15.333 26.834 18 39.501c5.33301 16 8 47 8 93v173c0 64.667 7.66699 113 23 145c18.667 39.333 49 71 91 95z" />
    <glyph glyph-name="asciitilde" unicode="~" horiz-adv-x="1365" 
d="M298 1169l-105.997 86c72 164 167.333 246 286 246c50 0 128.667 -25.333 236 -76c64 -30.667 105.333 -48.667 124 -54c19.333 -6 37.666 -9 54.999 -9c65.333 0 124 48 176 144l107 -86c-70 -162 -172 -243 -306 -243c-20.667 0 -45.334 4.66699 -74.001 14
c-24.667 7.33301 -79.334 31.333 -164.001 72c-71.333 34 -126.333 51 -165 51c-58.667 0 -115 -48.333 -169 -145z" />
    <glyph glyph-name="nbspace" unicode="&#xa0;" horiz-adv-x="314" 
 />
    <glyph glyph-name="exclamdown" unicode="&#xa1;" horiz-adv-x="444" 
d="M158 605h127l49 -953h-225zM123 799v218h198v-218h-198z" />
    <glyph glyph-name="cent" unicode="&#xa2;" horiz-adv-x="840" 
d="M367 1413l108.999 -0.00292969v-205c56.667 -6 105.334 -22.667 146.001 -50c48 -32.667 80.333 -77 97 -133c11.333 -36.667 17 -85.334 17 -146.001v-40h-191v29c0 112.667 -40.667 169 -122 169c-50.667 0 -85.667 -18.333 -105 -55c-16 -31.333 -24 -90.333 -24 -177
v-245c0 -87.333 8 -146.666 24 -177.999c19.333 -36.667 53.666 -55 102.999 -55c82.667 0 124 59.333 124 178v30h191v-41c0 -87.333 -12.667 -154.333 -38 -201c-42 -75.333 -116 -120.666 -222 -135.999v-221h-109v221c-69.333 10 -123 30.667 -161 62
c-42.667 34.667 -71.667 81.334 -87 140.001c-10.667 40.667 -16 99.334 -16 176.001v294c0.666992 108 12.334 184.333 35.001 229c42.667 88.667 119 138.667 229 150v205z" />
    <glyph glyph-name="sterling" unicode="&#xa3;" horiz-adv-x="840" 
d="M625 723l0.000976562 -124.999h-196c21.333 -61.333 32 -118.666 32 -171.999c0 -62.667 -21.333 -124.667 -64 -186l20 -8c65.333 -24 105.666 -36 120.999 -36c33.333 0 58 20.667 74 62c11.333 28 17 61.667 17 101h181c-0.666992 -92.667 -14 -169.334 -40 -230.001
c-42.667 -96 -107 -144 -193 -144c-47.333 0 -116.333 22 -207 66c-37.333 18 -65 27 -83 27c-40 0 -84.333 -32.667 -133 -98l-129 130c58 100 123.667 154.333 197 163c33.333 48 50 97.333 50 148c0 46.667 -17 105.667 -51 177h-173v125h129l-47 130
c-24 71.333 -36 135.666 -36 192.999c0 115.333 36 203 108 263c61.333 50.667 138.333 76 231 76c108.667 0 192.667 -34.667 252 -104c54.667 -63.333 82 -148 82 -254v-32h-198c-0.666992 58.667 -7.66699 102 -21 130c-21.333 48.667 -59.666 73 -114.999 73
c-40 0 -72.667 -12.333 -98 -37c-26 -25.333 -39 -61 -39 -107c0 -50.667 13.333 -114 40 -190c1.33301 -3.33301 18.666 -50.333 51.999 -141h237z" />
    <glyph glyph-name="currency" unicode="&#xa4;" horiz-adv-x="853" 
d="M689 547l87 -86l-118 -118l-84 84c-46.667 -26 -95.667 -39 -147 -39c-49.333 0 -98.666 13.333 -147.999 40l-88 -88l-114 116l90 89c-22.667 47.333 -34 92.333 -34 135c0 49.333 13 99 39 149l-87 86l118 118l89 -89c48 22 93.333 33 136 33
c45.333 0 90.666 -11.333 135.999 -34l97 97l115 -115l-94 -94c26 -47.333 39 -97 39 -149c0 -46 -10.667 -91 -32 -135zM423 837c-38 0 -71.668 -14 -101.001 -42c-34.667 -32 -52 -69.667 -52 -113c0 -38.667 12.667 -73 38 -103c30.667 -36.667 70.334 -55 119.001 -55
c40 0 75.333 14.667 106 44c33.333 30.667 50 67.667 50 111c0 42.667 -14.333 78.667 -43 108c-32 33.333 -71 50 -117 50z" />
    <glyph glyph-name="yen" unicode="&#xa5;" horiz-adv-x="840" 
d="M517 584v-584h-201v584h-202v125h157l-233 656h208l173 -577l179 577h204l-239 -656h155v-125h-201z" />
    <glyph glyph-name="brokenbar" unicode="&#xa6;" 
d="M408 1365h208v-696h-208v696zM408 314h208v-655h-208v655z" />
    <glyph glyph-name="section" unicode="&#xa7;" horiz-adv-x="840" 
d="M692 1058l-189.001 0.00195312c0.666992 18 1 33 1 45c0 74.667 -27 112 -81 112c-26.667 0 -46 -9.33301 -58 -28c-6.66699 -10 -10 -20.667 -10 -32c0 -20 16.667 -48.667 50 -86l288 -327c52.667 -60 79 -124 79 -192c0 -114.667 -59 -194.667 -177 -240l22 -26
c40 -49.333 60 -104.666 60 -165.999c0 -71.333 -24.667 -129 -74 -173c-46.667 -41.333 -109 -62 -187 -62c-115.333 0 -196 40.333 -242 121c-24 42 -36 92.333 -36 151c0 12 1 26 3 42h189c-2 -16 -3 -28.333 -3 -37c0 -22 4 -41 12 -57
c15.333 -30.667 41.333 -46 78 -46c23.333 0 41 8.33301 53 25c8.66699 12 13 26 13 42c0 22 -12.333 46.667 -37 74l-243 272c-49.333 55.333 -82 96.333 -98 123c-24.667 42 -37 83.333 -37 124c0 101.333 68.333 175.666 205 222.999l-21 25
c-33.333 39.333 -55.666 70 -66.999 92c-16 30.667 -24 64.667 -24 102c0 62.667 21.333 114 64 154c50.667 48.667 117 73 199 73c104 0 179.667 -36 227 -108c28.667 -44.667 43 -96.334 43 -155.001c0 -16.667 -0.666992 -38.334 -2 -65.001zM354.999 837.002
c-62 -28.667 -93 -64.002 -93 -106.002c0 -29.333 14 -59.666 42 -90.999l197 -217c51.333 24.667 77 62.334 77 113.001c0 34 -18.667 72 -56 114z" />
    <glyph glyph-name="dieresis" unicode="&#xa8;" 
d="M443 1365v-182h-177v182h177zM758 1365v-182h-177v182h177z" />
    <glyph glyph-name="copyright" unicode="&#xa9;" horiz-adv-x="1594" 
d="M808 1390c126 0 245.331 -35.001 357.998 -105.001c113.333 -69.333 200 -163 260 -281c51.333 -101.333 77 -208.666 77 -321.999c0 -93.333 -18 -183.5 -54 -270.5s-87 -163.5 -153 -229.5s-142.167 -117 -228.5 -153s-176.166 -54 -269.499 -54
s-183.166 17.833 -269.499 53.5s-162.833 86.5 -229.5 152.5c-66 66 -117.167 142.5 -153.5 229.5s-54.5 177.167 -54.5 270.5c0 134 34.667 258 104 372c68 112 162.333 198.667 283 260c100.667 51.333 210.667 77 330 77zM790.998 1276
c-74 0 -146.5 -15.166 -217.5 -45.499s-133.5 -72.833 -187.5 -127.5c-54.667 -54.667 -97 -118.834 -127 -192.501s-45 -149.5 -45 -227.5c0 -164.667 57.333 -305 172 -421c114 -115.333 251.333 -173 412 -173s297.667 58 411 174c114 116 171 255.333 171 418
c0 80 -15 157 -45 231s-72 137.667 -126 191c-116.667 115.333 -256 173 -418 173zM1020 819l-139.004 -0.000976562c0 51.333 -4.66699 87.666 -14 108.999c-14 32.667 -38.667 49 -74 49c-31.333 0 -53.666 -12.333 -66.999 -37c-12 -21.333 -18 -58.666 -18 -111.999
v-268c0 -55.333 4.33301 -94.666 13 -117.999c12.667 -32 37.667 -48 75 -48c59.333 0 89 51 89 153v26h138c0.666992 -18 1 -31.333 1 -40c0 -77.333 -16.333 -139.333 -49 -186c-38 -55.333 -97.333 -83 -178 -83c-87.333 0 -149.666 31 -186.999 93
c-20 32 -31.667 67.333 -35 106c-3.33301 32.667 -5 70.667 -5 114v225c0 78 5 132 15 162c30.667 95.333 100.334 143 209.001 143c70.667 0 125.334 -21.667 164.001 -65c41.333 -46 62 -110.333 62 -193v-30z" />
    <glyph glyph-name="ordfeminine" unicode="&#xaa;" horiz-adv-x="538" 
d="M478 546l-139.001 -0.000976562c-5.33301 16 -9 35.333 -11 58c-46 -44 -91.333 -66 -136 -66c-41.333 0 -73.666 13.667 -96.999 41c-26 30.667 -39 72.334 -39 125.001c0 44 11 80.667 33 110c24.667 32.667 74.667 65.334 150 98.001c18.667 8.66699 48 21 88 37v28
c0 28.667 -3.66699 48.667 -11 60c-9.33301 12.667 -23.666 19 -42.999 19c-37.333 0 -58 -28.667 -62 -86h-142c5.33301 65.333 26.5 114.666 63.5 147.999s89.167 50 156.5 50c60 0 105.333 -16 136 -48c17.333 -18.667 28 -40 32 -64c3.33301 -18.667 5 -43 5 -73v-267
c-0.666992 -74 4.66602 -130.667 15.999 -170zM326.999 849.999c-86.667 -45.333 -129.999 -91.667 -129.999 -139c0 -18 4.66699 -32.333 14 -43c10 -12 22.333 -18 37 -18c31.333 0 57.666 16.333 78.999 49v151z" />
    <glyph glyph-name="guillemotleft" unicode="&#xab;" horiz-adv-x="633" 
d="M565 191l-210 174v294l210 174v-245l-78 -76l78 -76v-245zM278 191l-210 174v294l210 174v-245l-78 -76l78 -76v-245z" />
    <glyph glyph-name="logicalnot" unicode="&#xac;" 
d="M753 0v394h-685v182h887v-576h-202z" />
    <glyph glyph-name="sfthyphen" unicode="&#xad;" horiz-adv-x="294" 
d="M294 604v-171h-294v171h294z" />
    <glyph glyph-name="registered" unicode="&#xae;" horiz-adv-x="1594" 
d="M807 1390c126.667 0 246.333 -34.668 359 -104.001c113.333 -70 200 -164 260 -282c51.333 -101.333 77 -208.666 77 -321.999c0 -94 -18 -184.333 -54 -271s-87 -163 -153 -229s-142.333 -117 -229 -153s-176.334 -54 -269.001 -54
c-93.333 0 -183.166 17.833 -269.499 53.5s-162.833 86.5 -229.5 152.5c-66 66 -117.167 142.5 -153.5 229.5s-54.5 177.167 -54.5 270.5c0 134 34.667 258 104 372c68 112 162.333 199 283 261c100 50.667 209.667 76 329 76zM790.999 1276
c-74 0 -146.332 -14.998 -216.999 -44.998s-133.334 -72.333 -188.001 -127c-54.667 -55.333 -97 -119.666 -127 -192.999s-45 -149.333 -45 -228c0 -164.667 57.333 -305 172 -421c114 -115.333 251 -173 411 -173c160.667 0 298 58 412 174
c114 115.333 171 254.666 171 417.999c0 79.333 -15 156.166 -45 230.499s-72 138.166 -126 191.499c-116.667 115.333 -256 173 -418 173zM728 602.001v-331h-138v819h202c71.333 0 126 -16.333 164 -49c49.333 -43.333 74 -106 74 -188
c0 -103.333 -35.667 -174.333 -107 -213l120 -369h-146l-106 331h-63zM728 730.001l39 -0.00195312c45.333 0 76 8 92 24c18.667 18.667 28 49.334 28 92.001s-9.33301 73.334 -28 92.001c-16 16 -46.667 24 -92 24h-39v-232z" />
    <glyph glyph-name="overscore" unicode="&#xaf;" 
d="M0 1762h1024v-127h-1024v127z" />
    <glyph glyph-name="degree" unicode="&#xb0;" horiz-adv-x="779" 
d="M394 1379c82 0 152.667 -31.332 212 -93.999c52 -55.333 78 -122 78 -200c0 -83.333 -29.667 -154 -89 -212c-57.333 -55.333 -125.333 -83 -204 -83c-87.333 0 -160.333 32 -219 96c-50.667 56 -76 121.333 -76 196c0 43.333 9 85.166 27 125.499s42.333 73.5 73 99.5
c57.333 48 123.333 72 198 72zM386 1239c-38 0 -71.668 -13.667 -101.001 -41c-34.667 -32.667 -52 -70.667 -52 -114c0 -38.667 12.667 -73 38 -103c30.667 -36.667 70 -55 118 -55c40.667 0 76.334 14.667 107.001 44c33.333 30.667 50 67.667 50 111
c0 42.667 -14.333 78.667 -43 108c-32 33.333 -71 50 -117 50z" />
    <glyph glyph-name="plusminus" unicode="&#xb1;" horiz-adv-x="840" 
d="M763 261v-162h-686v162h686zM763 773v-162h-260v-256h-166v256h-260v162h260v251h166v-251h260z" />
    <glyph glyph-name="twosuperior" unicode="&#xb2;" horiz-adv-x="567" 
d="M491 669l-0.000976562 -122.001h-440v118c112 133.333 188 228 228 284c36 50.667 59.667 92.334 71 125.001c9.33301 26.667 14 54.667 14 84c0 63.333 -26.333 95 -79 95c-56.667 0 -85 -35 -85 -105c0 -8 0.333008 -18.333 1 -31h-141v26c0 80 21 139 63 177
c42.667 38 98.334 57 167.001 57c66.667 0 120 -19.333 160 -58c39.333 -38 59 -92 59 -162c0 -52 -11.667 -101.667 -35 -149c-22.667 -46 -75 -119.333 -157 -220l-97 -119h271z" />
    <glyph glyph-name="threesuperior" unicode="&#xb3;" horiz-adv-x="567" 
d="M239 914v125c48 1.33301 79 9.33301 93 24c16 17.333 24 44.333 24 81c0 72.667 -25.333 109 -76 109c-51.333 0 -77 -29.333 -77 -88c0 -4 0.333008 -10.333 1 -19h-140c-0.666992 10 -1 17.333 -1 22c0 63.333 21.667 114.666 65 153.999
c39.333 36.667 91.333 55 156 55c60.667 0 109.334 -17 146.001 -51c42.667 -40 64 -100 64 -180c0 -85.333 -30 -141 -90 -167c70 -22 105 -85 105 -189c0 -83.333 -20.333 -146.333 -61 -189c-42.667 -44.667 -99.334 -67 -170.001 -67c-64 0 -117 19 -159 57
c-44.667 40.667 -67 100.334 -67 179.001v19h145c0 -44 4.66699 -74.667 14 -92c14.667 -26 37.667 -39 69 -39c56 0 84 43 84 129c0 51.333 -11 86 -33 104c-17.333 14 -48 21.667 -92 23z" />
    <glyph glyph-name="acute" unicode="&#xb4;" 
d="M414 1183l93 182h199l-148 -182h-144z" />
    <glyph glyph-name="mu" unicode="&#xb5;" horiz-adv-x="788" 
d="M508 1017h191v-1017h-191v117c-34 -87.333 -79.667 -131 -137 -131c-38.667 0 -69 21 -91 63v-397h-191v1365h191v-721c0 -47.333 4 -82 12 -104c13.333 -36 40.666 -54 81.999 -54c50.667 0 95.334 42.333 134.001 127v752z" />
    <glyph glyph-name="paragraph" unicode="&#xb6;" horiz-adv-x="856" 
d="M387 -205l0.000976562 858.997c-56 2.66699 -109.667 21.334 -161 56.001c-42.667 29.333 -77 69.333 -103 120c-27.333 54.667 -41 113.334 -41 176.001c0 82.667 22 156.334 66 221.001c63.333 92 156.666 138 279.999 138h353v-61h-82v-1509h-98v1509h-114v-1509h-100
z" />
    <glyph glyph-name="middot" unicode="&#xb7;" horiz-adv-x="355" 
d="M277 628v-218h-198v218h198z" />
    <glyph glyph-name="cedilla" unicode="&#xb8;" 
d="M594 -95v-139l-45 -114h-97l36 114h-58v139h164z" />
    <glyph glyph-name="onesuperior" unicode="&#xb9;" horiz-adv-x="567" 
d="M382 1365v-819h-140v617h-127v85c85.333 34 146.333 73 183 117h84z" />
    <glyph glyph-name="ordmasculine" unicode="&#xba;" horiz-adv-x="524" 
d="M463 946v-186c0 -62.667 -6.66699 -107 -20 -133c-32 -62 -92.333 -93 -181 -93c-63.333 0 -113 16.667 -149 50c-24 22 -39 47.667 -45 77c-5.33301 26.667 -8 59.667 -8 99v186c0 62 6.66699 106.333 20 133c32 62 92.667 93 182 93c62.667 0 112 -16.667 148 -50
c24 -22 39 -47.667 45 -77c5.33301 -26 8 -59 8 -99zM195 952v-199c0 -68.667 22.333 -103 67 -103c44 0 66 34.333 66 103v199c0 69.333 -22 104 -66 104c-44.667 0 -67 -34.667 -67 -104z" />
    <glyph glyph-name="guillemotright" unicode="&#xbb;" horiz-adv-x="633" 
d="M68 833l210 -174v-294l-210 -174v245l78 76l-78 76v245zM355 833l210 -174v-294l-210 -174v245l78 76l-78 76v245z" />
    <glyph glyph-name="onequarter" unicode="&#xbc;" horiz-adv-x="1379" 
d="M382 1365v-819h-140v617h-127v85c85.333 34 146.333 73 183 117h84zM376 -68l511 1502h116l-521 -1502h-106zM1109 205h-271v134l262 480h149v-492h99v-122h-99v-205h-140v205zM1113 323v296l-147 -296h147z" />
    <glyph glyph-name="onehalf" unicode="&#xbd;" horiz-adv-x="1379" 
d="M382 1365v-819h-140v617h-127v85c85.333 34 146.333 73 183 117h84zM376 -68l511 1502h116l-521 -1502h-106zM1302 122l-0.000976562 -121.999h-440v118c112 133.333 188 228 228 284c36 51.333 59.667 93.333 71 126c9.33301 26.667 14 54.667 14 84
c0 63.333 -26.333 95 -79 95c-56.667 0 -85 -35 -85 -105c0 -8.66699 0.333008 -19 1 -31h-141v26c0 80 21 139 63 177c42.667 38 98.334 57 167.001 57c66.667 0 120 -19.333 160 -58c39.333 -38 59 -92 59 -162c0 -52 -11.667 -101.667 -35 -149
c-22.667 -46.667 -75 -120.334 -157 -221.001l-97 -119h271z" />
    <glyph glyph-name="threequarters" unicode="&#xbe;" horiz-adv-x="1379" 
d="M239 914v125c48 1.33301 79 9.33301 93 24c16 17.333 24 44.333 24 81c0 72.667 -25.333 109 -76 109c-51.333 0 -77 -29.333 -77 -88c0 -4 0.333008 -10.333 1 -19h-140c-0.666992 10 -1 17.333 -1 22c0 63.333 21.667 114.666 65 153.999
c39.333 36.667 91.333 55 156 55c60.667 0 109.334 -17 146.001 -51c42.667 -40 64 -100 64 -180c0 -85.333 -30 -141 -90 -167c70 -22 105 -85 105 -189c0 -83.333 -20.333 -146.333 -61 -189c-42.667 -44.667 -99.334 -67 -170.001 -67c-64 0 -117 19 -159 57
c-44.667 40.667 -67 100.334 -67 179.001v19h145c0 -44 4.66699 -74.667 14 -92c14.667 -26 37.667 -39 69 -39c56 0 84 43 84 129c0 51.333 -11 86 -33 104c-17.333 14 -48 21.667 -92 23zM375 -68l512 1502h116l-521 -1502h-107zM1108 205h-270v134l261 480h149v-492h99
v-122h-99v-205h-140v205zM1112 323v296l-146 -296h146z" />
    <glyph glyph-name="questiondown" unicode="&#xbf;" horiz-adv-x="727" 
d="M285 602l172.999 -0.00195312v-48c0 -113.333 -10 -202.666 -30 -267.999c-17.333 -56 -53.666 -133.667 -108.999 -233c-37.333 -66.667 -56 -117.667 -56 -153c0 -28.667 9 -50.667 27 -66c17.333 -14.667 38 -22 62 -22c39.333 0 72 20.667 98 62
c16 25.333 31 59 45 101l191 -55c-28 -91.333 -65.333 -158.666 -112 -201.999c-58.667 -53.333 -135.667 -80 -231 -80c-76.667 0 -140 19.333 -190 58c-65.333 50.667 -98 119.667 -98 207c0 45.333 10.333 90.333 31 135c13.333 27.333 37 66.333 71 117
c52 78 84.333 135 97 171c18 45.333 28 108.333 30 189zM267.999 798.998v218h198v-218h-198z" />
    <glyph glyph-name="Agrave" unicode="&#xc0;" horiz-adv-x="923" 
d="M608 297h-291l-55 -297h-207l262 1365h290l276 -1365h-217zM572 492l-112 611l-109 -611h221zM547 1474h-144l-148 182h198z" />
    <glyph glyph-name="Aacute" unicode="&#xc1;" horiz-adv-x="923" 
d="M608 297h-291l-55 -297h-207l262 1365h290l276 -1365h-217zM572 492l-112 611l-109 -611h221zM364 1474l93 182h199l-148 -182h-144z" />
    <glyph glyph-name="Acircumflex" unicode="&#xc2;" horiz-adv-x="923" 
d="M608 297h-291l-55 -297h-207l262 1365h290l276 -1365h-217zM572 492l-112 611l-109 -611h221zM355 1656h214l128 -182h-171l-64 69l-64 -69h-172z" />
    <glyph glyph-name="Atilde" unicode="&#xc3;" horiz-adv-x="923" 
d="M608 297h-291l-55 -297h-207l262 1365h290l276 -1365h-217zM572 492l-112 611l-109 -611h221zM257 1484v142c36.667 20.667 76 31 118 31c28.667 0 59 -5.33301 91 -16c44 -15.333 78 -23 102 -23c26 0 59 11.333 99 34v-142c-40 -22.667 -73 -34 -99 -34
c-24 0 -58 7.66699 -102 23c-32 10.667 -62.333 16 -91 16c-42 0 -81.333 -10.333 -118 -31z" />
    <glyph glyph-name="Adieresis" unicode="&#xc4;" horiz-adv-x="923" 
d="M608 297h-291l-55 -297h-207l262 1365h290l276 -1365h-217zM572 492l-112 611l-109 -611h221zM400 1656v-182h-177v182h177zM715 1656v-182h-177v182h177z" />
    <glyph glyph-name="Aring" unicode="&#xc5;" horiz-adv-x="923" 
d="M608 297h-291l-55 -297h-207l262 1365h290l276 -1365h-217zM572 492l-112 611l-109 -611h221zM468 1733c39.333 0 73.998 -14 103.998 -42c29.333 -26.667 44 -60 44 -100s-14.667 -74 -44 -102s-64.666 -42 -105.999 -42s-76.666 14 -105.999 42s-44 62 -44 102
c0 40.667 14.667 74 44 100c31.333 28 67.333 42 108 42zM464.998 1662c-19.333 0 -36.668 -7 -52.001 -21c-14.667 -14 -22 -31 -22 -51s7.33301 -37 22 -51c15.333 -14 33 -21 53 -21c20.667 0 38.334 7 53.001 21s22 31 22 51c0 20.667 -7.33301 37.667 -22 51
c-15.333 14 -33.333 21 -54 21z" />
    <glyph glyph-name="AE" unicode="&#xc6;" horiz-adv-x="1300" 
d="M640 297h-294l-112 -297h-227l520 1365h733v-195h-408v-359h301v-195h-301v-421h408v-195h-620v297zM640 492v611l-222 -611h222z" />
    <glyph glyph-name="Ccedilla" unicode="&#xc7;" horiz-adv-x="909" 
d="M830 921h-211v28c0 158.667 -53.333 238 -160 238c-58 0 -99.667 -22.333 -125 -67c-15.333 -28 -24.666 -58 -27.999 -90c-2.66699 -30.667 -4 -66 -4 -106v-454c0 -95.333 7.66699 -163.333 23 -204c22.667 -58.667 68.334 -88 137.001 -88
c108.667 0 163 89.333 163 268v34h211c0.666992 -23.333 1 -40.333 1 -51c0 -132 -26.667 -236.667 -80 -314c-62.667 -90 -161 -135 -295 -135c-142 0 -244 50.667 -306 152c-32.667 52.667 -52 111 -58 175c-5.33301 53.333 -8 117.333 -8 192v381
c0 130.667 8.33301 221.334 25 272.001c29.333 90.667 82.666 155 159.999 193c53.333 26.667 114.666 40 183.999 40c116 0 206.333 -35.667 271 -107c67.333 -74.667 101 -179 101 -313c0 -10.667 -0.333008 -25.334 -1 -44.001zM545 -95v-139l-45 -114h-97l36 114h-58
v139h164z" />
    <glyph glyph-name="Egrave" unicode="&#xc8;" horiz-adv-x="764" 
d="M723 1365v-195h-407v-359h300v-195h-300v-421h407v-195h-619v1365h619zM467 1474h-144l-148 182h198z" />
    <glyph glyph-name="Eacute" unicode="&#xc9;" horiz-adv-x="764" 
d="M723 1365v-195h-407v-359h300v-195h-300v-421h407v-195h-619v1365h619zM284 1474l93 182h199l-148 -182h-144z" />
    <glyph glyph-name="Ecircumflex" unicode="&#xca;" horiz-adv-x="764" 
d="M723 1365v-195h-407v-359h300v-195h-300v-421h407v-195h-619v1365h619zM275 1656h214l128 -182h-171l-64 69l-64 -69h-172z" />
    <glyph glyph-name="Edieresis" unicode="&#xcb;" horiz-adv-x="764" 
d="M723 1365v-195h-407v-359h300v-195h-300v-421h407v-195h-619v1365h619zM313 1656v-182h-177v182h177zM628 1656v-182h-177v182h177z" />
    <glyph glyph-name="Igrave" unicode="&#xcc;" horiz-adv-x="419" 
d="M315 1365v-1365h-212v1365h212zM294 1474h-144l-148 182h198z" />
    <glyph glyph-name="Iacute" unicode="&#xcd;" horiz-adv-x="419" 
d="M316 1365v-1365h-212v1365h212zM112 1474l93 182h199l-148 -182h-144z" />
    <glyph glyph-name="Icircumflex" unicode="&#xce;" horiz-adv-x="419" 
d="M316 1365v-1365h-212v1365h212zM103 1656h214l128 -182h-171l-64 69l-64 -69h-172z" />
    <glyph glyph-name="Idieresis" unicode="&#xcf;" horiz-adv-x="419" 
d="M315 1365v-1365h-212v1365h212zM154 1656v-182h-177v182h177zM441 1656v-182h-177v182h177z" />
    <glyph glyph-name="Eth" unicode="&#xd0;" horiz-adv-x="929" 
d="M111 0v616h-48v195h48v554h334c264.667 0 396 -142.333 394 -427v-511c2 -284.667 -129.333 -427 -394 -427h-334zM323 195l103 -0.000976562c72.667 0.666992 124.334 22.334 155.001 65.001c20 27.333 32.667 59 38 95c5.33301 37.333 8 80.666 8 129.999v395
c0 60 -3.33301 106.5 -10 139.5s-18.667 61.5 -36 85.5c-30.667 42.667 -82.334 64.334 -155.001 65.001h-103v-359h157v-195h-157v-421z" />
    <glyph glyph-name="Ntilde" unicode="&#xd1;" horiz-adv-x="965" 
d="M861 1365v-1365h-190l-366 908v-908h-201v1365h212l344 -849v849h201zM278 1484v142c36.667 20.667 76 31 118 31c28.667 0 59 -5.33301 91 -16c44 -15.333 78 -23 102 -23c26 0 59 11.333 99 34v-142c-40 -22.667 -73 -34 -99 -34c-24 0 -58 7.66699 -102 23
c-32 10.667 -62.333 16 -91 16c-42 0 -81.333 -10.333 -118 -31z" />
    <glyph glyph-name="Ograve" unicode="&#xd2;" horiz-adv-x="926" 
d="M835 931l-0.000976562 -497c0 -76.667 -6 -140 -18 -190s-32 -94.333 -60 -133c-63.333 -87.333 -161.333 -131 -294 -131c-133.333 0 -231.666 43.667 -294.999 131c-33.333 46.667 -55 98.667 -65 156c-8.66699 51.333 -13 107 -13 167v497c0 76.667 6 140 18 190
s32 94.333 60 133c64 87.333 162.333 131 295 131s230.667 -43.667 294 -131c34 -46.667 55.667 -98.667 65 -156c8.66699 -51.333 13 -107 13 -167zM301.999 927l0.00195312 -489.001c0 -65.333 2.66699 -110 8 -134c19.333 -84 70.333 -126 153 -126
c63.333 0 107.666 24.667 132.999 74c14 26.667 22 56 24 88c2 26.667 3 59.334 3 98.001v489c0 66 -2.66699 111 -8 135c-18.667 83.333 -69.334 125 -152.001 125c-64 0 -108.667 -24.667 -134 -74c-14 -26.667 -22 -55.667 -24 -87c-2 -27.333 -3 -60.333 -3 -99z
M547.001 1474h-144l-148 182h198z" />
    <glyph glyph-name="Oacute" unicode="&#xd3;" horiz-adv-x="926" 
d="M835 931l-0.000976562 -497c0 -76.667 -6 -140 -18 -190s-32 -94.333 -60 -133c-63.333 -87.333 -161.333 -131 -294 -131c-133.333 0 -231.666 43.667 -294.999 131c-33.333 46.667 -55 98.667 -65 156c-8.66699 51.333 -13 107 -13 167v497c0 76.667 6 140 18 190
s32 94.333 60 133c64 87.333 162.333 131 295 131s230.667 -43.667 294 -131c34 -46.667 55.667 -98.667 65 -156c8.66699 -51.333 13 -107 13 -167zM301.999 927l0.00195312 -489.001c0 -65.333 2.66699 -110 8 -134c19.333 -84 70.333 -126 153 -126
c63.333 0 107.666 24.667 132.999 74c14 26.667 22 56 24 88c2 26.667 3 59.334 3 98.001v489c0 66 -2.66699 111 -8 135c-18.667 83.333 -69.334 125 -152.001 125c-64 0 -108.667 -24.667 -134 -74c-14 -26.667 -22 -55.667 -24 -87c-2 -27.333 -3 -60.333 -3 -99z
M365.001 1474l93 182h199l-148 -182h-144z" />
    <glyph glyph-name="Ocircumflex" unicode="&#xd4;" horiz-adv-x="926" 
d="M835 931l-0.000976562 -497c0 -76.667 -6 -140 -18 -190s-32 -94.333 -60 -133c-63.333 -87.333 -161.333 -131 -294 -131c-133.333 0 -231.666 43.667 -294.999 131c-33.333 46.667 -55 98.667 -65 156c-8.66699 51.333 -13 107 -13 167v497c0 76.667 6 140 18 190
s32 94.333 60 133c64 87.333 162.333 131 295 131s230.667 -43.667 294 -131c34 -46.667 55.667 -98.667 65 -156c8.66699 -51.333 13 -107 13 -167zM301.999 927l0.00195312 -489.001c0 -65.333 2.66699 -110 8 -134c19.333 -84 70.333 -126 153 -126
c63.333 0 107.666 24.667 132.999 74c14 26.667 22 56 24 88c2 26.667 3 59.334 3 98.001v489c0 66 -2.66699 111 -8 135c-18.667 83.333 -69.334 125 -152.001 125c-64 0 -108.667 -24.667 -134 -74c-14 -26.667 -22 -55.667 -24 -87c-2 -27.333 -3 -60.333 -3 -99z
M356.001 1656h214l128 -182h-171l-64 69l-64 -69h-172z" />
    <glyph glyph-name="Otilde" unicode="&#xd5;" horiz-adv-x="926" 
d="M835 931l-0.000976562 -497c0 -76.667 -6 -140 -18 -190s-32 -94.333 -60 -133c-63.333 -87.333 -161.333 -131 -294 -131c-133.333 0 -231.666 43.667 -294.999 131c-33.333 46.667 -55 98.667 -65 156c-8.66699 51.333 -13 107 -13 167v497c0 76.667 6 140 18 190
s32 94.333 60 133c64 87.333 162.333 131 295 131s230.667 -43.667 294 -131c34 -46.667 55.667 -98.667 65 -156c8.66699 -51.333 13 -107 13 -167zM301.999 927l0.00195312 -489.001c0 -65.333 2.66699 -110 8 -134c19.333 -84 70.333 -126 153 -126
c63.333 0 107.666 24.667 132.999 74c14 26.667 22 56 24 88c2 26.667 3 59.334 3 98.001v489c0 66 -2.66699 111 -8 135c-18.667 83.333 -69.334 125 -152.001 125c-64 0 -108.667 -24.667 -134 -74c-14 -26.667 -22 -55.667 -24 -87c-2 -27.333 -3 -60.333 -3 -99z
M258.001 1484v142c36.667 20.667 76 31 118 31c28.667 0 59 -5.33301 91 -16c44 -15.333 78 -23 102 -23c26 0 59 11.333 99 34v-142c-40 -22.667 -73 -34 -99 -34c-24 0 -58 7.66699 -102 23c-32 10.667 -62.333 16 -91 16c-42 0 -81.333 -10.333 -118 -31z" />
    <glyph glyph-name="Odieresis" unicode="&#xd6;" horiz-adv-x="926" 
d="M835 931l-0.000976562 -497c0 -76.667 -6 -140 -18 -190s-32 -94.333 -60 -133c-63.333 -87.333 -161.333 -131 -294 -131c-133.333 0 -231.666 43.667 -294.999 131c-33.333 46.667 -55 98.667 -65 156c-8.66699 51.333 -13 107 -13 167v497c0 76.667 6 140 18 190
s32 94.333 60 133c64 87.333 162.333 131 295 131s230.667 -43.667 294 -131c34 -46.667 55.667 -98.667 65 -156c8.66699 -51.333 13 -107 13 -167zM301.999 927l0.00195312 -489.001c0 -65.333 2.66699 -110 8 -134c19.333 -84 70.333 -126 153 -126
c63.333 0 107.666 24.667 132.999 74c14 26.667 22 56 24 88c2 26.667 3 59.334 3 98.001v489c0 66 -2.66699 111 -8 135c-18.667 83.333 -69.334 125 -152.001 125c-64 0 -108.667 -24.667 -134 -74c-14 -26.667 -22 -55.667 -24 -87c-2 -27.333 -3 -60.333 -3 -99z
M394.001 1656v-182h-177v182h177zM709.001 1656v-182h-177v182h177z" />
    <glyph glyph-name="multiply" unicode="&#xd7;" horiz-adv-x="840" 
d="M603 998l115 -115l-184 -184l181 -180l-117 -118l-181 181l-184 -184l-115 115l184 184l-177 177l117 118l177 -178z" />
    <glyph glyph-name="Oslash" unicode="&#xd8;" horiz-adv-x="926" 
d="M662 1410h110.001l-43 -122c31.333 -32.667 55.666 -71 72.999 -115c22 -52.667 33 -133.334 33 -242.001v-497c0 -76.667 -6 -140.167 -18 -190.5s-32 -94.5 -60 -132.5c-63.333 -87.333 -161 -131 -293 -131c-64 0 -124 12 -180 36l-21 -60h-110l43 121
c-32 34.667 -56.667 74.334 -74 119.001c-21.333 52 -32 131.333 -32 238v497c0 76.667 6 140.167 18 190.5s32 94.5 60 132.5c64 88 162 132 294 132c64 0 123.667 -12.333 179 -37zM570.001 1147c-28 27.333 -64.333 41 -109 41c-62.667 0 -106.667 -25 -132 -75
c-14 -26 -22 -55 -24 -87c-2 -27.333 -3 -60.333 -3 -99v-548zM355.001 218c29.333 -26.667 65.334 -40.001 108.001 -40.001c63.333 0 107.666 24.667 132.999 74c14 26.667 22 56 24 88c2 26.667 3 59.334 3 98.001v547z" />
    <glyph glyph-name="Ugrave" unicode="&#xd9;" horiz-adv-x="930" 
d="M614 1365h212v-925c0 -110 -9.66699 -191.667 -29 -245c-52 -143.333 -162.667 -215 -332 -215c-126 0 -220 41 -282 123c-36 47.333 -58.333 100.333 -67 159c-8 52.667 -12 112 -12 178v925h212v-959c0 -77.333 10 -133 30 -167c24 -40.667 63.667 -61 119 -61
s95 20.333 119 61c20 33.333 30 89 30 167v959zM550 1474h-144l-148 182h198z" />
    <glyph glyph-name="Uacute" unicode="&#xda;" horiz-adv-x="930" 
d="M614 1365h212v-925c0 -110 -9.66699 -191.667 -29 -245c-52 -143.333 -162.667 -215 -332 -215c-126 0 -220 41 -282 123c-36 47.333 -58.333 100.333 -67 159c-8 52.667 -12 112 -12 178v925h212v-959c0 -77.333 10 -133 30 -167c24 -40.667 63.667 -61 119 -61
s95 20.333 119 61c20 33.333 30 89 30 167v959zM367 1474l93 182h199l-148 -182h-144z" />
    <glyph glyph-name="Ucircumflex" unicode="&#xdb;" horiz-adv-x="930" 
d="M614 1365h212v-925c0 -110 -9.66699 -191.667 -29 -245c-52 -143.333 -162.667 -215 -332 -215c-126 0 -220 41 -282 123c-36 47.333 -58.333 100.333 -67 159c-8 52.667 -12 112 -12 178v925h212v-959c0 -77.333 10 -133 30 -167c24 -40.667 63.667 -61 119 -61
s95 20.333 119 61c20 33.333 30 89 30 167v959zM358 1656h214l128 -182h-171l-64 69l-64 -69h-172z" />
    <glyph glyph-name="Udieresis" unicode="&#xdc;" horiz-adv-x="930" 
d="M614 1365h212v-925c0 -110 -9.66699 -191.667 -29 -245c-52 -143.333 -162.667 -215 -332 -215c-126 0 -220 41 -282 123c-36 47.333 -58.333 100.333 -67 159c-8 52.667 -12 112 -12 178v925h212v-959c0 -77.333 10 -133 30 -167c24 -40.667 63.667 -61 119 -61
s95 20.333 119 61c20 33.333 30 89 30 167v959zM396 1656v-182h-177v182h177zM711 1656v-182h-177v182h177z" />
    <glyph glyph-name="Yacute" unicode="&#xdd;" horiz-adv-x="902" 
d="M552 533v-533h-212v533l-306 832h233l182 -577l189 577h229zM353 1474l93 182h199l-148 -182h-144z" />
    <glyph glyph-name="Thorn" unicode="&#xde;" horiz-adv-x="890" 
d="M316 342v-342h-212v1365h212v-211h139c68.667 0 125.667 -6.83301 171 -20.5s84 -36.167 116 -67.5c72 -69.333 108 -175.333 108 -318s-36 -248.667 -108 -318c-32 -31.333 -70.5 -53.833 -115.5 -67.5s-102.167 -20.5 -171.5 -20.5h-139zM316 537h92
c77.333 0 132 12.333 164 37c40 30 60 88 60 174s-20 144 -60 174c-31.333 24.667 -86 37 -164 37h-92v-422z" />
    <glyph glyph-name="germandbls" unicode="&#xdf;" horiz-adv-x="791" 
d="M280 0l-191.001 -0.00292969v1005c0 96 9.33301 166 28 210c26 60 66.667 104.667 122 134c39.333 20 84.666 30 135.999 30c78 0 141 -23.667 189 -71c52 -50 78 -115 78 -195c0 -78 -32.667 -139.667 -98 -185c55.333 -19.333 95.333 -50.666 120 -93.999
c30 -52.667 45 -160 45 -322c0 -208.667 -21.667 -346.667 -65 -414c-27.333 -42 -60.666 -70.333 -99.999 -85c-26.667 -10.667 -61.667 -16 -105 -16c-19.333 0 -38.666 1 -57.999 3v185h18c32.667 0 56.667 10.333 72 31c17.333 22.667 28.333 67.334 33 134.001
c2.66699 38.667 4 89.334 4 152.001c0 153.333 -15 249.666 -45 288.999c-20.667 26.667 -62 40.667 -124 42v184c74.667 0 112 32.333 112 97c0 28.667 -8 51.334 -24 68.001c-14.667 15.333 -33.667 23 -57 23c-60 0 -90 -52 -90 -156v-1049z" />
    <glyph glyph-name="agrave" unicode="&#xe0;" horiz-adv-x="810" 
d="M726 0l-197.998 -0.000976562c-10.667 29.333 -16 69 -16 119c-32 -34.667 -60.333 -61.667 -85 -81c-45.333 -34.667 -94 -52 -146 -52c-63.333 0 -112.333 22.333 -147 67c-39.333 50 -59 117.667 -59 203c0 72 17 132 51 180c37.333 54 115.666 108.333 234.999 163
c30 14 80.333 36 151 66v54c0 52 -7.33301 88.333 -22 109c-16.667 24 -42.667 36 -78 36c-40 0 -70 -16 -90 -48c-12 -20 -19.667 -52.333 -23 -97h-201c7.33301 91.333 34.333 162 81 212c61.333 66.667 147.666 100 258.999 100c94 0 163.667 -26 209 -78
c26.667 -31.333 43 -65.666 49 -102.999c4.66699 -30.667 7 -71 7 -121v-453c-0.666992 -122 7 -214 23 -276zM512.002 523.999c-64 -34 -114.333 -66.667 -151 -98c-56 -48.667 -84 -101.667 -84 -159c0 -33.333 9 -60.333 27 -81c18.667 -22 41.667 -33 69 -33
c54.667 0 101 30.667 139 92v279zM490.002 1183h-144l-148 182h198z" />
    <glyph glyph-name="aacute" unicode="&#xe1;" horiz-adv-x="810" 
d="M726 0l-197.998 -0.000976562c-10.667 29.333 -16 69 -16 119c-32 -34.667 -60.333 -61.667 -85 -81c-45.333 -34.667 -94 -52 -146 -52c-63.333 0 -112.333 22.333 -147 67c-39.333 50 -59 117.667 -59 203c0 72 17 132 51 180c37.333 54 115.666 108.333 234.999 163
c30 14 80.333 36 151 66v54c0 52 -7.33301 88.333 -22 109c-16.667 24 -42.667 36 -78 36c-40 0 -70 -16 -90 -48c-12 -20 -19.667 -52.333 -23 -97h-201c7.33301 91.333 34.333 162 81 212c61.333 66.667 147.666 100 258.999 100c94 0 163.667 -26 209 -78
c26.667 -31.333 43 -65.666 49 -102.999c4.66699 -30.667 7 -71 7 -121v-453c-0.666992 -122 7 -214 23 -276zM512.002 523.999c-64 -34 -114.333 -66.667 -151 -98c-56 -48.667 -84 -101.667 -84 -159c0 -33.333 9 -60.333 27 -81c18.667 -22 41.667 -33 69 -33
c54.667 0 101 30.667 139 92v279zM307.002 1183l93 182h199l-148 -182h-144z" />
    <glyph glyph-name="acircumflex" unicode="&#xe2;" horiz-adv-x="810" 
d="M726 0l-197.998 -0.000976562c-10.667 29.333 -16 69 -16 119c-32 -34.667 -60.333 -61.667 -85 -81c-45.333 -34.667 -94 -52 -146 -52c-63.333 0 -112.333 22.333 -147 67c-39.333 50 -59 117.667 -59 203c0 72 17 132 51 180c37.333 54 115.666 108.333 234.999 163
c30 14 80.333 36 151 66v54c0 52 -7.33301 88.333 -22 109c-16.667 24 -42.667 36 -78 36c-40 0 -70 -16 -90 -48c-12 -20 -19.667 -52.333 -23 -97h-201c7.33301 91.333 34.333 162 81 212c61.333 66.667 147.666 100 258.999 100c94 0 163.667 -26 209 -78
c26.667 -31.333 43 -65.666 49 -102.999c4.66699 -30.667 7 -71 7 -121v-453c-0.666992 -122 7 -214 23 -276zM512.002 523.999c-64 -34 -114.333 -66.667 -151 -98c-56 -48.667 -84 -101.667 -84 -159c0 -33.333 9 -60.333 27 -81c18.667 -22 41.667 -33 69 -33
c54.667 0 101 30.667 139 92v279zM298.002 1365h214l128 -182h-171l-64 69l-64 -69h-172z" />
    <glyph glyph-name="atilde" unicode="&#xe3;" horiz-adv-x="810" 
d="M726 0l-197.998 -0.000976562c-10.667 29.333 -16 69 -16 119c-32 -34.667 -60.333 -61.667 -85 -81c-45.333 -34.667 -94 -52 -146 -52c-63.333 0 -112.333 22.333 -147 67c-39.333 50 -59 117.667 -59 203c0 72 17 132 51 180c37.333 54 115.666 108.333 234.999 163
c30 14 80.333 36 151 66v54c0 52 -7.33301 88.333 -22 109c-16.667 24 -42.667 36 -78 36c-40 0 -70 -16 -90 -48c-12 -20 -19.667 -52.333 -23 -97h-201c7.33301 91.333 34.333 162 81 212c61.333 66.667 147.666 100 258.999 100c94 0 163.667 -26 209 -78
c26.667 -31.333 43 -65.666 49 -102.999c4.66699 -30.667 7 -71 7 -121v-453c-0.666992 -122 7 -214 23 -276zM512.002 523.999c-64 -34 -114.333 -66.667 -151 -98c-56 -48.667 -84 -101.667 -84 -159c0 -33.333 9 -60.333 27 -81c18.667 -22 41.667 -33 69 -33
c54.667 0 101 30.667 139 92v279zM200.002 1193v142c37.333 20 76.666 30 117.999 30c28.667 0 59 -5.33301 91 -16c44.667 -15.333 78.667 -23 102 -23c26 0 59 11.667 99 35v-142c-40.667 -23.333 -73.667 -35 -99 -35c-23.333 0 -57.333 7.66699 -102 23
c-32 10.667 -62.333 16 -91 16c-41.333 0 -80.666 -10 -117.999 -30z" />
    <glyph glyph-name="adieresis" unicode="&#xe4;" horiz-adv-x="810" 
d="M726 0l-197.998 -0.000976562c-10.667 29.333 -16 69 -16 119c-32 -34.667 -60.333 -61.667 -85 -81c-45.333 -34.667 -94 -52 -146 -52c-63.333 0 -112.333 22.333 -147 67c-39.333 50 -59 117.667 -59 203c0 72 17 132 51 180c37.333 54 115.666 108.333 234.999 163
c30 14 80.333 36 151 66v54c0 52 -7.33301 88.333 -22 109c-16.667 24 -42.667 36 -78 36c-40 0 -70 -16 -90 -48c-12 -20 -19.667 -52.333 -23 -97h-201c7.33301 91.333 34.333 162 81 212c61.333 66.667 147.666 100 258.999 100c94 0 163.667 -26 209 -78
c26.667 -31.333 43 -65.666 49 -102.999c4.66699 -30.667 7 -71 7 -121v-453c-0.666992 -122 7 -214 23 -276zM512.002 523.999c-64 -34 -114.333 -66.667 -151 -98c-56 -48.667 -84 -101.667 -84 -159c0 -33.333 9 -60.333 27 -81c18.667 -22 41.667 -33 69 -33
c54.667 0 101 30.667 139 92v279zM345.002 1365v-182h-177v182h177zM660.002 1365v-182h-177v182h177z" />
    <glyph glyph-name="aring" unicode="&#xe5;" horiz-adv-x="810" 
d="M726 0l-197.998 -0.000976562c-10.667 29.333 -16 69 -16 119c-32 -34.667 -60.333 -61.667 -85 -81c-45.333 -34.667 -94 -52 -146 -52c-63.333 0 -112.333 22.333 -147 67c-39.333 50 -59 117.667 -59 203c0 72 17 132 51 180c37.333 54 115.666 108.333 234.999 163
c30 14 80.333 36 151 66v54c0 52 -7.33301 88.333 -22 109c-16.667 24 -42.667 36 -78 36c-40 0 -70 -16 -90 -48c-12 -20 -19.667 -52.333 -23 -97h-201c7.33301 91.333 34.333 162 81 212c61.333 66.667 147.666 100 258.999 100c94 0 163.667 -26 209 -78
c26.667 -31.333 43 -65.666 49 -102.999c4.66699 -30.667 7 -71 7 -121v-453c-0.666992 -122 7 -214 23 -276zM512.002 523.999c-64 -34 -114.333 -66.667 -151 -98c-56 -48.667 -84 -101.667 -84 -159c0 -33.333 9 -60.333 27 -81c18.667 -22 41.667 -33 69 -33
c54.667 0 101 30.667 139 92v279zM416.002 1416c39.333 0 73.998 -14 103.998 -42c29.333 -26.667 44 -60 44 -100c0 -40.667 -14.667 -74.667 -44 -102c-29.333 -28 -64.666 -42 -105.999 -42s-76.666 14 -105.999 42s-44 62 -44 102c0 40.667 14.667 74 44 100
c31.333 28 67.333 42 108 42zM413 1345c-19.333 0 -36.668 -7 -52.001 -21c-14.667 -14 -22 -31 -22 -51s7.33301 -37 22 -51c15.333 -14 33 -21 53 -21c20.667 0 38.334 7 53.001 21s22 31 22 51c0 20.667 -7.33301 37.667 -22 51c-15.333 14 -33.333 21 -54 21z" />
    <glyph glyph-name="ae" unicode="&#xe6;" horiz-adv-x="1227" 
d="M1142 478l-439.998 0.00195312v-92c0 -86.667 8 -146 24 -178c19.333 -36.667 54.333 -55 105 -55c82 0 123 56.333 123 169c0 6 -0.333008 16 -1 30h191c0.666992 -20 1 -34.333 1 -43c0 -104.667 -23.667 -182.334 -71 -233.001c-56 -60 -137 -90 -243 -90
c-124.667 0 -213.667 38.667 -267 116c-36.667 -31.333 -68.667 -55 -96 -71c-52.667 -30 -107.667 -45 -165 -45c-70.667 0 -125.667 22.333 -165 67c-42.667 49.333 -64 117.666 -64 204.999c0 70.667 16.667 130 50 178c38 54 116.667 108.333 236 163
c30 14 80.333 36 151 66v54c0 52 -7.33301 88.333 -22 109c-16.667 24 -42.667 36 -78 36c-40 0 -70 -16 -90 -48c-12 -20 -19.667 -52.333 -23 -97h-201c7.33301 91.333 34.333 162 81 212c62 66.667 147.667 100 257 100c79.333 0 141.333 -17.333 186 -52
c55.333 34.667 123 52 203 52c105.333 0 185.666 -30.667 240.999 -92c33.333 -37.333 54.666 -79.333 63.999 -126c8.66699 -47.333 13 -103 13 -167v-168zM511.002 524.002c-64 -33.333 -114.333 -66 -151 -98c-56 -48.667 -84 -101.667 -84 -159
c0 -33.333 9 -60.333 27 -81c18.667 -22 41.667 -33 69 -33c54.667 0 101 30.667 139 92v279zM951.002 645.002v55c0 56 -8 97.333 -24 124c-20 31.333 -53.667 47 -101 47c-46.667 0 -80 -15.667 -100 -47c-16 -26 -24 -67.333 -24 -124v-55h249z" />
    <glyph glyph-name="ccedilla" unicode="&#xe7;" horiz-adv-x="773" 
d="M715 665l-191.001 0.000976562c0.666992 15.333 1 26.333 1 33c0 110 -41 165 -123 165c-50.667 0 -85.667 -18.333 -105 -55c-16 -31.333 -24 -90.333 -24 -177v-246c0 -86 8 -144.667 24 -176c19.333 -36.667 54 -55 104 -55c82.667 0 124 57.333 124 172
c0 7.33301 -0.333008 19 -1 35h191c0.666992 -22.667 1 -38.334 1 -47.001c0 -222.667 -104.667 -334 -314 -334c-117.333 0 -202.666 35.667 -255.999 107c-28 37.333 -45.667 79 -53 125c-7.33301 44 -11 93.667 -11 149v294c0 91.333 8.33301 159 25 203
c44 119.333 142.333 179 295 179c209.333 0 314 -108.667 314 -326c0 -8.66699 -0.333008 -24 -1 -46zM480.999 -94.999v-139l-45 -114h-97l36 114h-58v139h164z" />
    <glyph glyph-name="egrave" unicode="&#xe8;" horiz-adv-x="798" 
d="M713 478l-439.999 -0.000976562v-92c0 -86.667 8 -145.667 24 -177c19.333 -36.667 54.333 -55 105 -55c82 0 123 56 123 168v30h191v-43c0 -106 -23.667 -185.333 -71 -238c-54.667 -60.667 -135.667 -91 -243 -91c-118 0 -203.333 35.667 -256 107
c-28 37.333 -45.667 79 -53 125c-7.33301 44.667 -11 94.667 -11 150v304c0 104 10.333 177 31 219c49.333 101.333 143.666 152 282.999 152c104 0 184 -31.333 240 -94c34 -37.333 55.333 -80 64 -128c8.66699 -47.333 13 -103.666 13 -168.999v-168zM522.001 644.999
l-0.000976562 55c0 56 -8.33301 97 -25 123c-19.333 31.333 -52.666 47 -99.999 47c-46.667 0 -80 -15.667 -100 -47c-16 -26 -24 -67 -24 -123v-55h249zM484 1183h-144l-148 182h198z" />
    <glyph glyph-name="eacute" unicode="&#xe9;" horiz-adv-x="798" 
d="M713 478l-439.999 -0.000976562v-92c0 -86.667 8 -145.667 24 -177c19.333 -36.667 54.333 -55 105 -55c82 0 123 56 123 168v30h191v-43c0 -106 -23.667 -185.333 -71 -238c-54.667 -60.667 -135.667 -91 -243 -91c-118 0 -203.333 35.667 -256 107
c-28 37.333 -45.667 79 -53 125c-7.33301 44.667 -11 94.667 -11 150v304c0 104 10.333 177 31 219c49.333 101.333 143.666 152 282.999 152c104 0 184 -31.333 240 -94c34 -37.333 55.333 -80 64 -128c8.66699 -47.333 13 -103.666 13 -168.999v-168zM522.001 644.999
l-0.000976562 55c0 56 -8.33301 97 -25 123c-19.333 31.333 -52.666 47 -99.999 47c-46.667 0 -80 -15.667 -100 -47c-16 -26 -24 -67 -24 -123v-55h249zM301 1183l93 182h199l-148 -182h-144z" />
    <glyph glyph-name="ecircumflex" unicode="&#xea;" horiz-adv-x="798" 
d="M713 478l-439.999 -0.000976562v-92c0 -86.667 8 -145.667 24 -177c19.333 -36.667 54.333 -55 105 -55c82 0 123 56 123 168v30h191v-43c0 -106 -23.667 -185.333 -71 -238c-54.667 -60.667 -135.667 -91 -243 -91c-118 0 -203.333 35.667 -256 107
c-28 37.333 -45.667 79 -53 125c-7.33301 44.667 -11 94.667 -11 150v304c0 104 10.333 177 31 219c49.333 101.333 143.666 152 282.999 152c104 0 184 -31.333 240 -94c34 -37.333 55.333 -80 64 -128c8.66699 -47.333 13 -103.666 13 -168.999v-168zM522.001 644.999
l-0.000976562 55c0 56 -8.33301 97 -25 123c-19.333 31.333 -52.666 47 -99.999 47c-46.667 0 -80 -15.667 -100 -47c-16 -26 -24 -67 -24 -123v-55h249zM292 1365h214l128 -182h-171l-64 69l-64 -69h-172z" />
    <glyph glyph-name="edieresis" unicode="&#xeb;" horiz-adv-x="798" 
d="M713 478l-439.999 -0.000976562v-92c0 -86.667 8 -145.667 24 -177c19.333 -36.667 54.333 -55 105 -55c82 0 123 56 123 168v30h191v-43c0 -106 -23.667 -185.333 -71 -238c-54.667 -60.667 -135.667 -91 -243 -91c-118 0 -203.333 35.667 -256 107
c-28 37.333 -45.667 79 -53 125c-7.33301 44.667 -11 94.667 -11 150v304c0 104 10.333 177 31 219c49.333 101.333 143.666 152 282.999 152c104 0 184 -31.333 240 -94c34 -37.333 55.333 -80 64 -128c8.66699 -47.333 13 -103.666 13 -168.999v-168zM522.001 644.999
l-0.000976562 55c0 56 -8.33301 97 -25 123c-19.333 31.333 -52.666 47 -99.999 47c-46.667 0 -80 -15.667 -100 -47c-16 -26 -24 -67 -24 -123v-55h249zM330 1365v-182h-177v182h177zM645 1365v-182h-177v182h177z" />
    <glyph glyph-name="igrave" unicode="&#xec;" horiz-adv-x="369" 
d="M280 1017v-1017h-191v1017h191zM269 1183h-144l-148 182h198z" />
    <glyph glyph-name="iacute" unicode="&#xed;" horiz-adv-x="369" 
d="M279 1017v-1017h-191v1017h191zM86 1183l93 182h199l-148 -182h-144z" />
    <glyph glyph-name="icircumflex" unicode="&#xee;" horiz-adv-x="369" 
d="M280 1017v-1017h-191v1017h191zM78 1365h214l128 -182h-171l-64 69l-64 -69h-172z" />
    <glyph glyph-name="idieresis" unicode="&#xef;" horiz-adv-x="369" 
d="M280 1017v-1017h-191v1017h191zM129 1365v-182h-177v182h177zM416 1365v-182h-177v182h177z" />
    <glyph glyph-name="eth" unicode="&#xf0;" horiz-adv-x="788" 
d="M477 1337l108.003 97l60 -66l-105 -94c110.667 -123.333 166 -285.666 166 -486.999v-436c0 -103.333 -10.333 -176.333 -31 -219c-48.667 -101.333 -142.334 -152 -281.001 -152c-98.667 0 -175.667 27.667 -231 83c-36.667 35.333 -59.334 76.666 -68.001 123.999
c-8.66699 44 -13 98.667 -13 164v280c0 96.667 5.66699 167 17 211c30 121.333 99.667 182 209 182c66.667 0 135.667 -28.333 207 -85c-16.667 84 -47.334 160.333 -92.001 229l-96 -86l-60 66l99 89c-19.333 20.667 -39 40 -59 58l95 99
c32.667 -22.667 57.667 -41.667 75 -57zM273.003 677v-337c0 -63.333 9 -109.333 27 -138c20.667 -32 52 -48 94 -48s73.333 16 94 48c18 28 27 74 27 138v337c0 64 -9 110.333 -27 139c-20.667 32 -52 48 -94 48s-73.333 -16 -94 -48c-18 -28.667 -27 -75 -27 -139z" />
    <glyph glyph-name="ntilde" unicode="&#xf1;" horiz-adv-x="788" 
d="M280 1017l-0.000976562 -131c84 96.667 168 145 252 145c111.333 0 167 -78.667 167 -236v-795h-191v745c0 45.333 -5 75.333 -15 90c-12 19.333 -30.667 29 -56 29c-55.333 0 -107.666 -34.333 -156.999 -103v-761h-191v1017h191zM188.999 1193v142
c37.333 20 76.666 30 117.999 30c28.667 0 59 -5.33301 91 -16c44.667 -15.333 78.667 -23 102 -23c26 0 59 11.667 99 35v-142c-40.667 -23.333 -73.667 -35 -99 -35c-23.333 0 -57.333 7.66699 -102 23c-32 10.667 -62.333 16 -91 16c-41.333 0 -80.666 -10 -117.999 -30z
" />
    <glyph glyph-name="ograve" unicode="&#xf2;" horiz-adv-x="788" 
d="M706 666v-315c0 -103.333 -10.333 -176.333 -31 -219c-48.667 -101.333 -142.334 -152 -281.001 -152c-98.667 0 -175.667 27.667 -231 83c-36.667 35.333 -59.334 76.666 -68.001 123.999c-8.66699 44 -13 98.667 -13 164v315c0 103.333 10.333 176.333 31 219
c48.667 101.333 142.334 152 281.001 152c98.667 0 175.667 -27.667 231 -83c36.667 -35.333 59.334 -76.666 68.001 -123.999c8.66699 -44 13 -98.667 13 -164zM273 677v-337c0 -63.333 9 -109.333 27 -138c20.667 -32 52 -48 94 -48s73.333 16 94 48c18 28 27 74 27 138
v337c0 64 -9 110 -27 138c-20.667 32 -52 48 -94 48s-73.333 -16 -94 -48c-18 -28 -27 -74 -27 -138zM479 1183h-144l-148 182h198z" />
    <glyph glyph-name="oacute" unicode="&#xf3;" horiz-adv-x="788" 
d="M706 666v-315c0 -103.333 -10.333 -176.333 -31 -219c-48.667 -101.333 -142.334 -152 -281.001 -152c-98.667 0 -175.667 27.667 -231 83c-36.667 35.333 -59.334 76.666 -68.001 123.999c-8.66699 44 -13 98.667 -13 164v315c0 103.333 10.333 176.333 31 219
c48.667 101.333 142.334 152 281.001 152c98.667 0 175.667 -27.667 231 -83c36.667 -35.333 59.334 -76.666 68.001 -123.999c8.66699 -44 13 -98.667 13 -164zM273 677v-337c0 -63.333 9 -109.333 27 -138c20.667 -32 52 -48 94 -48s73.333 16 94 48c18 28 27 74 27 138
v337c0 64 -9 110 -27 138c-20.667 32 -52 48 -94 48s-73.333 -16 -94 -48c-18 -28 -27 -74 -27 -138zM296 1183l93 182h199l-148 -182h-144z" />
    <glyph glyph-name="ocircumflex" unicode="&#xf4;" horiz-adv-x="788" 
d="M706 666v-315c0 -103.333 -10.333 -176.333 -31 -219c-48.667 -101.333 -142.334 -152 -281.001 -152c-98.667 0 -175.667 27.667 -231 83c-36.667 35.333 -59.334 76.666 -68.001 123.999c-8.66699 44 -13 98.667 -13 164v315c0 103.333 10.333 176.333 31 219
c48.667 101.333 142.334 152 281.001 152c98.667 0 175.667 -27.667 231 -83c36.667 -35.333 59.334 -76.666 68.001 -123.999c8.66699 -44 13 -98.667 13 -164zM273 677v-337c0 -63.333 9 -109.333 27 -138c20.667 -32 52 -48 94 -48s73.333 16 94 48c18 28 27 74 27 138
v337c0 64 -9 110 -27 138c-20.667 32 -52 48 -94 48s-73.333 -16 -94 -48c-18 -28 -27 -74 -27 -138zM287 1365h214l128 -182h-171l-64 69l-64 -69h-172z" />
    <glyph glyph-name="otilde" unicode="&#xf5;" horiz-adv-x="788" 
d="M706 666v-315c0 -103.333 -10.333 -176.333 -31 -219c-48.667 -101.333 -142.334 -152 -281.001 -152c-98.667 0 -175.667 27.667 -231 83c-36.667 35.333 -59.334 76.666 -68.001 123.999c-8.66699 44 -13 98.667 -13 164v315c0 103.333 10.333 176.333 31 219
c48.667 101.333 142.334 152 281.001 152c98.667 0 175.667 -27.667 231 -83c36.667 -35.333 59.334 -76.666 68.001 -123.999c8.66699 -44 13 -98.667 13 -164zM273 677v-337c0 -63.333 9 -109.333 27 -138c20.667 -32 52 -48 94 -48s73.333 16 94 48c18 28 27 74 27 138
v337c0 64 -9 110 -27 138c-20.667 32 -52 48 -94 48s-73.333 -16 -94 -48c-18 -28 -27 -74 -27 -138zM189 1193v142c37.333 20 76.666 30 117.999 30c28.667 0 59 -5.33301 91 -16c44.667 -15.333 78.667 -23 102 -23c26 0 59 11.667 99 35v-142
c-40.667 -23.333 -73.667 -35 -99 -35c-23.333 0 -57.333 7.66699 -102 23c-32 10.667 -62.333 16 -91 16c-41.333 0 -80.666 -10 -117.999 -30z" />
    <glyph glyph-name="odieresis" unicode="&#xf6;" horiz-adv-x="788" 
d="M706 666v-315c0 -103.333 -10.333 -176.333 -31 -219c-48.667 -101.333 -142.334 -152 -281.001 -152c-98.667 0 -175.667 27.667 -231 83c-36.667 35.333 -59.334 76.666 -68.001 123.999c-8.66699 44 -13 98.667 -13 164v315c0 103.333 10.333 176.333 31 219
c48.667 101.333 142.334 152 281.001 152c98.667 0 175.667 -27.667 231 -83c36.667 -35.333 59.334 -76.666 68.001 -123.999c8.66699 -44 13 -98.667 13 -164zM273 677v-337c0 -63.333 9 -109.333 27 -138c20.667 -32 52 -48 94 -48s73.333 16 94 48c18 28 27 74 27 138
v337c0 64 -9 110 -27 138c-20.667 32 -52 48 -94 48s-73.333 -16 -94 -48c-18 -28 -27 -74 -27 -138zM325 1365v-182h-177v182h177zM640 1365v-182h-177v182h177z" />
    <glyph glyph-name="divide" unicode="&#xf7;" horiz-adv-x="840" 
d="M763 780v-162h-686v162h686zM504 508v-187h-169v187h169zM504 1072v-187h-169v187h169z" />
    <glyph glyph-name="oslash" unicode="&#xf8;" horiz-adv-x="788" 
d="M541 1099h95.999l-40 -120c34 -26.667 60 -57 78 -91c20 -38 30.333 -112 31 -222v-315c0 -103.333 -10.333 -176.333 -31 -219c-27.333 -58 -71.666 -100 -132.999 -126c-43.333 -18 -92.333 -27 -147 -27c-44 0 -86.333 6.66699 -127 20l-27 -81h-95l41 123
c-10 7.33301 -18 14.333 -24 21c-36.667 38 -59.334 79.667 -68.001 125c-8.66699 40 -13 94.667 -13 164v315c0 103.333 10.333 176.333 31 219c48.667 102 143.334 153 284.001 153c44 0 83.333 -6 118 -18zM456.999 846c-20 12 -40.666 18 -61.999 18
c-42.667 0 -74.334 -16 -95.001 -48c-18 -28.667 -27 -75 -27 -139v-378zM327 174c21.333 -14 43.667 -21 67 -21c42 0 73.333 16 94 48c18 28.667 27 75 27 139v395z" />
    <glyph glyph-name="ugrave" unicode="&#xf9;" horiz-adv-x="788" 
d="M699 1017l0.000976562 -1017h-191v131c-84 -96.667 -168 -145 -252 -145c-111.333 0 -167 78.667 -167 236v795h191v-744c0 -46 5 -76.333 15 -91c12 -19.333 30.667 -29 56 -29c55.333 0 107.666 34.333 156.999 103v761h191zM479.001 1183h-144l-148 182h198z" />
    <glyph glyph-name="uacute" unicode="&#xfa;" horiz-adv-x="788" 
d="M699 1017l0.000976562 -1017h-191v131c-84 -96.667 -168 -145 -252 -145c-111.333 0 -167 78.667 -167 236v795h191v-744c0 -46 5 -76.333 15 -91c12 -19.333 30.667 -29 56 -29c55.333 0 107.666 34.333 156.999 103v761h191zM296.001 1183l93 182h199l-148 -182h-144z
" />
    <glyph glyph-name="ucircumflex" unicode="&#xfb;" horiz-adv-x="788" 
d="M699 1017l0.000976562 -1017h-191v131c-84 -96.667 -168 -145 -252 -145c-111.333 0 -167 78.667 -167 236v795h191v-744c0 -46 5 -76.333 15 -91c12 -19.333 30.667 -29 56 -29c55.333 0 107.666 34.333 156.999 103v761h191zM287.001 1365h214l128 -182h-171l-64 69
l-64 -69h-172z" />
    <glyph glyph-name="udieresis" unicode="&#xfc;" horiz-adv-x="788" 
d="M699 1017l0.000976562 -1017h-191v131c-84 -96.667 -168 -145 -252 -145c-111.333 0 -167 78.667 -167 236v795h191v-744c0 -46 5 -76.333 15 -91c12 -19.333 30.667 -29 56 -29c55.333 0 107.666 34.333 156.999 103v761h191zM325.001 1365v-182h-177v182h177z
M640.001 1365v-182h-177v182h177z" />
    <glyph glyph-name="yacute" unicode="&#xfd;" horiz-adv-x="725" 
d="M507 1017h196.998l-221 -974c-30 -130.667 -56 -214.667 -78 -252c-45.333 -79.333 -113.666 -127 -204.999 -143c-37.333 -6 -87 -9.33301 -149 -10v196c12.667 -0.666992 23 -1 31 -1c50.667 0 91.334 13.333 122.001 40c35.333 31.333 53 73.333 53 126
c0 23.333 -4.33301 53.333 -13 90l-224 928h201l149 -695zM263.998 1183l93 182h199l-148 -182h-144z" />
    <glyph glyph-name="thorn" unicode="&#xfe;" horiz-adv-x="792" 
d="M89 1365l190.999 0.000976562v-449c80 76.667 155 115 225 115c76.667 0 131 -35 163 -105c20 -42.667 32 -88 36 -136s6 -101 6 -159v-245c0 -98.667 -5 -170.334 -15 -215.001c-27.333 -123.333 -90.666 -185 -189.999 -185c-70.667 0 -145.667 38.333 -225 115v-449
h-191v1713zM279.999 205.001c48.667 -34.667 93 -52 133 -52c42.667 0 71.667 17.667 87 53c12.667 28 19 84.333 19 169v267c0 64 -2 105.667 -6 125c-12 64.667 -45.333 97 -100 97c-40.667 0 -85 -17 -133 -51v-608z" />
    <glyph glyph-name="ydieresis" unicode="&#xff;" horiz-adv-x="725" 
d="M507 1017h196.998l-221 -974c-30 -130.667 -56 -214.667 -78 -252c-45.333 -79.333 -113.666 -127 -204.999 -143c-37.333 -6 -87 -9.33301 -149 -10v196c12.667 -0.666992 23 -1 31 -1c50.667 0 91.334 13.333 122.001 40c35.333 31.333 53 73.333 53 126
c0 23.333 -4.33301 53.333 -13 90l-224 928h201l149 -695zM292.998 1365v-182h-177v182h177zM607.998 1365v-182h-177v182h177z" />
    <glyph glyph-name="Cacute" unicode="&#x106;" horiz-adv-x="909" 
d="M356 1474l93 182h199l-148 -182h-144zM830 921h-211v28c0 158.667 -53.333 238 -160 238c-58 0 -99.667 -22.333 -125 -67c-15.333 -28 -24.666 -58 -27.999 -90c-2.66699 -30.667 -4 -66 -4 -106v-454c0 -95.333 7.66699 -163.333 23 -204
c22.667 -58.667 68.334 -88 137.001 -88c108.667 0 163 89.333 163 268v34h211c0.666992 -23.333 1 -40.333 1 -51c0 -132 -26.667 -236.667 -80 -314c-62.667 -90 -161 -135 -295 -135c-142 0 -244 50.667 -306 152c-32.667 52.667 -52 111 -58 175
c-5.33301 53.333 -8 117.333 -8 192v381c0 130.667 8.33301 221.334 25 272.001c29.333 90.667 82.666 155 159.999 193c53.333 26.667 114.666 40 183.999 40c116 0 206.333 -35.667 271 -107c67.333 -74.667 101 -179 101 -313c0 -10.667 -0.333008 -25.334 -1 -44.001z
" />
    <glyph glyph-name="cacute" unicode="&#x107;" horiz-adv-x="773" 
d="M289 1183l93 182h199l-148 -182h-144zM715 665l-191.001 0.000976562c0.666992 15.333 1 26.333 1 33c0 110 -41 165 -123 165c-50.667 0 -85.667 -18.333 -105 -55c-16 -31.333 -24 -90.333 -24 -177v-246c0 -86 8 -144.667 24 -176c19.333 -36.667 54 -55 104 -55
c82.667 0 124 57.333 124 172c0 7.33301 -0.333008 19 -1 35h191c0.666992 -22.667 1 -38.334 1 -47.001c0 -222.667 -104.667 -334 -314 -334c-117.333 0 -202.666 35.667 -255.999 107c-28 37.333 -45.667 79 -53 125c-7.33301 44 -11 93.667 -11 149v294
c0 91.333 8.33301 159 25 203c44 119.333 142.333 179 295 179c209.333 0 314 -108.667 314 -326c0 -8.66699 -0.333008 -24 -1 -46z" />
    <glyph glyph-name="Ccaron" unicode="&#x10c;" horiz-adv-x="909" 
d="M562 1474h-214l-129 182h172l64 -69l64 69h171zM830 921h-211v28c0 158.667 -53.333 238 -160 238c-58 0 -99.667 -22.333 -125 -67c-15.333 -28 -24.666 -58 -27.999 -90c-2.66699 -30.667 -4 -66 -4 -106v-454c0 -95.333 7.66699 -163.333 23 -204
c22.667 -58.667 68.334 -88 137.001 -88c108.667 0 163 89.333 163 268v34h211c0.666992 -23.333 1 -40.333 1 -51c0 -132 -26.667 -236.667 -80 -314c-62.667 -90 -161 -135 -295 -135c-142 0 -244 50.667 -306 152c-32.667 52.667 -52 111 -58 175
c-5.33301 53.333 -8 117.333 -8 192v381c0 130.667 8.33301 221.334 25 272.001c29.333 90.667 82.666 155 159.999 193c53.333 26.667 114.666 40 183.999 40c116 0 206.333 -35.667 271 -107c67.333 -74.667 101 -179 101 -313c0 -10.667 -0.333008 -25.334 -1 -44.001z
" />
    <glyph glyph-name="ccaron" unicode="&#x10d;" horiz-adv-x="773" 
d="M494 1183h-214l-129 182h172l64 -69l64 69h171zM715 665l-191.001 0.000976562c0.666992 15.333 1 26.333 1 33c0 110 -41 165 -123 165c-50.667 0 -85.667 -18.333 -105 -55c-16 -31.333 -24 -90.333 -24 -177v-246c0 -86 8 -144.667 24 -176
c19.333 -36.667 54 -55 104 -55c82.667 0 124 57.333 124 172c0 7.33301 -0.333008 19 -1 35h191c0.666992 -22.667 1 -38.334 1 -47.001c0 -222.667 -104.667 -334 -314 -334c-117.333 0 -202.666 35.667 -255.999 107c-28 37.333 -45.667 79 -53 125
c-7.33301 44 -11 93.667 -11 149v294c0 91.333 8.33301 159 25 203c44 119.333 142.333 179 295 179c209.333 0 314 -108.667 314 -326c0 -8.66699 -0.333008 -24 -1 -46z" />
    <glyph glyph-name="dmacron" unicode="&#x111;" horiz-adv-x="792" 
d="M703 0h-190.999v101c-79.333 -76.667 -154.333 -115 -225 -115c-76 0 -130.333 35 -163 105c-20 42.667 -32 88 -36 136s-6 101 -6 159v245c0 99.333 5 171 15 215c27.333 123.333 90.666 185 189.999 185c70.667 0 145.667 -38.333 225 -115v204h-149v143h149v102h191
v-102h98v-143h-98v-1120zM512.001 812c-48 34.667 -92.333 52 -133 52c-42.667 0 -71.667 -17.667 -87 -53c-12.667 -28 -19 -84.333 -19 -169v-267c0 -84 6.33301 -140.333 19 -169c15.333 -35.333 44.333 -53 87 -53c40.667 0 85 17.333 133 52v607z" />
    <glyph glyph-name="Gbreve" unicode="&#x11e;" horiz-adv-x="918" 
d="M570 1652l122.999 -69c-51.333 -68 -129.333 -102 -234 -102c-105.333 0 -183.666 34 -234.999 102l123 69c38 -24 75.333 -36 112 -36s73.667 12 111 36zM450.999 678l385.002 -0.00195312v-678h-110l-37 116c-28.667 -38.667 -57 -67.667 -85 -87
c-48.667 -32.667 -106 -49 -172 -49c-62.667 0 -118.834 14.167 -168.501 42.5s-87.5 67.5 -113.5 117.5c-28.667 55.333 -46 115.333 -52 180c-5.33301 54.667 -8 116 -8 184v376c0 130.667 8.33301 221.334 25 272.001c28.667 90 82 154.333 160 193
c54 26.667 115.333 40 184 40c152 0 259.333 -60.667 322 -182c33.333 -64 49.666 -158 48.999 -282h-212c0 80.667 -8 139.334 -24 176.001c-26.667 60 -72 90 -136 90c-59.333 0 -101.333 -23.333 -126 -70c-14.667 -28 -23.334 -58 -26.001 -90
c-2.66699 -30 -4 -65.333 -4 -106v-417c0 -102 7.66699 -176 23 -222c22.667 -69.333 70.334 -104 143.001 -104c61.333 0 104 27.333 128 82c18.667 42 28 105 28 189v55h-173v174z" />
    <glyph glyph-name="gbreve" unicode="&#x11f;" horiz-adv-x="827" 
d="M525 1361l122.999 -69c-51.333 -68.667 -129.333 -103 -234 -103c-105.333 0 -183.666 34.333 -234.999 103l123 69c38.667 -24.667 76 -37 112 -37s73 12.333 111 37zM815.999 1028l0.000976562 -202.998c-19.333 17.333 -41 26 -65 26c-29.333 0 -54.333 -13 -75 -39
c13.333 -48 20 -103.333 20 -166c0 -132.667 -28 -232.334 -84 -299.001c-52.667 -62.667 -127.334 -94 -224.001 -94c-20.667 0 -44.667 2 -72 6c-30 -14 -45 -33.667 -45 -59c0 -26.667 20 -42.334 60 -47.001c24.667 -3.33301 70.334 -7 137.001 -11
c78 -4 134.333 -11.333 169 -22c112 -34 168 -110.333 168 -229c0 -90 -34 -154.667 -102 -194c-69.333 -39.333 -170 -59 -302 -59c-235.333 0 -353 61.333 -353 184c0 44 16.667 81 50 111c24 20.667 60.667 39.667 110 57c-36.667 14.667 -63.334 29.334 -80.001 44.001
c-27.333 22.667 -41 52 -41 88c0 46.667 18.333 83.667 55 111c22 16 56.667 32 104 48c-49.333 26 -86 58.333 -110 97c-40 66.667 -60 154.667 -60 264c0 129.333 28 227.666 84 294.999c52 62.667 128.333 94 229 94c62.667 0 115.334 -12.667 158.001 -38
c32 -18.667 62.333 -49.334 91 -92.001c15.333 52 39.666 87.667 72.999 107c26.667 14.667 61.667 21.334 105 20.001zM271 698.002v-113c0 -110 38.333 -165 115 -165s115 55 115 165v113c0 110.667 -38.333 166 -115 166s-115 -55.333 -115 -166zM293 -27.998
c-33.333 -28.667 -50.001 -58.332 -50.001 -88.999c0 -30 13.667 -51.333 41 -64c30 -13.333 78.667 -20 146 -20c129.333 0 194 28.667 194 86c0 37.333 -26.333 60.333 -79 69c-21.333 3.33301 -71.666 6.66602 -150.999 9.99902c-22 1.33301 -55.667 4 -101 8z" />
    <glyph glyph-name="Idot" unicode="&#x130;" horiz-adv-x="419" 
d="M298 1656v-182h-177v182h177zM316 1365v-1365h-212v1365h212z" />
    <glyph glyph-name="dotlessi" unicode="&#x131;" horiz-adv-x="369" 
d="M280 1017v-1017h-191v1017h191z" />
    <glyph glyph-name="Lslash" unicode="&#x141;" horiz-adv-x="721" 
d="M274 913l149 116v-206l-149 -116v-512h419v-195h-631v572l-55 -42v207l55 41v587h212v-452z" />
    <glyph glyph-name="lslash" unicode="&#x142;" horiz-adv-x="447" 
d="M324 919l92 70v-192l-92 -71v-726h-191v600l-92 -70v193l92 70v572h191v-446z" />
    <glyph glyph-name="OE" unicode="&#x152;" horiz-adv-x="1267" 
d="M1229 1365v-195h-407v-359h300v-195h-300v-421h407v-195h-741c-265.333 -0 -397 142.333 -395 427v511c-2 284.667 129.667 427 395 427h741zM610 1170l-103 0.000976562c-72.667 -0.666992 -124.667 -22.334 -156 -65.001c-20 -27.333 -32.667 -59 -38 -95
c-5.33301 -37.333 -8 -80.666 -8 -129.999v-395c0 -60 3.33301 -106.5 10 -139.5s18.667 -61.5 36 -85.5c31.333 -42.667 83.333 -64.334 156 -65.001h103v975z" />
    <glyph glyph-name="oe" unicode="&#x153;" horiz-adv-x="1231" 
d="M1146 478h-439.998v-71c0 -84.667 4.33301 -141.334 13 -170.001c17.333 -55.333 56 -83 116 -83c82 0 123 56 123 168c0 6 -0.333008 16 -1 30h191c0.666992 -20 1 -34.333 1 -43c0 -106.667 -23.667 -186 -71 -238c-55.333 -60.667 -136 -91 -242 -91
c-94 0 -168.667 23.333 -224 70c-58.667 -46.667 -131.334 -70 -218.001 -70c-98.667 0 -175.667 27.667 -231 83c-36.667 35.333 -59.334 76.666 -68.001 123.999c-8.66699 44.667 -13 99.334 -13 164.001v315c0 103.333 10.333 176.333 31 219
c48.667 101.333 142 152 280 152c91.333 0 164 -23 218 -69c56.667 46 129.667 69 219 69c103.333 0 183 -31.333 239 -94c34 -37.333 55.333 -80 64 -128c8.66699 -47.333 13 -103.666 13 -168.999v-168zM273.002 678v-338c0 -63.333 9 -109.333 27 -138
c20.667 -32 52 -48 94 -48s73.333 16 94 48c18 28 27 74 27 138v338c0 63.333 -9 109 -27 137c-20.667 32 -52 48 -94 48s-73.333 -16 -94 -48c-18 -28 -27 -73.667 -27 -137zM955.002 645v55c0 56 -8 97 -24 123c-20 31.333 -53.667 47 -101 47
c-46.667 0 -80 -15.667 -100 -47c-16 -26 -24 -67 -24 -123v-55h249z" />
    <glyph glyph-name="Scedilla" unicode="&#x15e;" horiz-adv-x="1229" 
d="M642 -29l-57 -84.0039c36 6.66699 63.667 10 83 10c49.333 0 88.666 -11.333 117.999 -34c35.333 -27.333 53 -62.666 53 -105.999c0 -56 -26.333 -101 -79 -135c-38 -24 -87 -36 -147 -36c-76.667 0 -154.667 16.667 -234 50l30 66
c66.667 -28.667 127.334 -43 182.001 -43c36.667 0 66 8.33301 88 25c22.667 18 34 40 34 66c0 28 -13.667 49.667 -41 65c-16 9.33301 -36.667 14 -62 14c-26 0 -58.333 -6.33301 -97 -19l-41 35l88 129c-155.333 8.66699 -277 52.334 -365 131.001
c-95.333 86 -141.666 203 -138.999 351h208c2.66699 -56.667 8.66699 -98.667 18 -126c24 -69.333 68 -120.666 132 -153.999c59.333 -30 129.666 -45 210.999 -45c107.333 0 189 22.333 245 67c57.333 45.333 86 104 86 176c0 78 -38 134 -114 168
c-30 12.667 -158.667 50 -386 112c-138.667 38 -232.667 85.667 -282 143c-48.667 56 -73 127.333 -73 214c0 128.667 53.667 228 161 298c87.333 56.667 199.333 85 336 85c193.333 0 335.333 -50.333 426 -151c60.667 -67.333 93.667 -159 99 -275h-198
c-4 76 -26 135 -66 177c-56.667 59.333 -145.667 89 -267 89c-84 0 -152.333 -17 -205 -51c-56.667 -36.667 -85 -90 -85 -160c0 -67.333 25 -115.666 75 -144.999c38 -22 126 -50.667 264 -86c178.667 -45.333 294.667 -82 348 -110c116 -60.667 174 -158.667 174 -294
c0 -114 -38.333 -207.333 -115 -280c-92 -87.333 -227.333 -133 -406 -137z" />
    <glyph glyph-name="scedilla" unicode="&#x15f;" horiz-adv-x="969" 
d="M511 -27l-56.999 -81.998c32.667 6.66699 60.667 10 84 10c33.333 0 62.333 -6.66699 87 -20c48 -24.667 72 -62.334 72 -113.001c0 -55.333 -25 -98 -75 -128c-38.667 -24 -86.667 -36 -144 -36c-70.667 0 -143.334 15.667 -218.001 47l28 63
c63.333 -27.333 121.666 -41 174.999 -41c31.333 0 57 6.33301 77 19c26.667 17.333 40 40.333 40 69c0 25.333 -11 45.666 -33 60.999c-16.667 12 -38 18 -64 18s-57.333 -7 -94 -21l-39 33l84 123c-95.333 4 -178.333 29.667 -249 77c-90 62.667 -136 156.667 -138 282
h182c6.66699 -156.667 92.334 -235 257.001 -235c74 0 131 15.333 171 46c43.333 33.333 65 75 65 125c0 54 -28.667 94.667 -86 122c-28.667 14 -88 30.667 -178 50c-131.333 28.667 -221 56.667 -269 84c-75.333 43.333 -113 110.666 -113 201.999
c0 98 42 172.333 126 223c65.333 39.333 157 59 275 59c155.333 0 267.666 -38.667 336.999 -116c40.667 -46 63.667 -111.667 69 -197h-175c-4.66699 48.667 -16 86.334 -34 113.001c-36 53.333 -103 80 -201 80c-61.333 0 -109 -10.333 -143 -31
c-44 -27.333 -66 -66.333 -66 -117c0 -50 24.333 -87.333 73 -112c27.333 -14 95.666 -32.333 204.999 -55c112.667 -24 195.334 -50.667 248.001 -80c80 -43.333 120 -114.333 120 -213c0 -124.667 -64.667 -214.334 -194 -269.001
c-55.333 -23.333 -123.666 -36.666 -204.999 -39.999z" />
    <glyph glyph-name="Scaron" unicode="&#x160;" horiz-adv-x="873" 
d="M821 1044l-202 -59.998c-32.667 135.333 -93.334 203 -182.001 203c-38 0 -70 -12.667 -96 -38c-27.333 -26.667 -41 -60.334 -41 -101.001c0 -50 19 -95.667 57 -137c24.667 -26.667 85 -76.667 181 -150c98 -76 166 -137 204 -183c58.667 -71.333 88 -155 88 -251
c0 -100.667 -33.667 -183.334 -101 -248.001c-68.667 -66 -159.667 -99 -273 -99c-233.333 0 -371.666 128 -414.999 384l202 59c28 -163.333 99 -245 213 -245c48 0 86 14.667 114 44c28 28.667 42 66 42 112c0 48 -17.667 92 -53 132c-29.333 34 -79.333 78.667 -150 134
c-102.667 80 -164.334 130 -185.001 150c-94.667 91.333 -142 191 -142 299c0 107.333 38.333 192.333 115 255c64.667 54 145 81 241 81c196.667 0 324.334 -113.667 383.001 -341zM544 1474h-214l-129 182h172l64 -69l64 69h171z" />
    <glyph glyph-name="scaron" unicode="&#x161;" horiz-adv-x="741" 
d="M684 792l-173 -76.001c-18 46.667 -36.667 80.334 -56 101.001c-28 30.667 -62.333 46 -103 46c-26.667 0 -48.667 -6.66699 -66 -20c-22.667 -17.333 -34 -40.666 -34 -69.999c0 -30.667 14.333 -58 43 -82c21.333 -17.333 64.666 -44 129.999 -80
c101.333 -55.333 170 -101.333 206 -138c48 -49.333 72 -113.666 72 -192.999c0 -86.667 -27.667 -158 -83 -214c-57.333 -57.333 -134.333 -86 -231 -86c-103.333 0 -187.666 35.667 -252.999 107c-38 41.333 -69.667 100.666 -95 177.999l178 63
c16.667 -51.333 34.334 -89 53.001 -113c31.333 -40.667 70.666 -61 117.999 -61c30 0 55 8.66699 75 26c22 19.333 33 44.666 33 75.999s-12.667 59 -38 83c-20.667 20 -55.667 43.667 -105 71c-87.333 48 -144 81.667 -170 101c-85.333 65.333 -128 146.333 -128 243
c0 81.333 28.333 149 85 203c56 53.333 127 80 213 80c157.333 0 267 -81.667 329 -245zM478 1183h-214l-129 182h172l64 -69l64 69h171z" />
    <glyph glyph-name="Ydieresis" unicode="&#x178;" horiz-adv-x="902" 
d="M552 533v-533h-212v533l-306 832h233l182 -577l189 577h229zM382 1656v-182h-177v182h177zM697 1656v-182h-177v182h177z" />
    <glyph glyph-name="Zcaron" unicode="&#x17d;" horiz-adv-x="797" 
d="M756 195v-195h-715v199l478 971h-433v195h664v-195l-476 -975h482zM506 1474h-214l-129 182h172l64 -69l64 69h171z" />
    <glyph glyph-name="zcaron" unicode="&#x17e;" horiz-adv-x="699" 
d="M651 184v-184h-603v191l384 642h-352v184h571v-191l-384 -642h384zM457 1183h-214l-129 182h172l64 -69l64 69h171z" />
    <glyph glyph-name="florin" unicode="&#x192;" horiz-adv-x="840" 
d="M715 972l-23.999 -126.001h-186l-232 -1194h-191l232 1194h-165l24 126h166l54 279c15.333 78 34 132.667 56 164c48 66.667 126 100 234 100c39.333 0 80.666 -4.33301 123.999 -13l-35 -178c-34 11.333 -60.667 17 -80 17c-33.333 0 -59.333 -10.667 -78 -32
c-16 -17.333 -28.667 -50.666 -38 -99.999l-46 -237h185z" />
    <glyph glyph-name="circumflex" unicode="&#x2c6;" 
d="M405 1365h214l128 -182h-171l-64 69l-64 -69h-172z" />
    <glyph glyph-name="caron" unicode="&#x2c7;" 
d="M619 1183h-214l-129 182h172l64 -69l64 69h171z" />
    <glyph glyph-name="macron" unicode="&#x2c9;" 
d="M303 1207v137h419v-137h-419z" />
    <glyph glyph-name="breve" unicode="&#x2d8;" 
d="M623 1361l122.999 -69c-51.333 -68.667 -129.333 -103 -234 -103c-105.333 0 -183.666 34.333 -234.999 103l123 69c38.667 -24.667 76 -37 112 -37s73 12.333 111 37z" />
    <glyph glyph-name="dotaccent" unicode="&#x2d9;" 
d="M600 1365v-182h-177v182h177z" />
    <glyph glyph-name="ring" unicode="&#x2da;" 
d="M514 1416c39.333 0 73.998 -14 103.998 -42c29.333 -26.667 44 -60 44 -100c0 -40.667 -14.667 -74.667 -44 -102c-29.333 -28 -64.666 -42 -105.999 -42s-76.666 14 -105.999 42s-44 62 -44 102c0 40.667 14.667 74 44 100c31.333 28 67.333 42 108 42zM510.998 1345
c-19.333 0 -36.668 -7 -52.001 -21c-14.667 -14 -22 -31 -22 -51s7.33301 -37 22 -51c15.333 -14 33 -21 53 -21c20.667 0 38.334 7 53.001 21s22 31 22 51c0 20.667 -7.33301 37.667 -22 51c-15.333 14 -33.333 21 -54 21z" />
    <glyph glyph-name="ogonek" unicode="&#x2db;" 
d="M528 0l105.999 0.000976562c-67.333 -56 -101 -107.667 -101 -155c0 -50 32.667 -75 98 -75c20.667 0 41.667 3.66699 63 11l-16 -116c-26 -10 -52.667 -15 -80 -15c-43.333 0 -81.666 8.66699 -114.999 26c-48 25.333 -72 66.666 -72 123.999c0 65.333 39 132 117 200z
" />
    <glyph glyph-name="tilde" unicode="&#x2dc;" 
d="M307 1193v142c37.333 20 76.666 30 117.999 30c28.667 0 59 -5.33301 91 -16c44.667 -15.333 78.667 -23 102 -23c26 0 59 11.667 99 35v-142c-40.667 -23.333 -73.667 -35 -99 -35c-23.333 0 -57.333 7.66699 -102 23c-32 10.667 -62.333 16 -91 16
c-41.333 0 -80.666 -10 -117.999 -30z" />
    <glyph glyph-name="hungarumlaut" unicode="&#x2dd;" 
d="M284 1183l93 182h199l-148 -182h-144zM571 1183l93 182h198l-148 -182h-143z" />
    <glyph glyph-name="pi" unicode="&#x3c0;" horiz-adv-x="1177" 
d="M189 0v832h-149v149h1097v-149h-147v-832h-185v832h-431v-832h-185z" />
    <glyph glyph-name="endash" unicode="&#x2013;" horiz-adv-x="840" 
d="M763 604v-171h-686v171h686z" />
    <glyph glyph-name="emdash" unicode="&#x2014;" horiz-adv-x="1030" 
d="M1030 604v-171h-1030v171h1030z" />
    <glyph glyph-name="quoteleft" unicode="&#x2018;" horiz-adv-x="362" 
d="M82 865v218l119 282h79l-91 -282h91v-218h-198z" />
    <glyph glyph-name="quoteright" unicode="&#x2019;" horiz-adv-x="362" 
d="M280 1365v-218l-119 -283h-79l91 283h-91v218h198z" />
    <glyph glyph-name="quotesinglbase" unicode="&#x201a;" horiz-adv-x="362" 
d="M280 218v-218l-119 -282h-79l91 282h-91v218h198z" />
    <glyph glyph-name="quotedblleft" unicode="&#x201c;" horiz-adv-x="662" 
d="M382 865v218l119 282h79l-91 -282h91v-218h-198zM82 865v218l119 282h79l-91 -282h91v-218h-198z" />
    <glyph glyph-name="quotedblright" unicode="&#x201d;" horiz-adv-x="662" 
d="M280 1365v-218l-119 -283h-79l91 283h-91v218h198zM580 1365v-218l-120 -283h-78l91 283h-91v218h198z" />
    <glyph glyph-name="quotedblbase" unicode="&#x201e;" horiz-adv-x="662" 
d="M280 218v-218l-119 -282h-79l91 282h-91v218h198zM580 218v-218l-120 -282h-78l91 282h-91v218h198z" />
    <glyph glyph-name="dagger" unicode="&#x2020;" horiz-adv-x="840" 
d="M516 1365v-337h257v-171h-257v-857h-191v857h-258v171h258v337h191z" />
    <glyph glyph-name="daggerdbl" unicode="&#x2021;" horiz-adv-x="840" 
d="M516 1365v-337h257v-171h-257v-349h257v-171h-257v-337h-191v337h-258v171h258v349h-258v171h258v337h191z" />
    <glyph glyph-name="bullet" unicode="&#x2022;" horiz-adv-x="1365" 
d="M689 978c75.333 0 140.666 -27.667 195.999 -83c56 -55.333 84 -122.333 84 -201s-27.667 -145.667 -83 -201s-122.333 -83 -201 -83c-77.333 0 -143.666 27.333 -198.999 82c-56.667 56 -85 123.333 -85 202c0 80.667 28 148 84 202c57.333 54.667 125.333 82 204 82z
" />
    <glyph glyph-name="ellipsis" unicode="&#x2026;" horiz-adv-x="1065" 
d="M277 218v-218h-198v218h198zM632 218v-218h-198v218h198zM987 218v-218h-198v218h198z" />
    <glyph glyph-name="perthousand" unicode="&#x2030;" horiz-adv-x="1578" 
d="M438 1140v-253c0 -159.333 -62.667 -239 -188 -239c-126 0 -189 79.667 -189 239v253c0 159.333 63 239 189 239c125.333 0 188 -79.667 188 -239zM183 1162v-297c0 -38 4 -64 12 -78c10.667 -20 29 -30 55 -30c25.333 0 43.333 10 54 30c8 14 12 40 12 78v297
c0 38 -4 64 -12 78c-10.667 20 -28.667 30 -54 30c-26 0 -44.333 -10 -55 -30c-8 -14 -12 -40 -12 -78zM775 1365h113l-564 -1365h-114zM1038 478v-253c0 -159.333 -63 -239 -189 -239s-189 79.667 -189 239v253c0 159.333 63 239 189 239s189 -79.667 189 -239zM782 500
v-297c0 -37.333 4 -63.333 12 -78c10.667 -20 29 -30 55 -30s44.333 10 55 30c8 14 12 40 12 78v297c0 38 -4 64 -12 78c-10.667 20 -29 30 -55 30c-26.667 0 -45 -10 -55 -30c-8 -14 -12 -40 -12 -78zM1516 478v-253c0 -159.333 -63 -239 -189 -239s-189 79.667 -189 239
v253c0 159.333 63 239 189 239s189 -79.667 189 -239zM1260 500v-297c0 -37.333 4 -63.333 12 -78c10.667 -20 29 -30 55 -30s44.333 10 55 30c8 14 12 40 12 78v297c0 38 -4 64 -12 78c-10.667 20 -29 30 -55 30c-26.667 0 -45 -10 -55 -30c-8 -14 -12 -40 -12 -78z" />
    <glyph glyph-name="guilsinglleft" unicode="&#x2039;" horiz-adv-x="347" 
d="M278 191l-210 174v294l210 174v-245l-78 -76l78 -76v-245z" />
    <glyph glyph-name="guilsinglright" unicode="&#x203a;" horiz-adv-x="347" 
d="M68 833l210 -174v-294l-210 -174v245l78 76l-78 76v245z" />
    <glyph glyph-name="franc" unicode="&#x20a3;" horiz-adv-x="1302" 
d="M316 607v-607h-212v1365h625v-195h-413v-368h305v-195h-305zM841 1017l191 0.000976562v-176c30 75.333 67.333 127.666 112 156.999c37.333 22 81 33 131 33v-221c-33.333 12.667 -64 19 -92 19c-52.667 0 -92 -17.667 -118 -53c-16 -21.333 -25.667 -45 -29 -71
c-2.66699 -25.333 -4 -56.333 -4 -93v-612h-191v1017z" />
    <glyph glyph-name="trademark" unicode="&#x2122;" horiz-adv-x="1194" 
d="M331 1242v-655h-136v655h-154v123h443v-123h-153zM1113 1365v-778h-130v518l-122 -518h-87l-121 517v-517h-131v778h192l105 -445l105 445h189z" />
    <glyph glyph-name="Omega" unicode="&#x2126;" horiz-adv-x="1364" 
d="M57 0l0.000976562 172.003h348c-234.667 138.667 -352 330.667 -352 576c0 203.333 75.667 370.666 227 501.999c114.667 98.667 248.667 148 402 148c154 0 288.333 -49.333 403 -148c151.333 -131.333 227 -299 227 -503c0 -244.667 -117.333 -436.334 -352 -575.001
h348v-172h-538v160c84.667 46 152 100.333 202 163c93.333 115.333 140 245 140 389c0 160.667 -52 292.667 -156 396c-78.667 77.333 -169.334 116 -272.001 116c-104 0 -195.667 -38.667 -275 -116c-104 -102.667 -156 -234 -156 -394
c0 -244.667 114 -429.334 342 -554.001v-160h-538z" />
    <glyph glyph-name="partialdiff" unicode="&#x2202;" 
d="M159 1213l23.001 156.002c120 -16 220 -40.333 300 -73c172 -70.667 301.333 -191.667 388 -363c64 -126.667 96 -270.667 96 -432c0 -131.333 -27.667 -239 -83 -323c-44 -66.667 -101 -117.667 -171 -153c-62 -30.667 -128.667 -46 -200 -46
c-100.667 0 -191 29.667 -271 89c-58 42.667 -103 96.5 -135 161.5s-48 135.167 -48 210.5c0 64 12.167 125.667 36.5 185s58.166 109.666 101.499 150.999c78.667 75.333 172.334 113 281.001 113c82 0 149.333 -18 202 -54c16.667 -11.333 45.667 -39 87 -83
c-10 20 -33 69 -69 147c-9.33301 20 -28.333 47.167 -57 81.5s-54.334 60.166 -77.001 77.499c-22.667 18 -56.167 38.5 -100.5 61.5s-83.5 40.833 -117.5 53.5c-49.333 16.667 -111.333 30 -186 40zM518.001 741.002c-28 0 -58.5 -6 -91.5 -18s-60.833 -27 -83.5 -45
c-33.333 -26 -59.833 -61 -79.5 -105s-29.5 -89.333 -29.5 -136c0 -88 30 -161.667 90 -221c54 -53.333 116.333 -80 187 -80c64.667 0 122.667 22 174 66c68 58 102 138.333 102 241c0 100 -30.667 177 -92 231c-51.333 44.667 -110.333 67 -177 67z" />
    <glyph glyph-name="Delta" unicode="&#x2206;" horiz-adv-x="1290" 
d="M14 0l528 1365h204l530 -1365h-1262zM268 172h750l-373 983z" />
    <glyph glyph-name="product" unicode="&#x220f;" horiz-adv-x="1365" 
d="M50 1536h1265v-160h-150v-1728h150v-160h-477v160h149v1728h-609v-1728h146v-160h-474v160h151v1728h-151v160z" />
    <glyph glyph-name="summation" unicode="&#x2211;" horiz-adv-x="1365" 
d="M1238 1536v-485h-179l-20 303h-749l506 -805l-505 -880h767l11 307h188v-488h-1187v210l493 851l-493 780v207h1168z" />
    <glyph glyph-name="minus" unicode="&#x2212;" horiz-adv-x="840" 
d="M763 780v-162h-686v162h686z" />
    <glyph glyph-name="fraction" unicode="&#x2215;" horiz-adv-x="245" 
d="M-191 -68l511 1502h116l-520 -1502h-107z" />
    <glyph glyph-name="periodcentered" unicode="&#x2219;" horiz-adv-x="355" 
d="M277 628v-218h-198v218h198z" />
    <glyph glyph-name="radical" unicode="&#x221a;" horiz-adv-x="1365" 
d="M1365 1693v-165h-380l-436 -1528h-221l-159 578h-169v165h284l78 -267c6 -22 24 -105 54 -249l6 -32h10l42 177l51 214l91 317l224 790h525z" />
    <glyph glyph-name="infinity" unicode="&#x221e;" horiz-adv-x="1365" 
d="M686 601c-101.333 -144.667 -214.334 -217.001 -339.001 -217.001c-104.667 0 -185.667 36.667 -243 110c-44 56 -66 124 -66 204c0 117.333 45.333 204.333 136 261c52.667 33.333 110.334 50 173.001 50c124.667 0 235.667 -72.333 333 -217
c99.333 144.667 213 217 341 217c106 0 188 -38.667 246 -116c40.667 -54.667 61 -121 61 -199c0 -99.333 -32.333 -177.666 -97 -234.999c-58 -50.667 -127.667 -76 -209 -76c-127.333 0 -239.333 72.667 -336 218zM753.999 696.999
c22 -34.667 42.999 -63.666 62.999 -86.999c58 -66.667 120.667 -100 188 -100c54 0 98.333 19.667 133 59c29.333 34 44 76.333 44 127c0 64.667 -22.667 114 -68 148c-33.333 25.333 -70.333 38 -111 38c-69.333 0 -133.666 -35.667 -192.999 -107
c-8 -10 -19.5 -25.333 -34.5 -46s-22.167 -31.334 -21.5 -32.001zM611.998 696c-23.333 34.667 -44.666 63.333 -63.999 86c-57.333 66.667 -120 100 -188 100c-54 0 -98 -19.667 -132 -59c-29.333 -34 -44 -76.333 -44 -127c0 -64 22.667 -113.333 68 -148
c32.667 -25.333 69.667 -38 111 -38c69.333 0 133.333 36 192 108c8 9.33301 19.667 24.333 35 45s22.666 31.667 21.999 33z" />
    <glyph glyph-name="integral" unicode="&#x222b;" 
d="M168 -490l36.9971 184.999c30.667 -13.333 58.334 -20 83.001 -20c56 0 92 23.333 108 70c6 17.333 9.33301 82 10 194v1111c0.666992 102.667 1.33398 163.334 2.00098 182.001c2 86.667 22.333 154 61 202c55.333 68 136.333 102 243 102c40 0 88 -7.33301 144 -22
l-38 -185c-30 13.333 -58 20 -84 20c-55.333 0 -91 -23.333 -107 -70c-6.66699 -19.333 -10 -64.333 -10 -135v-1165c0 -130 -2.33301 -210 -7 -240c-14.667 -98.667 -58.667 -166.667 -132 -204c-54 -28 -122 -42 -204 -42c-41.333 0 -76.666 5.66699 -105.999 17z" />
    <glyph glyph-name="approxequal" unicode="&#x2248;" 
d="M126 712l-106 74c71.333 164 166.666 246 285.999 246c50 0 128.667 -25.333 236 -76c64.667 -31.333 106 -49.333 124 -54c19.333 -6 38 -9 56 -9c45.333 0 83.333 16.333 114 49c16 17.333 36.333 45 61 83l107 -74c-70 -162 -172 -243 -306 -243
c-20.667 0 -45.667 4.66699 -75 14c-25.333 8 -79.666 32 -162.999 72c-70.667 34 -126 51 -166 51c-36.667 0 -69.667 -14.333 -99 -43c-19.333 -19.333 -42.333 -49.333 -69 -90zM126 333l-106.004 74c72 164 167.333 246 286 246c50.667 0 129.334 -25.667 236.001 -77
c64 -30.667 105.333 -48.667 124 -54c20.667 -6 39.334 -9 56.001 -9c45.333 0 83.333 16.333 114 49c16 17.333 36.333 45 61 83l107 -73c-70 -162.667 -171.667 -244 -305 -244c-21.333 0 -46.666 4.66699 -75.999 14c-27.333 8.66699 -81.666 32.667 -162.999 72
c-70.667 34.667 -126 52 -166 52c-36 0 -69 -14.333 -99 -43c-20 -20 -43 -50 -69 -90z" />
    <glyph glyph-name="notequal" unicode="&#x2260;" horiz-adv-x="840" 
d="M213 444h-136v162h212l83 180h-295v162h371l84 180l147 -69l-52 -111h136v-162h-212l-83 -180h295v-162h-371l-84 -180l-147 69z" />
    <glyph glyph-name="lessequal" unicode="&#x2264;" 
d="M955 1250v-195l-660 -246l660 -246v-195l-887 353v177zM955 310v-182h-887v182h887z" />
    <glyph glyph-name="greaterequal" unicode="&#x2265;" 
d="M69 368v195l659 246l-660 246v195l887 -352v-177zM68 128v182h887v-182h-887z" />
    <glyph glyph-name="lozenge" unicode="&#x25ca;" horiz-adv-x="1365" 
d="M683 1419l531 -736l-531 -736l-532 736zM683 1238l-404 -555l404 -554l403 554z" />
    <glyph glyph-name="apple" unicode="&#xf000;" horiz-adv-x="1365" 
d="M984 1416v-20c0 -108 -42.333 -196.667 -127 -266c-53.333 -43.333 -102 -66 -146 -68c-8.66699 -0.666992 -19 -1 -31 -1c0 94 27.333 173.667 82 239c60.667 69.333 134.667 108 222 116zM1277 935c-43.333 -33.333 -76.0039 -64.001 -98.0039 -92.001
c-44.667 -56 -67 -120 -67 -192c0 -100 37 -183.667 111 -251c22.667 -20 53.334 -38.333 92.001 -55c-43.333 -107.333 -89.666 -192.666 -138.999 -255.999c-73.333 -95.333 -142.666 -143 -207.999 -143c-26 0 -53.333 6 -82 18l-83 34c-11.333 4.66699 -36.333 7 -75 7
c-48.667 0 -81.334 -3.33301 -98.001 -10l-87 -35c-27.333 -11.333 -53.666 -17 -78.999 -17c-36 0 -73.833 14.5 -113.5 43.5s-77.167 70.167 -112.5 123.5c-114.667 170.667 -172 346 -172 526c0 117.333 33.333 219.333 100 306c68.667 90 162.334 135 281.001 135
c44.667 0 98 -12 160 -36c45.333 -17.333 79 -26 101 -26c20.667 0 49 7 85 21c47.333 18 81 29.667 101 35c24 6.66699 53 10 87 10c126 0 224.667 -48.667 296 -146z" />
    <glyph glyph-name="fi" unicode="&#xf001;" horiz-adv-x="849" 
d="M150 0l0.000976562 845.998h-138v171h138v97c0 78.667 8 133.334 24 164.001c34.667 67.333 109.667 101 225 101c49.333 0 119.666 -4.66699 210.999 -14v-178c-77.333 12 -134.333 18 -171 18c-38 0 -64.667 -10.667 -80 -32c-12 -17.333 -18 -50.666 -18 -99.999v-56
h419v-1017h-191v846h-228v-846h-191z" />
    <glyph glyph-name="fl" unicode="&#xf002;" horiz-adv-x="849" 
d="M486 1017l-0.000976562 -171.002h-145v-846h-191v846h-138v171h138v97c0 78.667 8 133.334 24 164.001c34 67.333 102.333 101 205 101l190 -14h191v-1365h-191v1190c-53.333 10 -99.666 15 -138.999 15c-32 0 -55.667 -10.667 -71 -32
c-12 -17.333 -18 -50.666 -18 -99.999v-56h145z" />
    <glyph glyph-name="glyph1" horiz-adv-x="0" 
 />
    <glyph glyph-name="glyph2" horiz-adv-x="314" 
 />
    <glyph glyph-name="glyph172" horiz-adv-x="840" 
 />
    <glyph glyph-name="glyph262" 
d="M457 1365v-182h-177v182h177zM744 1365v-182h-177v182h177z" />
    <glyph glyph-name="glyph263" 
d="M619 1474h-214l-129 182h172l64 -69l64 69h171z" />
    <glyph glyph-name="glyph264" 
d="M623 1652l122.999 -69c-51.333 -68 -129.333 -102 -234 -102c-105.333 0 -183.666 34 -234.999 102l123 69c38 -24 75.333 -36 112 -36s73.667 12 111 36z" />
    <glyph glyph-name="glyph265" 
d="M405 1656h214l128 -182h-171l-64 69l-64 -69h-172z" />
    <glyph glyph-name="glyph266" 
d="M597 1474h-144l-148 182h198z" />
    <glyph glyph-name="glyph267" 
d="M414 1474l93 182h199l-148 -182h-144z" />
    <glyph glyph-name="glyph268" 
d="M443 1656v-182h-177v182h177zM758 1656v-182h-177v182h177z" />
    <glyph glyph-name="glyph269" 
d="M307 1484v142c36.667 20.667 76 31 118 31c28.667 0 59 -5.33301 91 -16c44 -15.333 78 -23 102 -23c26 0 59 11.333 99 34v-142c-40 -22.667 -73 -34 -99 -34c-24 0 -58 7.66699 -102 23c-32 10.667 -62.333 16 -91 16c-42 0 -81.333 -10.333 -118 -31z" />
    <glyph glyph-name="glyph270" 
d="M457 1656v-182h-177v182h177zM744 1656v-182h-177v182h177z" />
    <glyph glyph-name="glyph271" 
d="M514 1733c39.333 0 73.998 -14 103.998 -42c29.333 -26.667 44 -60 44 -100s-14.667 -74 -44 -102s-64.666 -42 -105.999 -42s-76.666 14 -105.999 42s-44 62 -44 102c0 40.667 14.667 74 44 100c31.333 28 67.333 42 108 42zM510.998 1662
c-19.333 0 -36.668 -7 -52.001 -21c-14.667 -14 -22 -31 -22 -51s7.33301 -37 22 -51c15.333 -14 33 -21 53 -21c20.667 0 38.334 7 53.001 21s22 31 22 51c0 20.667 -7.33301 37.667 -22 51c-15.333 14 -33.333 21 -54 21z" />
    <glyph glyph-name="glyph272" 
d="M600 1656v-182h-177v182h177z" />
    <glyph glyph-name="glyph273" horiz-adv-x="314" 
 />
    </font>
</defs>
</svg>
