<?xml version="1.0" standalone="no"?>
<!DOCTYPE svg PUBLIC "-//W3C//DTD SVG 1.1//EN" "http://www.w3.org/Graphics/SVG/1.1/DTD/svg11.dtd" >
<svg>
<metadata>
Created by FontForge 20090914 at Fri Nov 11 14:45:20 2016
 By www-data
Copyright (c) 2010, Brian M Zick (http://21326.info/),
with Reserved Font Name "Neuton".

This Font Software is licensed under the SIL Open Font License, Version 1.1.
This license is available with a FAQ at: http://scripts.sil.org/OFL
</metadata>
<defs>
<font id="Neuton-ExtraBold" horiz-adv-x="1544" >
  <font-face 
    font-family="Neuton"
    font-weight="800"
    font-stretch="normal"
    units-per-em="2048"
    panose-1="2 0 8 3 0 0 0 0 0 0"
    ascent="1638"
    descent="-410"
    x-height="922"
    cap-height="1244"
    bbox="-148.001 -464.33 2398 2106"
    underline-thickness="0"
    underline-position="-361"
    unicode-range="U+0020-U+F002"
  />
<missing-glyph horiz-adv-x="748" 
d="M68 0v1365h544v-1365h-544zM136 68h408v1229h-408v-1229z" />
    <glyph glyph-name=".notdef" horiz-adv-x="748" 
d="M68 0v1365h544v-1365h-544zM136 68h408v1229h-408v-1229z" />
    <glyph glyph-name="space" unicode=" " horiz-adv-x="628" 
 />
    <glyph glyph-name="exclam" unicode="!" horiz-adv-x="427" 
d="M19 1194c0 74.667 68.667 112 206 112c54.667 0 94 -6.5 118 -19.5s36 -36.833 36 -71.5c0 -216.667 -26.333 -501 -79 -853l-167 29c-24 125.333 -49 278.5 -75 459.5s-39 295.5 -39 343.5zM0 127c0 40 16.499 75.499 49.499 106.499s87.333 46.5 163 46.5
s130.334 -15.167 164.001 -45.5s50.5 -65.166 50.5 -104.499c0 -104 -71.167 -156 -213.5 -156s-213.5 51 -213.5 153z" />
    <glyph glyph-name="quotedbl" unicode="&#x22;" horiz-adv-x="658" 
d="M-17 1302l311 -24l-61 -358l-175 -26zM313 1302l311 -24l-61 -358l-175 -26z" />
    <glyph glyph-name="numbersign" unicode="#" horiz-adv-x="1154" 
d="M0 266l55 222h214l25 162h-222l55 222h200l41 274l213 10l-43 -284h144l41 274l214 9l-42 -283h259l-53 -222h-240l-24 -162h243l-54 -222h-222l-43 -285l-214 -7l44 292h-143l-43 -285l-213 -7l44 292h-236zM624 488l25 162h-144l-24 -162h143z" />
    <glyph glyph-name="dollar" unicode="$" horiz-adv-x="939" 
d="M0 136l33.999 332.002l177 -29l62 -227c24.667 -32.667 61 -55 109 -67l24 310l-75 39c-61.333 32 -105.333 58.5 -132 79.5s-51.667 42.667 -75 65s-41 44.166 -53 65.499c-30 52 -45 104.667 -45 158c0 116 36.167 207.333 108.5 274s167.166 107.667 284.499 123
l-10 131l288 35l-41 -172c60.667 -12 126 -34 196 -66l-28 -352l-173 30l-39 203c-9.33301 7.33301 -27.666 14.666 -54.999 21.999l-22 -279l121 -64c54.667 -29.333 92 -51.333 112 -66l58 -47c29.333 -24.667 53 -53 71 -85c28 -50 42 -102.667 42 -158
s-11.833 -107.333 -35.5 -156s-55.5 -89 -95.5 -121c-75.333 -61.333 -163.666 -102.333 -264.999 -123l2 -149l-286 -25l33 174c-61.333 13.333 -119.5 33.5 -174.5 60.5s-94.167 55.167 -117.5 84.5zM452.999 859.002l19.998 245c-5.33301 0.666992 -17.666 1 -36.999 1
s-38.666 -8 -57.999 -24s-29 -40.667 -29 -74c0 -52.667 34.667 -102 104 -148zM487.997 412.002l-21 -272.999c41.333 4.66699 75.333 19.667 102 45s40 58.666 40 99.999s-40.333 84 -121 128z" />
    <glyph glyph-name="percent" unicode="%" horiz-adv-x="1595" 
d="M1299 269c0 136.667 -18.667 205 -56 205c-25.333 0 -42.5 -18 -51.5 -54s-13.5 -79 -13.5 -129s0.666992 -84.5 2 -103.5s4 -36.833 8 -53.5c8 -31.333 24.667 -47 50 -47s41.833 14.167 49.5 42.5s11.5 74.833 11.5 139.5zM868 276c0 54 19.499 105.668 58.499 155.001
s87.333 88 145 116s114.834 42 171.501 42c93.333 0 175.333 -30.833 246 -92.5s106 -136.167 106 -223.5c0 -54 -18 -105.333 -54 -154s-80.833 -86.667 -134.5 -114s-107.5 -41 -161.5 -41c-108.667 0 -198.667 28.667 -270 86s-107 132.666 -107 225.999zM386.999 1087
l-20 3.00293c-40.667 0 -61 -64.667 -61 -194v-5c0 -107.333 8.66699 -168.333 26 -183c9.33301 -8.66699 21.666 -13 36.999 -13c23.333 0 39.333 17 48 51s13 102.167 13 204.5s-3 188.166 -9 257.499l759 -1l302 -2v-75l-541 -539l-493 -610l-368 54l557 553l470 536
l-490 -19c70 -54 105 -123.667 105 -209c0 -56.667 -17.833 -109.834 -53.5 -159.501s-80.5 -88.334 -134.5 -116.001s-109 -41.834 -165 -42.501c-111.333 -0.666992 -200.666 27.5 -267.999 84.5s-101 134.833 -101 233.5c0 44.667 17 91.334 51 140.001
s79 89.5 135 122.5s112.333 49.5 169 49.5c6 0 13.333 -0.666992 22 -2z" />
    <glyph glyph-name="ampersand" unicode="&#x26;" horiz-adv-x="1386" 
d="M460 1029c0 -43.333 38 -104.333 114 -183c24.667 37.333 37 78.333 37 123s-8.5 78 -25.5 100s-35.667 33 -56 33s-37 -6.66699 -50 -20s-19.5 -31 -19.5 -53zM413 550c-54 -44 -81.001 -94.332 -81.001 -150.999s16.167 -103.334 48.5 -140.001s73.333 -55 123 -55
s98.834 29.667 147.501 89l-229 253zM20.999 150.001c-14 37.333 -21.001 77.1689 -21.001 119.502s3.83301 78.666 11.5 108.999s19.5 57.666 35.5 81.999s32.333 45.833 49 64.5s38.334 37 65.001 55c43.333 28 92.666 56 147.999 84
c-38 34.667 -67.167 77.334 -87.5 128.001s-30.5 100.167 -30.5 148.5s11.5 94.333 34.5 138s53.167 79.5 90.5 107.5c80 58 163.333 87 250 87s156.834 -21.5 210.501 -64.5s80.5 -102 80.5 -177s-13.167 -134.833 -39.5 -179.5s-64.833 -85 -115.5 -121v-16l146 -152
l130 178l-81 39l24 160h465l-22 -160l-174 -58l-213 -293c141.333 -147.333 245.333 -236.333 312 -267l46 -21l-30 -135c-14.667 -4.66699 -42.167 -9.83398 -82.5 -15.501s-73.166 -8.5 -98.499 -8.5c-123.333 0 -227.666 46 -312.999 138l-34 37
c-49.333 -59.333 -109.5 -105.166 -180.5 -137.499s-135.667 -48.5 -194 -48.5s-104.833 2.5 -139.5 7.5s-68.834 14.333 -102.501 28s-61.834 31.667 -84.501 54s-41 52.166 -55 89.499z" />
    <glyph glyph-name="quotesingle" unicode="'" horiz-adv-x="328" 
d="M0 1302l311 -24l-61 -358l-175 -26z" />
    <glyph glyph-name="parenleft" unicode="(" horiz-adv-x="468" 
d="M462 1130c-80 -104 -129 -240.669 -147 -410.002c-8 -75.333 -12 -171.166 -12 -287.499s8 -223.833 24 -322.5s35 -175.334 57 -230.001s50 -107.334 84 -158.001l-131 -98l-54 53c-192.667 192.667 -289 442.334 -289 749.001c0 334.667 99.667 599.334 299 794.001
c13.333 12.667 26.333 24.334 39 35.001z" />
    <glyph glyph-name="parenright" unicode=")" horiz-adv-x="468" 
d="M6 1130l130 125c89.333 -75.333 164.333 -175.333 225 -300c75.333 -155.333 113 -331.666 113 -528.999c0 -306.667 -96.333 -556.334 -289 -749.001l-54 -53l-131 98c34 50.667 62 103.334 84 158.001c54 134 81 325.333 81 574c0 202.667 -16 354.667 -48 456
c-26.667 85.333 -63.667 158.666 -111 219.999z" />
    <glyph glyph-name="asterisk" unicode="*" horiz-adv-x="740" 
d="M0 913l82 175l233 -95l-55 307l189 -25l-26 -270l280 170l37 -186l-255 -83l242 -192l-171 -91l-145 201l-126 -276l-139 138l171 190z" />
    <glyph glyph-name="plus" unicode="+" horiz-adv-x="631" 
d="M0 376l8 165h219v245l188 -12v-233h226l-13 -165h-213v-234l-188 4v230h-227z" />
    <glyph glyph-name="comma" unicode="," horiz-adv-x="445" 
d="M7 -259c54 18 95.001 43.832 123.001 77.499s42 65.834 42 96.501s-8.33301 54.167 -25 70.5s-35.834 24.5 -57.501 24.5s-41.167 -4.33301 -58.5 -13c-20.667 34.667 -31 67.667 -31 99c0 58 18.667 102.833 56 134.5s86 47.5 146 47.5c162 0 243 -88.667 243 -266
c0 -86.667 -31 -167 -93 -241c-68 -80 -168.333 -129.333 -301 -148z" />
    <glyph glyph-name="hyphen" unicode="-" horiz-adv-x="595" 
d="M0 357l15 178l580 22l-15 -185z" />
    <glyph glyph-name="period" unicode="." horiz-adv-x="427" 
d="M0 127c0 40 16.499 75.499 49.499 106.499s87.333 46.5 163 46.5s130.334 -15.167 164.001 -45.5s50.5 -65.166 50.5 -104.499c0 -104 -71.167 -156 -213.5 -156s-213.5 51 -213.5 153z" />
    <glyph glyph-name="slash" unicode="/" horiz-adv-x="692" 
d="M0 -372l462 1596l230 20l-466 -1602z" />
    <glyph glyph-name="zero" unicode="0" horiz-adv-x="946" 
d="M400 853.5c-5.33301 -63.667 -8 -165.001 -8 -304.001s6 -241.833 18 -308.5s35.333 -100 70 -100c28 0 47.5 34.833 58.5 104.5s16.5 173.334 16.5 311.001s-2.83301 237.334 -8.5 299.001s-15 105.5 -28 131.5s-29.667 39 -50 39s-35.5 -12.833 -45.5 -38.5
s-17.667 -70.334 -23 -134.001zM0 589.999c0 72.667 6.83496 141.001 20.502 205.001s32.834 118.333 57.501 163s52.667 83.5 84 116.5s65.666 58.833 102.999 77.5c73.333 36.667 141.666 55 204.999 55s116.333 -6 159 -18s84 -32.833 124 -62.5
s73.667 -67.834 101 -114.501c61.333 -102 92 -245 92 -429c0 -247.333 -72 -423 -216 -527c-78 -55.333 -164.667 -83 -260 -83c-202.667 0 -341.334 91.667 -416.001 275c-36 88 -54 202 -54 342z" />
    <glyph glyph-name="one" unicode="1" horiz-adv-x="861" 
d="M0 -5l17 129l224 67v724h-216l12 167l496 104h91v-1008l237 -46l-13 -137h-848z" />
    <glyph glyph-name="two" unicode="2" horiz-adv-x="951" 
d="M13 213l217.998 158c56 40 103.667 83 143 129c74 86.667 111 170.167 111 250.5s-14.167 141 -42.5 182s-65.166 61.5 -110.499 61.5c-14.667 0 -32.667 -3 -54 -9l-69 -378l-158 27l-51 372c54.667 62 132 111.833 232 149.5s190.167 56.5 270.5 56.5
s146.333 -9.5 198 -28.5s92.834 -44.167 123.501 -75.5c61.333 -64.667 92 -137.667 92 -219c0 -58.667 -10.5 -115.667 -31.5 -171s-46 -102.833 -75 -142.5s-65.833 -79.5 -110.5 -119.5c-63.333 -56 -139.333 -111 -228 -165l-70 -42h277l112 202l161 -16l-51 -435h-881z
" />
    <glyph glyph-name="three" unicode="3" horiz-adv-x="964" 
d="M16 9l75.0029 446.002l180 -20l28 -275c22.667 -5.33301 44.667 -8 66 -8c50 0 93 14.167 129 42.5s54 69.166 54 122.499c0 74.667 -25.667 132.167 -77 172.5s-128.333 53.5 -231 39.5l-40 128c100 18.667 179 47 237 85s87 85.167 87 141.5
s-18.833 100.666 -56.5 132.999s-82.834 48.5 -135.501 48.5c-10 0 -24.333 -1.33301 -43 -4l-58 -332l-166 11l-65 378c26 26 83.667 50.167 173 72.5s171.5 33.5 246.5 33.5s141.333 -4 199 -12s110.167 -21.333 157.5 -40c97.333 -39.333 146 -108.333 146 -207
c0 -116.667 -116.667 -214 -350 -292v-18c122 4.66699 217.167 -17.5 285.5 -66.5s103.666 -113.333 105.999 -193s-23.834 -150.167 -78.501 -211.5s-133.5 -110.5 -236.5 -147.5s-213.333 -55.5 -331 -55.5s-218.167 9.33301 -301.5 28z" />
    <glyph glyph-name="four" unicode="4" horiz-adv-x="1115" 
d="M315 514h216v303zM0 464l746 779l126 -33c-8 -160 -12 -336 -12 -528v-168h255l-16 -198h-239v-133l222 -57l-8 -128h-794l4 109l248 75v137h-507z" />
    <glyph glyph-name="five" unicode="5" horiz-adv-x="806" 
d="M0 7l77 421l150 -36l42 -275c17.333 -10.667 47.5 -16 90.5 -16s77.833 12.333 104.5 37s40 55.334 40 92.001s-5.16699 67.5 -15.5 92.5s-26.666 49.333 -48.999 73s-49.5 44.5 -81.5 62.5c-69.333 40.667 -157.666 61 -264.999 61l123 647l549 32l-43 -310l-398 -13
l-12 -105c252 -2 414 -83.667 486 -245c20.667 -45.333 31 -97.333 31 -156s-16 -115.834 -48 -171.501s-74 -101.5 -126 -137.5c-109.333 -74.667 -233.333 -112 -372 -112c-50.667 0 -103.334 5.16699 -158.001 15.5s-96.334 24.833 -125.001 43.5z" />
    <glyph glyph-name="six" unicode="6" horiz-adv-x="943" 
d="M372 366c0 -162.667 33.6641 -244 100.997 -244c26.667 0 50.334 18.167 71.001 54.5s31 87.5 31 153.5c0 4 0.333008 14 1 30s0.833984 29.333 0.500977 40s-1 24.5 -2 41.5s-3.5 31.333 -7.5 43s-9 23.167 -15 34.5c-13.333 23.333 -37.666 35 -72.999 35
s-69 -18 -101 -54c-4 -52 -6 -96.667 -6 -134zM52.4971 202c-35 65.333 -52.499 139.83 -52.499 223.497s17 165.5 51 245.5s77.333 148.833 130 206.5s113 110.5 181 158.5c121.333 84.667 250.333 144.334 387 179.001l67 -90
c-103.333 -55.333 -196.333 -123.666 -279 -204.999s-133.334 -166.666 -152.001 -255.999h19c56.667 61.333 129.5 92 218.5 92s164.667 -33.167 227 -99.5s93.5 -150.833 93.5 -253.5c0 -163.333 -71.667 -283 -215 -359c-77.333 -42 -164.5 -63 -261.5 -63
s-181.5 20.5 -253.5 61.5s-125.5 94.167 -160.5 159.5z" />
    <glyph glyph-name="seven" unicode="7" horiz-adv-x="899" 
d="M0 682l13 502h886v-127l-452 -1090l-396 39l549 882h-367l-101 -233z" />
    <glyph glyph-name="eight" unicode="8" horiz-adv-x="941" 
d="M463 1063c-42 0 -63 -27.666 -63 -82.999c0 -28 13.667 -63.167 41 -105.5s63.666 -77.5 108.999 -105.5c26 17.333 39 53.666 39 108.999s-13.167 100 -39.5 134s-55.166 51 -86.499 51zM342 347.001c0 -66.667 14.667 -121.999 44 -165.999s73.333 -66 132 -66
c27.333 0 50.5 8.16699 69.5 24.5s28.5 33.166 28.5 50.499s-3.66699 33 -11 47s-19.833 29.167 -37.5 45.5s-35.5 31.5 -53.5 45.5l-158 126c-12 -19.333 -17.333 -40.5 -16 -63.5s2 -37.5 2 -43.5zM0 270.002c0 134 71.334 229.998 214.001 287.998v15
c-112.667 90 -169 186.667 -169 290c0 89.333 37 166.333 111 231c79.333 70 195.666 105 348.999 105c114.667 0 207.167 -27.333 277.5 -82s105.5 -118.667 105.5 -192c0 -46 -17.333 -91.167 -52 -135.5s-81.667 -80.5 -141 -108.5l1 -16
c90 -58.667 154.667 -114.167 194 -166.5s59 -108.166 59 -167.499c0 -98 -48.167 -182.167 -144.5 -252.5s-218.833 -105.5 -367.5 -105.5c-211.333 0 -348.333 62.333 -411 187c-17.333 34.667 -26 71.334 -26 110.001z" />
    <glyph glyph-name="nine" unicode="9" horiz-adv-x="918" 
d="M378 1019c-12 -30.667 -18 -84.665 -18 -161.998c0 -156 26.667 -234 80 -234c31.333 0 61 12 89 36c5.33301 37.333 8 93.666 8 168.999c0 160 -32.667 239.333 -98 238c-28.667 -0.666992 -49 -16.334 -61 -47.001zM0 773.002c0 63.333 12.499 124.666 37.499 183.999
s58.833 107.666 101.5 144.999c87.333 76.667 193.333 115 318 115c156.667 0 272.667 -38.167 348 -114.5s113 -183.666 113 -321.999s-29 -266.666 -87 -384.999s-140 -215 -246 -290s-226 -118.5 -360 -130.5l-49 115c96 38 175 89.5 237 154.5s100 139.167 114 222.5
l-8 9c-41.333 -36 -112.666 -54 -213.999 -54c-74 0 -142 28 -204 84c-67.333 60 -101 149 -101 267z" />
    <glyph glyph-name="colon" unicode=":" horiz-adv-x="405" 
d="M0 144c0 38 14.6689 71.667 44.002 101s78.166 44 146.499 44s117.666 -14.333 147.999 -43s45.5 -62 45.5 -100c0 -98.667 -64 -148 -192 -148s-192 48.667 -192 146zM0.00195312 759c0 38 14.667 71.668 44 101.001s70 44 122 44s91.333 -4.33301 118 -13
s47 -20.334 61 -35.001c26 -28 39 -59.333 39 -94c0 -99.333 -64 -149 -192 -149s-192 48.667 -192 146z" />
    <glyph glyph-name="semicolon" unicode=";" horiz-adv-x="433" 
d="M10 759c0 38 14.667 71.668 44 101.001s70 44 122 44s91.333 -4.33301 118 -13s47 -20.334 61 -35.001c26 -28 39 -59.333 39 -94c0 -99.333 -64 -149 -192 -149s-192 48.667 -192 146zM7 -237.999c51.333 16 90.168 39 116.501 69s39.5 59 39.5 87
s-7.66699 49.333 -23 64s-33.5 22 -54.5 22s-39.833 -4 -56.5 -12c-19.333 30.667 -29 60.334 -29 89.001c0 52.667 17.667 93.167 53 121.5s81.666 42.5 138.999 42.5c154 0 231 -79.667 231 -239c0 -81.333 -32 -155.833 -96 -223.5s-157 -109.834 -279 -126.501z" />
    <glyph glyph-name="less" unicode="&#x3c;" horiz-adv-x="699" 
d="M699 36l-146 -120l-632 494l-10 94l629 470l147 -134l-336 -386z" />
    <glyph glyph-name="equal" unicode="=" horiz-adv-x="636" 
d="M3 276l11 188h625l-13 -188h-623zM0 557l11 188h625l-13 -188h-623z" />
    <glyph glyph-name="greater" unicode="&#x3e;" horiz-adv-x="699" 
d="M0 36l348 418l-336 386l147 134l629 -470l-10 -94l-632 -494z" />
    <glyph glyph-name="question" unicode="?" horiz-adv-x="616" 
d="M85 127c0 40 16.499 75.499 49.499 106.499s87.333 46.5 163 46.5s130.334 -15.167 164.001 -45.5s50.5 -65.166 50.5 -104.499c0 -104 -71.167 -156 -213.5 -156s-213.5 51 -213.5 153zM35.499 1001c-23.667 42.667 -35.5 86.832 -35.5 132.499
s18.333 83.334 55 113.001s88 44.5 154 44.5s125.5 -15.167 178.5 -45.5s99.333 -68.666 139 -114.999s72 -98.5 97 -156.5s37.5 -110 37.5 -156s-5.33301 -83.5 -16 -112.5s-24.5 -52 -41.5 -69s-35.667 -31.833 -56 -44.5s-40.666 -23.834 -60.999 -33.501
s-39.166 -19.167 -56.499 -28.5c-38 -22 -57 -52.333 -57 -91c0 -16.667 4.33301 -42.334 13 -77.001l-170 12c-30.667 46 -54 93.5 -70 142.5s-24 88.667 -24 119s11.167 57 33.5 80s49.666 41.167 81.999 54.5l96.5 38c76.667 27.333 115 58 115 92
c0 22.667 -13 40.834 -39 54.501s-56.5 20.5 -91.5 20.5s-75.167 -6.33301 -120.5 -19s-74.333 -26 -87 -40c-26.667 14 -51.834 42.333 -75.501 85z" />
    <glyph glyph-name="at" unicode="@" horiz-adv-x="1426" 
d="M621 395c0 -67.333 17.667 -100.996 53 -100.996c9.33301 0 27.666 4 54.999 12l44 342c-1.33301 -0.666992 -2.16602 -0.833984 -2.49902 -0.500977s-1.33301 1.16602 -3 2.49902s-3.5 2.66602 -5.5 3.99902c-4 3.33301 -14.5 5 -31.5 5s-34 -11.167 -51 -33.5
s-29.5 -49.5 -37.5 -81.5c-14 -60.667 -21 -110.334 -21 -149.001zM713 197.004c-51.333 -74 -112.997 -111.002 -184.997 -111.002c-52.667 0 -97 22.5 -133 67.5s-54 101.167 -54 168.5s10.5 127 31.5 179s51.833 100.333 92.5 145s95.5 80.834 164.5 108.501
s139 41.5 210 41.5s132.833 -6 185.5 -18l16 -17l-40 -366c-10 -80 -9 -127 3 -141c6 -7.33301 19.833 -11 41.5 -11s44.167 12.333 67.5 37s41.666 55.334 54.999 92.001c26.667 75.333 40 140.333 40 195c0 219.333 -132.333 328.333 -397 327
c-176 -0.666992 -313.833 -50 -413.5 -148s-149.5 -221.5 -149.5 -370.5s43.167 -259.667 129.5 -332s221.5 -108.5 405.5 -108.5c79.333 0 148.5 6 207.5 18s110.167 36.333 153.5 73l45 -110c-56.667 -43.333 -127.5 -77 -212.5 -101s-174.167 -36 -267.5 -36
c-220.667 0 -394 49.833 -520 149.5s-189 232.167 -189 397.5c0 150.667 51.667 286.667 155 408c111.333 130.667 254 220.667 428 270c94 26 181.667 39 263 39s148.5 -4.66699 201.5 -14s104.167 -24.833 153.5 -46.5s92 -48.5 128 -80.5
c79.333 -69.333 119 -157.5 119 -264.5s-23.833 -202.833 -71.5 -287.5s-111.334 -152.167 -191.001 -202.5s-164.167 -75.5 -253.5 -75.5c-50 0 -90.667 6.66699 -122 20c-58.667 23.333 -87.334 58.333 -86.001 105h-11z" />
    <glyph glyph-name="A" unicode="A" horiz-adv-x="1453" 
d="M538 561h251l-127 372zM0 0l19 138l161 103l388 964l347 65l390 -1032l148 -93l-12 -147h-725l16 138l166 104l-38 112h-392l-37 -112l189 -92l-15 -148h-605z" />
    <glyph glyph-name="B" unicode="B" horiz-adv-x="1228" 
d="M552 728h173.999c41.333 49.333 62 104 62 164c0 125.333 -61.333 188 -184 188c-13.333 0 -30.666 -1.66699 -51.999 -5v-347zM551.999 186h112.001c54 0 99 14.167 135 42.5s54 71 54 128s-20.333 105.333 -61 145s-94.334 59.5 -161.001 59.5h-79v-375zM0 0l14 138
l166 79v791l-169 44l10 159c230.667 30.667 410.5 46 539.5 46s229.5 -8.66699 301.5 -26s128 -41 168 -71c77.333 -58 116 -127.667 116 -209c0 -54.667 -20.167 -108.334 -60.5 -161.001s-87.833 -88 -142.5 -106v-10c97.333 -5.33301 170.333 -39.666 219 -102.999
c44 -57.333 66 -121.333 66 -192c0 -120 -50.667 -213.167 -152 -279.5s-245.333 -99.5 -432 -99.5h-644z" />
    <glyph glyph-name="C" unicode="C" horiz-adv-x="1242" 
d="M0 583c0 136.667 31.9971 259.665 95.9971 368.998c36.667 62.667 82.834 117 138.501 163s129.167 83.667 220.5 113s183.5 44 276.5 44s178.833 -9.33301 257.5 -28s136.334 -42.667 173.001 -72l-31 -424l-170 23l-64 232c-22 27.333 -50.833 48.666 -86.5 63.999
s-71.5 23 -107.5 23c-108.667 0 -187.667 -31.167 -237 -93.5s-74 -159.166 -74 -290.499c0 -334 139 -501 417 -501c120.667 0 229.334 36 326.001 108l59 -135c-49.333 -61.333 -117.5 -111.166 -204.5 -149.499s-190.167 -57.5 -309.5 -57.5
c-228 0 -398.333 53.333 -511 160s-169 257.334 -169 452.001z" />
    <glyph glyph-name="D" unicode="D" horiz-adv-x="1451" 
d="M573 202h74.998c210.667 0 338 85.667 382 257c10.667 42.667 16 86.667 16 132s-5.16699 88.5 -15.5 129.5s-27.166 82 -50.499 123s-52 77.167 -86 108.5c-76 70 -177 105 -303 105l-13 -1c0 -0.666992 2.33301 -1.5 7 -2.5s4.33398 -1.66699 -0.999023 -2
s-9 -0.5 -11 -0.5v-849zM-0.00195312 0l23 138.001l180 103v762l-173 46l7 157c217.333 34.667 393.833 52 529.5 52s242.167 -5.83301 319.5 -17.5s144 -27.834 200 -48.501s105.5 -46 148.5 -76s78 -62 105 -96s49.167 -72 66.5 -114c30 -74 45 -156.167 45 -246.5
s-19.833 -174.833 -59.5 -253.5s-94.667 -148 -165 -208s-158.333 -108 -264 -144s-220.5 -54 -344.5 -54h-618z" />
    <glyph glyph-name="E" unicode="E" horiz-adv-x="1237" 
d="M0 1100l19 144h1173l-30 -418l-171 26l-83 220h-345v-360l133 11l286 23l-33 -276l-386 70v-330l363 -40l146 258l165 -17l-30 -411h-1191l10 138l164 79v813z" />
    <glyph glyph-name="F" unicode="F" horiz-adv-x="1187" 
d="M0 1100l19 144h1168l-59 -410l-167 27l-60 211h-336v-386l227 23l192 19l-33 -276l-153 25l-233 37v-287l225 -84l-16 -143h-759l16 138l162 79v813z" />
    <glyph glyph-name="G" unicode="G" horiz-adv-x="1391" 
d="M0 580c0 86.667 14.332 167.666 42.999 242.999s67.667 140 117 194s106.666 100.333 171.999 139c128.667 76.667 271.667 115 429 115c110.667 0 209.334 -9.66699 296.001 -29c22 -5.33301 58.333 -16 109 -32l76 -25l-41 -439l-188 15l-41 218
c-33.333 34 -69.833 60.5 -109.5 79.5s-89.167 28.5 -148.5 28.5c-100 0 -176 -31 -228 -93s-78 -165.667 -78 -311s28.667 -265.666 86 -360.999s134 -143 230 -143c72.667 0 134.334 18.667 185.001 56v120l-221 64l23 172h660l-21 -156l-105 -72v-270
c-43.333 -28 -118.833 -54.5 -226.5 -79.5s-200.5 -37.5 -278.5 -37.5c-245.333 0 -430 51.167 -554 153.5s-186 252.5 -186 450.5z" />
    <glyph glyph-name="H" unicode="H" horiz-adv-x="1570" 
d="M0 1094l25 150h720l-19 -150l-167 -67v-283h447v276l-181 74l17 150h728l-19 -150l-168 -67v-816l179 -63l-14 -148h-723l14 138l167 79v276h-447v-282l181 -63l-18 -148h-717l12 138l169 79v803z" />
    <glyph glyph-name="I" unicode="I" horiz-adv-x="757" 
d="M0 1094l20 150h727l-16 -160l-179 -67v-794l180 -63l-13 -160h-717l10 142l176 79v799z" />
    <glyph glyph-name="J" unicode="J" horiz-adv-x="761" 
d="M0 -151c67.333 54 118.167 120.832 152.5 200.499s51.5 158.167 51.5 235.5v735l-179 74l19 150h717l-20 -150l-170 -67v-593c0 -156.667 -18.333 -283.334 -55 -380.001c-34 -89.333 -105 -174.666 -213 -255.999c-48.667 -37.333 -110.667 -78.666 -186 -123.999z" />
    <glyph glyph-name="K" unicode="K" horiz-adv-x="1507" 
d="M630 655c34 41.333 55.6689 69.6641 65.002 84.9971l172 263l40 241h521l-30 -150l-224 -94l-232 -315l158 -215c48 -65.333 83.667 -112.666 107 -141.999s50.666 -59.166 81.999 -89.499s61.166 -52.166 89.499 -65.499s62.833 -24.666 103.5 -33.999l25 -6l-32 -131
c-20.667 -8 -56 -14.833 -106 -20.5s-95.667 -8.5 -137 -8.5s-85.833 8.66699 -133.5 26s-91.167 43.666 -130.5 78.999c-68.667 60.667 -137 150 -205 268l-136 238zM0.00195312 1094l32 150h710l-21 -150l-136 -94v-760l195 -92l-12 -148h-765l16 138l202 103v752z" />
    <glyph glyph-name="L" unicode="L" horiz-adv-x="1202" 
d="M0 0l16 138l160 79v781l-172 100l19 147h743l-21 -147l-196 -98v-800l270 -22l174 275l166 -23l-47 -430h-1112z" />
    <glyph glyph-name="M" unicode="M" horiz-adv-x="1804" 
d="M0 0l21 154l168 79l58 797l-184 57l16 157h617l71 -205l148 -496l156 498l67 203h600l-18 -157l-162 -54l70 -804l176 -68l-14 -161h-641l23 154l112 79l-53 543l-225 -745l-283 -39l-239 795l-33 -558l129 -68l-25 -161h-555z" />
    <glyph glyph-name="N" unicode="N" horiz-adv-x="1403" 
d="M4 1087l14 157h440l532 -712v488l-188 74l24 150h577l-25 -150l-168 -67v-1012l-283 -44l-513 648v-408l180 -63l-13 -148h-581l10 138l171 79v786z" />
    <glyph glyph-name="O" unicode="O" horiz-adv-x="1462" 
d="M736 163c174.667 0 262 136.665 262 409.998c0 54.667 -4.83301 112 -14.5 172s-21.667 108 -36 144s-31.5 69.667 -51.5 101c-44.667 69.333 -110 104 -196 104c-168 0 -252 -141 -252 -423c0 -78.667 8.66699 -150.667 26 -216s36 -117.166 56 -155.499
s48 -70.666 84 -96.999s76.667 -39.5 122 -39.5zM0 618.998c0 195.333 67.499 352.501 202.499 471.501s318.5 178.5 550.5 178.5c366 0 591 -134.667 675 -404c22.667 -74 34 -160 34 -258s-20.167 -187.833 -60.5 -269.5s-95.5 -148.834 -165.5 -201.501
c-145.333 -108.667 -329.666 -163 -552.999 -163c-230.667 0 -403.667 60.333 -519 181c-109.333 114.667 -164 269.667 -164 465z" />
    <glyph glyph-name="P" unicode="P" horiz-adv-x="1195" 
d="M0 0l21.998 138.001l187 79v791l-190 44l13 159c128.667 20 238.334 34.333 329.001 43s186.5 13 287.5 13s182 -6.5 243 -19.5s114.833 -34.167 161.5 -63.5c94.667 -59.333 142 -161.333 142 -306c0 -122.667 -46.167 -225.834 -138.5 -309.501
s-211.833 -125.5 -358.5 -125.5c-22.667 0 -49.667 1.66699 -81 5l-32 174h21c72 0 126.5 18.833 163.5 56.5s55.5 88.5 55.5 152.5s-16.667 117.167 -50 159.5s-81.666 63.5 -144.999 63.5c-18 0 -40.333 -2.33301 -67 -7v-814l251 -69l-24 -164h-790z" />
    <glyph glyph-name="Q" unicode="Q" horiz-adv-x="1451" 
d="M435 671c0 -120 30.667 -230.999 92 -332.999c30 -49.333 69.5 -91.166 118.5 -125.499s104.167 -55.833 165.5 -64.5c73.333 37.333 123.333 90.166 150 158.499s40 157.166 40 266.499c0 181.333 -37.333 323.333 -112 426c-46 63.333 -110 95 -192 95
c-174.667 0 -262 -141 -262 -423zM0 609.001c0 95.333 18.333 183.837 55 265.504s87.667 151.5 153 209.5s145 103.333 239 136s195.333 49 304 49s204.667 -12.5 288 -37.5s156.333 -62.833 219 -113.5c128.667 -106 193 -271 193 -495
c0 -152.667 -46.333 -284.334 -139 -395.001c-88.667 -104.667 -195 -175.334 -319 -212.001c54.667 -99.333 199.667 -171.333 435 -216l-21 -135c-94.667 -32 -180.5 -48 -257.5 -48s-140.333 6.83301 -190 20.5s-94 34.167 -133 61.5s-67.833 64.666 -86.5 111.999
s-24 101.666 -16 162.999c-11.333 -0.666992 -24.333 -1 -39 -1c-219.333 0 -389 58.333 -509 175c-117.333 115.333 -176 269 -176 461z" />
    <glyph glyph-name="R" unicode="R" horiz-adv-x="1456" 
d="M732 668c79.333 43.333 119 107.333 119 192c0 59.333 -22.167 110 -66.5 152s-101.833 63 -172.5 63c-14.667 0 -25.667 -0.333008 -33 -1v-406h153zM0 0l19 138l190 79v779l-192 47l12 160c74 12 180.5 23.667 319.5 35s244.833 17 317.5 17
c198 0 345.167 -26.5 441.5 -79.5s144.5 -142.167 144.5 -267.5c0 -118.667 -62 -219 -186 -301c-30.667 -20 -60.667 -35 -90 -45v-1l121 -161c85.333 -113.333 159 -187 221 -221c30.667 -16.667 63.667 -29 99 -37l39 -9l-31 -131c-64 -19.333 -136.333 -29 -217 -29
c-115.333 0 -208.833 26.333 -280.5 79s-133.167 129.667 -184.5 231l-90 176h-74v-230l143 -74l-12 -155h-710z" />
    <glyph glyph-name="S" unicode="S" horiz-adv-x="969" 
d="M0 126l33.999 361.993l177 -29l42 -187c20 -28.667 51.167 -51 93.5 -67s84.333 -24 126 -24s74.167 9.83301 97.5 29.5s35 42.834 35 69.501s-11 50.5 -33 71.5s-50.5 39.5 -85.5 55.5s-73.833 32.167 -116.5 48.5s-85.167 35.833 -127.5 58.5
s-81.166 48.334 -116.499 77.001c-78.667 64.667 -118 153.334 -118 266.001c0 158 79.333 273.667 238 347c88 41.333 188.667 62 302 62c57.333 0 124.666 -9.16699 201.999 -27.5s128 -39.166 152 -62.499l-28 -362l-173 30l-39 143
c-21.333 30.667 -52.333 54.834 -93 72.501s-79.834 26.5 -117.501 26.5s-65.5 -8.66699 -83.5 -26s-27 -39.833 -27 -67.5s12.167 -52.667 36.5 -75s55.833 -42.333 94.5 -60s81.334 -36 128.001 -55s93.334 -41 140.001 -66s89.334 -52.833 128.001 -83.5
s70.167 -69.334 94.5 -116.001s36.5 -99.167 36.5 -157.5s-13.167 -111.666 -39.5 -159.999s-59.333 -87.166 -99 -116.499s-84.834 -53.666 -135.501 -72.999c-90 -35.333 -185.833 -53 -287.5 -53s-193 14 -274 42s-135.5 63.667 -163.5 107z" />
    <glyph glyph-name="T" unicode="T" horiz-adv-x="1264" 
d="M0 1244h1264l-32 -448l-183 31l-64 245h-184v-864l202 -55l-16 -153h-737l13 140l177 69v863h-180l-87 -286l-170 26z" />
    <glyph glyph-name="U" unicode="U" 
d="M0 1094l29.001 150.002h720l-22 -150l-165 -67v-486c0 -106 26.167 -183.833 78.5 -233.5s121.5 -74.5 207.5 -74.5c178 0 267 101.333 267 304v483l-176 74l20 150h585l-17 -150l-165 -67l-4 -462c-4 -394.667 -197.667 -592 -581 -592
c-108.667 0 -184.834 5.66699 -228.501 17s-80.667 23.166 -111 35.499s-56.833 27 -79.5 44s-45 38.5 -67 64.5s-40 55.333 -54 88c-31.333 73.333 -47 160.666 -47 261.999v536z" />
    <glyph glyph-name="V" unicode="V" horiz-adv-x="1470" 
d="M0 1087l20 157h756l-23 -157l-162 -60l235 -606l218 604l-174 62l15 157h585l-15 -157l-134 -60l-394 -992l-353 -58l-429 1048z" />
    <glyph glyph-name="W" unicode="W" horiz-adv-x="2037" 
d="M0 1089l11 155h755l-36 -163l-153 -54l154 -541l175 714l339 40l206 -738l153 528l-167 54l21 160h579l-25 -157l-132 -54l-335 -995l-333 -61l-207 744l-178 -683l-346 -62l-305 1047z" />
    <glyph glyph-name="X" unicode="X" horiz-adv-x="1344" 
d="M0 0l25 157l129 76l326 378l-341 401l-126 54l28 178h645l-27 -168l-91 -66l160 -200l159 204l-114 70l27 160h508l-24 -157l-130 -72l-305 -350l392 -440l103 -46l-26 -179h-644l29 166l90 65l-184 235l-161 -234l143 -65l-31 -167h-560z" />
    <glyph glyph-name="Y" unicode="Y" horiz-adv-x="1308" 
d="M0 1089l32 156h661l-28 -156l-75 -61l149 -289l151 286l-99 62l24 157h473l-24 -157l-114 -60l-316 -529v-277l167 -81l-13 -140h-702l18 138l159 79v268l-329 542z" />
    <glyph glyph-name="Z" unicode="Z" horiz-adv-x="1072" 
d="M0 236l631 833h-340l-63 -257l-200 32l11 400h1031l-8 -155l-685 -883l358 -30l187 281l150 -23l-61 -434h-998z" />
    <glyph glyph-name="bracketleft" unicode="[" horiz-adv-x="477" 
d="M477 -214l-28 -164h-449l4 1633h436l30 -161l-239 -19v-1268z" />
    <glyph glyph-name="backslash" unicode="\" horiz-adv-x="696" 
d="M0 1333l235 -17l461 -1726l-227 13z" />
    <glyph glyph-name="bracketright" unicode="]" horiz-adv-x="477" 
d="M0 -214l246 21v1268l-239 19l30 161h436l4 -1633h-449z" />
    <glyph glyph-name="asciicircum" unicode="^" horiz-adv-x="640" 
d="M0 825l241 412l144 13l255 -427l-122 -34l-216 174h-11l-177 -167z" />
    <glyph glyph-name="underscore" unicode="_" horiz-adv-x="843" 
d="M0 -130l16 182h827l-16 -182h-827z" />
    <glyph glyph-name="grave" unicode="`" horiz-adv-x="368" 
d="M0 1656l218 40l150 -348l-159 -31z" />
    <glyph glyph-name="a" unicode="a" horiz-adv-x="932" 
d="M335 353c-26 -23.333 -39 -46.668 -39 -70.001s7.16699 -42.166 21.5 -56.499s34.5 -21.5 60.5 -21.5s52.667 9.66699 80 29v164c-56 -6.66699 -97 -21.667 -123 -45zM0 187.998c0 93.333 40.835 170.832 122.502 232.499s193.5 92.167 335.5 91.5v95
c0 46 -12.333 84.667 -37 116s-51.667 47 -81 47s-50.166 -15.833 -62.499 -47.5s-21.5 -88.5 -27.5 -170.5c-108 0 -174.667 21.333 -200 64c-10.667 17.333 -16 42.166 -16 74.499s23.667 69.5 71 111.5s107.166 77 179.499 105s145.666 42 219.999 42
s136.5 -24.333 186.5 -73s75 -127 75 -235v-267c0 -59.333 5.66699 -99.166 17 -119.499s38.333 -35.166 81 -44.499l28 -6l-25 -170c-32.667 -21.333 -53.167 -33.333 -61.5 -36s-16.666 -5.66699 -24.999 -9s-15.333 -5.33301 -21 -6s-12.834 -1.66699 -21.501 -3
c-12 -2.66699 -37.333 -4 -76 -4c-74.667 0 -129 43.333 -163 130l-5 13l-13 6c-14.667 -39.333 -48.334 -73.833 -101.001 -103.5s-109.667 -44.5 -171 -44.5s-111.5 17.5 -150.5 52.5s-58.5 87.833 -58.5 158.5z" />
    <glyph glyph-name="b" unicode="b" horiz-adv-x="1078" 
d="M461 259c42 -38 83.5 -57 124.5 -57s75.167 22.833 102.5 68.5s41 100 41 163s-10.167 114 -30.5 153s-51 58.5 -92 58.5s-89.5 -22.333 -145.5 -67v-319zM0 1086l27.998 165l376 26l57 -54v-345l-15 -101l15 -6c48.667 54 92.167 94 130.5 120s82.833 39 133.5 39
c107.333 0 193 -40 257 -120s96 -177.833 96 -293.5s-26.5 -213.667 -79.5 -294s-121.5 -141.333 -205.5 -183s-174.333 -62.5 -271 -62.5c-55.333 0 -121.166 6.33301 -197.499 19s-136.166 31 -179.499 55v935z" />
    <glyph glyph-name="c" unicode="c" horiz-adv-x="857" 
d="M0 426c0 194.667 81.334 345.333 244.001 452c90.667 59.333 183.167 89 277.5 89s168.166 -23 221.499 -69s80 -100 80 -162s-18.667 -106.833 -56 -134.5s-86 -44.834 -146 -51.501c-28 87.333 -54.333 146.833 -79 178.5s-55.667 47.5 -93 47.5
c-77.333 0 -116 -87 -116 -261c0 -84 21.5 -157.5 64.5 -220.5s101.5 -94.5 175.5 -94.5c51.333 0 94.166 5.5 128.499 16.5s72.833 29.167 115.5 54.5l40 -104c-26 -55.333 -74.167 -102.166 -144.5 -140.499s-147.166 -57.5 -230.499 -57.5
c-321.333 0 -482 152.333 -482 457z" />
    <glyph glyph-name="d" unicode="d" horiz-adv-x="1064" 
d="M370 627c-22 -48.667 -32.999 -102.167 -32.999 -160.5s12 -108.5 36 -150.5s55.667 -63 95 -63s80.666 12.667 123.999 38v319c-50 60 -94 90 -132 90s-68 -24.333 -90 -73zM270.001 862.5c64 32.333 128.333 48.499 193 48.499s111 -9.33301 139 -28h4l-10 73v31
l-173 101l25 164l390 27l60 -55v-849c0 -50 8.83301 -84.833 26.5 -104.5s54.834 -38.5 111.501 -56.5l28 -9l-25 -170c-82.667 -38.667 -161.334 -58 -236.001 -58c-101.333 0 -168.666 43.333 -201.999 130l-5 13l-13 6c-32.667 -45.333 -68.5 -80.833 -107.5 -106.5
s-87.333 -38.5 -145 -38.5s-107.334 10.5 -149.001 31.5s-75.5 49.5 -101.5 85.5c-53.333 74 -80 163.667 -80 269c0 138.667 38.667 261.334 116 368.001c38.667 52.667 90 95.167 154 127.5z" />
    <glyph glyph-name="e" unicode="e" horiz-adv-x="845" 
d="M319 506l176 23.001c4 12 6 37.167 6 75.5s-6.66699 71 -20 98s-35.5 40.5 -66.5 40.5s-55 -22.333 -72 -67s-24.833 -101.334 -23.5 -170.001zM328 387.001c8 -125.333 91.3311 -187.999 249.998 -187.999c100.667 0 183.334 18.667 248.001 56l19 -133
c-28.667 -38 -69 -69 -121 -93c-86.667 -40 -190 -60 -310 -60s-219 39.667 -297 119s-117 193.333 -117 342c0 73.333 14.167 142.833 42.5 208.5s65.333 121 111 166s98.167 80.5 157.5 106.5s119.333 39 180 39c106.667 0 189.334 -34.167 248.001 -102.5
s88 -157.5 88 -267.5c0 -46.667 -7 -106.334 -21 -179.001z" />
    <glyph glyph-name="f" unicode="f" horiz-adv-x="895" 
d="M0 0l12 158l155 72v470h-150l10 149l138 24c8 127.333 53 228 135 302s186 111 312 111c86 0 142.167 -5.33301 168.5 -16s47.5 -21.334 63.5 -32.001c34 -20.667 51 -53.667 51 -99s-20 -84.666 -60 -117.999s-82.333 -52 -127 -56l-33 68c-34 67.333 -69 101 -105 101
s-62.833 -12.167 -80.5 -36.5s-26.5 -71.833 -26.5 -142.5v-89h263l-14 -166h-249v-460l245 -68l-8 -172h-700z" />
    <glyph glyph-name="g" unicode="g" horiz-adv-x="1017" 
d="M371 645c0 -92.667 31.667 -152.667 95 -180c-0.666992 -0.666992 -1.66699 -1 -3 -1c44 0 72.5 11 85.5 33s19.5 69 19.5 141c0 20 -5.33301 46 -16 78c-20.667 65.333 -54.667 98 -102 98c-22.667 0 -41.5 -13 -56.5 -39s-22.5 -69.333 -22.5 -130zM278 -79
c0 -85.333 61.833 -128 185.5 -128s185.5 34.667 185.5 104c0 36 -12.167 62.667 -36.5 80s-64.5 26 -120.5 26h-197c-11.333 -30.667 -17 -58 -17 -82zM27.5 -248.5c-18.333 29 -27.502 60.165 -27.502 93.498s14.333 65.666 43 96.999s67 52.333 115 63v17
c-32 15.333 -55.667 34.666 -71 57.999s-23 55 -23 95s20.667 77.333 62 112s85.666 57.334 132.999 68.001l-3 18c-38 15.333 -74.667 47.333 -110 96s-53 100 -53 154c0 84.667 34.833 159.334 104.5 224.001s160.667 97 273 97s205.833 -21 280.5 -63l236 32l30 -34
l-45 -193l-34 -4l-90 28l-5 -5c2 -17.333 3 -34 3 -50c0 -67.333 -17 -125.666 -51 -174.999c-66.667 -98 -171.667 -147 -315 -147c-8 0 -30.667 2.66699 -68 8c-16.667 -18 -25 -35 -25 -51c0 -33.333 32 -50 96 -50h137c114.667 0 200 -19.5 256 -58.5
s84 -100.833 84 -185.5c0 -94.667 -49.333 -180.667 -148 -258c-47.333 -36.667 -108 -66.334 -182 -89.001s-140.833 -34 -200.5 -34s-105.167 1.83301 -136.5 5.5s-65.166 10.834 -101.499 21.501s-68.166 24.334 -95.499 41.001s-50.166 39.5 -68.499 68.5z" />
    <glyph glyph-name="h" unicode="h" horiz-adv-x="1165" 
d="M15 -2l17.0029 156.999l142 72v755l-174 101l25 164l390 27l60 -55v-321l-20 -133l15 -6c107.333 112 207.666 168 300.999 168c77.333 0 137.666 -23.167 180.999 -69.5s65 -119.166 65 -218.499v-412l148 -64l-23 -165h-436v429c0 62 -7.83301 106.333 -23.5 133
s-41.834 40 -78.501 40s-74 -16.667 -112 -50v-323l113 -63l-28 -166h-562z" />
    <glyph glyph-name="i" unicode="i" horiz-adv-x="638" 
d="M124 1022.5c-36 29.667 -54.002 67.3301 -54.002 112.997s20.333 82.834 61 111.501s98.334 43 173.001 43s132.334 -14.667 173.001 -44s61 -66.166 61 -110.499s-19.667 -81.666 -59 -111.999s-99.333 -45.5 -180 -45.5s-139 14.833 -175 44.5z
M-0.00195312 -0.00390625l8 176l154 54v389l-148 109l33 173l373 27l56 -56v-642l162 -56l-11 -174h-627z" />
    <glyph glyph-name="j" unicode="j" horiz-adv-x="632" 
d="M211.5 1009c-36.333 32 -54.501 72.501 -54.501 121.501s20.5 88.833 61.5 119.5s99.333 46 175 46s134.334 -15.667 176.001 -47s62.5 -70.833 62.5 -118.5s-20 -87.834 -60 -120.501s-101 -49 -183 -49s-141.167 16 -177.5 48zM-0.000976562 -212.999l68 49
c30 22 50.667 39.333 62 52l38 42c13.333 15.333 23.333 29.333 30 42l22 48c24 50 36 116 36 198v388l-146 112l37 182l366 23l59 -53v-720c0 -228.667 -118.667 -391.667 -356 -489c-24 -10 -52 -20.667 -84 -32l-51 -11z" />
    <glyph glyph-name="k" unicode="k" horiz-adv-x="1157" 
d="M504 402l10 44.999l185 313l-135 57l22 158h536l-29 -151l-147 -63l-166 -258l13 -20c58.667 -90.667 112.5 -161.667 161.5 -213s102.833 -96.333 161.5 -135l41 -27l-27 -108l-29 -5c-118 -20 -207.667 -17.667 -269 7c-80.667 32.667 -166 125.334 -256 278.001z
M0 -0.000976562l16 176l151 54v745l-167 102l34 172l388 28l60 -59v-988l111 -56l-25 -174h-568z" />
    <glyph glyph-name="l" unicode="l" horiz-adv-x="638" 
d="M0 0l15 176l152 54v745l-167 102l34 173l391 25l57 -57v-988l156 -56l-13 -174h-625z" />
    <glyph glyph-name="m" unicode="m" horiz-adv-x="1696" 
d="M0 0l16.999 156.999l142 72v411l-142 81l27 168l403 29l38 -39l-23 -102l15 -6c50.667 52.667 98.334 92.167 143.001 118.5s93.334 39.5 146.001 39.5c120 0 194.667 -56 224 -168l14 -5c52.667 54 103 96.333 151 127s97 46 147 46
c77.333 0 137.666 -23.167 180.999 -69.5s65 -119.166 65 -218.499v-412l148 -64l-23 -165h-436v429c0 62 -7.83301 106.333 -23.5 133s-44.167 40 -85.5 40s-80 -15.667 -116 -47v-326l131 -64l-23 -165h-419v429c0 62 -7.83301 106.333 -23.5 133s-43.5 40 -83.5 40
s-79 -16.667 -117 -50v-323l123 -63l-28 -166h-572z" />
    <glyph glyph-name="n" unicode="n" horiz-adv-x="1160" 
d="M0 0l16.999 156.999l142 72v411l-142 81l27 168l403 29l38 -39l-23 -102l15 -6c50.667 52.667 98.334 92.167 143.001 118.5s93.334 39.5 146.001 39.5c77.333 0 137.666 -23.167 180.999 -69.5s65 -119.166 65 -218.499v-412l148 -64l-23 -165h-436v429
c0 62 -7.83301 106.333 -23.5 133s-43.5 40 -83.5 40s-79 -16.667 -117 -50v-323l123 -63l-28 -166h-572z" />
    <glyph glyph-name="o" unicode="o" horiz-adv-x="978" 
d="M361 690c-18 -35.333 -27 -101.999 -27 -199.999c0 -214.667 57 -322 171 -322c42.667 0 72.5 13.667 89.5 41s25.5 69.666 25.5 126.999s-0.833008 101.5 -2.5 132.5s-5.66699 65 -12 102s-14.833 67.167 -25.5 90.5c-26 54.667 -64.5 82 -115.5 82
s-85.5 -17.667 -103.5 -53zM0 470.001c0 70 15.333 136.332 46 198.999s70 114.334 118 155.001c102 84.667 212.333 127 331 127c308.667 0 463 -153.667 463 -461c0 -157.333 -44.167 -282.833 -132.5 -376.5s-205.5 -140.5 -351.5 -140.5
c-176.667 0 -302 51.333 -376 154c-65.333 90.667 -98 205 -98 343z" />
    <glyph glyph-name="p" unicode="p" horiz-adv-x="1101" 
d="M0 -370l17.998 158.001l155 70v787l-152 81l27 168l416 29l38 -39l-23 -82l15 -6c28 40.667 64.833 74.834 110.5 102.501s94.834 41.5 147.501 41.5s98.334 -8.33301 137.001 -25s74.334 -42.334 107.001 -77.001c70 -74.667 105 -190.667 105 -348
c0 -170.667 -48.333 -299.334 -145 -386.001c-92.667 -82 -210.334 -123 -353.001 -123c-56 0 -95.667 2 -119 6v-131l245 -66l-22 -160h-707zM483.998 208.001c43.333 -18.667 87.333 -28 132 -28s82.667 17.5 114 52.5s47 89.167 47 162.5s-11 133 -33 179
s-57.5 69 -106.5 69s-100.167 -17.667 -153.5 -53v-382z" />
    <glyph glyph-name="q" unicode="q" horiz-adv-x="1060" 
d="M0 386c0 64 13.001 128.501 39.001 193.501s61 123.667 105 176s97.833 95 161.5 128s127.667 49.5 192 49.5s125.166 -12 182.499 -36l170 39l51 -5v-1068l159 -67l-19 -159h-607l18 159l152 67v219c-59.333 -67.333 -153.666 -101 -282.999 -101
c-98.667 0 -176.834 33.167 -234.501 99.5s-86.5 168.166 -86.5 305.499zM604.001 259.001l0.000976562 322.999c-12.667 30.667 -33.5 55.334 -62.5 74.001s-54.833 28 -77.5 28c-50 0 -86 -17 -108 -51s-33 -87.5 -33 -160.5s14.167 -131.667 42.5 -176
s62.5 -66.5 102.5 -66.5c57.333 0 102.666 9.66699 135.999 29z" />
    <glyph glyph-name="r" unicode="r" horiz-adv-x="871" 
d="M0 2l21.9971 158.999l146 68v414l-140 78l27 168l365 29l38 -39l-18 -141l19 -10c45.333 134.667 127.333 202 246 202c51.333 0 91.833 -15 121.5 -45s44.5 -68.333 44.5 -115c0 -82 -35 -156.667 -105 -224c-55.333 26.667 -96.666 40 -123.999 40
s-47.666 -2.33301 -60.999 -7s-24.166 -9.66699 -32.499 -15s-16.666 -13.5 -24.999 -24.5s-14.333 -19.667 -18 -26s-8.83398 -16.166 -15.501 -29.499l-12 -24v-209l239 -63l-14 -186h-703z" />
    <glyph glyph-name="s" unicode="s" horiz-adv-x="779" 
d="M53 60c-35.333 31.333 -53 69 -53 113s16.667 79.5 50 106.5s80.666 43.167 141.999 48.5c18.667 -66 44 -116.5 76 -151.5s67.833 -52.5 107.5 -52.5s67.667 4.33301 84 13s24.5 22.834 24.5 42.501s-8.33301 36.834 -25 51.501s-38.334 28.667 -65.001 42l-87 43
c-128.667 62 -211.334 130.667 -248.001 206c-16.667 34 -25 67.167 -25 99.5s3.83301 61.666 11.5 87.999s21.334 54 41.001 83s43.834 54.833 72.501 77.5c66 52 153.167 78 261.5 78s192.666 -15.333 252.999 -46s90.5 -70.5 90.5 -119.5s-19 -88.5 -57 -118.5
s-82.667 -47.667 -134 -53l-33 86c-26 68 -76.667 102 -152 102c-26 0 -46.667 -6.33301 -62 -19s-23 -27.834 -23 -45.501s8.83301 -34.167 26.5 -49.5s40.334 -30 68.001 -44s58.5 -28.833 92.5 -44.5s68 -33.667 102 -54s64.667 -42.5 92 -66.5
c63.333 -56 95 -128.333 95 -217s-40 -160 -120 -214s-183.667 -81 -311 -81c-125.333 0 -223.666 32 -294.999 96z" />
    <glyph glyph-name="t" unicode="t" horiz-adv-x="762" 
d="M450 354c-1.33301 -84.667 42.6689 -127.001 132.002 -127.001c44 0 87.333 9.66699 130 29l30 -133c-28 -38.667 -69.833 -72.667 -125.5 -102s-121.834 -44 -198.501 -44c-112 0 -188.833 23.333 -230.5 70s-61.834 129.334 -60.501 248.001l3 368h-100v149
c102 62 189.667 150.333 263 265h163v-221h274l-12 -196h-266z" />
    <glyph glyph-name="u" unicode="u" horiz-adv-x="1143" 
d="M0 718l33.999 182.999l364 22l56 -53v-401c0 -64 6.16699 -108.833 18.5 -134.5s37.333 -38.5 75 -38.5s75.5 16.667 113.5 50v258l-129 76l34 209l358 42l53 -53v-505c0 -51.333 9.33301 -88.333 28 -111s55.334 -42.667 110.001 -60l28 -9l-25 -170
c-82.667 -38.667 -159 -58 -229 -58c-142.667 0 -214 50 -214 150v13l-13 6c-28.667 -51.333 -68.167 -91.666 -118.5 -120.999s-100.5 -44 -150.5 -44c-102 0 -172.167 22.833 -210.5 68.5s-57.5 122.167 -57.5 229.5v346z" />
    <glyph glyph-name="v" unicode="v" horiz-adv-x="1032" 
d="M0 766l22 156h551l-20 -156l-93 -57l114 -377l132 374l-84 60l28 156h382l-25 -156l-86 -57l-260 -715l-279 -26l-270 738z" />
    <glyph glyph-name="w" unicode="w" horiz-adv-x="1310" 
d="M0 766l23 159h485l-21 -157l-78 -75l63 -352l15 116l79 403l231 20l123 -563l11 159l26 215l-60 75l21 159h392l-24 -157l-106 -75l-178 -703l-259 -31l-104 455l-96 -425l-238 -28l-191 730z" />
    <glyph glyph-name="x" unicode="x" horiz-adv-x="990" 
d="M0 0l13 157l137 52l176 237l-233 285l-82 39l31 161h293l204 -296l74 107l-62 58l28 131h411l-23 -156l-126 -43l-191 -228l224 -281l116 -44l-23 -179h-311l-217 312l-57 -113l101 -65l-25 -134h-458z" />
    <glyph glyph-name="y" unicode="y" horiz-adv-x="1120" 
d="M72 -334c-48 32 -72 68.833 -72 110.5s5.5 77.5 16.5 107.5s33.5 61.667 67.5 95c24 -26 57 -46.667 99 -62s84.333 -23 127 -23c66 0 112.333 21.667 139 65l14 23l-313 722l-126 59l23 159h555l-21 -156l-90 -57l143 -388l154 380l-116 65l27 156h421l-17 -156l-98 -62
l-324 -719c-59.333 -132 -122.833 -226.167 -190.5 -282.5s-154.5 -84.5 -260.5 -84.5c-57.333 0 -110 16 -158 48z" />
    <glyph glyph-name="z" unicode="z" horiz-adv-x="817" 
d="M16 180l391 567h-147l-99 -173l-161 29l25 319h773l-6 -159l-422 -582h183l122 185l142 -36l-39 -330h-754z" />
    <glyph glyph-name="braceleft" unicode="{" horiz-adv-x="677" 
d="M677 -379l-245.002 0.00195312c-56 0 -101.5 12 -136.5 36s-59.167 55.667 -72.5 95s-22.333 83 -27 131s-7.5 96.667 -8.5 146s-4.16699 95 -9.5 137c-11.333 97.333 -50.333 153 -117 167l-61 13v199l58 12c64.667 13.333 103.667 57.666 117 132.999
c12.667 71.333 19 139.166 19 203.499s3.83301 116.166 11.5 155.499s18.5 74.333 32.5 105c30.667 67.333 94.667 101 192 101h240l-6 -203l-133 -3c-22 -0.666992 -36.167 -19.834 -42.5 -57.501s-9 -84 -8 -139s0.333008 -110.667 -2 -167
s-14.166 -106.166 -35.499 -149.499s-53.666 -69 -96.999 -77v-13c36.667 -24 65.167 -56.667 85.5 -98s32.333 -84.166 36 -128.499s6 -89.833 7 -136.5s1.16699 -88.334 0.5 -125.001c-1.33301 -83.333 20.667 -125.666 66 -126.999l124 -4z" />
    <glyph glyph-name="bar" unicode="|" horiz-adv-x="196" 
d="M0 -363v1623l196 -12v-1627z" />
    <glyph glyph-name="braceright" unicode="}" horiz-adv-x="677" 
d="M0 -379l11.998 205.999l124 4c45.333 1.33301 67.333 43.666 66 126.999c-2 93.333 -0.333008 171.333 5 234c10 122 51.333 206.667 124 254v13c-43.333 8 -75.666 33.667 -96.999 77s-33.166 93.166 -35.499 149.499s-3 112 -2 167s-1.66699 101.333 -8 139
s-20.5 56.834 -42.5 57.501l-133 3l-6 203h240c97.333 0 161.333 -33.667 192 -101c29.333 -64 44 -128.167 44 -192.5s1.66699 -117.166 5 -158.499s8 -79 14 -113c13.333 -75.333 52.333 -119.666 117 -132.999l58 -12v-199l-61 -13c-66.667 -14 -106 -69.667 -118 -167
c-4.66699 -42 -7.5 -87.667 -8.5 -137s-3.83301 -98 -8.5 -146s-13.667 -91.667 -27 -131s-37.5 -71 -72.5 -95s-80.5 -36 -136.5 -36h-245z" />
    <glyph glyph-name="asciitilde" unicode="~" horiz-adv-x="824" 
d="M3 282c-10 87.333 -0.334961 171.332 28.998 251.999c31.333 84.667 86 139.334 164 164.001c40 12.667 87.667 12 143 -2l342 -83c32 -6.66699 61.667 11 89 53c6 10 11.667 22 17 36l174 -18c-1.33301 -197.333 -57.666 -323.333 -168.999 -378
c-57.333 -27.333 -125.666 -30.666 -204.999 -9.99902l-315 82c-24.667 6.66699 -44.5 1.16699 -59.5 -16.5s-23.833 -36.834 -26.5 -57.501l-5 -32z" />
    <glyph glyph-name="uni00A0" unicode="&#xa0;" horiz-adv-x="0" 
 />
    <glyph glyph-name="exclamdown" unicode="&#xa1;" horiz-adv-x="425" 
d="M408 -294c0 -74.667 -68.667 -112 -206 -112c-54.667 0 -94 6.5 -118 19.5s-36 36.833 -36 71.5c0 216.667 26.333 501 79 853l167 -29c24 -125.333 49 -278.5 75 -459.5s39 -295.5 39 -343.5zM427 773c0 -40 -16.499 -75.499 -49.499 -106.499s-87.333 -46.5 -163 -46.5
s-130.334 15.167 -164.001 45.5s-50.5 65.166 -50.5 104.499c0 104 71.167 156 213.5 156s213.5 -51 213.5 -153z" />
    <glyph glyph-name="cent" unicode="&#xa2;" horiz-adv-x="867" 
d="M346 1232l227.002 17l-22 -237c135.333 -4 223.666 -64.667 264.999 -182c11.333 -32 17 -70.667 17 -116s-17.833 -84.833 -53.5 -118.5s-81.834 -53.5 -138.501 -59.5c-35.333 104.667 -67.5 176.5 -96.5 215.5s-61.833 58.5 -98.5 58.5c-75.333 0 -113 -93 -113 -279
c0 -83.333 21.333 -154.333 64 -213s101.334 -88 176.001 -88c50 0 93.333 6.66699 130 20s78 33.666 124 60.999l40 -134c-22.667 -46.667 -62.834 -89.167 -120.501 -127.5s-121.5 -63.166 -191.5 -74.499l30 -225l-229 -16l24 242c-192 26.667 -311.667 127.667 -359 303
c-14 52 -21 109.667 -21 173c0 129.333 36.5 240.833 109.5 334.5s162.167 159.167 267.5 196.5z" />
    <glyph glyph-name="sterling" unicode="&#xa3;" horiz-adv-x="1208" 
d="M0 0l10.998 138l164 79c21.333 54 34 92 38 114s7 65 9 129l1 41l-186 -14l16 184l173 8l2 67c2.66699 82.667 22.834 157.167 60.501 223.5s86.834 119.833 147.501 160.5c124 83.333 268 125 432 125c101.333 0 196 -16.667 284 -50l-41 -426l-160 22l-80 213
c-44 18.667 -88.167 28 -132.5 28s-76.5 -9.33301 -96.5 -28c-40 -39.333 -60 -142 -60 -308v-20l283 15l-11 -181l-276 -13l-3 -24c-1.33301 -11.333 -2.83301 -31 -4.5 -59s-3.5 -50.667 -5.5 -68c-6 -49.333 -22.667 -91 -50 -125l318 -50l199 260l176 -34l-54 -407
h-1154z" />
    <glyph glyph-name="currency" unicode="&#xa4;" horiz-adv-x="850" 
d="M353.5 577c-21.667 -22 -32.5 -51 -32.5 -87s10.667 -66 32 -90s46.5 -36 75.5 -36s53.833 11.167 74.5 33.5s31 52 31 89s-10.167 66.833 -30.5 89.5s-45 34 -74 34s-54.333 -11 -76 -33zM0 733l165.998 153l139 -145c32.667 28.667 74.334 43 125.001 43
s90.334 -10.667 119.001 -32l141 139l165 -159l-149 -137c16 -28.667 24 -65 24 -109s-9.66699 -82 -29 -114l159 -151l-176 -150l-145 155c-40.667 -24 -79.5 -36 -116.5 -36s-71.167 9.33301 -102.5 28l-146 -164l-165 158l155 150c-23.333 33.333 -35 72 -35 116
s9 81 27 111z" />
    <glyph glyph-name="yen" unicode="&#xa5;" horiz-adv-x="1126" 
d="M0 1089l32 156h542l-28 -156l-64 -61l144 -342l168 344l-102 59l25 156h409l-23 -156l-114 -59l-216 -400h200l-9 -140h-239v-52h243l-13 -131h-230v-104l127 -62l-11 -141h-580l18 131l99 81v95h-246l14 131h232v52h-243l17 140h190l-216 397z" />
    <glyph glyph-name="brokenbar" unicode="&#xa6;" horiz-adv-x="219" 
d="M0 528v746l216 -26l2 -743zM0 -351v766l219 -28v-766z" />
    <glyph glyph-name="section" unicode="&#xa7;" horiz-adv-x="972" 
d="M17 934c0 52 11.499 101.833 34.499 149.5s56.5 84.5 100.5 110.5s93 44.5 147 55.5s116.667 16.5 188 16.5s138.833 -7.33301 202.5 -22s110.834 -33.667 141.501 -57l-13 -288l-171 23l-49 146c-46.667 32.667 -97.667 49 -153 49c-73.333 0 -110 -40.667 -110 -122
c0 -54.667 40 -97.667 120 -129l248 -92c226.667 -82.667 295.334 -234 206.001 -454l-519 225c-158.667 68 -261.334 130 -308.001 186c-43.333 51.333 -65 119 -65 203zM7.99902 -231l21.001 310.999l185 -34l48 -203c12.667 -10.667 38.834 -22.167 78.501 -34.5
s78.167 -18.5 115.5 -18.5c96 0 144 43 144 129c0 31.333 -13.333 59.5 -40 84.5s-60.667 45.833 -102 62.5l-134 55c-49.333 20.667 -96 42.667 -140 66s-82.667 54.333 -116 93c-68 80 -83.333 191.333 -46 334l652 -288c86.667 -39.333 144 -74.666 172 -105.999
c34 -36.667 54 -65 60 -85c14.667 -44 22 -90.667 22 -140s-12.333 -98.166 -37 -146.499s-55.834 -87 -93.501 -116s-80.834 -53.167 -129.501 -72.5c-86 -35.333 -169.333 -53 -250 -53s-161 16.667 -241 50s-136.333 70.666 -169 111.999z" />
    <glyph glyph-name="dieresis" unicode="&#xa8;" horiz-adv-x="594" 
d="M0 1465c0 28 10.833 52.833 32.5 74.5s57.5 32.5 107.5 32.5s86.167 -10.5 108.5 -31.5s33.5 -45.5 33.5 -73.5c0 -72.667 -47 -109 -141 -109s-141 35.667 -141 107zM309 1465c0 28 10.833 52.833 32.5 74.5s57.5 32.5 107.5 32.5s86.167 -10.5 108.5 -31.5
s33.5 -45.5 33.5 -73.5c0 -72.667 -47 -109 -141 -109s-141 35.667 -141 107z" />
    <glyph glyph-name="copyright" unicode="&#xa9;" horiz-adv-x="1389" 
d="M323 678c0 164 67.667 290.004 203 378.004c77.333 50 155.333 75 234 75s140.167 -19.333 184.5 -58s66.5 -87.334 66.5 -146.001c0 -84 -56.333 -132.333 -169 -145c-23.333 73.333 -45.333 123.166 -66 149.499s-46.667 39.5 -78 39.5c-64 0 -96 -73 -96 -219
c0 -70.667 17.833 -132.334 53.5 -185.001s84.5 -79 146.5 -79c43.333 0 79.333 4.66699 108 14s60.667 24.666 96 45.999l34 -87c-22 -46.667 -62.333 -86 -121 -118s-123 -48 -193 -48c-268.667 0 -403 127.667 -403 383zM337 1097
c-87.333 -98 -130.999 -231 -130.999 -399s46.833 -298 140.5 -390s216.167 -138 367.5 -138c141.333 0 259.666 44 354.999 132c46 42 82.333 96.5 109 163.5s40 139.5 40 217.5s-10.167 149.5 -30.5 214.5s-50.666 123.667 -90.999 176s-94.333 93.833 -162 124.5
s-144.834 46 -231.501 46c-156.667 0 -278.667 -49 -366 -147zM0.000976562 687.004c0 108.667 18.502 207.835 55.502 297.502s87.833 164.5 152.5 224.5c134 125.333 305.5 188 514.5 188s375.667 -63.667 500 -191s186.5 -296 186.5 -506c0 -88 -18 -173.833 -54 -257.5
s-84.833 -157.334 -146.5 -221.001s-136.334 -114.834 -224.001 -153.501s-179.834 -58 -276.501 -58c-222 0 -395.5 60.833 -520.5 182.5s-187.5 286.5 -187.5 494.5z" />
    <glyph glyph-name="ordfeminine" unicode="&#xaa;" horiz-adv-x="932" 
d="M359 749c0 -39.333 18 -59.001 54 -59.001c16 0 34.667 7.66699 56 23v121c-46.667 -5.33301 -75.667 -14.666 -87 -27.999c-15.333 -18 -23 -37 -23 -57zM102 675.999c0 74.667 32.668 136.83 98.001 186.497s155 74.167 269 73.5v76
c0 36.667 -8.33301 65.834 -25 87.501s-36.5 32.5 -59.5 32.5s-37.833 -10.333 -44.5 -31s-12.667 -65 -18 -133c-94 0 -153 16.667 -177 50c-10.667 14.667 -16 34.834 -16 60.501s18.833 55.167 56.5 88.5s85.5 61.333 143.5 84s108.333 34 151 34
s77.5 -4.33301 104.5 -13s52.167 -22 75.5 -40c50 -39.333 75 -103.666 75 -192.999v-214c0 -47.333 4.5 -79.166 13.5 -95.499s30.5 -28.166 64.5 -35.499l23 -5l-20 -136c-52 -30.667 -103.667 -46 -155 -46s-87.333 7.33301 -108 22
c-21.333 15.333 -40 42.666 -56 81.999l-10 5c-11.333 -30.667 -37.833 -56.334 -79.5 -77.001s-87.334 -31 -137.001 -31s-90.167 14 -121.5 42s-47 70 -47 126z" />
    <glyph glyph-name="guillemotleft" unicode="&#xab;" horiz-adv-x="667" 
d="M313 469l267 349l74 -106l-115 -252l128 -268l-94 -117l-263 372zM3 469l267 349l74 -106l-115 -252l128 -268l-94 -117l-263 372z" />
    <glyph glyph-name="logicalnot" unicode="&#xac;" horiz-adv-x="805" 
d="M0 459l12 202h803v-400l-219 -20v218h-596z" />
    <glyph glyph-name="uni00AD" unicode="&#xad;" horiz-adv-x="512" 
d="M0 348l5 224l507 56l-6 -223z" />
    <glyph glyph-name="registered" unicode="&#xae;" horiz-adv-x="1321" 
d="M261 1036c0 -128 37.667 -226.666 113 -295.999s179.5 -104 312.5 -104s238.333 34.167 316 102.5s116.5 163.666 116.5 285.999s-41 219.833 -123 292.5s-186.667 109 -314 109c-280.667 0 -421 -130 -421 -390zM123 1023c0 70 10.832 134.332 32.499 192.999
s50.667 107.834 87 147.501s78.833 73.167 127.5 100.5c91.333 52 195.333 78 312 78c192.667 0 343.334 -57 452.001 -171c82 -85.333 123 -200.333 123 -345c0 -193.333 -85.667 -336 -257 -428c-96.667 -52 -206 -78 -328 -78c-114 0 -216 24.667 -306 74
c-162 88 -243 231 -243 429zM697.999 1073c28.667 16 43 41.667 43 77c0 70.667 -30.333 106 -91 106h-11v-183h59zM367.999 773l8.99805 62l75 35v351l-76 21l6 72c96 15.333 190.167 23 282.5 23s161.666 -12 207.999 -36s69.5 -64 69.5 -120
c0 -36.667 -12.833 -66.5 -38.5 -89.5s-55.167 -40.167 -88.5 -51.5v-1l39 -62c32 -49.333 82.667 -94 152 -134l18 -10l-14 -59c-27.333 -8.66699 -64.166 -13 -110.499 -13s-88.666 14 -126.999 42s-65.166 66.333 -80.499 115l-20 61h-33v-103l54 -34l-5 -69h-320z" />
    <glyph glyph-name="macron" unicode="&#xaf;" horiz-adv-x="474" 
d="M0 1379l21 195h453l-22 -195h-452z" />
    <glyph glyph-name="degree" unicode="&#xb0;" horiz-adv-x="424" 
d="M153 1129c0 -70.667 22 -106 66 -106c17.333 0 30.833 7.66699 40.5 23s14.5 36.333 14.5 63s-5.66699 50 -17 70s-26.5 30 -45.5 30s-33.5 -7.66699 -43.5 -23s-15 -34.333 -15 -57zM72 975c-33.333 31.333 -50 74.167 -50 128.5s20.333 101.333 61 141
s89 59.5 145 59.5s101.333 -15.833 136 -47.5s52 -75 52 -130s-22 -101.833 -66 -140.5s-93 -58 -147 -58s-97.667 15.667 -131 47z" />
    <glyph glyph-name="plusminus" unicode="&#xb1;" horiz-adv-x="631" 
d="M0 610l8 165h219v245l188 -12v-233h226l-13 -165h-213v-234l-188 4v230h-227zM21 141l15 178l580 22l-15 -185z" />
    <glyph glyph-name="uni00B2" unicode="&#xb2;" horiz-adv-x="740" 
d="M70 706l116.002 82.998c64 46 112.333 92 145 138s49 81.667 49 107c0 48 -24 72 -72 72c-11.333 0 -27 -3.66699 -47 -11l-40 -173l-109 10l-42 228c38 35.333 87.167 63.5 147.5 84.5s120.666 31.5 180.999 31.5s110.5 -6.33301 150.5 -19s71 -29 93 -49
c45.333 -39.333 68 -78.666 68 -117.999s-9.33301 -75.833 -28 -109.5s-43.334 -63.167 -74.001 -88.5c-57.333 -47.333 -120 -84.666 -188 -111.999l-80 -33l201 -20l88 121l111 -6l-34 -314h-622z" />
    <glyph glyph-name="uni00B3" unicode="&#xb3;" horiz-adv-x="698" 
d="M244 1152l-28.001 -1.00098l-32 -150l-146 5l-38 200c18 26 59.167 50.333 123.5 73s123.5 34 177.5 34s101.5 -2.5 142.5 -7.5s78.5 -13.167 112.5 -24.5c70 -23.333 105 -65.666 105 -126.999c0 -31.333 -13.667 -61.333 -41 -90
c-49.333 -51.333 -118.333 -88 -207 -110v-10c105.333 4 178.666 -7.33301 219.999 -34s63 -71 65 -133c2.66699 -76.667 -41.166 -142.167 -131.499 -196.5s-205.833 -81.5 -346.5 -81.5c-77.333 0 -146 9.33301 -206 28l47 277l158 -8l11 -121
c12 -2.66699 24.667 -4 38 -4s27.333 6.33301 42 19s22 33 22 61s-11 52.333 -33 73s-51 26.334 -87 17.001l-36 125c97.333 15.333 146 48.666 146 99.999c0 28 -7.66699 49.333 -23 64s-33.666 22 -54.999 22z" />
    <glyph glyph-name="acute" unicode="&#xb4;" horiz-adv-x="317" 
d="M-1 1389l155 325l220 -14l-231 -332z" />
    <glyph glyph-name="paragraph" unicode="&#xb6;" horiz-adv-x="1605" 
d="M1144 -2v1247h441l-19 -156l-178 -67v-808l190 -66l-9 -150h-425zM164 488.5c-109.333 70.333 -164 173.168 -164 308.501s44.5 243.833 133.5 325.5s211.167 122.5 366.5 122.5h531v-1247h-544l11 138l258 80v852c-66.667 13.333 -124.334 20 -173.001 20
c-79.333 0 -138.666 -18.333 -177.999 -55s-59 -94.667 -59 -174c0 -64 22 -122.333 66 -175c48 -58 121 -85.667 219 -83l-18 -193c-190 -16.667 -339.667 10.166 -449 80.499z" />
    <glyph glyph-name="periodcentered" unicode="&#xb7;" horiz-adv-x="427" 
d="M0 505c0 40 16.499 75.499 49.499 106.499s87.333 46.5 163 46.5s130.334 -15.167 164.001 -45.5s50.5 -65.166 50.5 -104.499c0 -104 -71.167 -156 -213.5 -156s-213.5 51 -213.5 153z" />
    <glyph glyph-name="cedilla" unicode="&#xb8;" horiz-adv-x="379" 
d="M19 -300c38.667 0.666992 71.167 7.5 97.5 20.5s39.5 27.5 39.5 43.5c0 26 -52 56.667 -156 92l188 147h174l-118 -86c116.667 -10 175 -57.667 175 -143c0 -56 -27.667 -97 -83 -123s-149 -39 -281 -39z" />
    <glyph glyph-name="uni00B9" unicode="&#xb9;" horiz-adv-x="617" 
d="M0 528l15 130l128 35v380h-121l11 168l378 33h69v-588l137 -20l-7 -138h-610z" />
    <glyph glyph-name="ordmasculine" unicode="&#xba;" horiz-adv-x="978" 
d="M406 1082.5c-11.333 -27 -16.9971 -80.834 -16.9971 -161.501s9.16699 -143.834 27.5 -189.501s51.166 -68.5 98.499 -68.5c32.667 0 54.5 10.333 65.5 31s16.5 52 16.5 94s-0.166992 69.333 -0.5 82s-0.833008 30.334 -1.5 53.001s-2.33398 40.334 -5.00098 53.001
l-8 46c-4.66699 24.667 -13.667 45.667 -27 63c-20.667 25.333 -47.834 38 -81.501 38s-56.167 -13.5 -67.5 -40.5zM101.003 912.999c0 50 12.666 100.167 37.999 150.5s58.333 91.5 99 123.5c85.333 68 175 102 269 102c122.667 0 216.834 -30.833 282.501 -92.5
s98.5 -154.5 98.5 -278.5s-36.667 -223.5 -110 -298.5s-169 -112.5 -287 -112.5c-160.667 0 -273 56.333 -337 169c-35.333 62 -53 141 -53 237z" />
    <glyph glyph-name="guillemotright" unicode="&#xbb;" horiz-adv-x="667" 
d="M354 469l3 -22l-263 -372l-94 117l128 268l-115 252l74 106zM664 469l3 -22l-263 -372l-94 117l128 268l-115 252l74 106z" />
    <glyph glyph-name="onequarter" unicode="&#xbc;" horiz-adv-x="1595" 
d="M80 35l557 553l543 619l302 -2v-75l-541 -539l-493 -610zM-144 528l15 130l128 35v380h-121l11 168l378 33h69v-588l137 -20l-7 -138h-610zM1090 275h125v166zM887 295l498 411.999l111 -26c-7.33301 -85.333 -11 -170.666 -11 -255.999v-111h148l-9 -169h-139v-82
l99 -28l-7 -95h-485l5 90l99 32v86h-294z" />
    <glyph glyph-name="onehalf" unicode="&#xbd;" horiz-adv-x="1595" 
d="M80 35l557 553l543 619l302 -2v-75l-541 -539l-493 -610zM-144 528l15 130l128 35v380h-121l11 168l378 33h69v-588l137 -20l-7 -138h-610zM1021 118l116.002 82.998c64 46 112.333 92 145 138s49 81.667 49 107c0 48 -24 72 -72 72c-11.333 0 -27 -3.66699 -47 -11
l-40 -173l-109 10l-42 228c38 35.333 87.167 63.5 147.5 84.5s120.666 31.5 180.999 31.5s110.5 -6.33301 150.5 -19s71.333 -29 94 -49c44.667 -39.333 67 -78.666 67 -117.999s-9.33301 -75.833 -28 -109.5s-43.334 -63.167 -74.001 -88.5
c-57.333 -47.333 -120 -84.666 -188 -111.999l-80 -33l201 -20l88 121l111 -6l-34 -314h-622z" />
    <glyph glyph-name="threequarters" unicode="&#xbe;" horiz-adv-x="1595" 
d="M1090 275h125v166zM887 295l498 411.999l111 -26c-7.33301 -85.333 -11 -170.666 -11 -255.999v-111h148l-9 -169h-139v-82l99 -28l-7 -95h-485l5 90l99 32v86h-294zM80 34.999l557 553l543 619l302 -2v-75l-541 -539l-493 -610zM96 1142l-28.001 -1.00098l-32 -150
l-146 5l-38 200c18 26 59.167 50.333 123.5 73s123.5 34 177.5 34s101.5 -2.5 142.5 -7.5s78.5 -13.167 112.5 -24.5c70 -23.333 105 -65.666 105 -126.999c0 -31.333 -13.667 -61.333 -41 -90c-49.333 -51.333 -118.333 -88 -207 -110v-10
c105.333 4 178.666 -7.33301 219.999 -34s63 -71 65 -133c2.66699 -76.667 -41.166 -142.167 -131.499 -196.5s-205.833 -81.5 -346.5 -81.5c-77.333 0 -146 9.33301 -206 28l47 277l158 -8l11 -121c12 -2.66699 24.667 -4 38 -4s27.333 6.33301 42 19s22 33 22 61
s-11 52.333 -33 73s-51 26.334 -87 17.001l-36 125c97.333 15.333 146 48.666 146 99.999c0 28 -7.66699 49.333 -23 64s-33.666 22 -54.999 22z" />
    <glyph glyph-name="questiondown" unicode="&#xbf;" horiz-adv-x="634" 
d="M576 775c0 -40 -16.499 -75.499 -49.499 -106.499s-87.333 -46.5 -163 -46.5s-130.334 15.167 -164.001 45.5s-50.5 65.166 -50.5 104.499c0 104 71.167 156 213.5 156s213.5 -51 213.5 -153zM625.501 -98.999c23.667 -42.667 35.5 -86.832 35.5 -132.499
s-18.333 -83.334 -55 -113.001s-88 -44.5 -154 -44.5s-125.5 15.167 -178.5 45.5s-99.333 68.666 -139 114.999s-72 98.5 -97 156.5s-37.5 110 -37.5 156s5.33301 83.5 16 112.5s24.5 52 41.5 69s35.667 31.833 56 44.5s40.666 23.834 60.999 33.501
s38.833 19.167 55.5 28.5c38.667 22 58 52.333 58 91c0 16.667 -4.33301 42.334 -13 77.001l170 -12c30.667 -46 54 -93.5 70 -142.5s24 -88.667 24 -119s-11.167 -57 -33.5 -80s-49.5 -41.167 -81.5 -54.5s-64 -26 -96 -38c-77.333 -27.333 -116 -58 -116 -92
c0 -22.667 13 -40.834 39 -54.501s56.5 -20.5 91.5 -20.5s75.167 6.33301 120.5 19s74.333 26 87 40c26.667 -14 51.834 -42.333 75.501 -85z" />
    <glyph glyph-name="Agrave" unicode="&#xc0;" horiz-adv-x="1453" 
d="M538 561h251l-127 372zM0 0l19 138l161 103l388 964l347 65l390 -1032l148 -93l-12 -147h-725l16 138l166 104l-38 112h-392l-37 -112l189 -92l-15 -148h-605zM456 1731l218 40l150 -348l-159 -31z" />
    <glyph glyph-name="Aacute" unicode="&#xc1;" horiz-adv-x="1453" 
d="M538 561h251l-127 372zM0 0l19 138l161 103l388 964l347 65l390 -1032l148 -93l-12 -147h-725l16 138l166 104l-38 112h-392l-37 -112l189 -92l-15 -148h-605zM657 1403l155 325l220 -14l-231 -332z" />
    <glyph glyph-name="Acircumflex" unicode="&#xc2;" horiz-adv-x="1453" 
d="M538 561h251l-127 372zM0 0l19 138l161 103l388 964l347 65l390 -1032l148 -93l-12 -147h-725l16 138l166 104l-38 112h-392l-37 -112l189 -92l-15 -148h-605zM474 1402l171 195l177 20l204 -205l-151 -59l-139 101h-14l-103 -102z" />
    <glyph glyph-name="Atilde" unicode="&#xc3;" horiz-adv-x="1453" 
d="M538 561h251l-127 372zM0 0l19 138l161 103l388 964l347 65l390 -1032l148 -93l-12 -147h-725l16 138l166 104l-38 112h-392l-37 -112l189 -92l-15 -148h-605zM439 1398c-8.66699 66 3.66797 126.668 37.001 182.001c16 27.333 40.167 47.166 72.5 59.499
s70.166 13.833 113.499 4.5l227 -49c13.333 -2.66699 25.833 0.333008 37.5 9s22.5 23.334 32.5 44.001l115 -11c-0.666992 -85.333 -22.5 -149.833 -65.5 -193.5s-103.833 -56.167 -182.5 -37.5l-209 49c-16 4 -29 0.666992 -39 -10s-17 -28.334 -21 -53.001z" />
    <glyph glyph-name="Adieresis" unicode="&#xc4;" horiz-adv-x="1453" 
d="M538 561h251l-127 372zM0 0l19 138l161 103l388 964l347 65l390 -1032l148 -93l-12 -147h-725l16 138l166 104l-38 112h-392l-37 -112l189 -92l-15 -148h-605zM453 1509c0 28 10.833 52.833 32.5 74.5s57.5 32.5 107.5 32.5s86.167 -10.5 108.5 -31.5
s33.5 -45.5 33.5 -73.5c0 -72.667 -47 -109 -141 -109s-141 35.667 -141 107zM762 1509c0 28 10.833 52.833 32.5 74.5s57.5 32.5 107.5 32.5s86.167 -10.5 108.5 -31.5s33.5 -45.5 33.5 -73.5c0 -72.667 -47 -109 -141 -109s-141 35.667 -141 107z" />
    <glyph glyph-name="Aring" unicode="&#xc5;" horiz-adv-x="1453" 
d="M538 561h251l-127 372zM0 0l19 138l161 103l388 964l347 65l390 -1032l148 -93l-12 -147h-725l16 138l166 104l-38 112h-392l-37 -112l189 -92l-15 -148h-605zM661 1547c0 -38 25.666 -57 76.999 -57c20.667 0 38.834 5 54.501 15s23.5 24 23.5 42s-8.5 32.333 -25.5 43
s-35.5 16 -55.5 16s-37.333 -5.66699 -52 -17s-22 -25.333 -22 -42zM729.999 1380c-173.333 0 -260 55.333 -260 166c0 50.667 22.667 92.167 68 124.5s114 48.5 206 48.5c183.333 0 275 -54.667 275 -164c0 -49.333 -23.833 -90.833 -71.5 -124.5
s-120.167 -50.5 -217.5 -50.5z" />
    <glyph glyph-name="AE" unicode="&#xc6;" horiz-adv-x="1832" 
d="M656 615h286l-12 393zM0 -2l20 164l134 75l561 783l-180 74l21 150h1251l-30 -418l-171 26l-83 220h-248l17 -364l132 16l206 25l-32 -242l-166 16l-24 3l-109 10l16 -338l266 -18l146 248l165 -17l-30 -411h-1071l13 138l163 79l-13 226h-402l-132 -200l181 -93
l-17 -152h-584z" />
    <glyph glyph-name="Ccedilla" unicode="&#xc7;" horiz-adv-x="1242" 
d="M712 -28l-32.0039 -1.00098c-228 0 -398.333 53.333 -511 160s-169 257.334 -169 452.001c0 136.667 32 259.667 96 369c36.667 62.667 82.834 117 138.501 163s129.167 83.667 220.5 113s183.5 44 276.5 44s178.833 -9.33301 257.5 -28s136.334 -42.667 173.001 -72
l-31 -424l-170 23l-64 232c-22 27.333 -50.833 48.666 -86.5 63.999s-71.5 23 -107.5 23c-108.667 0 -187.667 -31.167 -237 -93.5s-74 -159.166 -74 -290.499c0 -334 139 -501 417 -501c120.667 0 229.334 36 326.001 108l59 -135
c-81.333 -101.333 -200.666 -166 -357.999 -194h66l-118 -86c116.667 -10 175 -57.667 175 -143c0 -56 -27.667 -97 -83 -123s-149 -39 -281 -39l-36 88c38.667 0.666992 71.167 7.5 97.5 20.5s39.5 27.5 39.5 43.5c0 26 -52 56.667 -156 92z" />
    <glyph glyph-name="Egrave" unicode="&#xc8;" horiz-adv-x="1237" 
d="M0 1100l19 144h1173l-30 -418l-171 26l-83 220h-345v-360l133 11l286 23l-33 -276l-386 70v-330l363 -40l146 258l165 -17l-30 -411h-1191l10 138l164 79v813zM316 1730l218 40l150 -348l-158 -31z" />
    <glyph glyph-name="Eacute" unicode="&#xc9;" horiz-adv-x="1237" 
d="M0 1100l19 144h1173l-30 -418l-171 26l-83 220h-345v-360l133 11l286 23l-33 -276l-386 70v-330l363 -40l146 258l165 -17l-30 -411h-1191l10 138l164 79v813zM538 1402l154 325l220 -14l-230 -332z" />
    <glyph glyph-name="Ecircumflex" unicode="&#xca;" horiz-adv-x="1237" 
d="M0 1100l19 144h1173l-30 -418l-171 26l-83 220h-345v-360l133 11l286 23l-33 -276l-386 70v-330l363 -40l146 258l165 -17l-30 -411h-1191l10 138l164 79v813zM364 1401l172 195l176 20l204 -205l-150 -59l-140 101h-14l-102 -102z" />
    <glyph glyph-name="Edieresis" unicode="&#xcb;" horiz-adv-x="1237" 
d="M0 1100l19 144h1173l-30 -418l-171 26l-83 220h-345v-360l133 11l286 23l-33 -276l-386 70v-330l363 -40l146 258l165 -17l-30 -411h-1191l10 138l164 79v813zM356 1498c0 28 10.833 52.833 32.5 74.5s57.5 32.5 107.5 32.5s86.167 -10.5 108.5 -31.5
s33.5 -45.5 33.5 -73.5c0 -72.667 -47 -109 -141 -109s-141 35.667 -141 107zM665 1498c0 28 10.833 52.833 32.5 74.5s57.5 32.5 107.5 32.5s86.167 -10.5 108.5 -31.5s33.5 -45.5 33.5 -73.5c0 -72.667 -47 -109 -141 -109s-141 35.667 -141 107z" />
    <glyph glyph-name="Igrave" unicode="&#xcc;" horiz-adv-x="757" 
d="M0 1094l20 150h727l-16 -160l-179 -67v-794l180 -63l-13 -160h-717l10 142l176 79v799zM94 1730l218 40l150 -348l-158 -31z" />
    <glyph glyph-name="Iacute" unicode="&#xcd;" horiz-adv-x="757" 
d="M0 1094l20 150h727l-16 -160l-179 -67v-794l180 -63l-13 -160h-717l10 142l176 79v799zM306 1402l154 325l220 -14l-230 -332z" />
    <glyph glyph-name="Icircumflex" unicode="&#xce;" horiz-adv-x="757" 
d="M0 1094l20 150h727l-16 -160l-179 -67v-794l180 -63l-13 -160h-717l10 142l176 79v799zM122 1401l172 195l176 20l204 -205l-150 -59l-140 101h-14l-102 -102z" />
    <glyph glyph-name="Idieresis" unicode="&#xcf;" horiz-adv-x="757" 
d="M0 1094l20 150h727l-16 -160l-179 -67v-794l180 -63l-13 -160h-717l10 142l176 79v799zM84 1498c0 28 10.833 52.833 32.5 74.5s57.5 32.5 107.5 32.5s86.167 -10.5 108.5 -31.5s33.5 -45.5 33.5 -73.5c0 -72.667 -47 -109 -141 -109s-141 35.667 -141 107zM393 1498
c0 28 10.833 52.833 32.5 74.5s57.5 32.5 107.5 32.5s86.167 -10.5 108.5 -31.5s33.5 -45.5 33.5 -73.5c0 -72.667 -47 -109 -141 -109s-141 35.667 -141 107z" />
    <glyph glyph-name="Eth" unicode="&#xd0;" horiz-adv-x="1451" 
d="M573 202h74.998c210.667 0 338 85.667 382 257c10.667 42.667 16 86.667 16 132s-5.16699 88.5 -15.5 129.5s-27.166 82 -50.499 123s-52 77.167 -86 108.5c-76 70 -177 105 -303 105l-13 -1c0 -0.666992 2.33301 -1.5 7 -2.5s4.33398 -1.66699 -0.999023 -2
s-9 -0.5 -11 -0.5v-339l198 25l-19 -189l-179 -12v-334zM22.998 483l15 183.001l165 14v323l-173 46l7 157c217.333 34.667 393.833 52 529.5 52s242.167 -5.83301 319.5 -17.5s144 -27.834 200 -48.501s105.5 -46 148.5 -76s78 -62 105 -96s49.167 -72 66.5 -114
c30 -74 45 -156.167 45 -246.5s-19.833 -174.833 -59.5 -253.5s-94.667 -148 -165 -208s-158.333 -108 -264 -144s-220.5 -54 -344.5 -54h-618l23 138l180 103v258z" />
    <glyph glyph-name="Ntilde" unicode="&#xd1;" horiz-adv-x="1403" 
d="M4 1087l14 157h440l532 -712v488l-188 74l24 150h577l-25 -150l-168 -67v-1012l-283 -44l-513 648v-408l180 -63l-13 -148h-581l10 138l171 79v786zM389 1397c-8.66699 66 3.66797 127 37.001 183c16 26.667 40.167 46.167 72.5 58.5s70.166 13.833 113.499 4.5l227 -49
c13.333 -2.66699 25.833 0.333008 37.5 9s22.5 23.334 32.5 44.001l115 -11c-0.666992 -85.333 -22.5 -149.833 -65.5 -193.5s-103.833 -56.167 -182.5 -37.5l-209 49c-16 4 -29 0.666992 -39 -10s-17 -28.334 -21 -53.001z" />
    <glyph glyph-name="Ograve" unicode="&#xd2;" horiz-adv-x="1462" 
d="M736 163c174.667 0 262 136.665 262 409.998c0 54.667 -4.83301 112 -14.5 172s-21.667 108 -36 144s-31.5 69.667 -51.5 101c-44.667 69.333 -110 104 -196 104c-168 0 -252 -141 -252 -423c0 -78.667 8.66699 -150.667 26 -216s36 -117.166 56 -155.499
s48 -70.666 84 -96.999s76.667 -39.5 122 -39.5zM0 618.998c0 195.333 67.499 352.501 202.499 471.501s318.5 178.5 550.5 178.5c366 0 591 -134.667 675 -404c22.667 -74 34 -160 34 -258s-20.167 -187.833 -60.5 -269.5s-95.5 -148.834 -165.5 -201.501
c-145.333 -108.667 -329.666 -163 -552.999 -163c-230.667 0 -403.667 60.333 -519 181c-109.333 114.667 -164 269.667 -164 465zM483.999 1730l218 40l150 -348l-159 -31z" />
    <glyph glyph-name="Oacute" unicode="&#xd3;" horiz-adv-x="1462" 
d="M736 163c174.667 0 262 136.665 262 409.998c0 54.667 -4.83301 112 -14.5 172s-21.667 108 -36 144s-31.5 69.667 -51.5 101c-44.667 69.333 -110 104 -196 104c-168 0 -252 -141 -252 -423c0 -78.667 8.66699 -150.667 26 -216s36 -117.166 56 -155.499
s48 -70.666 84 -96.999s76.667 -39.5 122 -39.5zM0 618.998c0 195.333 67.499 352.501 202.499 471.501s318.5 178.5 550.5 178.5c366 0 591 -134.667 675 -404c22.667 -74 34 -160 34 -258s-20.167 -187.833 -60.5 -269.5s-95.5 -148.834 -165.5 -201.501
c-145.333 -108.667 -329.666 -163 -552.999 -163c-230.667 0 -403.667 60.333 -519 181c-109.333 114.667 -164 269.667 -164 465zM634.999 1402l155 325l220 -14l-231 -332z" />
    <glyph glyph-name="Ocircumflex" unicode="&#xd4;" horiz-adv-x="1462" 
d="M736 163c174.667 0 262 136.665 262 409.998c0 54.667 -4.83301 112 -14.5 172s-21.667 108 -36 144s-31.5 69.667 -51.5 101c-44.667 69.333 -110 104 -196 104c-168 0 -252 -141 -252 -423c0 -78.667 8.66699 -150.667 26 -216s36 -117.166 56 -155.499
s48 -70.666 84 -96.999s76.667 -39.5 122 -39.5zM0 618.998c0 195.333 67.499 352.501 202.499 471.501s318.5 178.5 550.5 178.5c366 0 591 -134.667 675 -404c22.667 -74 34 -160 34 -258s-20.167 -187.833 -60.5 -269.5s-95.5 -148.834 -165.5 -201.501
c-145.333 -108.667 -329.666 -163 -552.999 -163c-230.667 0 -403.667 60.333 -519 181c-109.333 114.667 -164 269.667 -164 465zM461.999 1401l171 195l177 20l204 -205l-151 -59l-139 101h-14l-103 -102z" />
    <glyph glyph-name="Otilde" unicode="&#xd5;" horiz-adv-x="1462" 
d="M736 163c174.667 0 262 136.665 262 409.998c0 54.667 -4.83301 112 -14.5 172s-21.667 108 -36 144s-31.5 69.667 -51.5 101c-44.667 69.333 -110 104 -196 104c-168 0 -252 -141 -252 -423c0 -78.667 8.66699 -150.667 26 -216s36 -117.166 56 -155.499
s48 -70.666 84 -96.999s76.667 -39.5 122 -39.5zM0 618.998c0 195.333 67.499 352.501 202.499 471.501s318.5 178.5 550.5 178.5c366 0 591 -134.667 675 -404c22.667 -74 34 -160 34 -258s-20.167 -187.833 -60.5 -269.5s-95.5 -148.834 -165.5 -201.501
c-145.333 -108.667 -329.666 -163 -552.999 -163c-230.667 0 -403.667 60.333 -519 181c-109.333 114.667 -164 269.667 -164 465zM410.999 1397c-8.66699 66 3.66797 127 37.001 183c16 26.667 40.167 46.167 72.5 58.5s70.166 13.833 113.499 4.5l227 -49
c13.333 -2.66699 25.833 0.333008 37.5 9s22.5 23.334 32.5 44.001l115 -11c-0.666992 -85.333 -22.5 -149.833 -65.5 -193.5s-103.833 -56.167 -182.5 -37.5l-209 49c-16 4 -29 0.666992 -39 -10s-17 -28.334 -21 -53.001z" />
    <glyph glyph-name="Odieresis" unicode="&#xd6;" horiz-adv-x="1462" 
d="M736 163c174.667 0 262 136.665 262 409.998c0 54.667 -4.83301 112 -14.5 172s-21.667 108 -36 144s-31.5 69.667 -51.5 101c-44.667 69.333 -110 104 -196 104c-168 0 -252 -141 -252 -423c0 -78.667 8.66699 -150.667 26 -216s36 -117.166 56 -155.499
s48 -70.666 84 -96.999s76.667 -39.5 122 -39.5zM0 618.998c0 195.333 67.499 352.501 202.499 471.501s318.5 178.5 550.5 178.5c366 0 591 -134.667 675 -404c22.667 -74 34 -160 34 -258s-20.167 -187.833 -60.5 -269.5s-95.5 -148.834 -165.5 -201.501
c-145.333 -108.667 -329.666 -163 -552.999 -163c-230.667 0 -403.667 60.333 -519 181c-109.333 114.667 -164 269.667 -164 465zM453.999 1498c0 28 10.833 52.833 32.5 74.5s57.5 32.5 107.5 32.5s86.167 -10.5 108.5 -31.5s33.5 -45.5 33.5 -73.5
c0 -72.667 -47 -109 -141 -109s-141 35.667 -141 107zM762.999 1498c0 28 10.833 52.833 32.5 74.5s57.5 32.5 107.5 32.5s86.167 -10.5 108.5 -31.5s33.5 -45.5 33.5 -73.5c0 -72.667 -47 -109 -141 -109s-141 35.667 -141 107z" />
    <glyph glyph-name="multiply" unicode="&#xd7;" horiz-adv-x="549" 
d="M8 328l155 134l-163 154l148 116l144 -156l169 171l114 -150l-166 -141l158 -158l-146 -122l-139 167l-155 -165z" />
    <glyph glyph-name="Oslash" unicode="&#xd8;" horiz-adv-x="1462" 
d="M142 179c-94.667 110.667 -142 260.502 -142 449.502s67.5 343 202.5 462s318.5 178.5 550.5 178.5c129.333 0 242.666 -17.667 339.999 -53l70 66l243 -51l-124 -127c120 -110.667 180 -274.334 180 -491.001c0 -102 -20.167 -193.833 -60.5 -275.5
s-95.5 -148.834 -165.5 -201.501c-145.333 -108.667 -329.666 -163 -552.999 -163c-140.667 0 -261 23.667 -361 71l-56 -63l-246 63zM736 163.002c174.667 0 262 136.667 262 410c0 102 -12.667 194.667 -38 278l-435 -542c50.667 -97.333 121 -146 211 -146zM922 946.002
c-51.333 98.667 -122.832 147.999 -214.499 147.999s-157.834 -36.167 -198.501 -108.5s-61 -165.166 -61 -278.499s12.667 -212.333 38 -297z" />
    <glyph glyph-name="Ugrave" unicode="&#xd9;" 
d="M0 1094l29.001 150.002h720l-22 -150l-165 -67v-486c0 -106 26.167 -183.833 78.5 -233.5s121.5 -74.5 207.5 -74.5c178 0 267 101.333 267 304v483l-176 74l20 150h585l-17 -150l-165 -67l-4 -462c-4 -394.667 -197.667 -592 -581 -592
c-108.667 0 -184.834 5.66699 -228.501 17s-80.667 23.166 -111 35.499s-56.833 27 -79.5 44s-45 38.5 -67 64.5s-40 55.333 -54 88c-31.333 73.333 -47 160.666 -47 261.999v536zM538.001 1730l218 40l150 -348l-160 -31z" />
    <glyph glyph-name="Uacute" unicode="&#xda;" 
d="M0 1094l29.001 150.002h720l-22 -150l-165 -67v-486c0 -106 26.167 -183.833 78.5 -233.5s121.5 -74.5 207.5 -74.5c178 0 267 101.333 267 304v483l-176 74l20 150h585l-17 -150l-165 -67l-4 -462c-4 -394.667 -197.667 -592 -581 -592
c-108.667 0 -184.834 5.66699 -228.501 17s-80.667 23.166 -111 35.499s-56.833 27 -79.5 44s-45 38.5 -67 64.5s-40 55.333 -54 88c-31.333 73.333 -47 160.666 -47 261.999v536zM768.001 1402l156 325l220 -14l-232 -332z" />
    <glyph glyph-name="Ucircumflex" unicode="&#xdb;" 
d="M0 1094l29.001 150.002h720l-22 -150l-165 -67v-486c0 -106 26.167 -183.833 78.5 -233.5s121.5 -74.5 207.5 -74.5c178 0 267 101.333 267 304v483l-176 74l20 150h585l-17 -150l-165 -67l-4 -462c-4 -394.667 -197.667 -592 -581 -592
c-108.667 0 -184.834 5.66699 -228.501 17s-80.667 23.166 -111 35.499s-56.833 27 -79.5 44s-45 38.5 -67 64.5s-40 55.333 -54 88c-31.333 73.333 -47 160.666 -47 261.999v536zM586.001 1401l170 195l178 20l204 -205l-152 -59l-138 101h-14l-104 -102z" />
    <glyph glyph-name="Udieresis" unicode="&#xdc;" 
d="M0 1094l29.001 150.002h720l-22 -150l-165 -67v-486c0 -106 26.167 -183.833 78.5 -233.5s121.5 -74.5 207.5 -74.5c178 0 267 101.333 267 304v483l-176 74l20 150h585l-17 -150l-165 -67l-4 -462c-4 -394.667 -197.667 -592 -581 -592
c-108.667 0 -184.834 5.66699 -228.501 17s-80.667 23.166 -111 35.499s-56.833 27 -79.5 44s-45 38.5 -67 64.5s-40 55.333 -54 88c-31.333 73.333 -47 160.666 -47 261.999v536zM547.001 1498c0 28 10.833 52.833 32.5 74.5s57.5 32.5 107.5 32.5
s86.167 -10.5 108.5 -31.5s33.5 -45.5 33.5 -73.5c0 -72.667 -47 -109 -141 -109s-141 35.667 -141 107zM856.001 1498c0 28 10.833 52.833 32.5 74.5s57.5 32.5 107.5 32.5s86.167 -10.5 108.5 -31.5s33.5 -45.5 33.5 -73.5c0 -72.667 -47 -109 -141 -109
s-141 35.667 -141 107z" />
    <glyph glyph-name="Yacute" unicode="&#xdd;" horiz-adv-x="1308" 
d="M0 1089l32 156h661l-28 -156l-75 -61l149 -289l151 286l-99 62l24 157h473l-24 -157l-114 -60l-316 -529v-277l167 -81l-13 -140h-702l18 138l159 79v268l-329 542zM666 1402l154 325l220 -14l-230 -332z" />
    <glyph glyph-name="Thorn" unicode="&#xde;" horiz-adv-x="1195" 
d="M0 1094l20.002 150h727l-16 -160l-179 -67v-35c40.667 7.33301 87.667 11 141 11s104.333 -2.5 153 -7.5s95.667 -14.833 141 -29.5s81.666 -34.667 108.999 -60c60 -55.333 90 -141 90 -257s-45.5 -211.167 -136.5 -285.5s-211.167 -111.5 -360.5 -111.5
c-22.667 0 -49.667 1.66699 -81 5l-32 174c82 0 142.5 13.333 181.5 40s58.5 71.5 58.5 134.5s-16.333 111.167 -49 144.5s-81.334 50 -146.001 50c-18 0 -40.333 -2.33301 -67 -7l-2 -560l180 -63l-13 -160h-717l10 142l176 79v799z" />
    <glyph glyph-name="germandbls" unicode="&#xdf;" horiz-adv-x="1295" 
d="M0 0l12.002 158l155 72v470h-150l10 149l138 24c5.33301 83.333 34.333 156.833 87 220.5s120 111.667 202 144s164.833 48.5 248.5 48.5s150.667 -3.66699 201 -11s94.5 -19.666 132.5 -36.999c74.667 -33.333 112 -94 112 -182c0 -36.667 -11.333 -69 -34 -97
s-50.167 -50.333 -82.5 -67s-64.833 -32 -97.5 -46c-77.333 -33.333 -116 -67 -116 -101c0 -36 41.333 -70.333 124 -103c83.333 -33.333 159.333 -75 228 -125c35.333 -25.333 64.833 -59.333 88.5 -102s35.5 -90.334 35.5 -143.001c0 -97.333 -40 -173 -120 -227
s-183.667 -81 -311 -81c-125.333 0 -223.666 32 -294.999 96c-35.333 31.333 -53 69 -53 113s16.667 79.5 50 106.5s80.666 43.167 141.999 48.5c18.667 -66 44 -116.667 76 -152s67.833 -53 107.5 -53s67.667 4.5 84 13.5s24.5 23.333 24.5 43s-8.33301 37 -25 52
s-38 29.5 -64 43.5l-88 45c-128.667 64 -211.334 134.333 -248.001 211c-16.667 34.667 -25 74.167 -25 118.5s8.83301 86.166 26.5 125.499s39.167 71 64.5 95s50.666 45.5 75.999 64.5s46.833 36.833 64.5 53.5s26.5 32.334 26.5 47.001c0 66 -50 99 -150 99
c-89.333 0 -149 -34 -179 -102c-10 -22 -15 -47.667 -15 -77v-955h-463z" />
    <glyph glyph-name="agrave" unicode="&#xe0;" horiz-adv-x="932" 
d="M335 353c-26 -23.333 -39 -46.668 -39 -70.001s7.16699 -42.166 21.5 -56.499s34.5 -21.5 60.5 -21.5s52.667 9.66699 80 29v164c-56 -6.66699 -97 -21.667 -123 -45zM0 187.998c0 93.333 40.835 170.832 122.502 232.499s193.5 92.167 335.5 91.5v95
c0 46 -12.333 84.667 -37 116s-51.667 47 -81 47s-50.166 -15.833 -62.499 -47.5s-21.5 -88.5 -27.5 -170.5c-108 0 -174.667 21.333 -200 64c-10.667 17.333 -16 42.166 -16 74.499s23.667 69.5 71 111.5s107.166 77 179.499 105s145.666 42 219.999 42
s136.5 -24.333 186.5 -73s75 -127 75 -235v-267c0 -59.333 5.66699 -99.166 17 -119.499s38.333 -35.166 81 -44.499l28 -6l-25 -170c-32.667 -21.333 -53.167 -33.333 -61.5 -36s-16.666 -5.66699 -24.999 -9s-15.333 -5.33301 -21 -6s-12.834 -1.66699 -21.501 -3
c-12 -2.66699 -37.333 -4 -76 -4c-74.667 0 -129 43.333 -163 130l-5 13l-13 6c-14.667 -39.333 -48.334 -73.833 -101.001 -103.5s-109.667 -44.5 -171 -44.5s-111.5 17.5 -150.5 52.5s-58.5 87.833 -58.5 158.5zM136.002 1412l218 40l150 -348l-159 -31z" />
    <glyph glyph-name="aacute" unicode="&#xe1;" horiz-adv-x="932" 
d="M335 353c-26 -23.333 -39 -46.668 -39 -70.001s7.16699 -42.166 21.5 -56.499s34.5 -21.5 60.5 -21.5s52.667 9.66699 80 29v164c-56 -6.66699 -97 -21.667 -123 -45zM0 187.998c0 93.333 40.835 170.832 122.502 232.499s193.5 92.167 335.5 91.5v95
c0 46 -12.333 84.667 -37 116s-51.667 47 -81 47s-50.166 -15.833 -62.499 -47.5s-21.5 -88.5 -27.5 -170.5c-108 0 -174.667 21.333 -200 64c-10.667 17.333 -16 42.166 -16 74.499s23.667 69.5 71 111.5s107.166 77 179.499 105s145.666 42 219.999 42
s136.5 -24.333 186.5 -73s75 -127 75 -235v-267c0 -59.333 5.66699 -99.166 17 -119.499s38.333 -35.166 81 -44.499l28 -6l-25 -170c-32.667 -21.333 -53.167 -33.333 -61.5 -36s-16.666 -5.66699 -24.999 -9s-15.333 -5.33301 -21 -6s-12.834 -1.66699 -21.501 -3
c-12 -2.66699 -37.333 -4 -76 -4c-74.667 0 -129 43.333 -163 130l-5 13l-13 6c-14.667 -39.333 -48.334 -73.833 -101.001 -103.5s-109.667 -44.5 -171 -44.5s-111.5 17.5 -150.5 52.5s-58.5 87.833 -58.5 158.5zM343.002 1084l155 325l220 -14l-231 -332z" />
    <glyph glyph-name="acircumflex" unicode="&#xe2;" horiz-adv-x="932" 
d="M335 353c-26 -23.333 -39 -46.668 -39 -70.001s7.16699 -42.166 21.5 -56.499s34.5 -21.5 60.5 -21.5s52.667 9.66699 80 29v164c-56 -6.66699 -97 -21.667 -123 -45zM0 187.998c0 93.333 40.835 170.832 122.502 232.499s193.5 92.167 335.5 91.5v95
c0 46 -12.333 84.667 -37 116s-51.667 47 -81 47s-50.166 -15.833 -62.499 -47.5s-21.5 -88.5 -27.5 -170.5c-108 0 -174.667 21.333 -200 64c-10.667 17.333 -16 42.166 -16 74.499s23.667 69.5 71 111.5s107.166 77 179.499 105s145.666 42 219.999 42
s136.5 -24.333 186.5 -73s75 -127 75 -235v-267c0 -59.333 5.66699 -99.166 17 -119.499s38.333 -35.166 81 -44.499l28 -6l-25 -170c-32.667 -21.333 -53.167 -33.333 -61.5 -36s-16.666 -5.66699 -24.999 -9s-15.333 -5.33301 -21 -6s-12.834 -1.66699 -21.501 -3
c-12 -2.66699 -37.333 -4 -76 -4c-74.667 0 -129 43.333 -163 130l-5 13l-13 6c-14.667 -39.333 -48.334 -73.833 -101.001 -103.5s-109.667 -44.5 -171 -44.5s-111.5 17.5 -150.5 52.5s-58.5 87.833 -58.5 158.5zM156.002 1083l171 195l177 20l204 -205l-151 -59l-139 101
h-14l-103 -102z" />
    <glyph glyph-name="atilde" unicode="&#xe3;" horiz-adv-x="932" 
d="M335 353c-26 -23.333 -39 -46.668 -39 -70.001s7.16699 -42.166 21.5 -56.499s34.5 -21.5 60.5 -21.5s52.667 9.66699 80 29v164c-56 -6.66699 -97 -21.667 -123 -45zM0 187.998c0 93.333 40.835 170.832 122.502 232.499s193.5 92.167 335.5 91.5v95
c0 46 -12.333 84.667 -37 116s-51.667 47 -81 47s-50.166 -15.833 -62.499 -47.5s-21.5 -88.5 -27.5 -170.5c-108 0 -174.667 21.333 -200 64c-10.667 17.333 -16 42.166 -16 74.499s23.667 69.5 71 111.5s107.166 77 179.499 105s145.666 42 219.999 42
s136.5 -24.333 186.5 -73s75 -127 75 -235v-267c0 -59.333 5.66699 -99.166 17 -119.499s38.333 -35.166 81 -44.499l28 -6l-25 -170c-32.667 -21.333 -53.167 -33.333 -61.5 -36s-16.666 -5.66699 -24.999 -9s-15.333 -5.33301 -21 -6s-12.834 -1.66699 -21.501 -3
c-12 -2.66699 -37.333 -4 -76 -4c-74.667 0 -129 43.333 -163 130l-5 13l-13 6c-14.667 -39.333 -48.334 -73.833 -101.001 -103.5s-109.667 -44.5 -171 -44.5s-111.5 17.5 -150.5 52.5s-58.5 87.833 -58.5 158.5zM129.002 1079c-8.66699 66 3.66797 127 37.001 183
c16 26.667 40.167 46.167 72.5 58.5s70.166 13.833 113.499 4.5l227 -49c13.333 -2.66699 25.833 0.333008 37.5 9s22.5 23.334 32.5 44.001l115 -11c-0.666992 -85.333 -22.5 -149.833 -65.5 -193.5s-103.833 -56.167 -182.5 -37.5l-209 49c-16 4 -29 0.666992 -39 -10
s-17 -28.334 -21 -53.001z" />
    <glyph glyph-name="adieresis" unicode="&#xe4;" horiz-adv-x="932" 
d="M335 353c-26 -23.333 -39 -46.668 -39 -70.001s7.16699 -42.166 21.5 -56.499s34.5 -21.5 60.5 -21.5s52.667 9.66699 80 29v164c-56 -6.66699 -97 -21.667 -123 -45zM0 187.998c0 93.333 40.835 170.832 122.502 232.499s193.5 92.167 335.5 91.5v95
c0 46 -12.333 84.667 -37 116s-51.667 47 -81 47s-50.166 -15.833 -62.499 -47.5s-21.5 -88.5 -27.5 -170.5c-108 0 -174.667 21.333 -200 64c-10.667 17.333 -16 42.166 -16 74.499s23.667 69.5 71 111.5s107.166 77 179.499 105s145.666 42 219.999 42
s136.5 -24.333 186.5 -73s75 -127 75 -235v-267c0 -59.333 5.66699 -99.166 17 -119.499s38.333 -35.166 81 -44.499l28 -6l-25 -170c-32.667 -21.333 -53.167 -33.333 -61.5 -36s-16.666 -5.66699 -24.999 -9s-15.333 -5.33301 -21 -6s-12.834 -1.66699 -21.501 -3
c-12 -2.66699 -37.333 -4 -76 -4c-74.667 0 -129 43.333 -163 130l-5 13l-13 6c-14.667 -39.333 -48.334 -73.833 -101.001 -103.5s-109.667 -44.5 -171 -44.5s-111.5 17.5 -150.5 52.5s-58.5 87.833 -58.5 158.5zM132.002 1180c0 28 10.833 52.833 32.5 74.5
s57.5 32.5 107.5 32.5s86 -10.5 108 -31.5s33 -45.5 33 -73.5c0 -72.667 -46.833 -109 -140.5 -109s-140.5 35.667 -140.5 107zM441.002 1180c0 28 10.833 52.833 32.5 74.5s57.5 32.5 107.5 32.5s86 -10.5 108 -31.5s33 -45.5 33 -73.5c0 -72.667 -46.833 -109 -140.5 -109
s-140.5 35.667 -140.5 107z" />
    <glyph glyph-name="aring" unicode="&#xe5;" horiz-adv-x="932" 
d="M335 353c-26 -23.333 -39 -46.668 -39 -70.001s7.16699 -42.166 21.5 -56.499s34.5 -21.5 60.5 -21.5s52.667 9.66699 80 29v164c-56 -6.66699 -97 -21.667 -123 -45zM0 187.998c0 93.333 40.835 170.832 122.502 232.499s193.5 92.167 335.5 91.5v95
c0 46 -12.333 84.667 -37 116s-51.667 47 -81 47s-50.166 -15.833 -62.499 -47.5s-21.5 -88.5 -27.5 -170.5c-108 0 -174.667 21.333 -200 64c-10.667 17.333 -16 42.166 -16 74.499s23.667 69.5 71 111.5s107.166 77 179.499 105s145.666 42 219.999 42
s136.5 -24.333 186.5 -73s75 -127 75 -235v-267c0 -59.333 5.66699 -99.166 17 -119.499s38.333 -35.166 81 -44.499l28 -6l-25 -170c-32.667 -21.333 -53.167 -33.333 -61.5 -36s-16.666 -5.66699 -24.999 -9s-15.333 -5.33301 -21 -6s-12.834 -1.66699 -21.501 -3
c-12 -2.66699 -37.333 -4 -76 -4c-74.667 0 -129 43.333 -163 130l-5 13l-13 6c-14.667 -39.333 -48.334 -73.833 -101.001 -103.5s-109.667 -44.5 -171 -44.5s-111.5 17.5 -150.5 52.5s-58.5 87.833 -58.5 158.5zM348.002 1240c0 -38 26 -57 78 -57c20 0 37.667 5 53 15
s23 24 23 42s-8.16699 32.333 -24.5 43s-34.5 16 -54.5 16s-37.5 -5.66699 -52.5 -17s-22.5 -25.333 -22.5 -42zM416.002 1073c-173.333 0 -260 55.333 -260 166c0 50.667 22.667 92.167 68 124.5s114 48.5 206 48.5c184 0 276 -54.667 276 -164c0 -48.667 -24 -90 -72 -124
s-120.667 -51 -218 -51z" />
    <glyph glyph-name="ae" unicode="&#xe6;" horiz-adv-x="1292" 
d="M772 516l170 15c4 12 6 36.833 6 74.5s-6.66699 70 -20 97s-34.333 40.5 -63 40.5c-64 0 -95 -75.667 -93 -227zM335 353c-26 -23.333 -39 -46.667 -39 -70s7.16699 -42 21.5 -56s34.833 -21 61.5 -21s53 9.33301 79 28v164c-56 -6.66699 -97 -21.667 -123 -45z
M0 187.999c0 93.333 40.6689 170.834 122.002 232.501s193.333 92.167 336 91.5v95c0 42.667 -12.167 76.5 -36.5 101.5s-50.5 37.5 -78.5 37.5s-49.333 -13 -64 -39s-28 -72.333 -40 -139c-50 -8 -96.667 0.666992 -140 26s-65 61.833 -65 109.5s27.667 90.334 83 128.001
s117.166 66.5 185.499 86.5s127.833 30 178.5 30c103.333 0 176.666 -22 219.999 -66c75.333 45.333 154.333 68 237 68c106.667 0 189.334 -34.167 248.001 -102.5s88 -157.5 88 -267.5c0 -46.667 -7 -106.334 -21 -179.001l-478 -4
c4 -64.667 28.167 -113.834 72.5 -147.501s110.166 -50.5 197.499 -50.5s163.333 18.667 228 56l19 -133c-28.667 -38 -69 -69 -121 -93c-86.667 -40 -180 -60 -280 -60s-177 15.167 -231 45.5s-99.667 72.5 -137 126.5c-58 -109.333 -165.333 -164 -322 -164
c-56 0 -103.5 18 -142.5 54s-58.5 88.333 -58.5 157z" />
    <glyph glyph-name="ccedilla" unicode="&#xe7;" horiz-adv-x="857" 
d="M395 -268c38.667 0.666992 71.1689 7.5 97.502 20.5s39.5 27.5 39.5 43.5c0 26 -52 56.667 -156 92l104 81c-320 0.666992 -480 153 -480 457c0 194.667 81.333 345.334 244 452.001c90.667 59.333 183.167 89 277.5 89s168.166 -23 221.499 -69s80 -100 80 -162
s-18.667 -106.833 -56 -134.5s-86 -44.834 -146 -51.501c-28 87.333 -54.333 146.833 -79 178.5s-55.667 47.5 -93 47.5c-77.333 0 -116 -87 -116 -261c0 -84 21.5 -157.5 64.5 -220.5s101.5 -94.5 175.5 -94.5c51.333 0 94.166 5.5 128.499 16.5s72.833 29.167 115.5 54.5
l40 -104c-25.333 -52.667 -68.333 -96.667 -129 -132h10l-118 -86c116.667 -10 175 -57.667 175 -143c0 -56 -27.667 -97 -83 -123s-149 -39 -281 -39z" />
    <glyph glyph-name="egrave" unicode="&#xe8;" horiz-adv-x="845" 
d="M319 506l176 23.001c4 12 6 37.167 6 75.5s-6.66699 71 -20 98s-35.5 40.5 -66.5 40.5s-55 -22.333 -72 -67s-24.833 -101.334 -23.5 -170.001zM328 387.001c8 -125.333 91.3311 -187.999 249.998 -187.999c100.667 0 183.334 18.667 248.001 56l19 -133
c-28.667 -38 -69 -69 -121 -93c-86.667 -40 -190 -60 -310 -60s-219 39.667 -297 119s-117 193.333 -117 342c0 73.333 14.167 142.833 42.5 208.5s65.333 121 111 166s98.167 80.5 157.5 106.5s119.333 39 180 39c106.667 0 189.334 -34.167 248.001 -102.5
s88 -157.5 88 -267.5c0 -46.667 -7 -106.334 -21 -179.001zM164.998 1412l218 40l150 -348l-159 -31z" />
    <glyph glyph-name="eacute" unicode="&#xe9;" horiz-adv-x="845" 
d="M319 506l176 23.001c4 12 6 37.167 6 75.5s-6.66699 71 -20 98s-35.5 40.5 -66.5 40.5s-55 -22.333 -72 -67s-24.833 -101.334 -23.5 -170.001zM328 387.001c8 -125.333 91.3311 -187.999 249.998 -187.999c100.667 0 183.334 18.667 248.001 56l19 -133
c-28.667 -38 -69 -69 -121 -93c-86.667 -40 -190 -60 -310 -60s-219 39.667 -297 119s-117 193.333 -117 342c0 73.333 14.167 142.833 42.5 208.5s65.333 121 111 166s98.167 80.5 157.5 106.5s119.333 39 180 39c106.667 0 189.334 -34.167 248.001 -102.5
s88 -157.5 88 -267.5c0 -46.667 -7 -106.334 -21 -179.001zM335.998 1084l155 325l220 -14l-231 -332z" />
    <glyph glyph-name="ecircumflex" unicode="&#xea;" horiz-adv-x="845" 
d="M319 506l176 23.001c4 12 6 37.167 6 75.5s-6.66699 71 -20 98s-35.5 40.5 -66.5 40.5s-55 -22.333 -72 -67s-24.833 -101.334 -23.5 -170.001zM328 387.001c8 -125.333 91.3311 -187.999 249.998 -187.999c100.667 0 183.334 18.667 248.001 56l19 -133
c-28.667 -38 -69 -69 -121 -93c-86.667 -40 -190 -60 -310 -60s-219 39.667 -297 119s-117 193.333 -117 342c0 73.333 14.167 142.833 42.5 208.5s65.333 121 111 166s98.167 80.5 157.5 106.5s119.333 39 180 39c106.667 0 189.334 -34.167 248.001 -102.5
s88 -157.5 88 -267.5c0 -46.667 -7 -106.334 -21 -179.001zM140.998 1083l171 195l177 20l204 -205l-151 -59l-139 101h-14l-103 -102z" />
    <glyph glyph-name="edieresis" unicode="&#xeb;" horiz-adv-x="845" 
d="M319 506l176 23.001c4 12 6 37.167 6 75.5s-6.66699 71 -20 98s-35.5 40.5 -66.5 40.5s-55 -22.333 -72 -67s-24.833 -101.334 -23.5 -170.001zM328 387.001c8 -125.333 91.3311 -187.999 249.998 -187.999c100.667 0 183.334 18.667 248.001 56l19 -133
c-28.667 -38 -69 -69 -121 -93c-86.667 -40 -190 -60 -310 -60s-219 39.667 -297 119s-117 193.333 -117 342c0 73.333 14.167 142.833 42.5 208.5s65.333 121 111 166s98.167 80.5 157.5 106.5s119.333 39 180 39c106.667 0 189.334 -34.167 248.001 -102.5
s88 -157.5 88 -267.5c0 -46.667 -7 -106.334 -21 -179.001zM131.998 1180c0 28 10.833 52.833 32.5 74.5s57.5 32.5 107.5 32.5s86.167 -10.5 108.5 -31.5s33.5 -45.5 33.5 -73.5c0 -72.667 -47 -109 -141 -109s-141 35.667 -141 107zM440.998 1180
c0 28 10.833 52.833 32.5 74.5s57.5 32.5 107.5 32.5s86.167 -10.5 108.5 -31.5s33.5 -45.5 33.5 -73.5c0 -72.667 -47 -109 -141 -109s-141 35.667 -141 107z" />
    <glyph glyph-name="igrave" unicode="&#xec;" horiz-adv-x="638" 
d="M0 0l8 176l154 54v341l-148 105l33 178l373 26l56 -61v-589l162 -56l-11 -174h-627zM20 1362l218 40l150 -348l-159 -31z" />
    <glyph glyph-name="iacute" unicode="&#xed;" horiz-adv-x="638" 
d="M0 0l8 176l154 54v341l-148 105l33 178l373 26l56 -61v-589l162 -56l-11 -174h-627zM211 1014l155 325l220 -14l-231 -332z" />
    <glyph glyph-name="icircumflex" unicode="&#xee;" horiz-adv-x="638" 
d="M0 0l8 176l154 54v341l-148 105l33 178l373 26l56 -61v-589l162 -56l-11 -174h-627zM38 1013l171 195l177 20l204 -205l-151 -59l-139 101h-14l-103 -102z" />
    <glyph glyph-name="idieresis" unicode="&#xef;" horiz-adv-x="638" 
d="M0 0l8 176l154 54v341l-148 105l33 178l373 26l56 -61v-589l162 -56l-11 -174h-627zM20 1080c0 28 10.833 52.833 32.5 74.5s57.5 32.5 107.5 32.5s86.167 -10.5 108.5 -31.5s33.5 -45.5 33.5 -73.5c0 -72.667 -47 -109 -141 -109s-141 35.667 -141 107zM329 1080
c0 28 10.833 52.833 32.5 74.5s57.5 32.5 107.5 32.5s86.167 -10.5 108.5 -31.5s33.5 -45.5 33.5 -73.5c0 -72.667 -47 -109 -141 -109s-141 35.667 -141 107z" />
    <glyph glyph-name="eth" unicode="&#xf0;" horiz-adv-x="942" 
d="M334 497c5.33301 -94 25.334 -174.832 60.001 -242.499s74 -101.5 118 -101.5c34.667 0 57.167 8.66699 67.5 26s17.666 32.666 21.999 45.999s7.5 33.333 9.5 60c3.33301 44.667 5 105.167 5 181.5s-18.5 147.333 -55.5 213s-73.833 98.5 -110.5 98.5
c-77.333 0 -116 -93.667 -116 -281zM0.000976562 455.001c0 53.333 13.168 110.332 39.501 170.999s59.666 114 99.999 160s85.5 84 135.5 114s98.833 45 146.5 45s88.5 -19.333 122.5 -58l4 6c-18 56 -36.667 107 -56 153l-202 -40l8 126l138 31
c-34 64 -67.333 110.333 -100 139h256c30.667 -24 60.667 -51.667 90 -83l164 37l-12 -142l-62 -12c54.667 -83.333 96.667 -175 126 -275s44 -189.667 44 -269s-5.83301 -146.166 -17.5 -200.499s-30 -105.166 -55 -152.499s-55.5 -88 -91.5 -122
c-78.667 -73.333 -181 -110 -307 -110c-191.333 0 -326.333 68.333 -405 205c-44 77.333 -66 169.666 -66 276.999z" />
    <glyph glyph-name="ntilde" unicode="&#xf1;" horiz-adv-x="1160" 
d="M0 0l16.999 156.999l142 72v411l-142 81l27 168l403 29l38 -39l-23 -102l15 -6c50.667 52.667 98.334 92.167 143.001 118.5s93.334 39.5 146.001 39.5c77.333 0 137.666 -23.167 180.999 -69.5s65 -119.166 65 -218.499v-412l148 -64l-23 -165h-436v429
c0 62 -7.83301 106.333 -23.5 133s-43.5 40 -83.5 40s-79 -16.667 -117 -50v-323l123 -63l-28 -166h-572zM257.999 1079c-8.66699 66 3.66797 127 37.001 183c16 26.667 40.167 46.167 72.5 58.5s70.166 13.833 113.499 4.5l227 -49c13.333 -2.66699 25.833 0.333008 37.5 9
s22.5 23.334 32.5 44.001l115 -11c-0.666992 -85.333 -22.5 -149.833 -65.5 -193.5s-103.833 -56.167 -182.5 -37.5l-209 49c-16 4 -29 0.666992 -39 -10s-17 -28.334 -21 -53.001z" />
    <glyph glyph-name="ograve" unicode="&#xf2;" horiz-adv-x="978" 
d="M361 690c-18 -35.333 -27 -101.999 -27 -199.999c0 -214.667 57 -322 171 -322c42.667 0 72.5 13.667 89.5 41s25.5 69.666 25.5 126.999s-0.833008 101.5 -2.5 132.5s-5.66699 65 -12 102s-14.833 67.167 -25.5 90.5c-26 54.667 -64.5 82 -115.5 82
s-85.5 -17.667 -103.5 -53zM0 470.001c0 70 15.333 136.332 46 198.999s70 114.334 118 155.001c102 84.667 212.333 127 331 127c308.667 0 463 -153.667 463 -461c0 -157.333 -44.167 -282.833 -132.5 -376.5s-205.5 -140.5 -351.5 -140.5
c-176.667 0 -302 51.333 -376 154c-65.333 90.667 -98 205 -98 343zM186 1412l218 40l150 -348l-159 -31z" />
    <glyph glyph-name="oacute" unicode="&#xf3;" horiz-adv-x="978" 
d="M361 690c-18 -35.333 -27 -101.999 -27 -199.999c0 -214.667 57 -322 171 -322c42.667 0 72.5 13.667 89.5 41s25.5 69.666 25.5 126.999s-0.833008 101.5 -2.5 132.5s-5.66699 65 -12 102s-14.833 67.167 -25.5 90.5c-26 54.667 -64.5 82 -115.5 82
s-85.5 -17.667 -103.5 -53zM0 470.001c0 70 15.333 136.332 46 198.999s70 114.334 118 155.001c102 84.667 212.333 127 331 127c308.667 0 463 -153.667 463 -461c0 -157.333 -44.167 -282.833 -132.5 -376.5s-205.5 -140.5 -351.5 -140.5
c-176.667 0 -302 51.333 -376 154c-65.333 90.667 -98 205 -98 343zM357 1084l155 325l220 -14l-231 -332z" />
    <glyph glyph-name="ocircumflex" unicode="&#xf4;" horiz-adv-x="978" 
d="M361 690c-18 -35.333 -27 -101.999 -27 -199.999c0 -214.667 57 -322 171 -322c42.667 0 72.5 13.667 89.5 41s25.5 69.666 25.5 126.999s-0.833008 101.5 -2.5 132.5s-5.66699 65 -12 102s-14.833 67.167 -25.5 90.5c-26 54.667 -64.5 82 -115.5 82
s-85.5 -17.667 -103.5 -53zM0 470.001c0 70 15.333 136.332 46 198.999s70 114.334 118 155.001c102 84.667 212.333 127 331 127c308.667 0 463 -153.667 463 -461c0 -157.333 -44.167 -282.833 -132.5 -376.5s-205.5 -140.5 -351.5 -140.5
c-176.667 0 -302 51.333 -376 154c-65.333 90.667 -98 205 -98 343zM234 1083l171 195l177 20l204 -205l-151 -59l-139 101h-14l-103 -102z" />
    <glyph glyph-name="otilde" unicode="&#xf5;" horiz-adv-x="978" 
d="M361 690c-18 -35.333 -27 -101.999 -27 -199.999c0 -214.667 57 -322 171 -322c42.667 0 72.5 13.667 89.5 41s25.5 69.666 25.5 126.999s-0.833008 101.5 -2.5 132.5s-5.66699 65 -12 102s-14.833 67.167 -25.5 90.5c-26 54.667 -64.5 82 -115.5 82
s-85.5 -17.667 -103.5 -53zM0 470.001c0 70 15.333 136.332 46 198.999s70 114.334 118 155.001c102 84.667 212.333 127 331 127c308.667 0 463 -153.667 463 -461c0 -157.333 -44.167 -282.833 -132.5 -376.5s-205.5 -140.5 -351.5 -140.5
c-176.667 0 -302 51.333 -376 154c-65.333 90.667 -98 205 -98 343zM173 1079c-8.66699 66 3.66797 127 37.001 183c16 26.667 40.167 46.167 72.5 58.5s70.166 13.833 113.499 4.5l227 -49c13.333 -2.66699 25.833 0.333008 37.5 9s22.5 23.334 32.5 44.001l115 -11
c-0.666992 -85.333 -22.5 -149.833 -65.5 -193.5s-103.833 -56.167 -182.5 -37.5l-209 49c-16 4 -29 0.666992 -39 -10s-17 -28.334 -21 -53.001z" />
    <glyph glyph-name="odieresis" unicode="&#xf6;" horiz-adv-x="978" 
d="M361 690c-18 -35.333 -27 -101.999 -27 -199.999c0 -214.667 57 -322 171 -322c42.667 0 72.5 13.667 89.5 41s25.5 69.666 25.5 126.999s-0.833008 101.5 -2.5 132.5s-5.66699 65 -12 102s-14.833 67.167 -25.5 90.5c-26 54.667 -64.5 82 -115.5 82
s-85.5 -17.667 -103.5 -53zM0 470.001c0 70 15.333 136.332 46 198.999s70 114.334 118 155.001c102 84.667 212.333 127 331 127c308.667 0 463 -153.667 463 -461c0 -157.333 -44.167 -282.833 -132.5 -376.5s-205.5 -140.5 -351.5 -140.5
c-176.667 0 -302 51.333 -376 154c-65.333 90.667 -98 205 -98 343zM196 1180c0 28 10.833 52.833 32.5 74.5s57.5 32.5 107.5 32.5s86.167 -10.5 108.5 -31.5s33.5 -45.5 33.5 -73.5c0 -72.667 -47 -109 -141 -109s-141 35.667 -141 107zM505 1180
c0 28 10.833 52.833 32.5 74.5s57.5 32.5 107.5 32.5s86.167 -10.5 108.5 -31.5s33.5 -45.5 33.5 -73.5c0 -72.667 -47 -109 -141 -109s-141 35.667 -141 107z" />
    <glyph glyph-name="divide" unicode="&#xf7;" horiz-adv-x="823" 
d="M191 781c0 40 16.499 75.499 49.499 106.499s87.333 46.5 163 46.5s130.334 -15.167 164.001 -45.5s50.5 -65.166 50.5 -104.499c0 -104 -71.167 -156 -213.5 -156s-213.5 51 -213.5 153zM190.999 217.999c0 40 16.499 75.499 49.499 106.499s87.333 46.5 163 46.5
s130.334 -15.167 164.001 -45.5s50.5 -65.166 50.5 -104.499c0 -104 -71.167 -156 -213.5 -156s-213.5 51 -213.5 153zM-0.00195312 410.998l12 186h811l-9 -186h-814z" />
    <glyph glyph-name="oslash" unicode="&#xf8;" horiz-adv-x="998" 
d="M20 465c0 73.333 15.333 141.331 46 203.998s70 114.334 118 155.001c102 84.667 212.333 127 331 127c92.667 0 171.667 -14 237 -42l41 47l205 -35l-105 -122c56.667 -76 85 -179 85 -309c0 -157.333 -44.167 -282.833 -132.5 -376.5s-205.5 -140.5 -351.5 -140.5
c-96.667 0 -179.667 17 -249 51l-37 -44l-208 34l107 128c-58 82.667 -87 190.334 -87 323.001zM630 546.998l-234 -294.998c27.333 -56 70.333 -84 129 -84c42.667 0 72.5 13.667 89.5 41s25.5 78.166 25.5 152.499s-3.33301 136.166 -10 185.499zM597 664
c-26 52.667 -64 78.999 -114 78.999s-84 -17.667 -102 -53s-27 -86.166 -27 -152.499s3 -121.833 9 -166.5z" />
    <glyph glyph-name="ugrave" unicode="&#xf9;" horiz-adv-x="1143" 
d="M0 718l33.999 182.999l364 22l56 -53v-401c0 -64 6.16699 -108.833 18.5 -134.5s37.333 -38.5 75 -38.5s75.5 16.667 113.5 50v258l-129 76l34 209l358 42l53 -53v-505c0 -51.333 9.33301 -88.333 28 -111s55.334 -42.667 110.001 -60l28 -9l-25 -170
c-82.667 -38.667 -159 -58 -229 -58c-142.667 0 -214 50 -214 150v13l-13 6c-28.667 -51.333 -68.167 -91.666 -118.5 -120.999s-100.5 -44 -150.5 -44c-102 0 -172.167 22.833 -210.5 68.5s-57.5 122.167 -57.5 229.5v346zM304.999 1382l218 40l150 -348l-159 -31z" />
    <glyph glyph-name="uacute" unicode="&#xfa;" horiz-adv-x="1143" 
d="M0 718l33.999 182.999l364 22l56 -53v-401c0 -64 6.16699 -108.833 18.5 -134.5s37.333 -38.5 75 -38.5s75.5 16.667 113.5 50v258l-129 76l34 209l358 42l53 -53v-505c0 -51.333 9.33301 -88.333 28 -111s55.334 -42.667 110.001 -60l28 -9l-25 -170
c-82.667 -38.667 -159 -58 -229 -58c-142.667 0 -214 50 -214 150v13l-13 6c-28.667 -51.333 -68.167 -91.666 -118.5 -120.999s-100.5 -44 -150.5 -44c-102 0 -172.167 22.833 -210.5 68.5s-57.5 122.167 -57.5 229.5v346zM405.999 1034l155 325l220 -14l-231 -332z" />
    <glyph glyph-name="ucircumflex" unicode="&#xfb;" horiz-adv-x="1143" 
d="M0 718l33.999 182.999l364 22l56 -53v-401c0 -64 6.16699 -108.833 18.5 -134.5s37.333 -38.5 75 -38.5s75.5 16.667 113.5 50v258l-129 76l34 209l358 42l53 -53v-505c0 -51.333 9.33301 -88.333 28 -111s55.334 -42.667 110.001 -60l28 -9l-25 -170
c-82.667 -38.667 -159 -58 -229 -58c-142.667 0 -214 50 -214 150v13l-13 6c-28.667 -51.333 -68.167 -91.666 -118.5 -120.999s-100.5 -44 -150.5 -44c-102 0 -172.167 22.833 -210.5 68.5s-57.5 122.167 -57.5 229.5v346zM242.999 1033l171 195l177 20l204 -205l-151 -59
l-139 101h-14l-103 -102z" />
    <glyph glyph-name="udieresis" unicode="&#xfc;" horiz-adv-x="1143" 
d="M0 718l33.999 182.999l364 22l56 -53v-401c0 -64 6.16699 -108.833 18.5 -134.5s37.333 -38.5 75 -38.5s75.5 16.667 113.5 50v258l-129 76l34 209l358 42l53 -53v-505c0 -51.333 9.33301 -88.333 28 -111s55.334 -42.667 110.001 -60l28 -9l-25 -170
c-82.667 -38.667 -159 -58 -229 -58c-142.667 0 -214 50 -214 150v13l-13 6c-28.667 -51.333 -68.167 -91.666 -118.5 -120.999s-100.5 -44 -150.5 -44c-102 0 -172.167 22.833 -210.5 68.5s-57.5 122.167 -57.5 229.5v346zM224.999 1140c0 28 10.833 52.833 32.5 74.5
s57.5 32.5 107.5 32.5s86.167 -10.5 108.5 -31.5s33.5 -45.5 33.5 -73.5c0 -72.667 -47 -109 -141 -109s-141 35.667 -141 107zM533.999 1140c0 28 10.833 52.833 32.5 74.5s57.5 32.5 107.5 32.5s86.167 -10.5 108.5 -31.5s33.5 -45.5 33.5 -73.5
c0 -72.667 -47 -109 -141 -109s-141 35.667 -141 107z" />
    <glyph glyph-name="yacute" unicode="&#xfd;" horiz-adv-x="1120" 
d="M72 -334c-48 32 -72 68.833 -72 110.5s5.5 77.5 16.5 107.5s33.5 61.667 67.5 95c24 -26 57 -46.667 99 -62s84.333 -23 127 -23c66 0 112.333 21.667 139 65l14 23l-313 722l-126 59l23 159h555l-21 -156l-90 -57l143 -388l154 380l-116 65l27 156h421l-17 -156l-98 -62
l-324 -719c-59.333 -132 -122.833 -226.167 -190.5 -282.5s-154.5 -84.5 -260.5 -84.5c-57.333 0 -110 16 -158 48zM486 1034l154 325l220 -14l-230 -332z" />
    <glyph glyph-name="thorn" unicode="&#xfe;" horiz-adv-x="1101" 
d="M0 -370l18 158.002l155 70l1 1114l-174 101l25 164l399 27l60 -55v-293l-15 -140l15 -6c30.667 44.667 70.167 84.167 118.5 118.5s98.5 51.5 150.5 51.5s97.333 -8.33301 136 -25s74.334 -42.334 107.001 -77.001c70 -74.667 105 -190.667 105 -348
c0 -170.667 -48.333 -299.334 -145 -386.001c-92.667 -82 -210.334 -123 -353.001 -123c-56 0 -95.667 2 -119 6v-131l245 -66l-22 -160h-707zM484 208.002c79.333 -34 146.999 -37.332 202.999 -9.99902c60 29.333 90 87.666 90 174.999c0 180 -44.333 270 -133 270
c-43.333 0 -96.666 -21 -159.999 -63v-372z" />
    <glyph glyph-name="ydieresis" unicode="&#xff;" horiz-adv-x="1120" 
d="M72 -334c-48 32 -72 68.833 -72 110.5s5.5 77.5 16.5 107.5s33.5 61.667 67.5 95c24 -26 57 -46.667 99 -62s84.333 -23 127 -23c66 0 112.333 21.667 139 65l14 23l-313 722l-126 59l23 159h555l-21 -156l-90 -57l143 -388l154 380l-116 65l27 156h421l-17 -156l-98 -62
l-324 -719c-59.333 -132 -122.833 -226.167 -190.5 -282.5s-154.5 -84.5 -260.5 -84.5c-57.333 0 -110 16 -158 48zM344 1150c0 28 10.833 52.833 32.5 74.5s57.5 32.5 107.5 32.5s86.167 -10.5 108.5 -31.5s33.5 -45.5 33.5 -73.5c0 -72.667 -47 -109 -141 -109
s-141 35.667 -141 107zM653 1150c0 28 10.833 52.833 32.5 74.5s57.5 32.5 107.5 32.5s86.167 -10.5 108.5 -31.5s33.5 -45.5 33.5 -73.5c0 -72.667 -47 -109 -141 -109s-141 35.667 -141 107z" />
    <glyph glyph-name="Amacron" unicode="&#x100;" horiz-adv-x="1453" 
d="M538 561h251l-127 372zM0 0l19 138l161 103l388 964l347 65l390 -1032l148 -93l-12 -147h-725l16 138l166 104l-38 112h-392l-37 -112l189 -92l-15 -148h-605zM518 1392l21 195h453l-22 -195h-452z" />
    <glyph glyph-name="amacron" unicode="&#x101;" horiz-adv-x="932" 
d="M335 353c-26 -23.333 -39 -46.668 -39 -70.001s7.16699 -42.166 21.5 -56.499s34.5 -21.5 60.5 -21.5s52.667 9.66699 80 29v164c-56 -6.66699 -97 -21.667 -123 -45zM0 187.998c0 93.333 40.835 170.832 122.502 232.499s193.5 92.167 335.5 91.5v95
c0 46 -12.333 84.667 -37 116s-51.667 47 -81 47s-50.166 -15.833 -62.499 -47.5s-21.5 -88.5 -27.5 -170.5c-108 0 -174.667 21.333 -200 64c-10.667 17.333 -16 42.166 -16 74.499s23.667 69.5 71 111.5s107.166 77 179.499 105s145.666 42 219.999 42
s136.5 -24.333 186.5 -73s75 -127 75 -235v-267c0 -59.333 5.66699 -99.166 17 -119.499s38.333 -35.166 81 -44.499l28 -6l-25 -170c-32.667 -21.333 -53.167 -33.333 -61.5 -36s-16.666 -5.66699 -24.999 -9s-15.333 -5.33301 -21 -6s-12.834 -1.66699 -21.501 -3
c-12 -2.66699 -37.333 -4 -76 -4c-74.667 0 -129 43.333 -163 130l-5 13l-13 6c-14.667 -39.333 -48.334 -73.833 -101.001 -103.5s-109.667 -44.5 -171 -44.5s-111.5 17.5 -150.5 52.5s-58.5 87.833 -58.5 158.5zM244.002 1073l21 195h453l-22 -195h-452z" />
    <glyph glyph-name="Abreve" unicode="&#x102;" horiz-adv-x="1453" 
d="M538 561h251l-127 372zM0 0l19 138l161 103l388 964l347 65l390 -1032l148 -93l-12 -147h-725l16 138l166 104l-38 112h-392l-37 -112l189 -92l-15 -148h-605zM498 1600l178.998 35.999c3.33301 -17.333 11.333 -32.833 24 -46.5s29.334 -20.5 50.001 -20.5
s36.834 3.83301 48.501 11.5s19.667 15.334 24 23.001s9.5 18.5 15.5 32.5l173 -41c-11.333 -60 -39.833 -108.833 -85.5 -146.5s-102.167 -56.5 -169.5 -56.5c-138 0 -224.333 69.333 -259 208z" />
    <glyph glyph-name="abreve" unicode="&#x103;" horiz-adv-x="932" 
d="M335 353c-26 -23.333 -39 -46.668 -39 -70.001s7.16699 -42.166 21.5 -56.499s34.5 -21.5 60.5 -21.5s52.667 9.66699 80 29v164c-56 -6.66699 -97 -21.667 -123 -45zM0 187.998c0 93.333 40.835 170.832 122.502 232.499s193.5 92.167 335.5 91.5v95
c0 46 -12.333 84.667 -37 116s-51.667 47 -81 47s-50.166 -15.833 -62.499 -47.5s-21.5 -88.5 -27.5 -170.5c-108 0 -174.667 21.333 -200 64c-10.667 17.333 -16 42.166 -16 74.499s23.667 69.5 71 111.5s107.166 77 179.499 105s145.666 42 219.999 42
s136.5 -24.333 186.5 -73s75 -127 75 -235v-267c0 -59.333 5.66699 -99.166 17 -119.499s38.333 -35.166 81 -44.499l28 -6l-25 -170c-32.667 -21.333 -53.167 -33.333 -61.5 -36s-16.666 -5.66699 -24.999 -9s-15.333 -5.33301 -21 -6s-12.834 -1.66699 -21.501 -3
c-12 -2.66699 -37.333 -4 -76 -4c-74.667 0 -129 43.333 -163 130l-5 13l-13 6c-14.667 -39.333 -48.334 -73.833 -101.001 -103.5s-109.667 -44.5 -171 -44.5s-111.5 17.5 -150.5 52.5s-58.5 87.833 -58.5 158.5zM204.002 1271l178.998 35.999
c3.33301 -17.333 11.333 -32.833 24 -46.5s29.334 -20.5 50.001 -20.5s36.834 3.83301 48.501 11.5s19.667 15.334 24 23.001s9.5 18.5 15.5 32.5l173 -41c-11.333 -60 -39.833 -108.833 -85.5 -146.5s-102.167 -56.5 -169.5 -56.5c-138 0 -224.333 69.333 -259 208z" />
    <glyph glyph-name="Aogonek" unicode="&#x104;" horiz-adv-x="1453" 
d="M538 561h251l-127 372zM1424 -2c-42.667 -116 -19.333 -212.667 70 -290l-24 -95c-87.333 5.33301 -161.833 24.5 -223.5 57.5s-92.5 73.5 -92.5 121.5s10.333 86.167 31 114.5s55.667 58.833 105 91.5h-574l16 138l166 104l-38 112h-392l-37 -112l189 -92l-15 -148h-605
l19 138l161 103l388 964l347 65l390 -1032l148 -93l-12 -147h-17z" />
    <glyph glyph-name="aogonek" unicode="&#x105;" horiz-adv-x="932" 
d="M335 353c-26 -23.333 -39 -46.668 -39 -70.001s7.16699 -42.166 21.5 -56.499s34.5 -21.5 60.5 -21.5s52.667 9.66699 80 29v164c-56 -6.66699 -97 -21.667 -123 -45zM0 187.998c0 93.333 40.835 170.832 122.502 232.499s193.5 92.167 335.5 91.5v95
c0 46 -12.333 84.667 -37 116s-51.667 47 -81 47s-50.166 -15.833 -62.499 -47.5s-21.5 -88.5 -27.5 -170.5c-108 0 -174.667 21.333 -200 64c-10.667 17.333 -16 42.166 -16 74.499s23.667 69.5 71 111.5s107.166 77 179.499 105s145.666 42 219.999 42
s136.5 -24.333 186.5 -73s75 -127 75 -235v-267c0 -59.333 5.66699 -99.166 17 -119.499s38.333 -35.166 81 -44.499l28 -6l-24 -165h31c-46 -124.667 -24 -225.667 66 -303l-25 -95c-87.333 5.33301 -161.833 24.5 -223.5 57.5s-92.5 77.5 -92.5 133.5s23 104 69 144h-12
c-51.333 0 -90.333 10.667 -117 32c-26.667 22 -50 59 -70 111l-13 6c-14.667 -39.333 -48.334 -73.833 -101.001 -103.5s-109.667 -44.5 -171 -44.5s-111.5 17.5 -150.5 52.5s-58.5 87.833 -58.5 158.5z" />
    <glyph glyph-name="Cacute" unicode="&#x106;" horiz-adv-x="1242" 
d="M0 583c0 136.667 31.9971 259.665 95.9971 368.998c36.667 62.667 82.834 117 138.501 163s129.167 83.667 220.5 113s183.5 44 276.5 44s178.833 -9.33301 257.5 -28s136.334 -42.667 173.001 -72l-31 -424l-170 23l-64 232c-22 27.333 -50.833 48.666 -86.5 63.999
s-71.5 23 -107.5 23c-108.667 0 -187.667 -31.167 -237 -93.5s-74 -159.166 -74 -290.499c0 -334 139 -501 417 -501c120.667 0 229.334 36 326.001 108l59 -135c-49.333 -61.333 -117.5 -111.166 -204.5 -149.499s-190.167 -57.5 -309.5 -57.5
c-228 0 -398.333 53.333 -511 160s-169 257.334 -169 452.001zM654.997 1405l155 325l220 -14l-231 -332z" />
    <glyph glyph-name="cacute" unicode="&#x107;" horiz-adv-x="857" 
d="M0 426c0 194.667 81.334 345.333 244.001 452c90.667 59.333 183.167 89 277.5 89s168.166 -23 221.499 -69s80 -100 80 -162s-18.667 -106.833 -56 -134.5s-86 -44.834 -146 -51.501c-28 87.333 -54.333 146.833 -79 178.5s-55.667 47.5 -93 47.5
c-77.333 0 -116 -87 -116 -261c0 -84 21.5 -157.5 64.5 -220.5s101.5 -94.5 175.5 -94.5c51.333 0 94.166 5.5 128.499 16.5s72.833 29.167 115.5 54.5l40 -104c-26 -55.333 -74.167 -102.166 -144.5 -140.499s-147.166 -57.5 -230.499 -57.5
c-321.333 0 -482 152.333 -482 457zM400.001 1100l155 325l220 -14l-231 -332z" />
    <glyph glyph-name="Cdotaccent" unicode="&#x10a;" horiz-adv-x="1242" 
d="M0 583c0 136.667 31.9971 259.665 95.9971 368.998c36.667 62.667 82.834 117 138.501 163s129.167 83.667 220.5 113s183.5 44 276.5 44s178.833 -9.33301 257.5 -28s136.334 -42.667 173.001 -72l-31 -424l-170 23l-64 232c-22 27.333 -50.833 48.666 -86.5 63.999
s-71.5 23 -107.5 23c-108.667 0 -187.667 -31.167 -237 -93.5s-74 -159.166 -74 -290.499c0 -334 139 -501 417 -501c120.667 0 229.334 36 326.001 108l59 -135c-49.333 -61.333 -117.5 -111.166 -204.5 -149.499s-190.167 -57.5 -309.5 -57.5
c-228 0 -398.333 53.333 -511 160s-169 257.334 -169 452.001zM479.997 1547c0 40 16.332 75.499 48.999 106.499s86.834 46.5 162.501 46.5s130.5 -15.167 164.5 -45.5s51 -65.166 51 -104.499c0 -104 -71.167 -156 -213.5 -156s-213.5 51 -213.5 153z" />
    <glyph glyph-name="cdotaccent" unicode="&#x10b;" horiz-adv-x="857" 
d="M0 426c0 194.667 81.334 345.333 244.001 452c90.667 59.333 183.167 89 277.5 89s168.166 -23 221.499 -69s80 -100 80 -162s-18.667 -106.833 -56 -134.5s-86 -44.834 -146 -51.501c-28 87.333 -54.333 146.833 -79 178.5s-55.667 47.5 -93 47.5
c-77.333 0 -116 -87 -116 -261c0 -84 21.5 -157.5 64.5 -220.5s101.5 -94.5 175.5 -94.5c51.333 0 94.166 5.5 128.499 16.5s72.833 29.167 115.5 54.5l40 -104c-26 -55.333 -74.167 -102.166 -144.5 -140.499s-147.166 -57.5 -230.499 -57.5
c-321.333 0 -482 152.333 -482 457zM244.001 1242c0 36.667 11 66.667 33 90c40.667 42 99.667 63 177 63c110.667 0 179.667 -33 207 -99c6.66699 -16 10 -33 10 -51c0 -104 -71.167 -156 -213.5 -156s-213.5 51 -213.5 153z" />
    <glyph glyph-name="Ccaron" unicode="&#x10c;" horiz-adv-x="1242" 
d="M0 583c0 136.667 31.9971 259.665 95.9971 368.998c36.667 62.667 82.834 117 138.501 163s129.167 83.667 220.5 113s183.5 44 276.5 44s178.833 -9.33301 257.5 -28s136.334 -42.667 173.001 -72l-31 -424l-170 23l-64 232c-22 27.333 -50.833 48.666 -86.5 63.999
s-71.5 23 -107.5 23c-108.667 0 -187.667 -31.167 -237 -93.5s-74 -159.166 -74 -290.499c0 -334 139 -501 417 -501c120.667 0 229.334 36 326.001 108l59 -135c-49.333 -61.333 -117.5 -111.166 -204.5 -149.499s-190.167 -57.5 -309.5 -57.5
c-228 0 -398.333 53.333 -511 160s-169 257.334 -169 452.001zM393.997 1600l185 37l113 -85h10l96 82l172 -29l-210 -201l-158 -10z" />
    <glyph glyph-name="ccaron" unicode="&#x10d;" horiz-adv-x="857" 
d="M0 426c0 194.667 81.334 345.333 244.001 452c90.667 59.333 183.167 89 277.5 89s168.166 -23 221.499 -69s80 -100 80 -162s-18.667 -106.833 -56 -134.5s-86 -44.834 -146 -51.501c-28 87.333 -54.333 146.833 -79 178.5s-55.667 47.5 -93 47.5
c-77.333 0 -116 -87 -116 -261c0 -84 21.5 -157.5 64.5 -220.5s101.5 -94.5 175.5 -94.5c51.333 0 94.166 5.5 128.499 16.5s72.833 29.167 115.5 54.5l40 -104c-26 -55.333 -74.167 -102.166 -144.5 -140.499s-147.166 -57.5 -230.499 -57.5
c-321.333 0 -482 152.333 -482 457zM179.001 1295l185 37l113 -85h10l96 82l172 -29l-210 -201l-158 -10z" />
    <glyph glyph-name="Dcaron" unicode="&#x10e;" horiz-adv-x="1451" 
d="M573 202h74.998c210.667 0 338 85.667 382 257c10.667 42.667 16 86.667 16 132s-5.16699 88.5 -15.5 129.5s-27.166 82 -50.499 123s-52 77.167 -86 108.5c-76 70 -177 105 -303 105l-13 -1c0 -0.666992 2.33301 -1.5 7 -2.5s4.33398 -1.66699 -0.999023 -2
s-9 -0.5 -11 -0.5v-849zM-0.00195312 0l23 138.001l180 103v762l-173 46l7 157c217.333 34.667 393.833 52 529.5 52s242.167 -5.83301 319.5 -17.5s144 -27.834 200 -48.501s105.5 -46 148.5 -76s78 -62 105 -96s49.167 -72 66.5 -114c30 -74 45 -156.167 45 -246.5
s-19.833 -174.833 -59.5 -253.5s-94.667 -148 -165 -208s-158.333 -108 -264 -144s-220.5 -54 -344.5 -54h-618zM445.998 1597l186 37l112 -85h10l96 82l172 -29l-210 -201l-158 -10z" />
    <glyph glyph-name="dcaron" unicode="&#x10f;" horiz-adv-x="1692" 
d="M370 627c-22 -48.667 -32.999 -102.167 -32.999 -160.5s12 -108.5 36 -150.5s55.667 -63 95 -63s80.666 12.667 123.999 38v319c-50 60 -94 90 -132 90s-68 -24.333 -90 -73zM270.001 862.5c64 32.333 128.333 48.499 193 48.499s111 -9.33301 139 -28h4l-10 73v31
l-173 101l25 164l390 27l60 -55v-849c0 -50 8.83301 -84.833 26.5 -104.5s54.834 -38.5 111.501 -56.5l28 -9l-25 -170c-82.667 -38.667 -161.334 -58 -236.001 -58c-101.333 0 -168.666 43.333 -201.999 130l-5 13l-13 6c-32.667 -45.333 -68.5 -80.833 -107.5 -106.5
s-87.333 -38.5 -145 -38.5s-107.334 10.5 -149.001 31.5s-75.5 49.5 -101.5 85.5c-53.333 74 -80 163.667 -80 269c0 138.667 38.667 261.334 116 368.001c38.667 52.667 90 95.167 154 127.5zM974.001 726.999c54 18 95.001 43.832 123.001 77.499s42 65.834 42 96.501
s-8.33301 54.167 -25 70.5s-35.834 24.5 -57.501 24.5s-41.167 -4.33301 -58.5 -13c-20.667 34.667 -31 67.667 -31 99c0 58 18.667 102.833 56 134.5s86 47.5 146 47.5c162 0 243 -88.667 243 -266c0 -86.667 -31.333 -167 -94 -241
c-67.333 -80 -167.333 -129.333 -300 -148z" />
    <glyph glyph-name="Dcroat" unicode="&#x110;" horiz-adv-x="1451" 
d="M573 202h74.998c210.667 0 338 85.667 382 257c10.667 42.667 16 86.667 16 132s-5.16699 88.5 -15.5 129.5s-27.166 82 -50.499 123s-52 77.167 -86 108.5c-76 70 -177 105 -303 105l-13 -1c0 -0.666992 2.33301 -1.5 7 -2.5s4.33398 -1.66699 -0.999023 -2
s-9 -0.5 -11 -0.5v-339l198 25l-19 -189l-179 -12v-334zM22.998 483l15 183.001l165 14v323l-173 46l7 157c217.333 34.667 393.833 52 529.5 52s242.167 -5.83301 319.5 -17.5s144 -27.834 200 -48.501s105.5 -46 148.5 -76s78 -62 105 -96s49.167 -72 66.5 -114
c30 -74 45 -156.167 45 -246.5s-19.833 -174.833 -59.5 -253.5s-94.667 -148 -165 -208s-158.333 -108 -264 -144s-220.5 -54 -344.5 -54h-618l23 138l180 103v258z" />
    <glyph glyph-name="dcroat" unicode="&#x111;" horiz-adv-x="1064" 
d="M370 627c-22 -48.667 -32.999 -102.167 -32.999 -160.5s12 -108.5 36 -150.5s55.667 -63 95 -63s80.666 12.667 123.999 38v319c-50 60 -94 90 -132 90s-68 -24.333 -90 -73zM270.001 862.5c64 32.333 128.333 48.499 193 48.499s111 -9.33301 139 -28h4l-10 73v16
l-173 101l25 164l390 27l60 -55v-148h151l-18 -205h-133v-481c0 -50 8.83301 -84.833 26.5 -104.5s54.834 -38.5 111.501 -56.5l28 -9l-25 -170c-82.667 -38.667 -161.334 -58 -236.001 -58c-101.333 0 -168.666 43.333 -201.999 130l-5 13l-13 6
c-32.667 -45.333 -68.5 -80.833 -107.5 -106.5s-87.333 -38.5 -145 -38.5s-107.334 10.5 -149.001 31.5s-75.5 49.5 -101.5 85.5c-53.333 74 -80 163.667 -80 269c0 138.667 38.667 261.334 116 368.001c38.667 52.667 90 95.167 154 127.5z" />
    <glyph glyph-name="Emacron" unicode="&#x112;" horiz-adv-x="1237" 
d="M0 1100l19 144h1173l-30 -418l-171 26l-83 220h-345v-360l133 11l286 23l-33 -276l-386 70v-330l363 -40l146 258l165 -17l-30 -411h-1191l10 138l164 79v813zM428 1391l22 195h452l-22 -195h-452z" />
    <glyph glyph-name="emacron" unicode="&#x113;" horiz-adv-x="845" 
d="M319 506l176 23.001c4 12 6 37.167 6 75.5s-6.66699 71 -20 98s-35.5 40.5 -66.5 40.5s-55 -22.333 -72 -67s-24.833 -101.334 -23.5 -170.001zM328 387.001c8 -125.333 91.3311 -187.999 249.998 -187.999c100.667 0 183.334 18.667 248.001 56l19 -133
c-28.667 -38 -69 -69 -121 -93c-86.667 -40 -190 -60 -310 -60s-219 39.667 -297 119s-117 193.333 -117 342c0 73.333 14.167 142.833 42.5 208.5s65.333 121 111 166s98.167 80.5 157.5 106.5s119.333 39 180 39c106.667 0 189.334 -34.167 248.001 -102.5
s88 -157.5 88 -267.5c0 -46.667 -7 -106.334 -21 -179.001zM203.998 1073l21 195h453l-22 -195h-452z" />
    <glyph glyph-name="Edotaccent" unicode="&#x116;" horiz-adv-x="1237" 
d="M0 1100l19 144h1173l-30 -418l-171 26l-83 220h-345v-360l133 11l286 23l-33 -276l-386 70v-330l363 -40l146 258l165 -17l-30 -411h-1191l10 138l164 79v813zM452 1544c0 40 16.499 75.499 49.499 106.499s87.333 46.5 163 46.5s130.334 -15.167 164.001 -45.5
s50.5 -65.166 50.5 -104.499c0 -104 -71.167 -156 -213.5 -156s-213.5 51 -213.5 153z" />
    <glyph glyph-name="edotaccent" unicode="&#x117;" horiz-adv-x="845" 
d="M319 506l176 23.001c4 12 6 37.167 6 75.5s-6.66699 71 -20 98s-35.5 40.5 -66.5 40.5s-55 -22.333 -72 -67s-24.833 -101.334 -23.5 -170.001zM328 387.001c8 -125.333 91.3311 -187.999 249.998 -187.999c100.667 0 183.334 18.667 248.001 56l19 -133
c-28.667 -38 -69 -69 -121 -93c-86.667 -40 -190 -60 -310 -60s-219 39.667 -297 119s-117 193.333 -117 342c0 73.333 14.167 142.833 42.5 208.5s65.333 121 111 166s98.167 80.5 157.5 106.5s119.333 39 180 39c106.667 0 189.334 -34.167 248.001 -102.5
s88 -157.5 88 -267.5c0 -46.667 -7 -106.334 -21 -179.001zM217.998 1226c0 40 16.332 75.499 48.999 106.499s86.834 46.5 162.501 46.5s130.5 -15.167 164.5 -45.5s51 -65.166 51 -104.499c0 -104 -71.167 -156 -213.5 -156s-213.5 51 -213.5 153z" />
    <glyph glyph-name="Eogonek" unicode="&#x118;" horiz-adv-x="1237" 
d="M0 1100l18.999 144.001h1173l-30 -418l-171 26l-83 220h-345v-360l133 11l286 23l-33 -276l-386 70v-330l363 -40l146 258l165 -17l-30 -411h-434c-39.333 -118.667 -15.666 -215.334 71.001 -290.001l-26 -95c-87.333 5.33301 -161.833 24.5 -223.5 57.5
s-92.5 73.5 -92.5 121.5s10.5 86.167 31.5 114.5s56.167 58.833 105.5 91.5h-623l10 138l164 79v813z" />
    <glyph glyph-name="eogonek" unicode="&#x119;" horiz-adv-x="845" 
d="M319 506l176 23.001c4 12 6 37.167 6 75.5s-6.66699 71 -20 98s-35.5 40.5 -66.5 40.5s-55 -22.333 -72 -67s-24.833 -101.334 -23.5 -170.001zM328 387.001c8 -125.333 91.3301 -187.999 249.997 -187.999c100.667 0 183.334 18.667 248.001 56l19 -133
c-53.333 -71.333 -143 -118 -269 -140c-35.333 -114 -10.666 -207.333 74.001 -280l-25 -95c-87.333 5.33301 -161.833 24.5 -223.5 57.5s-92.5 76.833 -92.5 131.5c0 36.667 8 68 24 94s42.333 52.333 79 79c-125.333 3.33301 -225.333 44.5 -300 123.5
s-112 191.5 -112 337.5c0 73.333 14.167 142.833 42.5 208.5s65.333 121 111 166s98.167 80.5 157.5 106.5s119.333 39 180 39c106.667 0 189.334 -34.167 248.001 -102.5s88 -157.5 88 -267.5c0 -46.667 -7 -106.334 -21 -179.001z" />
    <glyph glyph-name="Ecaron" unicode="&#x11a;" horiz-adv-x="1237" 
d="M0 1100l19 144h1173l-30 -418l-171 26l-83 220h-345v-360l133 11l286 23l-33 -276l-386 70v-330l363 -40l146 258l165 -17l-30 -411h-1191l10 138l164 79v813zM386 1597l186 37l112 -85h10l96 82l172 -29l-210 -201l-158 -10z" />
    <glyph glyph-name="ecaron" unicode="&#x11b;" horiz-adv-x="845" 
d="M319 506l176 23.001c4 12 6 37.167 6 75.5s-6.66699 71 -20 98s-35.5 40.5 -66.5 40.5s-55 -22.333 -72 -67s-24.833 -101.334 -23.5 -170.001zM328 387.001c8 -125.333 91.3311 -187.999 249.998 -187.999c100.667 0 183.334 18.667 248.001 56l19 -133
c-28.667 -38 -69 -69 -121 -93c-86.667 -40 -190 -60 -310 -60s-219 39.667 -297 119s-117 193.333 -117 342c0 73.333 14.167 142.833 42.5 208.5s65.333 121 111 166s98.167 80.5 157.5 106.5s119.333 39 180 39c106.667 0 189.334 -34.167 248.001 -102.5
s88 -157.5 88 -267.5c0 -46.667 -7 -106.334 -21 -179.001zM161.998 1279l185 37l113 -85h10l96 82l172 -29l-210 -201l-158 -10z" />
    <glyph glyph-name="Gbreve" unicode="&#x11e;" horiz-adv-x="1391" 
d="M0 580c0 86.667 14.332 167.666 42.999 242.999s67.667 140 117 194s106.666 100.333 171.999 139c128.667 76.667 271.667 115 429 115c110.667 0 209.334 -9.66699 296.001 -29c22 -5.33301 58.333 -16 109 -32l76 -25l-41 -439l-188 15l-41 218
c-33.333 34 -69.833 60.5 -109.5 79.5s-89.167 28.5 -148.5 28.5c-100 0 -176 -31 -228 -93s-78 -165.667 -78 -311s28.667 -265.666 86 -360.999s134 -143 230 -143c72.667 0 134.334 18.667 185.001 56v120l-221 64l23 172h660l-21 -156l-105 -72v-270
c-43.333 -28 -118.833 -54.5 -226.5 -79.5s-200.5 -37.5 -278.5 -37.5c-245.333 0 -430 51.167 -554 153.5s-186 252.5 -186 450.5zM433.999 1601l178.998 35.999c3.33301 -17.333 11.333 -32.833 24 -46.5s29.334 -20.5 50.001 -20.5s36.834 3.83301 48.501 11.5
s19.667 15.334 24 23.001s9.5 18.5 15.5 32.5l173 -41c-11.333 -60 -39.833 -108.833 -85.5 -146.5s-102.167 -56.5 -169.5 -56.5c-138 0 -224.333 69.333 -259 208z" />
    <glyph glyph-name="gbreve" unicode="&#x11f;" horiz-adv-x="1017" 
d="M371 645c0 -92.667 31.667 -152.667 95 -180c-0.666992 -0.666992 -1.66699 -1 -3 -1c44 0 72.5 11 85.5 33s19.5 69 19.5 141c0 20 -5.33301 46 -16 78c-20.667 65.333 -54.667 98 -102 98c-22.667 0 -41.5 -13 -56.5 -39s-22.5 -69.333 -22.5 -130zM278 -79
c0 -85.333 61.833 -128 185.5 -128s185.5 34.667 185.5 104c0 36 -12.167 62.667 -36.5 80s-64.5 26 -120.5 26h-197c-11.333 -30.667 -17 -58 -17 -82zM27.5 -248.5c-18.333 29 -27.502 60.165 -27.502 93.498s14.333 65.666 43 96.999s67 52.333 115 63v17
c-32 15.333 -55.667 34.666 -71 57.999s-23 55 -23 95s20.667 77.333 62 112s85.666 57.334 132.999 68.001l-3 18c-38 15.333 -74.667 47.333 -110 96s-53 100 -53 154c0 84.667 34.833 159.334 104.5 224.001s160.667 97 273 97s205.833 -21 280.5 -63l236 32l30 -34
l-45 -193l-34 -4l-90 28l-5 -5c2 -17.333 3 -34 3 -50c0 -67.333 -17 -125.666 -51 -174.999c-66.667 -98 -171.667 -147 -315 -147c-8 0 -30.667 2.66699 -68 8c-16.667 -18 -25 -35 -25 -51c0 -33.333 32 -50 96 -50h137c114.667 0 200 -19.5 256 -58.5
s84 -100.833 84 -185.5c0 -94.667 -49.333 -180.667 -148 -258c-47.333 -36.667 -108 -66.334 -182 -89.001s-140.833 -34 -200.5 -34s-105.167 1.83301 -136.5 5.5s-65.166 10.834 -101.499 21.501s-68.166 24.334 -95.499 41.001s-50.166 39.5 -68.499 68.5zM214.998 1281
l178.998 35.999c3.33301 -17.333 11.333 -32.833 24 -46.5s29.334 -20.5 50.001 -20.5s36.834 3.83301 48.501 11.5s19.667 15.334 24 23.001s9.5 18.5 15.5 32.5l173 -41c-11.333 -60 -39.833 -108.833 -85.5 -146.5s-102.167 -56.5 -169.5 -56.5
c-138 0 -224.333 69.333 -259 208z" />
    <glyph glyph-name="Gdotaccent" unicode="&#x120;" horiz-adv-x="1391" 
d="M0 580c0 86.667 14.332 167.666 42.999 242.999s67.667 140 117 194s106.666 100.333 171.999 139c128.667 76.667 271.667 115 429 115c110.667 0 209.334 -9.66699 296.001 -29c22 -5.33301 58.333 -16 109 -32l76 -25l-41 -439l-188 15l-41 218
c-33.333 34 -69.833 60.5 -109.5 79.5s-89.167 28.5 -148.5 28.5c-100 0 -176 -31 -228 -93s-78 -165.667 -78 -311s28.667 -265.666 86 -360.999s134 -143 230 -143c72.667 0 134.334 18.667 185.001 56v120l-221 64l23 172h660l-21 -156l-105 -72v-270
c-43.333 -28 -118.833 -54.5 -226.5 -79.5s-200.5 -37.5 -278.5 -37.5c-245.333 0 -430 51.167 -554 153.5s-186 252.5 -186 450.5zM497.999 1546c0 40 16.332 75.499 48.999 106.499s86.834 46.5 162.501 46.5s130.5 -15.167 164.5 -45.5s51 -65.166 51 -104.499
c0 -104 -71.167 -156 -213.5 -156s-213.5 51 -213.5 153z" />
    <glyph glyph-name="gdotaccent" unicode="&#x121;" horiz-adv-x="1017" 
d="M371 645c0 -92.667 31.667 -152.667 95 -180c-0.666992 -0.666992 -1.66699 -1 -3 -1c44 0 72.5 11 85.5 33s19.5 69 19.5 141c0 20 -5.33301 46 -16 78c-20.667 65.333 -54.667 98 -102 98c-22.667 0 -41.5 -13 -56.5 -39s-22.5 -69.333 -22.5 -130zM278 -79
c0 -85.333 61.833 -128 185.5 -128s185.5 34.667 185.5 104c0 36 -12.167 62.667 -36.5 80s-64.5 26 -120.5 26h-197c-11.333 -30.667 -17 -58 -17 -82zM27.5 -248.5c-18.333 29 -27.502 60.165 -27.502 93.498s14.333 65.666 43 96.999s67 52.333 115 63v17
c-32 15.333 -55.667 34.666 -71 57.999s-23 55 -23 95s20.667 77.333 62 112s85.666 57.334 132.999 68.001l-3 18c-38 15.333 -74.667 47.333 -110 96s-53 100 -53 154c0 84.667 34.833 159.334 104.5 224.001s160.667 97 273 97s205.833 -21 280.5 -63l236 32l30 -34
l-45 -193l-34 -4l-90 28l-5 -5c2 -17.333 3 -34 3 -50c0 -67.333 -17 -125.666 -51 -174.999c-66.667 -98 -171.667 -147 -315 -147c-8 0 -30.667 2.66699 -68 8c-16.667 -18 -25 -35 -25 -51c0 -33.333 32 -50 96 -50h137c114.667 0 200 -19.5 256 -58.5
s84 -100.833 84 -185.5c0 -94.667 -49.333 -180.667 -148 -258c-47.333 -36.667 -108 -66.334 -182 -89.001s-140.833 -34 -200.5 -34s-105.167 1.83301 -136.5 5.5s-65.166 10.834 -101.499 21.501s-68.166 24.334 -95.499 41.001s-50.166 39.5 -68.499 68.5zM237.998 1226
c0 36.667 11 66.667 33 90c40.667 42 99.667 63 177 63c110.667 0 179.667 -33 207 -99c6.66699 -16 10 -33 10 -51c0 -104 -71.167 -156 -213.5 -156s-213.5 51 -213.5 153z" />
    <glyph glyph-name="Gcommaaccent" unicode="&#x122;" horiz-adv-x="1391" 
d="M0 580c0 86.667 14.332 167.666 42.999 242.999s67.667 140 117 194s106.666 100.333 171.999 139c128.667 76.667 271.667 115 429 115c110.667 0 209.334 -9.66699 296.001 -29c22 -5.33301 58.333 -16 109 -32l76 -25l-41 -439l-188 15l-41 218
c-33.333 34 -69.833 60.5 -109.5 79.5s-89.167 28.5 -148.5 28.5c-100 0 -176 -31 -228 -93s-78 -165.667 -78 -311s28.667 -265.666 86 -360.999s134 -143 230 -143c72.667 0 134.334 18.667 185.001 56v120l-221 64l23 172h660l-21 -156l-105 -72v-270
c-43.333 -28 -118.833 -54.5 -226.5 -79.5s-200.5 -37.5 -278.5 -37.5c-245.333 0 -430 51.167 -554 153.5s-186 252.5 -186 450.5zM559.999 -272.001c15.333 84 81.998 125.999 199.998 125.999c50.667 0 91.334 -11.667 122.001 -35s46 -55.666 46 -96.999
s-17 -76 -51 -104c-66 -53.333 -163 -76.333 -291 -69l-22 60c26.667 4 51.334 12 74.001 24s34 24.833 34 38.5s-11.667 25.5 -35 35.5s-49 17 -77 21z" />
    <glyph glyph-name="gcommaaccent" unicode="&#x123;" horiz-adv-x="1017" 
d="M371 645c0 -92.667 31.667 -152.667 95 -180c-0.666992 -0.666992 -1.66699 -1 -3 -1c44 0 72.5 11 85.5 33s19.5 69 19.5 141c0 20 -5.33301 46 -16 78c-20.667 65.333 -54.667 98 -102 98c-22.667 0 -41.5 -13 -56.5 -39s-22.5 -69.333 -22.5 -130zM278 -79
c0 -85.333 61.833 -128 185.5 -128s185.5 34.667 185.5 104c0 36 -12.167 62.667 -36.5 80s-64.5 26 -120.5 26h-197c-11.333 -30.667 -17 -58 -17 -82zM27.5 -248.5c-18.333 29 -27.502 60.165 -27.502 93.498s14.333 65.666 43 96.999s67 52.333 115 63v17
c-32 15.333 -55.667 34.666 -71 57.999s-23 55 -23 95s20.667 77.333 62 112s85.666 57.334 132.999 68.001l-3 18c-38 15.333 -74.667 47.333 -110 96s-53 100 -53 154c0 84.667 34.833 159.334 104.5 224.001s160.667 97 273 97s205.833 -21 280.5 -63l236 32l30 -34
l-45 -193l-34 -4l-90 28l-5 -5c2 -17.333 3 -34 3 -50c0 -67.333 -17 -125.666 -51 -174.999c-66.667 -98 -171.667 -147 -315 -147c-8 0 -30.667 2.66699 -68 8c-16.667 -18 -25 -35 -25 -51c0 -33.333 32 -50 96 -50h137c114.667 0 200 -19.5 256 -58.5
s84 -100.833 84 -185.5c0 -94.667 -49.333 -180.667 -148 -258c-47.333 -36.667 -108 -66.334 -182 -89.001s-140.833 -34 -200.5 -34s-105.167 1.83301 -136.5 5.5s-65.166 10.834 -101.499 21.501s-68.166 24.334 -95.499 41.001s-50.166 39.5 -68.499 68.5zM691.998 1167
c-15.333 -84 -81.998 -125.998 -199.998 -125.998c-50.667 0 -91.334 11.667 -122.001 35s-46 55.666 -46 96.999s17 75.666 51 102.999c66 54 163 77.333 291 70l22 -60c-26.667 -4 -51.334 -12 -74.001 -24s-34 -24.833 -34 -38.5s11.667 -25.5 35 -35.5s49 -17 77 -21z
" />
    <glyph glyph-name="Hbar" unicode="&#x126;" horiz-adv-x="1570" 
d="M1006 837h-447v-93h447v93zM15 772l12 204h159v44l-186 74l25 150h720l-19 -150l-167 -67v-90h447v83l-181 74l17 150h728l-19 -150l-168 -67v-51h158l-10 -204h-148v-561l179 -63l-14 -148h-723l14 138l167 79v276h-447v-282l181 -63l-18 -148h-717l12 138l169 79v555
h-171z" />
    <glyph glyph-name="hbar" unicode="&#x127;" horiz-adv-x="1176" 
d="M15 -2l17.0029 156.999l142 72v755l-174 101l25 164l390 27l60 -55v-78h338l-6 -152h-332v-91l-20 -133l15 -6c107.333 112 207.666 168 300.999 168c77.333 0 137.666 -23.167 180.999 -69.5s65 -119.166 65 -218.499v-412l148 -64l-23 -165h-436v429
c0 62 -7.83301 106.333 -23.5 133s-41.834 40 -78.501 40s-74 -16.667 -112 -50v-323l113 -63l-28 -166h-562z" />
    <glyph glyph-name="Imacron" unicode="&#x12a;" horiz-adv-x="757" 
d="M0 1094l20 150h727l-16 -160l-179 -67v-794l180 -63l-13 -160h-717l10 142l176 79v799zM146 1391l22 195h452l-22 -195h-452z" />
    <glyph glyph-name="imacron" unicode="&#x12b;" horiz-adv-x="638" 
d="M0 0l8 176l154 54v341l-148 105l33 178l373 26l56 -61v-589l162 -56l-11 -174h-627zM82 1073l21 195h453l-22 -195h-452z" />
    <glyph glyph-name="Iogonek" unicode="&#x12e;" horiz-adv-x="757" 
d="M708 0c-42.667 -116 -19.333 -212.667 70 -290l-24 -95c-87.333 5.33301 -161.833 24.5 -223.5 57.5s-92.5 73.5 -92.5 121.5s10.333 86.167 31 114.5s55.667 58.833 105 91.5h-572l10 142l176 79v799l-188 74l20 150h727l-16 -160l-179 -67v-794l180 -63l-13 -160h-11z
" />
    <glyph glyph-name="iogonek" unicode="&#x12f;" horiz-adv-x="638" 
d="M124 1022.5c-36 29.667 -54.002 67.3301 -54.002 112.997s20.333 82.834 61 111.501s98.334 43 173.001 43s132.334 -14.667 173.001 -44s61 -66.166 61 -110.499s-19.667 -81.666 -59 -111.999s-99.333 -45.5 -180 -45.5s-139 14.833 -175 44.5z
M-0.00195312 -0.00390625l7.99902 176.001l154 54v389l-148 109l33 173l373 27l56 -56v-642l162 -56l-11 -174h-10c-39.333 -118.667 -15.666 -215.334 71.001 -290.001l-26 -95c-87.333 5.33301 -161.833 24.5 -223.5 57.5s-92.5 73.5 -92.5 121.5s10.5 86.167 31.5 114.5
s56.167 58.833 105.5 91.5h-483z" />
    <glyph glyph-name="Idotaccent" unicode="&#x130;" horiz-adv-x="757" 
d="M0 1094l20 150h727l-16 -160l-179 -67v-794l180 -63l-13 -160h-717l10 142l176 79v799zM170 1544c0 40 16.499 75.499 49.499 106.499s87.333 46.5 163 46.5s130.334 -15.167 164.001 -45.5s50.5 -65.166 50.5 -104.499c0 -104 -71.167 -156 -213.5 -156
s-213.5 51 -213.5 153z" />
    <glyph glyph-name="dotlessi" unicode="&#x131;" horiz-adv-x="638" 
d="M0 0l8 176l154 54v341l-148 105l33 178l373 26l56 -61v-589l162 -56l-11 -174h-627z" />
    <glyph glyph-name="Kcommaaccent" unicode="&#x136;" horiz-adv-x="1507" 
d="M630 655c34 41.333 55.6689 69.6641 65.002 84.9971l172 263l40 241h521l-30 -150l-224 -94l-232 -315l158 -215c48 -65.333 83.667 -112.666 107 -141.999s50.666 -59.166 81.999 -89.499s61.166 -52.166 89.499 -65.499s62.833 -24.666 103.5 -33.999l25 -6l-32 -131
c-20.667 -8 -56 -14.833 -106 -20.5s-95.667 -8.5 -137 -8.5s-85.833 8.66699 -133.5 26s-91.167 43.666 -130.5 78.999c-68.667 60.667 -137 150 -205 268l-136 238zM0.00195312 1094l32 150h710l-21 -150l-136 -94v-760l195 -92l-12 -148h-765l16 138l202 103v752z
M762.002 -226.002c15.333 84 82.665 125.999 201.998 125.999c50.667 0 91.334 -11.667 122.001 -35s46 -55.666 46 -96.999s-17.333 -76 -52 -104c-66 -53.333 -163.333 -76.333 -292 -69l-22 60c26.667 4 51.334 12 74.001 24s34 24.833 34 38.5s-11.667 25.5 -35 35.5
s-49 17 -77 21z" />
    <glyph glyph-name="kcommaaccent" unicode="&#x137;" horiz-adv-x="1157" 
d="M504 402l10 44.999l185 313l-135 57l22 158h536l-29 -151l-147 -63l-166 -258l13 -20c58.667 -90.667 112.5 -161.667 161.5 -213s102.833 -96.333 161.5 -135l41 -27l-27 -108l-29 -5c-118 -20 -207.667 -17.667 -269 7c-80.667 32.667 -166 125.334 -256 278.001z
M0 -0.000976562l16 176l151 54v745l-167 102l34 172l388 28l60 -59v-988l111 -56l-25 -174h-568zM498 -230.001c15.333 84 82.665 125.999 201.998 125.999c50.667 0 91.334 -11.667 122.001 -35s46 -55.666 46 -96.999s-17.333 -76 -52 -104
c-66 -53.333 -163.333 -76.333 -292 -69l-22 60c26.667 4 51.334 12 74.001 24s34 24.833 34 38.5s-11.667 25.5 -35 35.5s-49 17 -77 21z" />
    <glyph glyph-name="Lacute" unicode="&#x139;" horiz-adv-x="1202" 
d="M0 0l16 138l160 79v781l-172 100l19 147h743l-21 -147l-196 -98v-800l270 -22l174 275l166 -23l-47 -430h-1112zM284 1402l155 325l220 -14l-231 -332z" />
    <glyph glyph-name="lacute" unicode="&#x13a;" horiz-adv-x="638" 
d="M0 0l15 176l152 54v745l-167 102l34 173l391 25l57 -57v-988l156 -56l-13 -174h-625zM206 1399l155 325l220 -14l-231 -332z" />
    <glyph glyph-name="Lcommaaccent" unicode="&#x13b;" horiz-adv-x="1202" 
d="M0 0l16 138l160 79v781l-172 100l19 147h743l-21 -147l-196 -98v-800l270 -22l174 275l166 -23l-47 -430h-1112zM376 -248c15.333 84 81.998 125.999 199.998 125.999c50.667 0 91.334 -11.667 122.001 -35s46 -55.666 46 -96.999s-17 -76 -51 -104
c-66 -53.333 -163 -76.333 -291 -69l-22 60c26.667 4 51.334 12 74.001 24s34 24.833 34 38.5s-11.667 25.5 -35 35.5s-49 17 -77 21z" />
    <glyph glyph-name="lcommaaccent" unicode="&#x13c;" horiz-adv-x="638" 
d="M0 0l15 176l152 54v745l-167 102l34 173l391 25l57 -57v-988l156 -56l-13 -174h-625zM132 -248c15.333 84 82.3311 125.999 200.998 125.999c50.667 0 91.334 -11.667 122.001 -35s46 -55.666 46 -96.999s-17 -76 -51 -104c-66.667 -53.333 -164 -76.333 -292 -69l-22 60
c26.667 4 51.334 12 74.001 24s34 24.833 34 38.5s-11.667 25.5 -35 35.5s-49 17 -77 21z" />
    <glyph glyph-name="Lcaron" unicode="&#x13d;" horiz-adv-x="1830" 
d="M0 0l16 138l160 79v781l-172 100l19 147h743l-21 -147l-196 -98v-800l270 -22l174 275l166 -23l-47 -430h-1112zM822 732c54 18 95.001 43.832 123.001 77.499s42 65.834 42 96.501s-8.33301 54.167 -25 70.5s-35.834 24.5 -57.501 24.5s-41.167 -4.33301 -58.5 -13
c-20.667 34.667 -31 67.667 -31 99c0 58 18.667 102.833 56 134.5s86 47.5 146 47.5c162 0 243 -88.667 243 -266c0 -86.667 -31.333 -167 -94 -241c-67.333 -80 -167.333 -129.333 -300 -148z" />
    <glyph glyph-name="lcaron" unicode="&#x13e;" horiz-adv-x="952" 
d="M0 0l15 176l152 54v745l-167 102l34 173l391 25l57 -57v-988l156 -56l-13 -174h-625zM564 729c54 18 95.001 43.832 123.001 77.499s42 65.834 42 96.501s-8.33301 54.167 -25 70.5s-35.834 24.5 -57.501 24.5s-41.167 -4.33301 -58.5 -13
c-20.667 34.667 -31 67.667 -31 99c0 58 18.667 102.833 56 134.5s86 47.5 146 47.5c162 0 243 -88.667 243 -266c0 -86.667 -31.333 -167 -94 -241c-67.333 -80 -167.333 -129.333 -300 -148z" />
    <glyph glyph-name="Lslash" unicode="&#x141;" horiz-adv-x="1202" 
d="M35 453l-4 175l145 44v326l-172 100l19 147h743l-21 -147l-196 -98v-216l218 66l1 -172l-219 -67v-411l270 -22l174 275l166 -23l-47 -430h-1112l16 138l160 79v279z" />
    <glyph glyph-name="lslash" unicode="&#x142;" horiz-adv-x="670" 
d="M32 492l32 222l98 52v200l-160 102l32 173l391 25l55 -57v-273l137 73l-29 -223l-108 -57v-499l156 -56l-12 -174h-624l14 176l148 54v331z" />
    <glyph glyph-name="Nacute" unicode="&#x143;" horiz-adv-x="1403" 
d="M4 1087l14 157h440l532 -712v488l-188 74l24 150h577l-25 -150l-168 -67v-1012l-283 -44l-513 648v-408l180 -63l-13 -148h-581l10 138l171 79v786zM572 1402l156 325l220 -14l-232 -332z" />
    <glyph glyph-name="nacute" unicode="&#x144;" horiz-adv-x="1160" 
d="M0 0l16.999 156.999l142 72v411l-142 81l27 168l403 29l38 -39l-23 -102l15 -6c50.667 52.667 98.334 92.167 143.001 118.5s93.334 39.5 146.001 39.5c77.333 0 137.666 -23.167 180.999 -69.5s65 -119.166 65 -218.499v-412l148 -64l-23 -165h-436v429
c0 62 -7.83301 106.333 -23.5 133s-43.5 40 -83.5 40s-79 -16.667 -117 -50v-323l123 -63l-28 -166h-572zM481.999 1084l155 325l220 -14l-231 -332z" />
    <glyph glyph-name="Ncommaaccent" unicode="&#x145;" horiz-adv-x="1403" 
d="M4 1087l14 157h440l532 -712v488l-188 74l24 150h577l-25 -150l-168 -67v-1012l-283 -44l-513 648v-408l180 -63l-13 -148h-581l10 138l171 79v786zM538 -205c15.333 84 82.665 125.998 201.998 125.998c50.667 0 91.334 -11.667 122.001 -35s46 -55.666 46 -96.999
s-17.333 -75.666 -52 -102.999c-66 -54 -163.333 -77.333 -292 -70l-22 60c26.667 4 51.334 12 74.001 24s34 24.833 34 38.5s-11.667 25.5 -35 35.5s-49 17 -77 21z" />
    <glyph glyph-name="ncommaaccent" unicode="&#x146;" horiz-adv-x="1160" 
d="M0 0l16.999 156.999l142 72v411l-142 81l27 168l403 29l38 -39l-23 -102l15 -6c50.667 52.667 98.334 92.167 143.001 118.5s93.334 39.5 146.001 39.5c77.333 0 137.666 -23.167 180.999 -69.5s65 -119.166 65 -218.499v-412l148 -64l-23 -165h-436v429
c0 62 -7.83301 106.333 -23.5 133s-43.5 40 -83.5 40s-79 -16.667 -117 -50v-323l123 -63l-28 -166h-572zM387.999 -248.001c15.333 84 82.3311 125.999 200.998 125.999c50.667 0 91.334 -11.667 122.001 -35s46 -55.666 46 -96.999s-17 -76 -51 -104
c-66.667 -53.333 -164 -76.333 -292 -69l-22 60c26.667 4 51.334 12 74.001 24s34 24.833 34 38.5s-11.667 25.5 -35 35.5s-49 17 -77 21z" />
    <glyph glyph-name="Ncaron" unicode="&#x147;" horiz-adv-x="1403" 
d="M4 1087l14 157h440l532 -712v488l-188 74l24 150h577l-25 -150l-168 -67v-1012l-283 -44l-513 648v-408l180 -63l-13 -148h-581l10 138l171 79v786zM372 1597l184 37l114 -85h10l96 82l172 -29l-210 -201l-158 -10z" />
    <glyph glyph-name="ncaron" unicode="&#x148;" horiz-adv-x="1160" 
d="M0 0l16.999 156.999l142 72v411l-142 81l27 168l403 29l38 -39l-23 -102l15 -6c50.667 52.667 98.334 92.167 143.001 118.5s93.334 39.5 146.001 39.5c77.333 0 137.666 -23.167 180.999 -69.5s65 -119.166 65 -218.499v-412l148 -64l-23 -165h-436v429
c0 62 -7.83301 106.333 -23.5 133s-43.5 40 -83.5 40s-79 -16.667 -117 -50v-323l123 -63l-28 -166h-572zM290.999 1279l185 37l113 -85h10l96 82l172 -29l-210 -201l-158 -10z" />
    <glyph glyph-name="Eng" unicode="&#x14a;" horiz-adv-x="1403" 
d="M4 1087l14 157h440l532 -712v488l-188 74l24 150h577l-25 -150l-168 -67v-593c0 -131.333 -11.833 -237.833 -35.5 -319.5s-63 -153 -118 -214s-136.5 -125.167 -244.5 -192.5l-56 -34l-117 175c82 65.333 140.667 153 176 263l-401 507v-408l180 -63l-13 -148h-581
l10 138l171 79v786z" />
    <glyph glyph-name="eng" unicode="&#x14b;" horiz-adv-x="1104" 
d="M0 0l16.9961 156.999l142 72v411l-142 81l27 168l403 29l38 -39l-23 -102l15 -6c50.667 52.667 98.334 92.167 143.001 118.5s93.334 39.5 146.001 39.5c77.333 0 137.666 -23.167 180.999 -69.5s65 -119.166 65 -218.499v-486c0 -252.667 -147 -428 -441 -526l-42 -11
l-83 169l49 36c42.667 32.667 72.834 60 90.501 82s34.334 45.5 50.001 70.5s27.834 49.833 36.501 74.5c21.333 62 32 127 32 195l-3 184c-0.666992 62.667 -8.66699 107.167 -24 133.5s-43 39.5 -83 39.5s-79 -16.667 -117 -50v-323l123 -63l-28 -166h-572z" />
    <glyph glyph-name="Omacron" unicode="&#x14c;" horiz-adv-x="1462" 
d="M736 163c174.667 0 262 136.665 262 409.998c0 54.667 -4.83301 112 -14.5 172s-21.667 108 -36 144s-31.5 69.667 -51.5 101c-44.667 69.333 -110 104 -196 104c-168 0 -252 -141 -252 -423c0 -78.667 8.66699 -150.667 26 -216s36 -117.166 56 -155.499
s48 -70.666 84 -96.999s76.667 -39.5 122 -39.5zM0 618.998c0 195.333 67.499 352.501 202.499 471.501s318.5 178.5 550.5 178.5c366 0 591 -134.667 675 -404c22.667 -74 34 -160 34 -258s-20.167 -187.833 -60.5 -269.5s-95.5 -148.834 -165.5 -201.501
c-145.333 -108.667 -329.666 -163 -552.999 -163c-230.667 0 -403.667 60.333 -519 181c-109.333 114.667 -164 269.667 -164 465zM475.999 1391l21 195h453l-22 -195h-452z" />
    <glyph glyph-name="omacron" unicode="&#x14d;" horiz-adv-x="978" 
d="M361 690c-18 -35.333 -27 -101.999 -27 -199.999c0 -214.667 57 -322 171 -322c42.667 0 72.5 13.667 89.5 41s25.5 69.666 25.5 126.999s-0.833008 101.5 -2.5 132.5s-5.66699 65 -12 102s-14.833 67.167 -25.5 90.5c-26 54.667 -64.5 82 -115.5 82
s-85.5 -17.667 -103.5 -53zM0 470.001c0 70 15.333 136.332 46 198.999s70 114.334 118 155.001c102 84.667 212.333 127 331 127c308.667 0 463 -153.667 463 -461c0 -157.333 -44.167 -282.833 -132.5 -376.5s-205.5 -140.5 -351.5 -140.5
c-176.667 0 -302 51.333 -376 154c-65.333 90.667 -98 205 -98 343zM258 1073l21 195h453l-22 -195h-452z" />
    <glyph glyph-name="Ohungarumlaut" unicode="&#x150;" horiz-adv-x="1462" 
d="M736 163c174.667 0 262 136.665 262 409.998c0 54.667 -4.83301 112 -14.5 172s-21.667 108 -36 144s-31.5 69.667 -51.5 101c-44.667 69.333 -110 104 -196 104c-168 0 -252 -141 -252 -423c0 -78.667 8.66699 -150.667 26 -216s36 -117.166 56 -155.499
s48 -70.666 84 -96.999s76.667 -39.5 122 -39.5zM0 618.998c0 195.333 67.499 352.501 202.499 471.501s318.5 178.5 550.5 178.5c366 0 591 -134.667 675 -404c22.667 -74 34 -160 34 -258s-20.167 -187.833 -60.5 -269.5s-95.5 -148.834 -165.5 -201.501
c-145.333 -108.667 -329.666 -163 -552.999 -163c-230.667 0 -403.667 60.333 -519 181c-109.333 114.667 -164 269.667 -164 465zM668.999 1430l258 252l209 -28l-332 -263zM390.999 1430l279 255l205 -24l-345 -270z" />
    <glyph glyph-name="ohungarumlaut" unicode="&#x151;" horiz-adv-x="978" 
d="M361 690c-18 -35.333 -27 -101.999 -27 -199.999c0 -214.667 57 -322 171 -322c42.667 0 72.5 13.667 89.5 41s25.5 69.666 25.5 126.999s-0.833008 101.5 -2.5 132.5s-5.66699 65 -12 102s-14.833 67.167 -25.5 90.5c-26 54.667 -64.5 82 -115.5 82
s-85.5 -17.667 -103.5 -53zM0 470.001c0 70 15.333 136.332 46 198.999s70 114.334 118 155.001c102 84.667 212.333 127 331 127c308.667 0 463 -153.667 463 -461c0 -157.333 -44.167 -282.833 -132.5 -376.5s-205.5 -140.5 -351.5 -140.5
c-176.667 0 -302 51.333 -376 154c-65.333 90.667 -98 205 -98 343zM461 1112l258 252l209 -28l-332 -263zM183 1112l279 255l205 -24l-345 -270z" />
    <glyph glyph-name="OE" unicode="&#x152;" horiz-adv-x="1832" 
d="M467 933c-13.333 -65.333 -20 -131.833 -20 -199.5s0.666992 -114.834 2 -141.501s4 -59.5 8 -98.5s10.667 -74.833 20 -107.5s20.666 -64 33.999 -94c28.667 -64.667 71.667 -97 129 -97c36 0 77.667 15 125 45v818c-73.333 30.667 -126.833 46 -160.5 46
s-61.667 -12.167 -84 -36.5s-40.166 -69.166 -53.499 -134.499zM0 619c0 256.667 65.667 435.667 197 537c97.333 75.333 234 113 410 113c80 0 146.333 -9.33301 199 -28l941 3l-30 -418l-171 26l-83 220h-329v-360l190 16l246 21l-35 -247l-215 20l-20 3l-166 15v-362
l387 2l146 248l165 -17l-30 -411h-1041c-64 -18 -139 -27 -225 -27c-185.333 0 -321 55 -407 165s-129 270.333 -129 481z" />
    <glyph glyph-name="oe" unicode="&#x153;" horiz-adv-x="1429" 
d="M889 516l170 15c4 12 6 36.833 6 74.5s-6.66699 70 -20 97s-34.333 40.5 -63 40.5c-64 0 -95 -75.667 -93 -227zM361 690c-18 -35.333 -27 -101.999 -27 -199.999c0 -214.667 57 -322 171 -322c42.667 0 72.5 13.667 89.5 41s25.5 69.666 25.5 126.999
s-0.833008 101.5 -2.5 132.5s-5.66699 65 -12 102s-14.833 67.167 -25.5 90.5c-26 54.667 -64.5 82 -115.5 82s-85.5 -17.667 -103.5 -53zM23 282.001c-15.333 55.333 -22.998 118.001 -22.998 188.001s15.333 136.333 46 199s70 114.334 118 155.001
c102 84.667 214.667 127 338 127s222.666 -26.667 297.999 -80c79.333 52.667 168.333 79 267 79s177.334 -34.167 236.001 -102.5s88 -157.5 88 -267.5c0 -46.667 -7 -106.334 -21 -179.001l-478 -4c4 -64.667 28.167 -113.834 72.5 -147.501s110.166 -50.5 197.499 -50.5
s163.333 18.667 228 56l19 -133c-28.667 -38 -69 -69 -121 -93c-86.667 -40 -182.834 -60 -288.501 -60s-193.5 24 -263.5 72c-75.333 -45.333 -159.833 -68 -253.5 -68s-172.5 13.667 -236.5 41s-113.333 65 -148 113s-59.667 99.667 -75 155z" />
    <glyph glyph-name="Racute" unicode="&#x154;" horiz-adv-x="1456" 
d="M732 668c79.333 43.333 119 107.333 119 192c0 59.333 -22.167 110 -66.5 152s-101.833 63 -172.5 63c-14.667 0 -25.667 -0.333008 -33 -1v-406h153zM0 0l19 138l190 79v779l-192 47l12 160c74 12 180.5 23.667 319.5 35s244.833 17 317.5 17
c198 0 345.167 -26.5 441.5 -79.5s144.5 -142.167 144.5 -267.5c0 -118.667 -62 -219 -186 -301c-30.667 -20 -60.667 -35 -90 -45v-1l121 -161c85.333 -113.333 159 -187 221 -221c30.667 -16.667 63.667 -29 99 -37l39 -9l-31 -131c-64 -19.333 -136.333 -29 -217 -29
c-115.333 0 -208.833 26.333 -280.5 79s-133.167 129.667 -184.5 231l-90 176h-74v-230l143 -74l-12 -155h-710zM528 1402l155 325l220 -14l-231 -332z" />
    <glyph glyph-name="racute" unicode="&#x155;" horiz-adv-x="871" 
d="M0 2l21.9971 158.999l146 68v414l-140 78l27 168l365 29l38 -39l-18 -141l19 -10c45.333 134.667 127.333 202 246 202c51.333 0 91.833 -15 121.5 -45s44.5 -68.333 44.5 -115c0 -82 -35 -156.667 -105 -224c-55.333 26.667 -96.666 40 -123.999 40
s-47.666 -2.33301 -60.999 -7s-24.166 -9.66699 -32.499 -15s-16.666 -13.5 -24.999 -24.5s-14.333 -19.667 -18 -26s-8.83398 -16.166 -15.501 -29.499l-12 -24v-209l239 -63l-14 -186h-703zM297.997 1084l154 325l220 -14l-230 -332z" />
    <glyph glyph-name="Rcommaaccent" unicode="&#x156;" horiz-adv-x="1456" 
d="M732 668c79.333 43.333 119 107.333 119 192c0 59.333 -22.167 110 -66.5 152s-101.833 63 -172.5 63c-14.667 0 -25.667 -0.333008 -33 -1v-406h153zM0 0l19 138l190 79v779l-192 47l12 160c74 12 180.5 23.667 319.5 35s244.833 17 317.5 17
c198 0 345.167 -26.5 441.5 -79.5s144.5 -142.167 144.5 -267.5c0 -118.667 -62 -219 -186 -301c-30.667 -20 -60.667 -35 -90 -45v-1l121 -161c85.333 -113.333 159 -187 221 -221c30.667 -16.667 63.667 -29 99 -37l39 -9l-31 -131c-64 -19.333 -136.333 -29 -217 -29
c-115.333 0 -208.833 26.333 -280.5 79s-133.167 129.667 -184.5 231l-90 176h-74v-230l143 -74l-12 -155h-710zM628 -211c15.333 84 81.998 125.998 199.998 125.998c50.667 0 91.334 -11.667 122.001 -35s46 -55.666 46 -96.999s-17 -75.666 -51 -102.999
c-66 -54 -163 -77.333 -291 -70l-22 60c26.667 4 51.334 12 74.001 24s34 24.833 34 38.5s-11.667 25.5 -35 35.5s-49 17 -77 21z" />
    <glyph glyph-name="rcommaaccent" unicode="&#x157;" horiz-adv-x="871" 
d="M0 2l21.9971 158.999l146 68v414l-140 78l27 168l365 29l38 -39l-18 -141l19 -10c45.333 134.667 127.333 202 246 202c51.333 0 91.833 -15 121.5 -45s44.5 -68.333 44.5 -115c0 -82 -35 -156.667 -105 -224c-55.333 26.667 -96.666 40 -123.999 40
s-47.666 -2.33301 -60.999 -7s-24.166 -9.66699 -32.499 -15s-16.666 -13.5 -24.999 -24.5s-14.333 -19.667 -18 -26s-8.83398 -16.166 -15.501 -29.499l-12 -24v-209l239 -63l-14 -186h-703zM170.997 -246.001c15.333 84 82.3311 125.999 200.998 125.999
c50.667 0 91.334 -11.667 122.001 -35s46 -55.666 46 -96.999s-17.333 -76 -52 -104c-66 -53.333 -163 -76.333 -291 -69l-22 60c26.667 4 51.334 12 74.001 24s34 24.833 34 38.5s-11.667 25.5 -35 35.5s-49 17 -77 21z" />
    <glyph glyph-name="Rcaron" unicode="&#x158;" horiz-adv-x="1456" 
d="M732 668c79.333 43.333 119 107.333 119 192c0 59.333 -22.167 110 -66.5 152s-101.833 63 -172.5 63c-14.667 0 -25.667 -0.333008 -33 -1v-406h153zM0 0l19 138l190 79v779l-192 47l12 160c74 12 180.5 23.667 319.5 35s244.833 17 317.5 17
c198 0 345.167 -26.5 441.5 -79.5s144.5 -142.167 144.5 -267.5c0 -118.667 -62 -219 -186 -301c-30.667 -20 -60.667 -35 -90 -45v-1l121 -161c85.333 -113.333 159 -187 221 -221c30.667 -16.667 63.667 -29 99 -37l39 -9l-31 -131c-64 -19.333 -136.333 -29 -217 -29
c-115.333 0 -208.833 26.333 -280.5 79s-133.167 129.667 -184.5 231l-90 176h-74v-230l143 -74l-12 -155h-710zM417 1597l185 37l113 -85h10l96 82l172 -29l-210 -201l-158 -10z" />
    <glyph glyph-name="rcaron" unicode="&#x159;" horiz-adv-x="871" 
d="M0 2l21.9971 158.999l146 68v414l-140 78l27 168l365 29l38 -39l-18 -141l19 -10c45.333 134.667 127.333 202 246 202c51.333 0 91.833 -15 121.5 -45s44.5 -68.333 44.5 -115c0 -82 -35 -156.667 -105 -224c-55.333 26.667 -96.666 40 -123.999 40
s-47.666 -2.33301 -60.999 -7s-24.166 -9.66699 -32.499 -15s-16.666 -13.5 -24.999 -24.5s-14.333 -19.667 -18 -26s-8.83398 -16.166 -15.501 -29.499l-12 -24v-209l239 -63l-14 -186h-703zM165.997 1279l186 37l112 -85h10l96 82l172 -29l-210 -201l-158 -10z" />
    <glyph glyph-name="Sacute" unicode="&#x15a;" horiz-adv-x="969" 
d="M0 126l33.999 361.993l177 -29l42 -187c20 -28.667 51.167 -51 93.5 -67s84.333 -24 126 -24s74.167 9.83301 97.5 29.5s35 42.834 35 69.501s-11 50.5 -33 71.5s-50.5 39.5 -85.5 55.5s-73.833 32.167 -116.5 48.5s-85.167 35.833 -127.5 58.5
s-81.166 48.334 -116.499 77.001c-78.667 64.667 -118 153.334 -118 266.001c0 158 79.333 273.667 238 347c88 41.333 188.667 62 302 62c57.333 0 124.666 -9.16699 201.999 -27.5s128 -39.166 152 -62.499l-28 -362l-173 30l-39 143
c-21.333 30.667 -52.333 54.834 -93 72.501s-79.834 26.5 -117.501 26.5s-65.5 -8.66699 -83.5 -26s-27 -39.833 -27 -67.5s12.167 -52.667 36.5 -75s55.833 -42.333 94.5 -60s81.334 -36 128.001 -55s93.334 -41 140.001 -66s89.334 -52.833 128.001 -83.5
s70.167 -69.334 94.5 -116.001s36.5 -99.167 36.5 -157.5s-13.167 -111.666 -39.5 -159.999s-59.333 -87.166 -99 -116.499s-84.834 -53.666 -135.501 -72.999c-90 -35.333 -185.833 -53 -287.5 -53s-193 14 -274 42s-135.5 63.667 -163.5 107zM409.999 1401.99l155 325
l220 -14l-231 -332z" />
    <glyph glyph-name="sacute" unicode="&#x15b;" horiz-adv-x="779" 
d="M53 60c-35.333 31.333 -53 69 -53 113s16.667 79.5 50 106.5s80.666 43.167 141.999 48.5c18.667 -66 44 -116.5 76 -151.5s67.833 -52.5 107.5 -52.5s67.667 4.33301 84 13s24.5 22.834 24.5 42.501s-8.33301 36.834 -25 51.501s-38.334 28.667 -65.001 42l-87 43
c-128.667 62 -211.334 130.667 -248.001 206c-16.667 34 -25 67.167 -25 99.5s3.83301 61.666 11.5 87.999s21.334 54 41.001 83s43.834 54.833 72.501 77.5c66 52 153.167 78 261.5 78s192.666 -15.333 252.999 -46s90.5 -70.5 90.5 -119.5s-19 -88.5 -57 -118.5
s-82.667 -47.667 -134 -53l-33 86c-26 68 -76.667 102 -152 102c-26 0 -46.667 -6.33301 -62 -19s-23 -27.834 -23 -45.501s8.83301 -34.167 26.5 -49.5s40.334 -30 68.001 -44s58.5 -28.833 92.5 -44.5s68 -33.667 102 -54s64.667 -42.5 92 -66.5
c63.333 -56 95 -128.333 95 -217s-40 -160 -120 -214s-183.667 -81 -311 -81c-125.333 0 -223.666 32 -294.999 96zM293 1084l155 325l220 -14l-231 -332z" />
    <glyph glyph-name="Scedilla" unicode="&#x15e;" horiz-adv-x="969" 
d="M305 -301c38.667 0.666992 71.165 7.49414 97.498 20.4941s39.5 27.5 39.5 43.5c0 26 -52 56.667 -156 92l156 122c-109.333 0.666992 -203.5 15 -282.5 43s-132.167 63.333 -159.5 106l34 362l177 -29l42 -187c20 -28.667 51.167 -51 93.5 -67s84.333 -24 126 -24
s74.167 9.83301 97.5 29.5s35 42.834 35 69.501s-11 50.5 -33 71.5s-50.5 39.5 -85.5 55.5s-73.833 32.167 -116.5 48.5s-85.167 35.833 -127.5 58.5s-81.166 48.334 -116.499 77.001c-78.667 64.667 -118 153.334 -118 266.001c0 158 79.333 273.667 238 347
c88 41.333 188.667 62 302 62c57.333 0 124.666 -9.16699 201.999 -27.5s128 -39.166 152 -62.499l-28 -362l-173 30l-39 143c-21.333 30.667 -52.333 54.834 -93 72.501s-79.834 26.5 -117.501 26.5s-65.5 -8.66699 -83.5 -26s-27 -39.833 -27 -67.5
s12.167 -52.667 36.5 -75s55.833 -42.333 94.5 -60s81.334 -36 128.001 -55s93.334 -41 140.001 -66s89.334 -52.833 128.001 -83.5s70.167 -69.334 94.5 -116.001s36.5 -97.667 36.5 -153s-10.333 -105.166 -31 -149.499s-48.667 -81.166 -84 -110.499
c-67.333 -57.333 -148.333 -98 -243 -122h7l-118 -86c116.667 -10 175 -57.667 175 -143c0 -56 -27.667 -97 -83 -123s-149 -39 -281 -39z" />
    <glyph glyph-name="scedilla" unicode="&#x15f;" horiz-adv-x="779" 
d="M201 -313c38.667 0.666992 71.168 7.5 97.501 20.5s39.5 27.5 39.5 43.5c0 26 -52 56.667 -156 92l155 121c-122.667 2.66699 -218 35.334 -286 98.001c-34 31.333 -51 68.666 -51 111.999s16.667 78.5 50 105.5s80.666 43.167 141.999 48.5
c18.667 -66 44 -116.5 76 -151.5s67.833 -52.5 107.5 -52.5s67.667 4.33301 84 13s24.5 22.834 24.5 42.501s-8.33301 36.834 -25 51.501s-38.334 28.667 -65.001 42l-87 43c-128.667 62 -211.334 130.667 -248.001 206c-16.667 34 -25 67.167 -25 99.5
s3.83301 61.666 11.5 87.999s21.334 54 41.001 83s43.834 54.833 72.501 77.5c66 52 153.167 78 261.5 78s192.666 -15.333 252.999 -46s90.5 -70.5 90.5 -119.5s-19 -88.5 -57 -118.5s-82.667 -47.667 -134 -53l-33 86c-26 68 -76.667 102 -152 102
c-26 0 -46.667 -6.33301 -62 -19s-23 -27.834 -23 -45.501s8.83301 -34.167 26.5 -49.5s40.334 -30 68.001 -44s58.5 -28.833 92.5 -44.5s68 -33.667 102 -54s64.667 -42.5 92 -66.5c63.333 -56 95 -121.333 95 -196s-21.167 -136.167 -63.5 -184.5
s-100.5 -83.5 -174.5 -105.5h3l-118 -86c116.667 -10 175 -57.667 175 -143c0 -56 -27.667 -97 -83 -123s-149 -39 -281 -39z" />
    <glyph glyph-name="Scaron" unicode="&#x160;" horiz-adv-x="969" 
d="M0 126l33.999 361.993l177 -29l42 -187c20 -28.667 51.167 -51 93.5 -67s84.333 -24 126 -24s74.167 9.83301 97.5 29.5s35 42.834 35 69.501s-11 50.5 -33 71.5s-50.5 39.5 -85.5 55.5s-73.833 32.167 -116.5 48.5s-85.167 35.833 -127.5 58.5
s-81.166 48.334 -116.499 77.001c-78.667 64.667 -118 153.334 -118 266.001c0 158 79.333 273.667 238 347c88 41.333 188.667 62 302 62c57.333 0 124.666 -9.16699 201.999 -27.5s128 -39.166 152 -62.499l-28 -362l-173 30l-39 143
c-21.333 30.667 -52.333 54.834 -93 72.501s-79.834 26.5 -117.501 26.5s-65.5 -8.66699 -83.5 -26s-27 -39.833 -27 -67.5s12.167 -52.667 36.5 -75s55.833 -42.333 94.5 -60s81.334 -36 128.001 -55s93.334 -41 140.001 -66s89.334 -52.833 128.001 -83.5
s70.167 -69.334 94.5 -116.001s36.5 -99.167 36.5 -157.5s-13.167 -111.666 -39.5 -159.999s-59.333 -87.166 -99 -116.499s-84.834 -53.666 -135.501 -72.999c-90 -35.333 -185.833 -53 -287.5 -53s-193 14 -274 42s-135.5 63.667 -163.5 107zM218.999 1596.99l185 37
l113 -85h10l96 82l172 -29l-210 -201l-158 -10z" />
    <glyph glyph-name="scaron" unicode="&#x161;" horiz-adv-x="779" 
d="M53 60c-35.333 31.333 -53 69 -53 113s16.667 79.5 50 106.5s80.666 43.167 141.999 48.5c18.667 -66 44 -116.5 76 -151.5s67.833 -52.5 107.5 -52.5s67.667 4.33301 84 13s24.5 22.834 24.5 42.501s-8.33301 36.834 -25 51.501s-38.334 28.667 -65.001 42l-87 43
c-128.667 62 -211.334 130.667 -248.001 206c-16.667 34 -25 67.167 -25 99.5s3.83301 61.666 11.5 87.999s21.334 54 41.001 83s43.834 54.833 72.501 77.5c66 52 153.167 78 261.5 78s192.666 -15.333 252.999 -46s90.5 -70.5 90.5 -119.5s-19 -88.5 -57 -118.5
s-82.667 -47.667 -134 -53l-33 86c-26 68 -76.667 102 -152 102c-26 0 -46.667 -6.33301 -62 -19s-23 -27.834 -23 -45.501s8.83301 -34.167 26.5 -49.5s40.334 -30 68.001 -44s58.5 -28.833 92.5 -44.5s68 -33.667 102 -54s64.667 -42.5 92 -66.5
c63.333 -56 95 -128.333 95 -217s-40 -160 -120 -214s-183.667 -81 -311 -81c-125.333 0 -223.666 32 -294.999 96zM132 1279l185 37l113 -85h10l96 82l172 -29l-210 -201l-158 -10z" />
    <glyph glyph-name="Tcommaaccent" unicode="&#x162;" horiz-adv-x="1264" 
d="M472 -297c38.667 0.666992 71 7.5 97 20.5s39 27.5 39 43.5c0 26 -52 56.667 -156 92l181 141h-383l13 140l177 69v863h-180l-87 -286l-170 26l-3 432h1264l-32 -448l-183 31l-64 245h-184v-864l202 -55l-16 -153h-181l-110 -80c117.333 -10 176 -57.667 176 -143
c0 -56 -27.667 -97 -83 -123s-149 -39 -281 -39z" />
    <glyph glyph-name="tcommaaccent" unicode="&#x163;" horiz-adv-x="762" 
d="M450 354c-1.33301 -84.667 42.666 -127.001 131.999 -127.001c44 0 87.333 9.66699 130 29l30 -133c-48 -65.333 -118.667 -109.666 -212 -132.999h14l-118 -86c116.667 -10 175 -57.667 175 -143c0 -56 -27.667 -97 -83 -123s-149 -39 -281 -39l-36 88
c38.667 0.666992 71.167 7.5 97.5 20.5s39.5 27.5 39.5 43.5c0 26 -52 56.667 -156 92l174 136c-87.333 7.33301 -147.666 34.833 -180.999 82.5s-49.333 125.5 -48 233.5l3 368h-100v149c102 62 189.667 150.333 263 265h163v-221h274l-12 -196h-266z" />
    <glyph glyph-name="Tcaron" unicode="&#x164;" horiz-adv-x="1264" 
d="M0 1244h1264l-32 -448l-183 31l-64 245h-184v-864l202 -55l-16 -153h-737l13 140l177 69v863h-180l-87 -286l-170 26zM343 1597l185 37l113 -85h10l96 82l172 -29l-210 -201l-158 -10z" />
    <glyph glyph-name="tcaron" unicode="&#x165;" horiz-adv-x="916" 
d="M450 354c-1.33301 -84.667 42.6689 -127.001 132.002 -127.001c44 0 87.333 9.66699 130 29l30 -133c-28 -38.667 -69.833 -72.667 -125.5 -102s-121.834 -44 -198.501 -44c-112 0 -188.833 23.333 -230.5 70s-61.834 129.334 -60.501 248.001l3 368h-100v149
c102 62 189.667 150.333 263 265h163v-221h274l-12 -196h-266zM788.002 539.999c54 18 95.001 43.832 123.001 77.499s42 65.834 42 96.501s-8.33301 54.167 -25 70.5s-35.834 24.5 -57.501 24.5s-41.167 -4.33301 -58.5 -13c-20.667 34.667 -31 67.667 -31 99
c0 58 18.667 102.833 56 134.5s86 47.5 146 47.5c162 0 243 -88.667 243 -266c0 -86.667 -31.333 -167 -94 -241c-67.333 -80 -167.333 -129.333 -300 -148z" />
    <glyph glyph-name="Tbar" unicode="&#x166;" horiz-adv-x="1264" 
d="M0 1244h1264l-32 -448l-183 31l-64 245h-184v-864l202 -55l-16 -153h-737l13 140l177 69v863h-180l-87 -286l-170 26z" />
    <glyph glyph-name="tbar" unicode="&#x167;" horiz-adv-x="762" 
d="M450 354c-1.33301 -84.667 42.6689 -127.001 132.002 -127.001c44 0 87.333 9.66699 130 29l30 -133c-28 -38.667 -69.833 -72.667 -125.5 -102s-121.834 -44 -198.501 -44c-112 0 -188.833 23.333 -230.5 70s-61.834 129.334 -60.501 248.001l3 368h-100v149
c102 62 189.667 150.333 263 265h163v-221h274l-12 -196h-266z" />
    <glyph glyph-name="Umacron" unicode="&#x16a;" 
d="M0 1094l29.001 150.002h720l-22 -150l-165 -67v-486c0 -106 26.167 -183.833 78.5 -233.5s121.5 -74.5 207.5 -74.5c178 0 267 101.333 267 304v483l-176 74l20 150h585l-17 -150l-165 -67l-4 -462c-4 -394.667 -197.667 -592 -581 -592
c-108.667 0 -184.834 5.66699 -228.501 17s-80.667 23.166 -111 35.499s-56.833 27 -79.5 44s-45 38.5 -67 64.5s-40 55.333 -54 88c-31.333 73.333 -47 160.666 -47 261.999v536zM610.001 1391l20 195h454l-22 -195h-452z" />
    <glyph glyph-name="umacron" unicode="&#x16b;" horiz-adv-x="1143" 
d="M0 718l33.999 182.999l364 22l56 -53v-401c0 -64 6.16699 -108.833 18.5 -134.5s37.333 -38.5 75 -38.5s75.5 16.667 113.5 50v258l-129 76l34 209l358 42l53 -53v-505c0 -51.333 9.33301 -88.333 28 -111s55.334 -42.667 110.001 -60l28 -9l-25 -170
c-82.667 -38.667 -159 -58 -229 -58c-142.667 0 -214 50 -214 150v13l-13 6c-28.667 -51.333 -68.167 -91.666 -118.5 -120.999s-100.5 -44 -150.5 -44c-102 0 -172.167 22.833 -210.5 68.5s-57.5 122.167 -57.5 229.5v346zM316.999 1073l21 195h453l-22 -195h-452z" />
    <glyph glyph-name="Uring" unicode="&#x16e;" 
d="M0 1094l29.001 150.002h720l-22 -150l-165 -67v-486c0 -106 26.167 -183.833 78.5 -233.5s121.5 -74.5 207.5 -74.5c178 0 267 101.333 267 304v483l-176 74l20 150h585l-17 -150l-165 -67l-4 -462c-4 -394.667 -197.667 -592 -581 -592
c-108.667 0 -184.834 5.66699 -228.501 17s-80.667 23.166 -111 35.499s-56.833 27 -79.5 44s-45 38.5 -67 64.5s-40 55.333 -54 88c-31.333 73.333 -47 160.666 -47 261.999v536zM763.001 1558c0 -38 26 -57 78 -57c20 0 37.833 5 53.5 15s23.5 24 23.5 42
s-8.33301 32.333 -25 43s-35 16 -55 16s-37.5 -5.66699 -52.5 -17s-22.5 -25.333 -22.5 -42zM832.001 1391c-173.333 0 -260 55.333 -260 166c0 50.667 22.667 92.167 68 124.5s114 48.5 206 48.5c183.333 0 275 -54.667 275 -164c0 -49.333 -23.833 -90.833 -71.5 -124.5
s-120.167 -50.5 -217.5 -50.5z" />
    <glyph glyph-name="uring" unicode="&#x16f;" horiz-adv-x="1143" 
d="M0 718l33.999 182.999l364 22l56 -53v-401c0 -64 6.16699 -108.833 18.5 -134.5s37.333 -38.5 75 -38.5s75.5 16.667 113.5 50v258l-129 76l34 209l358 42l53 -53v-505c0 -51.333 9.33301 -88.333 28 -111s55.334 -42.667 110.001 -60l28 -9l-25 -170
c-82.667 -38.667 -159 -58 -229 -58c-142.667 0 -214 50 -214 150v13l-13 6c-28.667 -51.333 -68.167 -91.666 -118.5 -120.999s-100.5 -44 -150.5 -44c-102 0 -172.167 22.833 -210.5 68.5s-57.5 122.167 -57.5 229.5v346zM440.999 1220c0 -38 25.666 -57 76.999 -57
c20.667 0 38.834 5 54.501 15s23.5 23.833 23.5 41.5s-8.5 32 -25.5 43s-35.5 16.5 -55.5 16.5s-37.333 -5.66699 -52 -17s-22 -25.333 -22 -42zM509.998 1053c-173.333 0 -260 55.333 -260 166c0 50.667 22.667 92.167 68 124.5s114 48.5 206 48.5
c183.333 0 275 -54.667 275 -164c0 -49.333 -23.833 -90.833 -71.5 -124.5s-120.167 -50.5 -217.5 -50.5z" />
    <glyph glyph-name="Uhungarumlaut" unicode="&#x170;" 
d="M0 1094l29.001 150.002h720l-22 -150l-165 -67v-486c0 -106 26.167 -183.833 78.5 -233.5s121.5 -74.5 207.5 -74.5c178 0 267 101.333 267 304v483l-176 74l20 150h585l-17 -150l-165 -67l-4 -462c-4 -394.667 -197.667 -592 -581 -592
c-108.667 0 -184.834 5.66699 -228.501 17s-80.667 23.166 -111 35.499s-56.833 27 -79.5 44s-45 38.5 -67 64.5s-40 55.333 -54 88c-31.333 73.333 -47 160.666 -47 261.999v536zM842.001 1430l258 252l210 -28l-332 -263zM564.001 1430l280 255l204 -24l-344 -270z" />
    <glyph glyph-name="uhungarumlaut" unicode="&#x171;" horiz-adv-x="1143" 
d="M0 718l33.999 182.999l364 22l56 -53v-401c0 -64 6.16699 -108.833 18.5 -134.5s37.333 -38.5 75 -38.5s75.5 16.667 113.5 50v258l-129 76l34 209l358 42l53 -53v-505c0 -51.333 9.33301 -88.333 28 -111s55.334 -42.667 110.001 -60l28 -9l-25 -170
c-82.667 -38.667 -159 -58 -229 -58c-142.667 0 -214 50 -214 150v13l-13 6c-28.667 -51.333 -68.167 -91.666 -118.5 -120.999s-100.5 -44 -150.5 -44c-102 0 -172.167 22.833 -210.5 68.5s-57.5 122.167 -57.5 229.5v346zM509.999 1082l258 252l209 -28l-332 -263z
M231.999 1082l279 255l205 -24l-345 -270z" />
    <glyph glyph-name="Uogonek" unicode="&#x172;" 
d="M0 1094l28.999 150h720l-22 -150l-165 -67v-486c0 -106 26.167 -183.833 78.5 -233.5s121.5 -74.5 207.5 -74.5c178 0 267 101.333 267 304v483l-176 74l20 150h585l-17 -150l-165 -67l-4 -462c-2 -225.333 -65.667 -386.333 -191 -483h1
c-46 -125.333 -24 -226.333 66 -303l-25 -95c-87.333 5.33301 -161.833 24.5 -223.5 57.5s-92.5 74.167 -92.5 123.5s12 89.333 36 120c-47.333 -8 -92.166 -12 -134.499 -12s-75.333 0.5 -99 1.5s-52.167 3.33301 -85.5 7s-62.833 8.83398 -88.5 15.501
s-53.667 16.167 -84 28.5s-56.833 27 -79.5 44s-45 38.5 -67 64.5s-40 55.333 -54 88c-31.333 73.333 -47 160.666 -47 261.999v536z" />
    <glyph glyph-name="uogonek" unicode="&#x173;" horiz-adv-x="1143" 
d="M0 718l33.999 183l364 22l56 -53v-401c0 -64 6.16699 -108.833 18.5 -134.5s37.333 -38.5 75 -38.5s75.5 16.667 113.5 50v258l-129 76l34 209l358 42l53 -53v-505c0 -51.333 9.33301 -88.333 28 -111s55.334 -42.667 110.001 -60l28 -9l-25 -170l-7 -3
c-41.333 -120.667 -18.333 -218.667 69 -294l-25 -95c-87.333 5.33301 -161.833 24.5 -223.5 57.5s-92.5 77.5 -92.5 133.5s23.333 104.333 70 145c-16 -1.33301 -28.333 -2 -37 -2c-58.667 0 -106.167 12.167 -142.5 36.5s-54.5 62.166 -54.5 113.499v13l-13 6
c-28.667 -51.333 -68.167 -91.666 -118.5 -120.999s-100.5 -44 -150.5 -44c-102 0 -172.167 22.833 -210.5 68.5s-57.5 122.167 -57.5 229.5v346z" />
    <glyph glyph-name="Wcircumflex" unicode="&#x174;" horiz-adv-x="2037" 
d="M0 1089l11 155h755l-36 -163l-153 -54l154 -541l175 714l339 40l206 -738l153 528l-167 54l21 160h579l-25 -157l-132 -54l-335 -995l-333 -61l-207 744l-178 -683l-346 -62l-305 1047zM803 1411l171 195l177 20l204 -205l-151 -59l-139 101h-14l-103 -102z" />
    <glyph glyph-name="wcircumflex" unicode="&#x175;" horiz-adv-x="1310" 
d="M0 766l23 159h485l-21 -157l-78 -75l63 -352l15 116l79 403l231 20l123 -563l11 159l26 215l-60 75l21 159h392l-24 -157l-106 -75l-178 -703l-259 -31l-104 455l-96 -425l-238 -28l-191 730zM436 1083l170 195l178 20l204 -205l-152 -59l-138 101h-14l-104 -102z" />
    <glyph glyph-name="Ycircumflex" unicode="&#x176;" horiz-adv-x="1308" 
d="M0 1089l32 156h661l-28 -156l-75 -61l149 -289l151 286l-99 62l24 157h473l-24 -157l-114 -60l-316 -529v-277l167 -81l-13 -140h-702l18 138l159 79v268l-329 542zM452 1401l170 195l178 20l204 -205l-152 -59l-138 101h-14l-104 -102z" />
    <glyph glyph-name="ycircumflex" unicode="&#x177;" horiz-adv-x="1120" 
d="M72 -334c-48 32 -72 68.833 -72 110.5s5.5 77.5 16.5 107.5s33.5 61.667 67.5 95c24 -26 57 -46.667 99 -62s84.333 -23 127 -23c66 0 112.333 21.667 139 65l14 23l-313 722l-126 59l23 159h555l-21 -156l-90 -57l143 -388l154 380l-116 65l27 156h421l-17 -156l-98 -62
l-324 -719c-59.333 -132 -122.833 -226.167 -190.5 -282.5s-154.5 -84.5 -260.5 -84.5c-57.333 0 -110 16 -158 48zM372 1083l172 195l176 20l204 -205l-150 -59l-140 101h-14l-102 -102z" />
    <glyph glyph-name="Ydieresis" unicode="&#x178;" horiz-adv-x="1308" 
d="M0 1089l32 156h661l-28 -156l-75 -61l149 -289l151 286l-99 62l24 157h473l-24 -157l-114 -60l-316 -529v-277l167 -81l-13 -140h-702l18 138l159 79v268l-329 542zM453 1498c0 28 10.833 52.833 32.5 74.5s57.5 32.5 107.5 32.5s86.167 -10.5 108.5 -31.5
s33.5 -45.5 33.5 -73.5c0 -72.667 -47 -109 -141 -109s-141 35.667 -141 107zM762 1498c0 28 10.833 52.833 32.5 74.5s57.5 32.5 107.5 32.5s86.167 -10.5 108.5 -31.5s33.5 -45.5 33.5 -73.5c0 -72.667 -47 -109 -141 -109s-141 35.667 -141 107z" />
    <glyph glyph-name="Zacute" unicode="&#x179;" horiz-adv-x="1072" 
d="M0 236l631 833h-340l-63 -257l-200 32l11 400h1031l-8 -155l-685 -883l358 -30l187 281l150 -23l-61 -434h-998zM456 1402l156 325l220 -14l-232 -332z" />
    <glyph glyph-name="zacute" unicode="&#x17a;" horiz-adv-x="817" 
d="M16 180l391 567h-147l-99 -173l-161 29l25 319h773l-6 -159l-422 -582h183l122 185l142 -36l-39 -330h-754zM314 1084l154 325l220 -14l-230 -332z" />
    <glyph glyph-name="Zdotaccent" unicode="&#x17b;" horiz-adv-x="1072" 
d="M0 236l631 833h-340l-63 -257l-200 32l11 400h1031l-8 -155l-685 -883l358 -30l187 281l150 -23l-61 -434h-998zM391 1544c0 40 16.499 75.499 49.499 106.499s87.333 46.5 163 46.5s130.334 -15.167 164.001 -45.5s50.5 -65.166 50.5 -104.499
c0 -104 -71.167 -156 -213.5 -156s-213.5 51 -213.5 153z" />
    <glyph glyph-name="zdotaccent" unicode="&#x17c;" horiz-adv-x="817" 
d="M16 180l391 567h-147l-99 -173l-161 29l25 319h773l-6 -159l-422 -582h183l122 185l142 -36l-39 -330h-754zM228 1226c0 40 16.499 75.499 49.499 106.499s87.333 46.5 163 46.5s130.334 -15.167 164.001 -45.5s50.5 -65.166 50.5 -104.499
c0 -104 -71.167 -156 -213.5 -156s-213.5 51 -213.5 153z" />
    <glyph glyph-name="Zcaron" unicode="&#x17d;" horiz-adv-x="1072" 
d="M0 236l631 833h-340l-63 -257l-200 32l11 400h1031l-8 -155l-685 -883l358 -30l187 281l150 -23l-61 -434h-998zM336 1597l184 37l114 -85h10l96 82l172 -29l-210 -201l-158 -10z" />
    <glyph glyph-name="zcaron" unicode="&#x17e;" horiz-adv-x="817" 
d="M16 180l391 567h-147l-99 -173l-161 29l25 319h773l-6 -159l-422 -582h183l122 185l142 -36l-39 -330h-754zM152 1279l186 37l112 -85h10l96 82l172 -29l-210 -201l-158 -10z" />
    <glyph glyph-name="uni01CD" unicode="&#x1cd;" horiz-adv-x="1453" 
d="M538 561h251l-127 372zM0 0l19 138l161 103l388 964l347 65l390 -1032l148 -93l-12 -147h-725l16 138l166 104l-38 112h-392l-37 -112l189 -92l-15 -148h-605zM466 1598l185 37l113 -85h10l96 82l172 -29l-210 -201l-158 -10z" />
    <glyph glyph-name="uni01CE" unicode="&#x1ce;" horiz-adv-x="932" 
d="M335 353c-26 -23.333 -39 -46.668 -39 -70.001s7.16699 -42.166 21.5 -56.499s34.5 -21.5 60.5 -21.5s52.667 9.66699 80 29v164c-56 -6.66699 -97 -21.667 -123 -45zM0 187.998c0 93.333 40.835 170.832 122.502 232.499s193.5 92.167 335.5 91.5v95
c0 46 -12.333 84.667 -37 116s-51.667 47 -81 47s-50.166 -15.833 -62.499 -47.5s-21.5 -88.5 -27.5 -170.5c-108 0 -174.667 21.333 -200 64c-10.667 17.333 -16 42.166 -16 74.499s23.667 69.5 71 111.5s107.166 77 179.499 105s145.666 42 219.999 42
s136.5 -24.333 186.5 -73s75 -127 75 -235v-267c0 -59.333 5.66699 -99.166 17 -119.499s38.333 -35.166 81 -44.499l28 -6l-25 -170c-32.667 -21.333 -53.167 -33.333 -61.5 -36s-16.666 -5.66699 -24.999 -9s-15.333 -5.33301 -21 -6s-12.834 -1.66699 -21.501 -3
c-12 -2.66699 -37.333 -4 -76 -4c-74.667 0 -129 43.333 -163 130l-5 13l-13 6c-14.667 -39.333 -48.334 -73.833 -101.001 -103.5s-109.667 -44.5 -171 -44.5s-111.5 17.5 -150.5 52.5s-58.5 87.833 -58.5 158.5zM162.002 1279l185 37l113 -85h10l96 82l172 -29l-210 -201
l-158 -10z" />
    <glyph glyph-name="uni01CF" unicode="&#x1cf;" horiz-adv-x="757" 
d="M0 1094l20 150h727l-16 -160l-179 -67v-794l180 -63l-13 -160h-717l10 142l176 79v799zM104 1597l186 37l112 -85h10l96 82l172 -29l-210 -201l-158 -10z" />
    <glyph glyph-name="uni01D0" unicode="&#x1d0;" horiz-adv-x="638" 
d="M0 0l8 176l154 54v341l-148 105l33 178l373 26l56 -61v-589l162 -56l-11 -174h-627zM40 1279l185 37l113 -85h10l96 82l172 -29l-210 -201l-158 -10z" />
    <glyph glyph-name="uni01D1" unicode="&#x1d1;" horiz-adv-x="1462" 
d="M736 163c174.667 0 262 136.665 262 409.998c0 54.667 -4.83301 112 -14.5 172s-21.667 108 -36 144s-31.5 69.667 -51.5 101c-44.667 69.333 -110 104 -196 104c-168 0 -252 -141 -252 -423c0 -78.667 8.66699 -150.667 26 -216s36 -117.166 56 -155.499
s48 -70.666 84 -96.999s76.667 -39.5 122 -39.5zM0 618.998c0 195.333 67.499 352.501 202.499 471.501s318.5 178.5 550.5 178.5c366 0 591 -134.667 675 -404c22.667 -74 34 -160 34 -258s-20.167 -187.833 -60.5 -269.5s-95.5 -148.834 -165.5 -201.501
c-145.333 -108.667 -329.666 -163 -552.999 -163c-230.667 0 -403.667 60.333 -519 181c-109.333 114.667 -164 269.667 -164 465zM433.999 1597l185 37l113 -85h10l96 82l172 -29l-210 -201l-158 -10z" />
    <glyph glyph-name="uni01D2" unicode="&#x1d2;" horiz-adv-x="978" 
d="M361 690c-18 -35.333 -27 -101.999 -27 -199.999c0 -214.667 57 -322 171 -322c42.667 0 72.5 13.667 89.5 41s25.5 69.666 25.5 126.999s-0.833008 101.5 -2.5 132.5s-5.66699 65 -12 102s-14.833 67.167 -25.5 90.5c-26 54.667 -64.5 82 -115.5 82
s-85.5 -17.667 -103.5 -53zM0 470.001c0 70 15.333 136.332 46 198.999s70 114.334 118 155.001c102 84.667 212.333 127 331 127c308.667 0 463 -153.667 463 -461c0 -157.333 -44.167 -282.833 -132.5 -376.5s-205.5 -140.5 -351.5 -140.5
c-176.667 0 -302 51.333 -376 154c-65.333 90.667 -98 205 -98 343zM206 1279l185 37l113 -85h10l96 82l172 -29l-210 -201l-158 -10z" />
    <glyph glyph-name="uni01D3" unicode="&#x1d3;" 
d="M0 1094l29.001 150.002h720l-22 -150l-165 -67v-486c0 -106 26.167 -183.833 78.5 -233.5s121.5 -74.5 207.5 -74.5c178 0 267 101.333 267 304v483l-176 74l20 150h585l-17 -150l-165 -67l-4 -462c-4 -394.667 -197.667 -592 -581 -592
c-108.667 0 -184.834 5.66699 -228.501 17s-80.667 23.166 -111 35.499s-56.833 27 -79.5 44s-45 38.5 -67 64.5s-40 55.333 -54 88c-31.333 73.333 -47 160.666 -47 261.999v536zM558.001 1597l184 37l114 -85h10l96 82l172 -29l-210 -201l-158 -10z" />
    <glyph glyph-name="uni01D4" unicode="&#x1d4;" horiz-adv-x="1143" 
d="M0 718l33.999 182.999l364 22l56 -53v-401c0 -64 6.16699 -108.833 18.5 -134.5s37.333 -38.5 75 -38.5s75.5 16.667 113.5 50v258l-129 76l34 209l358 42l53 -53v-505c0 -51.333 9.33301 -88.333 28 -111s55.334 -42.667 110.001 -60l28 -9l-25 -170
c-82.667 -38.667 -159 -58 -229 -58c-142.667 0 -214 50 -214 150v13l-13 6c-28.667 -51.333 -68.167 -91.666 -118.5 -120.999s-100.5 -44 -150.5 -44c-102 0 -172.167 22.833 -210.5 68.5s-57.5 122.167 -57.5 229.5v346zM264.999 1279l185 37l113 -85h10l96 82l172 -29
l-210 -201l-158 -10z" />
    <glyph glyph-name="uni01D5" unicode="&#x1d5;" 
d="M0 1094l29.001 150.002h720l-22 -150l-165 -67v-486c0 -106 26.167 -183.833 78.5 -233.5s121.5 -74.5 207.5 -74.5c178 0 267 101.333 267 304v483l-176 74l20 150h585l-17 -150l-165 -67l-4 -462c-4 -394.667 -197.667 -592 -581 -592
c-108.667 0 -184.834 5.66699 -228.501 17s-80.667 23.166 -111 35.499s-56.833 27 -79.5 44s-45 38.5 -67 64.5s-40 55.333 -54 88c-31.333 73.333 -47 160.666 -47 261.999v536zM547.001 1498c0 28 10.833 52.833 32.5 74.5s57.5 32.5 107.5 32.5
s86.167 -10.5 108.5 -31.5s33.5 -45.5 33.5 -73.5c0 -72.667 -47 -109 -141 -109s-141 35.667 -141 107zM856.001 1498c0 28 10.833 52.833 32.5 74.5s57.5 32.5 107.5 32.5s86.167 -10.5 108.5 -31.5s33.5 -45.5 33.5 -73.5c0 -72.667 -47 -109 -141 -109
s-141 35.667 -141 107zM597.001 1727l21 195h453l-22 -195h-452z" />
    <glyph glyph-name="uni01D6" unicode="&#x1d6;" horiz-adv-x="1143" 
d="M0 718l33.999 182.999l364 22l56 -53v-401c0 -64 6.16699 -108.833 18.5 -134.5s37.333 -38.5 75 -38.5s75.5 16.667 113.5 50v258l-129 76l34 209l358 42l53 -53v-505c0 -51.333 9.33301 -88.333 28 -111s55.334 -42.667 110.001 -60l28 -9l-25 -170
c-82.667 -38.667 -159 -58 -229 -58c-142.667 0 -214 50 -214 150v13l-13 6c-28.667 -51.333 -68.167 -91.666 -118.5 -120.999s-100.5 -44 -150.5 -44c-102 0 -172.167 22.833 -210.5 68.5s-57.5 122.167 -57.5 229.5v346zM224.999 1140c0 28 10.833 52.833 32.5 74.5
s57.5 32.5 107.5 32.5s86.167 -10.5 108.5 -31.5s33.5 -45.5 33.5 -73.5c0 -72.667 -47 -109 -141 -109s-141 35.667 -141 107zM533.999 1140c0 28 10.833 52.833 32.5 74.5s57.5 32.5 107.5 32.5s86.167 -10.5 108.5 -31.5s33.5 -45.5 33.5 -73.5
c0 -72.667 -47 -109 -141 -109s-141 35.667 -141 107zM303.999 1409l21 195h453l-22 -195h-452z" />
    <glyph glyph-name="uni01D7" unicode="&#x1d7;" 
d="M0 1094l29.001 150.002h720l-22 -150l-165 -67v-486c0 -106 26.167 -183.833 78.5 -233.5s121.5 -74.5 207.5 -74.5c178 0 267 101.333 267 304v483l-176 74l20 150h585l-17 -150l-165 -67l-4 -462c-4 -394.667 -197.667 -592 -581 -592
c-108.667 0 -184.834 5.66699 -228.501 17s-80.667 23.166 -111 35.499s-56.833 27 -79.5 44s-45 38.5 -67 64.5s-40 55.333 -54 88c-31.333 73.333 -47 160.666 -47 261.999v536zM547.001 1498c0 28 10.833 52.833 32.5 74.5s57.5 32.5 107.5 32.5
s86.167 -10.5 108.5 -31.5s33.5 -45.5 33.5 -73.5c0 -72.667 -47 -109 -141 -109s-141 35.667 -141 107zM856.001 1498c0 28 10.833 52.833 32.5 74.5s57.5 32.5 107.5 32.5s86.167 -10.5 108.5 -31.5s33.5 -45.5 33.5 -73.5c0 -72.667 -47 -109 -141 -109
s-141 35.667 -141 107zM726.001 1738l155 325l220 -14l-231 -332z" />
    <glyph glyph-name="uni01D8" unicode="&#x1d8;" horiz-adv-x="1143" 
d="M0 718l33.999 182.999l364 22l56 -53v-401c0 -64 6.16699 -108.833 18.5 -134.5s37.333 -38.5 75 -38.5s75.5 16.667 113.5 50v258l-129 76l34 209l358 42l53 -53v-505c0 -51.333 9.33301 -88.333 28 -111s55.334 -42.667 110.001 -60l28 -9l-25 -170
c-82.667 -38.667 -159 -58 -229 -58c-142.667 0 -214 50 -214 150v13l-13 6c-28.667 -51.333 -68.167 -91.666 -118.5 -120.999s-100.5 -44 -150.5 -44c-102 0 -172.167 22.833 -210.5 68.5s-57.5 122.167 -57.5 229.5v346zM224.999 1140c0 28 10.833 52.833 32.5 74.5
s57.5 32.5 107.5 32.5s86.167 -10.5 108.5 -31.5s33.5 -45.5 33.5 -73.5c0 -72.667 -47 -109 -141 -109s-141 35.667 -141 107zM533.999 1140c0 28 10.833 52.833 32.5 74.5s57.5 32.5 107.5 32.5s86.167 -10.5 108.5 -31.5s33.5 -45.5 33.5 -73.5
c0 -72.667 -47 -109 -141 -109s-141 35.667 -141 107zM462.999 1420l155 325l220 -14l-231 -332z" />
    <glyph glyph-name="uni01D9" unicode="&#x1d9;" 
d="M0 1094l29.001 150.002h720l-22 -150l-165 -67v-486c0 -106 26.167 -183.833 78.5 -233.5s121.5 -74.5 207.5 -74.5c178 0 267 101.333 267 304v483l-176 74l20 150h585l-17 -150l-165 -67l-4 -462c-4 -394.667 -197.667 -592 -581 -592
c-108.667 0 -184.834 5.66699 -228.501 17s-80.667 23.166 -111 35.499s-56.833 27 -79.5 44s-45 38.5 -67 64.5s-40 55.333 -54 88c-31.333 73.333 -47 160.666 -47 261.999v536zM547.001 1498c0 28 10.833 52.833 32.5 74.5s57.5 32.5 107.5 32.5
s86.167 -10.5 108.5 -31.5s33.5 -45.5 33.5 -73.5c0 -72.667 -47 -109 -141 -109s-141 35.667 -141 107zM856.001 1498c0 28 10.833 52.833 32.5 74.5s57.5 32.5 107.5 32.5s86.167 -10.5 108.5 -31.5s33.5 -45.5 33.5 -73.5c0 -72.667 -47 -109 -141 -109
s-141 35.667 -141 107zM565.001 1933l185 37l113 -85h10l96 82l172 -29l-210 -201l-158 -10z" />
    <glyph glyph-name="uni01DA" unicode="&#x1da;" horiz-adv-x="1143" 
d="M0 718l33.999 182.999l364 22l56 -53v-401c0 -64 6.16699 -108.833 18.5 -134.5s37.333 -38.5 75 -38.5s75.5 16.667 113.5 50v258l-129 76l34 209l358 42l53 -53v-505c0 -51.333 9.33301 -88.333 28 -111s55.334 -42.667 110.001 -60l28 -9l-25 -170
c-82.667 -38.667 -159 -58 -229 -58c-142.667 0 -214 50 -214 150v13l-13 6c-28.667 -51.333 -68.167 -91.666 -118.5 -120.999s-100.5 -44 -150.5 -44c-102 0 -172.167 22.833 -210.5 68.5s-57.5 122.167 -57.5 229.5v346zM224.999 1140c0 28 10.833 52.833 32.5 74.5
s57.5 32.5 107.5 32.5s86.167 -10.5 108.5 -31.5s33.5 -45.5 33.5 -73.5c0 -72.667 -47 -109 -141 -109s-141 35.667 -141 107zM533.999 1140c0 28 10.833 52.833 32.5 74.5s57.5 32.5 107.5 32.5s86.167 -10.5 108.5 -31.5s33.5 -45.5 33.5 -73.5
c0 -72.667 -47 -109 -141 -109s-141 35.667 -141 107zM251.999 1615l185 37l113 -85h10l96 82l172 -29l-210 -201l-158 -10z" />
    <glyph glyph-name="uni01DB" unicode="&#x1db;" 
d="M0 1094l29.001 150.002h720l-22 -150l-165 -67v-486c0 -106 26.167 -183.833 78.5 -233.5s121.5 -74.5 207.5 -74.5c178 0 267 101.333 267 304v483l-176 74l20 150h585l-17 -150l-165 -67l-4 -462c-4 -394.667 -197.667 -592 -581 -592
c-108.667 0 -184.834 5.66699 -228.501 17s-80.667 23.166 -111 35.499s-56.833 27 -79.5 44s-45 38.5 -67 64.5s-40 55.333 -54 88c-31.333 73.333 -47 160.666 -47 261.999v536zM547.001 1498c0 28 10.833 52.833 32.5 74.5s57.5 32.5 107.5 32.5
s86.167 -10.5 108.5 -31.5s33.5 -45.5 33.5 -73.5c0 -72.667 -47 -109 -141 -109s-141 35.667 -141 107zM856.001 1498c0 28 10.833 52.833 32.5 74.5s57.5 32.5 107.5 32.5s86.167 -10.5 108.5 -31.5s33.5 -45.5 33.5 -73.5c0 -72.667 -47 -109 -141 -109
s-141 35.667 -141 107zM575.001 2066l218 40l150 -348l-159 -31z" />
    <glyph glyph-name="uni01DC" unicode="&#x1dc;" horiz-adv-x="1143" 
d="M0 718l33.999 182.999l364 22l56 -53v-401c0 -64 6.16699 -108.833 18.5 -134.5s37.333 -38.5 75 -38.5s75.5 16.667 113.5 50v258l-129 76l34 209l358 42l53 -53v-505c0 -51.333 9.33301 -88.333 28 -111s55.334 -42.667 110.001 -60l28 -9l-25 -170
c-82.667 -38.667 -159 -58 -229 -58c-142.667 0 -214 50 -214 150v13l-13 6c-28.667 -51.333 -68.167 -91.666 -118.5 -120.999s-100.5 -44 -150.5 -44c-102 0 -172.167 22.833 -210.5 68.5s-57.5 122.167 -57.5 229.5v346zM224.999 1140c0 28 10.833 52.833 32.5 74.5
s57.5 32.5 107.5 32.5s86.167 -10.5 108.5 -31.5s33.5 -45.5 33.5 -73.5c0 -72.667 -47 -109 -141 -109s-141 35.667 -141 107zM533.999 1140c0 28 10.833 52.833 32.5 74.5s57.5 32.5 107.5 32.5s86.167 -10.5 108.5 -31.5s33.5 -45.5 33.5 -73.5
c0 -72.667 -47 -109 -141 -109s-141 35.667 -141 107zM271.999 1748l218 40l150 -348l-159 -31z" />
    <glyph glyph-name="Scommaaccent" unicode="&#x218;" horiz-adv-x="969" 
d="M0 126l33.999 361.993l177 -29l42 -187c20 -28.667 51.167 -51 93.5 -67s84.333 -24 126 -24s74.167 9.83301 97.5 29.5s35 42.834 35 69.501s-11 50.5 -33 71.5s-50.5 39.5 -85.5 55.5s-73.833 32.167 -116.5 48.5s-85.167 35.833 -127.5 58.5
s-81.166 48.334 -116.499 77.001c-78.667 64.667 -118 153.334 -118 266.001c0 158 79.333 273.667 238 347c88 41.333 188.667 62 302 62c57.333 0 124.666 -9.16699 201.999 -27.5s128 -39.166 152 -62.499l-28 -362l-173 30l-39 143
c-21.333 30.667 -52.333 54.834 -93 72.501s-79.834 26.5 -117.501 26.5s-65.5 -8.66699 -83.5 -26s-27 -39.833 -27 -67.5s12.167 -52.667 36.5 -75s55.833 -42.333 94.5 -60s81.334 -36 128.001 -55s93.334 -41 140.001 -66s89.334 -52.833 128.001 -83.5
s70.167 -69.334 94.5 -116.001s36.5 -99.167 36.5 -157.5s-13.167 -111.666 -39.5 -159.999s-59.333 -87.166 -99 -116.499s-84.834 -53.666 -135.501 -72.999c-90 -35.333 -185.833 -53 -287.5 -53s-193 14 -274 42s-135.5 63.667 -163.5 107zM271.999 -271.007
c15.333 84 81.998 125.998 199.998 125.998c50.667 0 91.334 -11.667 122.001 -35s46 -55.666 46 -96.999s-17 -75.666 -51 -102.999c-66 -54 -163 -77.333 -291 -70l-22 60c26.667 4 51.334 12 74.001 24s34 24.833 34 38.5s-11.667 25.5 -35 35.5s-49 17 -77 21z" />
    <glyph glyph-name="scommaaccent" unicode="&#x219;" horiz-adv-x="779" 
d="M53 60c-35.333 31.333 -53 69 -53 113s16.667 79.5 50 106.5s80.666 43.167 141.999 48.5c18.667 -66 44 -116.5 76 -151.5s67.833 -52.5 107.5 -52.5s67.667 4.33301 84 13s24.5 22.834 24.5 42.501s-8.33301 36.834 -25 51.501s-38.334 28.667 -65.001 42l-87 43
c-128.667 62 -211.334 130.667 -248.001 206c-16.667 34 -25 67.167 -25 99.5s3.83301 61.666 11.5 87.999s21.334 54 41.001 83s43.834 54.833 72.501 77.5c66 52 153.167 78 261.5 78s192.666 -15.333 252.999 -46s90.5 -70.5 90.5 -119.5s-19 -88.5 -57 -118.5
s-82.667 -47.667 -134 -53l-33 86c-26 68 -76.667 102 -152 102c-26 0 -46.667 -6.33301 -62 -19s-23 -27.834 -23 -45.501s8.83301 -34.167 26.5 -49.5s40.334 -30 68.001 -44s58.5 -28.833 92.5 -44.5s68 -33.667 102 -54s64.667 -42.5 92 -66.5
c63.333 -56 95 -128.333 95 -217s-40 -160 -120 -214s-183.667 -81 -311 -81c-125.333 0 -223.666 32 -294.999 96zM168 -284c15.333 84 81.998 125.999 199.998 125.999c50.667 0 91.334 -11.667 122.001 -35s46 -55.666 46 -96.999s-17 -76 -51 -104
c-66 -53.333 -163 -76.333 -291 -69l-22 60c26.667 4 51.334 12 74.001 24s34 24.833 34 38.5s-11.667 25.5 -35 35.5s-49 17 -77 21z" />
    <glyph glyph-name="uni021A" unicode="&#x21a;" horiz-adv-x="1264" 
d="M0 1244h1264l-32 -448l-183 31l-64 245h-184v-864l202 -55l-16 -153h-737l13 140l177 69v863h-180l-87 -286l-170 26zM438 -248c15.333 84 82.3311 125.999 200.998 125.999c50.667 0 91.334 -11.667 122.001 -35s46 -55.666 46 -96.999s-17 -76 -51 -104
c-66.667 -53.333 -164 -76.333 -292 -69l-22 60c26.667 4 51.334 12 74.001 24s34 24.833 34 38.5s-11.667 25.5 -35 35.5s-49 17 -77 21z" />
    <glyph glyph-name="uni021B" unicode="&#x21b;" horiz-adv-x="762" 
d="M450 354c-1.33301 -84.667 42.6689 -127.001 132.002 -127.001c44 0 87.333 9.66699 130 29l30 -133c-28 -38.667 -69.833 -72.667 -125.5 -102s-121.834 -44 -198.501 -44c-112 0 -188.833 23.333 -230.5 70s-61.834 129.334 -60.501 248.001l3 368h-100v149
c102 62 189.667 150.333 263 265h163v-221h274l-12 -196h-266zM238.002 -271.001c15.333 84 81.998 125.998 199.998 125.998c50.667 0 91.334 -11.667 122.001 -35s46 -55.666 46 -96.999s-17 -75.666 -51 -102.999c-66 -54 -163 -77.333 -291 -70l-22 60
c26.667 4 51.334 12 74.001 24s34 24.833 34 38.5s-11.667 25.5 -35 35.5s-49 17 -77 21z" />
    <glyph glyph-name="circumflex" unicode="&#x2c6;" horiz-adv-x="412" 
d="M-60 1365l171 195l177 20l204 -205l-151 -59l-139 101h-14l-103 -102z" />
    <glyph glyph-name="caron" unicode="&#x2c7;" horiz-adv-x="446" 
d="M-21 1564l185 37l113 -85h10l96 82l172 -29l-210 -201l-158 -10z" />
    <glyph glyph-name="breve" unicode="&#x2d8;" horiz-adv-x="404" 
d="M-40 1579l178.998 35.999c3.33301 -17.333 11.333 -32.833 24 -46.5s29.334 -20.5 50.001 -20.5s36.834 3.83301 48.501 11.5s19.667 15.334 24 23.001s9.5 18.5 15.5 32.5l173 -41c-11.333 -60 -39.833 -108.833 -85.5 -146.5s-102.167 -56.5 -169.5 -56.5
c-138 0 -224.333 69.333 -259 208z" />
    <glyph glyph-name="dotaccent" unicode="&#x2d9;" horiz-adv-x="427" 
d="M0 1473c0 40 16.499 75.499 49.499 106.499s87.333 46.5 163 46.5s130.334 -15.167 164.001 -45.5s50.5 -65.166 50.5 -104.499c0 -104 -71.167 -156 -213.5 -156s-213.5 51 -213.5 153z" />
    <glyph glyph-name="ring" unicode="&#x2da;" horiz-adv-x="509" 
d="M191 1526c0 -38 26 -57 78 -57c20 0 37.833 5 53.5 15s23.5 24 23.5 42s-8.33301 32.333 -25 43s-35 16 -55 16s-37.5 -5.66699 -52.5 -17s-22.5 -25.333 -22.5 -42zM260 1359c-173.333 0 -260 55.333 -260 166c0 50.667 22.667 92.167 68 124.5s114 48.5 206 48.5
c183.333 0 275 -54.667 275 -164c0 -49.333 -23.833 -90.833 -71.5 -124.5s-120.167 -50.5 -217.5 -50.5z" />
    <glyph glyph-name="ogonek" unicode="&#x2db;" horiz-adv-x="341" 
d="M92.5 -337.5c-61.667 33 -92.5 74.168 -92.5 123.501s11.667 88.666 35 117.999s64 62.333 122 99h118c-46 -124.667 -24 -225.667 66 -303l-25 -95c-87.333 5.33301 -161.833 24.5 -223.5 57.5z" />
    <glyph glyph-name="tilde" unicode="&#x2dc;" horiz-adv-x="643" 
d="M2 1327c-8.66699 66 3.66797 127 37.001 183c16 26.667 40.167 46.167 72.5 58.5s70.166 13.833 113.499 4.5l227 -49c13.333 -2.66699 25.833 0.333008 37.5 9s22.5 23.334 32.5 44.001l115 -11c-0.666992 -85.333 -22.5 -149.833 -65.5 -193.5
s-103.833 -56.167 -182.5 -37.5l-209 49c-16 4 -29 0.666992 -39 -10s-17 -28.334 -21 -53.001z" />
    <glyph glyph-name="hungarumlaut" unicode="&#x2dd;" horiz-adv-x="651" 
d="M278 1395l258 252l209 -28l-332 -263zM0 1395l279 255l205 -24l-345 -270z" />
    <glyph glyph-name="uni0307" unicode="&#x307;" horiz-adv-x="427" 
d="M0 1473c0 40 16.499 75.499 49.499 106.499s87.333 46.5 163 46.5s130.334 -15.167 164.001 -45.5s50.5 -65.166 50.5 -104.499c0 -104 -71.167 -156 -213.5 -156s-213.5 51 -213.5 153z" />
    <glyph glyph-name="uni0308" unicode="&#x308;" horiz-adv-x="594" 
d="M0 1465c0 28 10.833 52.833 32.5 74.5s57.5 32.5 107.5 32.5s86.167 -10.5 108.5 -31.5s33.5 -45.5 33.5 -73.5c0 -72.667 -47 -109 -141 -109s-141 35.667 -141 107zM309 1465c0 28 10.833 52.833 32.5 74.5s57.5 32.5 107.5 32.5s86.167 -10.5 108.5 -31.5
s33.5 -45.5 33.5 -73.5c0 -72.667 -47 -109 -141 -109s-141 35.667 -141 107z" />
    <glyph glyph-name="dotbelowcomb" unicode="&#x323;" horiz-adv-x="389" 
d="M0 -256c0 32 14.667 60.332 44 84.999s78.333 37 147 37s118.167 -12.167 148.5 -36.5s45.5 -52.166 45.5 -83.499c0 -82.667 -64.167 -124 -192.5 -124s-192.5 40.667 -192.5 122z" />
    <glyph glyph-name="uni0326" unicode="&#x326;" horiz-adv-x="275" 
d="M-40 -211c15.333 84 82.3311 125.998 200.998 125.998c50.667 0 91.334 -11.667 122.001 -35s46 -55.666 46 -96.999s-17 -75.666 -51 -102.999c-66.667 -54 -164 -77.333 -292 -70l-22 60c26.667 4 51.334 12 74.001 24s34 24.833 34 38.5s-11.667 25.5 -35 35.5
s-49 17 -77 21z" />
    <glyph glyph-name="mu" unicode="&#x3bc;" horiz-adv-x="1123" 
d="M0 718l33.999 182.998l364 22l56 -53v-401c0 -64 6.16699 -108.833 18.5 -134.5s37.333 -38.5 75 -38.5s75.5 16.667 113.5 50v258l-129 76l34 209l358 42l53 -53v-505c0 -51.333 9.33301 -88.333 28 -111s55.334 -42.667 110.001 -60l28 -9l-25 -170
c-82.667 -38.667 -159 -58 -229 -58c-142.667 0 -214 50 -214 150v13l-13 6c-28.667 -51.333 -68.167 -91.666 -118.5 -120.999s-99 -44.166 -146 -44.499s-79.167 7.16699 -96.5 22.5l-17 -3c17.333 -37.333 29.333 -93.333 36 -168l22 -207l-268 26
c10 92 21 233.5 33 424.5s18 334.167 18 429.5v120z" />
    <glyph glyph-name="Wgrave" unicode="&#x1e80;" horiz-adv-x="2037" 
d="M0 1089l11 155h755l-36 -163l-153 -54l154 -541l175 714l339 40l206 -738l153 528l-167 54l21 160h579l-25 -157l-132 -54l-335 -995l-333 -61l-207 744l-178 -683l-346 -62l-305 1047zM785 1730l218 40l150 -348l-159 -31z" />
    <glyph glyph-name="wgrave" unicode="&#x1e81;" horiz-adv-x="1310" 
d="M0 766l23 159h485l-21 -157l-78 -75l63 -352l15 116l79 403l231 20l123 -563l11 159l26 215l-60 75l21 159h392l-24 -157l-106 -75l-178 -703l-259 -31l-104 455l-96 -425l-238 -28l-191 730zM428 1412l218 40l150 -348l-160 -31z" />
    <glyph glyph-name="Wacute" unicode="&#x1e82;" horiz-adv-x="2037" 
d="M0 1089l11 155h755l-36 -163l-153 -54l154 -541l175 714l339 40l206 -738l153 528l-167 54l21 160h579l-25 -157l-132 -54l-335 -995l-333 -61l-207 744l-178 -683l-346 -62l-305 1047zM946 1402l155 325l220 -14l-231 -332z" />
    <glyph glyph-name="wacute" unicode="&#x1e83;" horiz-adv-x="1310" 
d="M0 766l23 159h485l-21 -157l-78 -75l63 -352l15 116l79 403l231 20l123 -563l11 159l26 215l-60 75l21 159h392l-24 -157l-106 -75l-178 -703l-259 -31l-104 455l-96 -425l-238 -28l-191 730zM588 1084l156 325l220 -14l-232 -332z" />
    <glyph glyph-name="Wdieresis" unicode="&#x1e84;" horiz-adv-x="2037" 
d="M0 1089l11 155h755l-36 -163l-153 -54l154 -541l175 714l339 40l206 -738l153 528l-167 54l21 160h579l-25 -157l-132 -54l-335 -995l-333 -61l-207 744l-178 -683l-346 -62l-305 1047zM775 1498c0 28 10.833 52.833 32.5 74.5s57.5 32.5 107.5 32.5
s86.167 -10.5 108.5 -31.5s33.5 -45.5 33.5 -73.5c0 -72.667 -47 -109 -141 -109s-141 35.667 -141 107zM1084 1498c0 28 10.833 52.833 32.5 74.5s57.5 32.5 107.5 32.5s86.167 -10.5 108.5 -31.5s33.5 -45.5 33.5 -73.5c0 -72.667 -47 -109 -141 -109
s-141 35.667 -141 107z" />
    <glyph glyph-name="wdieresis" unicode="&#x1e85;" horiz-adv-x="1310" 
d="M0 766l23 159h485l-21 -157l-78 -75l63 -352l15 116l79 403l231 20l123 -563l11 159l26 215l-60 75l21 159h392l-24 -157l-106 -75l-178 -703l-259 -31l-104 455l-96 -425l-238 -28l-191 730zM407 1180c0 28 10.833 52.833 32.5 74.5s57.5 32.5 107.5 32.5
s86.167 -10.5 108.5 -31.5s33.5 -45.5 33.5 -73.5c0 -72.667 -47 -109 -141 -109s-141 35.667 -141 107zM716 1180c0 28 10.833 52.833 32.5 74.5s57.5 32.5 107.5 32.5s86.167 -10.5 108.5 -31.5s33.5 -45.5 33.5 -73.5c0 -72.667 -47 -109 -141 -109s-141 35.667 -141 107
z" />
    <glyph glyph-name="uni1E9E" unicode="&#x1e9e;" horiz-adv-x="1596" 
d="M1072 181c84 0 126.002 23.3359 126.002 70.0029c0 48.667 -39.333 91 -118 127c-35.333 15.333 -74.166 31 -116.499 47s-84.833 34.667 -127.5 56s-81.334 45 -116.001 71c-79.333 60 -119 141.667 -119 245c0 100 43 175.667 129 227
c21.333 13.333 42.666 22 63.999 26l-10 10c-16 2 -30.667 3 -44 3c-142 0 -213 -104 -213 -312v-751h-527l13 136l154 76v516c0 72.667 15.167 139.5 45.5 200.5s70.666 112 120.999 153s108.833 75.833 175.5 104.5c127.333 54.667 269 82 425 82
c155.333 0 293.333 -21.333 414 -64c59.333 -20.667 107 -48.834 143 -84.501s54 -76.167 54 -121.5c0 -120.667 -55.333 -200 -166 -238c-56.667 87.333 -115 154.166 -175 200.499s-111.667 69.5 -155 69.5c-22.667 0 -40.667 -8.33301 -54 -25s-20 -36.667 -20 -60
s8.83301 -43.833 26.5 -61.5s41.167 -33.5 70.5 -47.5l212 -95c80 -34.667 150.667 -82.334 212 -143.001c64 -63.333 96 -145.666 96 -246.999s-33.667 -180.333 -101 -237c-65.333 -54.667 -139 -91.334 -221 -110.001c-190.667 -42.667 -362 -37.667 -514 15
c-80.667 28 -135 63.667 -163 107l34 362l177 -29l42 -187c20 -28.667 51.333 -51 94 -67s86.667 -24 132 -24z" />
    <glyph glyph-name="Ygrave" unicode="&#x1ef2;" horiz-adv-x="1308" 
d="M0 1089l32 156h661l-28 -156l-75 -61l149 -289l151 286l-99 62l24 157h473l-24 -157l-114 -60l-316 -529v-277l167 -81l-13 -140h-702l18 138l159 79v268l-329 542zM424 1730l218 40l150 -348l-160 -31z" />
    <glyph glyph-name="ygrave" unicode="&#x1ef3;" horiz-adv-x="1120" 
d="M72 -334c-48 32 -72 68.833 -72 110.5s5.5 77.5 16.5 107.5s33.5 61.667 67.5 95c24 -26 57 -46.667 99 -62s84.333 -23 127 -23c66 0 112.333 21.667 139 65l14 23l-313 722l-126 59l23 159h555l-21 -156l-90 -57l143 -388l154 380l-116 65l27 156h421l-17 -156l-98 -62
l-324 -719c-59.333 -132 -122.833 -226.167 -190.5 -282.5s-154.5 -84.5 -260.5 -84.5c-57.333 0 -110 16 -158 48zM374 1412l218 40l150 -348l-158 -31z" />
    <glyph glyph-name="endash" unicode="&#x2013;" horiz-adv-x="758" 
d="M0 367l23 187l735 8l-29 -190z" />
    <glyph glyph-name="emdash" unicode="&#x2014;" horiz-adv-x="1391" 
d="M0 367l21 187l1370 8l-26 -190z" />
    <glyph glyph-name="quotesinglbase" unicode="&#x201a;" horiz-adv-x="445" 
d="M7 -259c54 18 95.001 43.832 123.001 77.499s42 65.834 42 96.501s-8.33301 54.167 -25 70.5s-35.834 24.5 -57.501 24.5s-41.167 -4.33301 -58.5 -13c-20.667 34.667 -31 67.667 -31 99c0 58 18.667 102.833 56 134.5s86 47.5 146 47.5c162 0 243 -88.667 243 -266
c0 -86.667 -31 -167 -93 -241c-68 -80 -168.333 -129.333 -301 -148z" />
    <glyph glyph-name="quotereversed" unicode="&#x201b;" horiz-adv-x="445" 
d="M7 768c54 18 95.001 43.832 123.001 77.499s42 65.834 42 96.501s-8.33301 54.167 -25 70.5s-35.834 24.5 -57.501 24.5s-41.167 -4.33301 -58.5 -13c-20.667 34.667 -31 67.667 -31 99c0 58 18.667 102.833 56 134.5s86 47.5 146 47.5c162 0 243 -88.667 243 -266
c0 -86.667 -31 -167 -93 -241c-68 -80 -168.333 -129.333 -301 -148z" />
    <glyph glyph-name="quotedblbase" unicode="&#x201e;" horiz-adv-x="929" 
d="M7 -259c54 18 95.001 43.832 123.001 77.499s42 65.834 42 96.501s-8.33301 54.167 -25 70.5s-35.834 24.5 -57.501 24.5s-41.167 -4.33301 -58.5 -13c-20.667 34.667 -31 67.667 -31 99c0 58 18.667 102.833 56 134.5s86 47.5 146 47.5c162 0 243 -88.667 243 -266
c0 -86.667 -31 -167 -93 -241c-68 -80 -168.333 -129.333 -301 -148zM491.001 -259.001c54 18 95.001 43.832 123.001 77.499s42 65.834 42 96.501s-8.33301 54.167 -25 70.5s-35.834 24.5 -57.501 24.5s-41.167 -4.33301 -58.5 -13c-20.667 34.667 -31 67.667 -31 99
c0 58 18.667 102.833 56 134.5s86 47.5 146 47.5c162 0 243 -88.667 243 -266c0 -86.667 -31 -167 -93 -241c-68 -80 -168.333 -129.333 -301 -148z" />
    <glyph glyph-name="dagger" unicode="&#x2020;" horiz-adv-x="809" 
d="M0 666l7 194l295 -7l-4 402l212 -11l-7 -391l306 7l-9 -203l-297 10l13 -1029l-224 11l10 1022z" />
    <glyph glyph-name="daggerdbl" unicode="&#x2021;" horiz-adv-x="800" 
d="M0 666l4 196l294 -6l-8 399l214 -11l-15 -388l304 6l-5 -202l-299 9l-11 -239l4 -218l318 5l-7 -198l-311 7l14 -388l-215 11l10 377l-290 -7l11 205l279 -14l10 287l-3 177z" />
    <glyph glyph-name="bullet" unicode="&#x2022;" horiz-adv-x="427" 
d="M-9 715c0 42.667 11.333 77 34 103c42 48 103.333 72 184 72c115.333 0 187 -38 215 -114c7.33301 -18.667 11 -38 11 -58c0 -118 -74 -177 -222 -177s-222 58 -222 174z" />
    <glyph glyph-name="ellipsis" unicode="&#x2026;" horiz-adv-x="1321" 
d="M0 127c0 40 16.499 75.499 49.499 106.499s87.333 46.5 163 46.5s130.334 -15.167 164.001 -45.5s50.5 -65.166 50.5 -104.499c0 -104 -71.167 -156 -213.5 -156s-213.5 51 -213.5 153zM446.999 129.999c0 40 16.499 75.499 49.499 106.499s87.333 46.5 163 46.5
s130.334 -15.167 164.001 -45.5s50.5 -65.166 50.5 -104.499c0 -104 -71.167 -156 -213.5 -156s-213.5 51 -213.5 153zM893.998 126.998c0 40 16.499 75.499 49.499 106.499s87.333 46.5 163 46.5s130.334 -15.167 164.001 -45.5s50.5 -65.166 50.5 -104.499
c0 -104 -71.167 -156 -213.5 -156s-213.5 51 -213.5 153z" />
    <glyph glyph-name="perthousand" unicode="&#x2030;" horiz-adv-x="2398" 
d="M2102 269c0 136.667 -18.666 205 -55.999 205c-25.333 0 -42.5 -18 -51.5 -54s-13.5 -79 -13.5 -129s0.666992 -84.5 2 -103.5s4.33301 -36.833 9 -53.5c7.33301 -31.333 23.666 -47 48.999 -47s41.833 14.167 49.5 42.5s11.5 74.833 11.5 139.5zM1671 276
c0 54 19.499 105.668 58.499 155.001s87.333 88 145 116s114.834 42 171.501 42c93.333 0 175.333 -30.833 246 -92.5s106 -136.167 106 -223.5c0 -54 -18 -105.333 -54 -154s-80.833 -86.667 -134.5 -114s-107.5 -41 -161.5 -41c-108.667 0 -198.667 28.667 -270 86
s-107 132.666 -107 225.999zM1299 269.001c0 136.667 -18.667 205 -56 205c-25.333 0 -42.5 -18 -51.5 -54s-13.5 -79 -13.5 -129s0.666992 -84.5 2 -103.5s4 -36.833 8 -53.5c8 -31.333 24.667 -47 50 -47s41.833 14.167 49.5 42.5s11.5 74.833 11.5 139.5zM868 276.001
c0 54 19.499 105.668 58.499 155.001s87.333 88 145 116s114.834 42 171.501 42c93.333 0 175.333 -30.833 246 -92.5s106 -136.167 106 -223.5c0 -54 -18 -105.333 -54 -154s-80.833 -86.667 -134.5 -114s-107.5 -41 -161.5 -41c-108.667 0 -198.667 28.667 -270 86
s-107 132.666 -107 225.999zM386.999 1087l-20 3.00293c-40.667 0 -61 -64.667 -61 -194v-5c0 -107.333 8.66699 -168.333 26 -183c9.33301 -8.66699 21.666 -13 36.999 -13c23.333 0 39.333 17 48 51s13 102.167 13 204.5s-3 188.166 -9 257.499l759 -1l302 -2v-75
l-541 -539l-493 -610l-368 54l557 553l470 536l-490 -19c70 -54 105 -123.667 105 -209c0 -56.667 -17.833 -109.834 -53.5 -159.501s-80.5 -88.334 -134.5 -116.001s-109 -41.834 -165 -42.501c-111.333 -0.666992 -200.666 27.5 -267.999 84.5s-101 134.833 -101 233.5
c0 44.667 17 91.334 51 140.001s79 89.5 135 122.5s112.333 49.5 169 49.5c6 0 13.333 -0.666992 22 -2z" />
    <glyph glyph-name="guilsinglleft" unicode="&#x2039;" horiz-adv-x="357" 
d="M3 469l267 349l74 -106l-115 -252l128 -268l-94 -117l-263 372z" />
    <glyph glyph-name="guilsinglright" unicode="&#x203a;" horiz-adv-x="357" 
d="M354 469l3 -22l-263 -372l-94 117l128 268l-115 252l74 106z" />
    <glyph glyph-name="uni203E" unicode="&#x203e;" horiz-adv-x="0" 
 />
    <glyph glyph-name="fraction" unicode="&#x2044;" horiz-adv-x="1402" 
d="M0 55l557 553l543 619l302 -2v-75l-541 -539l-493 -610z" />
    <glyph glyph-name="Euro" unicode="&#x20ac;" horiz-adv-x="1241" 
d="M1212 1166l-26.998 -351.001l-175 22l-66 190c-62.667 46 -140.334 69 -233.001 69c-62.667 0 -113.834 -25 -153.501 -75s-60.834 -127.333 -63.501 -232h449l-27 -134h-413c4.66699 -31.333 8.33398 -53.333 11.001 -66h383l-27 -133h-320
c30.667 -86 71 -156.167 121 -210.5s107 -81.5 171 -81.5s100.667 8 110 24l74 220l176 28l29 -309c-66 -60 -131.167 -100 -195.5 -120s-144 -30 -239 -30s-182.833 12.667 -263.5 38s-147.667 60.333 -201 105c-107.333 90 -173 202 -197 336h-135l16 133h109
c1.33301 29.333 3 51.333 5 66h-114l16 134h129c44.667 134.667 123.667 246.334 237 335.001c120.667 94.667 265 142 433 142s295 -33.333 381 -100z" />
    <glyph glyph-name="trademark" unicode="&#x2122;" horiz-adv-x="1400" 
d="M4 1277h600l-15 -214l-92 14l-29 120h-80v-386l91 -25l-7 -68h-346l5 63l80 31v385h-80l-39 -139l-87 12zM604 718l9 69l76 35l26 359l-83 26l7 70h294l103 -315l100 315h291l-8 -70l-73 -25l31 -361l80 -31l-7 -72h-303l10 69l51 35l-24 245l-102 -335l-148 -18
l-107 358l-15 -251l58 -31l-11 -72h-255z" />
    <glyph glyph-name="partialdiff" unicode="&#x2202;" horiz-adv-x="942" 
d="M390 244.5c34.667 -61 75.334 -91.499 122.001 -91.499c34.667 0 57.167 8.66699 67.5 26s17.666 32.666 21.999 45.999s7.5 33.333 9.5 60c3.33301 44.667 5 105.167 5 181.5s-18.5 147.333 -55.5 213s-76.5 98.5 -118.5 98.5c-18.667 0 -36.667 -14.667 -54 -44
c-37.333 -62.667 -55 -144.667 -53 -246s20.333 -182.5 55 -243.5zM15.5 307.501c-10.333 45 -15.501 99.667 -15.501 164s19.333 134.333 58 210s89.334 137.167 152.001 184.5s122.334 71 179.001 71s105 -13.333 145 -40l4 6c-38 159.333 -105.333 292.333 -202 399h256
c91.333 -75.333 171.333 -176.333 240 -303c74.667 -138 111.334 -294 110.001 -468c-1.33301 -156 -39.333 -286.333 -114 -391c-36.667 -52 -85.667 -92.833 -147 -122.5s-128.5 -44.5 -201.5 -44.5s-136.333 8.83301 -190 26.5s-98.334 41.5 -134.001 71.5
s-65.334 65.667 -89.001 107s-40.667 84.5 -51 129.5z" />
    <glyph glyph-name="emptyset" unicode="&#x2205;" horiz-adv-x="1042" 
d="M112 212c-33.333 68.667 -50.001 144.999 -50.001 228.999s21.667 163.333 65 238s100.333 134.5 171 179.5s144.334 67.5 221.001 67.5c108 0 200.667 -30.667 278 -92l91 107l154 -212l-110 -77c26 -63.333 39 -130.166 39 -200.499s-10.667 -134.5 -32 -192.5
s-51.166 -108.833 -89.499 -152.5s-86 -78.5 -143 -104.5s-119.167 -39 -186.5 -39c-102.667 0 -192.334 27.667 -269.001 83l-96 -116l-155 212zM711.999 525.999l-332 -297c35.333 -36 83 -54 143 -54s107.5 19.833 142.5 59.5s52.5 109.167 52.5 208.5
c0 30 -2 57.667 -6 83zM672.999 631.999c-34.667 52 -84.832 78 -150.499 78s-116.834 -21.833 -153.501 -65.5s-55 -111.167 -55 -202.5c0 -42 5 -81.333 15 -118z" />
    <glyph glyph-name="product" unicode="&#x220f;" horiz-adv-x="1569" 
d="M0 1094l23 150h1546l-17 -150l-171 -67v-816l182 -63l-17 -148h-723l19 138l165 79v843l-447 -3v-846l183 -63l-18 -148h-722l15 138l166 79v803z" />
    <glyph glyph-name="summation" unicode="&#x2211;" horiz-adv-x="1103" 
d="M0 1151l15 93h1088l-31 -381l-169 26l-82 183h-358l338 -347l4 -75l-363 -334l338 -40l154 261l165 -14l-30 -523h-1046v138l445 468v18z" />
    <glyph glyph-name="minus" unicode="&#x2212;" horiz-adv-x="626" 
d="M0 363l17 186l609 20l-15 -187z" />
    <glyph glyph-name="radical" unicode="&#x221a;" horiz-adv-x="918" 
d="M0 376l10 141l436 12l37 -304l377 1070l198 7l-498 -1409l-258 -23l-142 457z" />
    <glyph glyph-name="infinity" unicode="&#x221e;" horiz-adv-x="1237" 
d="M796 645c28 -45.333 63.166 -81.666 105.499 -108.999s77.833 -41 106.5 -41c54.667 0 82 21 82 63c0 31.333 -17 60.166 -51 86.499s-78.667 39.5 -134 39.5s-91.666 -13 -108.999 -39zM144.999 613c0 -38 15.501 -70.833 46.501 -98.5s76 -41.5 135 -41.5
s103.833 9.33301 134.5 28c-60.667 70 -108.334 119.5 -143.001 148.5s-67 43.5 -97 43.5c-50.667 0 -76 -26.667 -76 -80zM88 248.5c-58.667 69 -87.999 167.5 -87.999 295.5s34.833 233.333 104.5 316s154.167 124 253.5 124c86 0 150.333 -15.333 193 -46
c44 -32.667 87.667 -81.667 131 -147l16 -1c14.667 58 48 104.667 100 140s103.333 53 154 53c73.333 0 137.333 -35.167 192 -105.5s82 -162.833 82 -277.5c0 -153.333 -35 -270 -105 -350c-64.667 -73.333 -141.667 -110 -231 -110c-110 0 -210 56.333 -300 169h-15
c-45.333 -109.333 -138 -164 -278 -164c-80.667 0 -150.334 34.5 -209.001 103.5z" />
    <glyph glyph-name="integral" unicode="&#x222b;" horiz-adv-x="1145" 
d="M0 -187c0 46.667 18.998 89.668 56.998 129.001s84.667 59.666 140 60.999c40 -112.667 74.667 -182.334 104 -209.001c15.333 -13.333 33.5 -20 54.5 -20s38.5 5.66699 52.5 17c29.333 24.667 44 110.334 44 257.001v795c0 128 42.833 233.833 128.5 317.5
s191.167 125.5 316.5 125.5c86 0 142.167 -5.33301 168.5 -16s47.833 -21.334 64.5 -32.001c33.333 -20.667 50 -53.667 50 -99s-20 -84.666 -60 -117.999s-82.333 -52 -127 -56l-33 68c-33.333 67.333 -69.333 101 -108 101c-51.333 0 -82.666 -28.667 -93.999 -86
c-5.33301 -24.667 -8 -55.667 -8 -93v-900c0 -127.333 -43.167 -233 -129.5 -317s-192.166 -126 -317.499 -126c-202 0 -303 67 -303 201z" />
    <glyph glyph-name="approxequal" unicode="&#x2248;" horiz-adv-x="964" 
d="M3 322c-9.33301 85.333 0.332031 162.001 28.999 230.001c30.667 70.667 85.334 114.667 164.001 132c40 8.66699 87.667 6 143 -8l342 -83c32 -6.66699 61.667 11 89 53c6 10 11.667 22 17 36l174 -18c-1.33301 -139.333 -33.5 -236.833 -96.5 -292.5
s-155.5 -67.5 -277.5 -35.5l-315 82c-24.667 6.66699 -44.5 1.16699 -59.5 -16.5s-23.833 -36.834 -26.5 -57.501l-5 -32zM2.99805 725.001c-9.33301 85.333 0.332031 162.333 28.999 231c30.667 70 85.334 113.667 164.001 131c40 8.66699 87.667 6 143 -8l342 -83
c32 -6.66699 61.667 11 89 53c6 10 11.667 22 17 36l174 -18c-1.33301 -139.333 -33.5 -236.833 -96.5 -292.5s-155.5 -67.5 -277.5 -35.5l-315 82c-24.667 6.66699 -44.5 1.16699 -59.5 -16.5s-23.833 -37.167 -26.5 -58.5l-5 -31z" />
    <glyph glyph-name="notequal" unicode="&#x2260;" horiz-adv-x="787" 
d="M35 504l12 186h396l125 176l219 3l-125 -179h93l-11 -186h-211l-41 -53h261l-11 -186h-379l-144 -207l-219 -5l159 212h-127l12 186h255l36 53h-300z" />
    <glyph glyph-name="lessequal" unicode="&#x2264;" horiz-adv-x="699" 
d="M788 36l-146 -120l-632 494l-10 94l629 470l147 -134l-336 -386zM0 -335l19 178l726 22l-19 -185z" />
    <glyph glyph-name="greaterequal" unicode="&#x2265;" horiz-adv-x="699" 
d="M0 36l348 418l-336 386l147 134l629 -470l-10 -94l-632 -494zM0 -335l19 178l719 22l-19 -185z" />
    <glyph glyph-name="lozenge" unicode="&#x25ca;" horiz-adv-x="788" 
d="M0 476l384 342l404 -336l-402 -339z" />
    <glyph glyph-name="uniF001" unicode="&#xf001;" horiz-adv-x="1248" 
d="M610 0l7.99902 176.001l154 54v389l-172 81h-137v-700h-463l12 158l155 72v470h-150l10 149l138 24c5.33301 82.667 33 156 83 220s112.167 112.167 186.5 144.5s153.5 48.5 237.5 48.5h56.5c16.333 0 36.5 -0.5 60.5 -1.5s44 -2.83301 60 -5.5s34.833 -6 56.5 -10
s39.667 -9.33301 54 -16s28.166 -14.667 41.499 -24c26.667 -18.667 40 -47.334 40 -86.001s-20 -74.667 -60 -108s-82.333 -52 -127 -56c-19.333 38 -53.166 73.333 -101.499 106s-85.666 49 -111.999 49s-47.833 -2.33301 -64.5 -7s-34 -13 -52 -25
c-40.667 -25.333 -61 -74.333 -61 -147v-89h151l416 62l56 -56v-642l162 -56l-11 -174h-627z" />
    <glyph glyph-name="uniF002" unicode="&#xf002;" horiz-adv-x="1226" 
d="M0 0l12.0029 157.999l155 72v470h-150l10 149l138 24c8 127.333 53 228 135 302s180.333 111 295 111s197.667 -10.333 249 -31l169 11l57 -57v-979l156 -56l-13 -174h-625l15 176l152 54v796c-22.667 26.667 -51.834 51.334 -87.501 74.001s-69.834 34 -102.501 34
s-57.834 -12.167 -75.501 -36.5s-26.5 -71.833 -26.5 -142.5v-89h253l-14 -166h-239v-700h-463z" />
    <glyph glyph-name=".null" horiz-adv-x="0" 
 />
    <glyph glyph-name="nonmarkingreturn" horiz-adv-x="682" 
 />
    <glyph glyph-name="Euro.osf" horiz-adv-x="1021" 
d="M5 343l16 132.996h90c-0.666992 8.66699 -1 22.334 -1 41.001v16h-110l22 136h110c33.333 110 97 199.5 191 268.5s203.667 103.5 329 103.5c86.667 0 165 -12.167 235 -36.5s114.667 -53.166 134 -86.499l-22 -283l-143 24l-58 181c-28.667 28 -54.5 48 -77.5 60
s-58.833 18 -107.5 18c-100.667 0 -159.334 -83 -176.001 -249h311l-27 -136h-290c0 -14 0.666992 -33 2 -57h273l-27 -133h-224c20 -75.333 49.667 -132.666 89 -171.999s83.833 -59 133.5 -59s88.5 11.667 116.5 35l72 261l143 -32l19 -292
c-44.667 -35.333 -111 -65 -199 -89s-172.667 -36 -254 -36c-121.333 0 -220.666 32.833 -297.999 98.5s-128 160.834 -152 285.501h-120z" />
    <glyph glyph-name="ampersand.osf" horiz-adv-x="1057" 
d="M497 203l-188 196.999c-34.667 -36 -52 -72.667 -52 -110s9 -67.166 27 -89.499s47.5 -33.5 88.5 -33.5s82.5 12 124.5 36zM591 100.999c-104.667 -79.333 -209.331 -118.999 -313.998 -118.999s-183.667 18.833 -237 56.5s-80 97.167 -80 178.5
c0 76.667 26 138.334 78 185.001c42 37.333 97.333 73.333 166 108l-21 22c-63.333 67.333 -95 138.666 -95 213.999s31.333 140.833 94 196.5s134.667 83.5 216 83.5s148.833 -20.5 202.5 -61.5s80.5 -92.333 80.5 -154s-14 -112.834 -42 -153.501s-67 -77.667 -117 -111
l156 -161c13.333 20 26.666 42.333 39.999 67l-54 67l25 137h368l-22 -137l-138 -63c-40.667 -63.333 -81.334 -120.666 -122.001 -171.999l19 -20c48.667 -50.667 120.667 -88.334 216 -113.001l24 -6l-31 -134c-54.667 -16 -109.667 -24 -165 -24
c-84 0 -166.333 38 -247 114zM422.003 650c26 31.333 39 68.999 39 112.999s-10.833 78.667 -32.5 104s-40.167 38 -55.5 38s-27.833 -8.33301 -37.5 -25s-14.5 -37 -14.5 -61c0 -45.333 33.667 -101.666 101 -168.999z" />
    <glyph glyph-name="dollar.osf" horiz-adv-x="779" 
d="M313 1068l190.001 16.9961l-23 -138c87.333 -5.33301 156.5 -23.166 207.5 -53.499s76.5 -68.666 76.5 -114.999s-19 -84.5 -57 -114.5s-82.667 -47.667 -134 -53l-33 86c-26 68 -76.667 102 -152 102c-26 0 -46.667 -6.33301 -62 -19s-23 -27.834 -23 -45.501
s8.83301 -34.167 26.5 -49.5s40.334 -30 68.001 -44s58.5 -28.833 92.5 -44.5s68 -33.667 102 -54s64.667 -42.5 92 -66.5c63.333 -56 95 -123.833 95 -203.5s-27.167 -145 -81.5 -196s-127.833 -84.833 -220.5 -101.5l21 -153l-187 -18l22 160
c-122.667 4.66699 -217 37.334 -283 98.001c-33.333 31.333 -50 68.666 -50 111.999s16.667 78.5 50 105.5s80.666 43.167 141.999 48.5c18.667 -66 44 -116.5 76 -151.5s67.833 -52.5 107.5 -52.5s67.667 4.33301 84 13s24.5 22.834 24.5 42.501
s-8.33301 36.834 -25 51.501s-38.334 28.667 -65.001 42l-87 43c-128.667 62 -211.334 130.667 -248.001 206c-16.667 34 -25 68 -25 102s5.33301 65.833 16 95.5s26.834 59.834 48.501 90.501s53.167 58 94.5 82s89 40.333 143 49z" />
    <glyph glyph-name="eight.osf" horiz-adv-x="959" 
d="M473 1063c-42 0 -63 -27.666 -63 -82.999c0 -28 13.667 -63.167 41 -105.5s63.666 -77.5 108.999 -105.5c26 17.333 39 53.666 39 108.999s-13.167 100 -39.5 134s-55.166 51 -86.499 51zM352 347.001c0 -66.667 14.667 -121.999 44 -165.999s73.333 -66 132 -66
c27.333 0 50.5 8.16699 69.5 24.5s28.5 33.166 28.5 50.499s-3.66699 33 -11 47s-19.833 29.167 -37.5 45.5s-35.5 31.5 -53.5 45.5l-158 126c-12 -19.333 -17.333 -40.5 -16 -63.5s2 -37.5 2 -43.5zM0 270.002c0 131.333 74.668 227.333 224.001 288v15
c-112.667 90 -169 186.667 -169 290c0 89.333 37 166.333 111 231c79.333 70 195.666 105 348.999 105c114.667 0 207.167 -27.333 277.5 -82s105.5 -118.667 105.5 -192c0 -46 -17.333 -91.167 -52 -135.5s-81.667 -80.5 -141 -108.5l1 -16
c90 -58.667 154.667 -114.167 194 -166.5s59 -108.166 59 -167.499c0 -98 -48.167 -182.167 -144.5 -252.5s-217.5 -105.5 -363.5 -105.5s-257.667 29.167 -335 87.5s-116 128.166 -116 209.499z" />
    <glyph glyph-name="f.alt2" horiz-adv-x="805" 
d="M0 0l12 158l155 72v470h-150l10 149l138 24c8 130 47.167 231.333 117.5 304s166.833 109 289.5 109c88.667 0 154 -20 196 -60c24.667 -23.333 37 -55 37 -95s-20 -76.667 -60 -110s-82.333 -52 -127 -56c-19.333 70 -35 115.667 -47 137s-30 32 -54 32
s-39 -10.333 -45 -31s-9 -70 -9 -148v-89h263l-14 -166h-249v-460l245 -68l-8 -172h-700z" />
    <glyph glyph-name="five.osf" horiz-adv-x="838" 
d="M68 -239c-65.333 46 -97.9971 98.499 -97.9971 157.499s20.833 106.667 62.5 143s98.5 60.833 170.5 73.5c29.333 -204 91.333 -306 186 -306c52.667 0 93.667 21.833 123 65.5s44 93.834 44 150.501c0 82.667 -37 155.167 -111 217.5s-173.667 100.5 -299 114.5l156 603
l512 37l-41 -257l-407 -3l-14 -104c157.333 -20.667 277.666 -76.667 360.999 -168s125 -197 125 -317c0 -126.667 -43.333 -236 -130 -328c-42.667 -45.333 -98.334 -81.333 -167.001 -108s-148.334 -40 -239.001 -40s-168.667 23 -234 69z" />
    <glyph glyph-name="four.osf" horiz-adv-x="1097" 
d="M303 235h208v292zM0 181l698 841l156 -34c-6 -120 -9 -334 -9 -642v-111h252l-20 -227h-227v-268l-343 -57v330h-468z" />
    <glyph glyph-name="nine.osf" horiz-adv-x="908" 
d="M378 829c-12 -30.667 -18 -84.665 -18 -161.998c0 -156 26.667 -234 80 -234c31.333 0 61 12 89 36c5.33301 37.333 8 93.666 8 168.999c0 160 -32.667 239.333 -98 238c-28.667 -0.666992 -49 -16.334 -61 -47.001zM0 583.002c0 63.333 12.501 124.668 37.501 184.001
s58.833 107.666 101.5 144.999c87.333 76.667 193.333 115 318 115c226 0 367.667 -93.667 425 -281c17.333 -54.667 26 -116.334 26 -185.001c0 -125.333 -19.333 -241.5 -58 -348.5s-91.334 -197.833 -158.001 -272.5c-140 -155.333 -314.667 -242.666 -524 -261.999
l-49 115c102 40 190.5 102.333 265.5 187s119.167 183.667 132.5 297l-8 9c-41.333 -36 -109.333 -54 -204 -54c-74 0 -142 28 -204 84c-67.333 60 -101 149 -101 267z" />
    <glyph glyph-name="one.osf" horiz-adv-x="801" 
d="M0 -5l17 129l204 67v554h-196l12 167l456 104h91v-838l217 -46l-13 -137h-788z" />
    <glyph glyph-name="paragraph.osf" horiz-adv-x="1410" 
d="M984 0v1054h456l-20 -152l-162 -71v-619l179 -66l-13 -146h-440zM546 352c-364 0 -546 116.333 -546 349c0 111.333 43.667 198.833 131 262.5s213.333 95.5 378 95.5h399v-1059h-553l11 136l260 80v671c-40.667 7.33301 -86 11 -136 11s-91.333 -11.5 -124 -34.5
s-49 -65.833 -49 -128.5c0 -120 84 -186 252 -198z" />
    </font>
</defs>
</svg>
