<svg xmlns="http://www.w3.org/2000/svg" class="i -travelpaas" viewBox="0 0 358 68"> <title>Travel Paas™</title> <g> <path fill="#fff" d="M21.392 22.416V54h-8.736V22.416H1.568v-7.56H32.48v7.56m21.392 8.848c-2.5 0-4.368.887-5.6 2.66-1.232 1.773-1.848 4.116-1.848 7.028V54h-8.4V23.872h8.4v3.976c1.083-1.232 2.436-2.277 4.06-3.136 1.624-.86 3.276-1.307 4.956-1.344l.056 7.896h-1.624zM86.352 54h-7.896v-3.64c-2.165 2.725-4.844 4.088-8.036 4.088-3.192 0-5.87-.924-8.036-2.772-2.165-1.848-3.248-4.312-3.248-7.392s1.12-5.385 3.36-6.916c2.24-1.53 5.3-2.296 9.184-2.296h6.272v-.168c0-3.21-1.7-4.816-5.096-4.816-1.456 0-2.996.29-4.62.868-1.624.58-2.996 1.297-4.116 2.156l-3.752-5.432c3.957-2.875 8.475-4.312 13.552-4.312 3.66 0 6.645.915 8.96 2.744 2.315 1.83 3.472 4.723 3.472 8.68V54zm-8.456-11.48v-1.456h-5.264c-3.36 0-5.04 1.045-5.04 3.136 0 1.083.4 1.913 1.204 2.492.803.58 1.95.868 3.444.868 1.493 0 2.81-.457 3.948-1.372 1.14-.915 1.708-2.137 1.708-3.668zM101.752 54L89.824 23.816h8.736l7.504 18.984 7.504-18.984h8.736L110.376 54m34.104-22.232c-1.157-.97-2.567-1.456-4.228-1.456-1.66 0-3.183.504-4.564 1.512-1.38 1.008-2.184 2.37-2.408 4.088h13.216c-.187-1.792-.86-3.173-2.016-4.144zm8.064 17.864c-3.397 3.21-7.383 4.816-11.956 4.816-4.573 0-8.353-1.41-11.34-4.228-2.987-2.82-4.48-6.6-4.48-11.34s1.52-8.512 4.564-11.312c3.043-2.8 6.636-4.2 10.78-4.2 4.144 0 7.663 1.25 10.556 3.752 2.893 2.5 4.34 5.936 4.34 10.304v4.48h-21.952c.26 1.643 1.12 2.987 2.576 4.032s3.1 1.568 4.928 1.568c2.95 0 5.376-.99 7.28-2.968l4.704 5.096zM169.456 54h-8.4V12.448h8.4"></path> <path fill="#ff0" d="M213.584 33.756c1.045-1.176 1.568-2.893 1.568-5.152 0-2.26-.68-3.864-2.044-4.816-1.363-.952-3.48-1.428-6.356-1.428h-4.984v13.16h5.88c2.912 0 4.89-.588 5.936-1.764zm6.412-15.4c2.744 2.333 4.116 5.917 4.116 10.752 0 4.835-1.41 8.372-4.228 10.612-2.82 2.24-7.12 3.36-12.908 3.36h-5.208V54h-8.736V14.856h13.832c6.01 0 10.388 1.167 13.132 3.5zm26.74 24.164v-1.456h-5.264c-3.36 0-5.04 1.045-5.04 3.136 0 1.083.4 1.913 1.204 2.492.803.58 1.95.868 3.444.868 1.493 0 2.81-.457 3.948-1.372 1.14-.915 1.708-2.137 1.708-3.668zM255.192 54h-7.896v-3.64c-2.165 2.725-4.844 4.088-8.036 4.088-3.192 0-5.87-.924-8.036-2.772-2.165-1.848-3.248-4.312-3.248-7.392s1.12-5.385 3.36-6.916c2.24-1.53 5.3-2.296 9.184-2.296h6.272v-.168c0-3.21-1.7-4.816-5.096-4.816-1.456 0-2.996.29-4.62.868-1.624.58-2.996 1.297-4.116 2.156l-3.752-5.432c3.957-2.875 8.475-4.312 13.552-4.312 3.66 0 6.645.915 8.96 2.744 2.315 1.83 3.472 4.723 3.472 8.68V54zm33.264 0h-7.896v-3.64c-2.165 2.725-4.844 4.088-8.036 4.088-3.192 0-5.87-.924-8.036-2.772-2.165-1.848-3.248-4.312-3.248-7.392s1.12-5.385 3.36-6.916c2.24-1.53 5.3-2.296 9.184-2.296h6.272v-.168c0-3.21-1.7-4.816-5.096-4.816-1.456 0-2.996.29-4.62.868-1.624.58-2.996 1.297-4.116 2.156l-3.752-5.432c3.957-2.875 8.475-4.312 13.552-4.312 3.66 0 6.645.915 8.96 2.744 2.315 1.83 3.472 4.723 3.472 8.68V54zM280 42.52v-1.456h-5.264c-3.36 0-5.04 1.045-5.04 3.136 0 1.083.4 1.913 1.204 2.492.803.58 1.95.868 3.444.868 1.493 0 2.81-.457 3.948-1.372 1.14-.915 1.708-2.137 1.708-3.668zm35.532 9.24c-2.184 1.792-4.956 2.688-8.316 2.688-2.24 0-4.573-.4-7-1.204-2.427-.803-4.61-1.988-6.552-3.556l3.696-5.264c3.136 2.427 6.477 3.64 10.024 3.64 1.083 0 1.94-.215 2.576-.644.635-.43.952-1 .952-1.708 0-.71-.44-1.363-1.316-1.96-.877-.597-2.147-1.157-3.808-1.68-1.66-.523-2.93-.97-3.808-1.344-.877-.373-1.876-.915-2.996-1.624-2.277-1.42-3.416-3.52-3.416-6.3s1.12-5.05 3.36-6.804c2.24-1.755 5.133-2.632 8.68-2.632 3.547 0 7.093 1.195 10.64 3.584l-3.136 5.6c-2.613-1.792-5.217-2.688-7.812-2.688-2.595 0-3.892.71-3.892 2.128 0 .784.41 1.4 1.232 1.848.82.448 2.184.97 4.088 1.568 1.904.597 3.257 1.055 4.06 1.372.803.317 1.764.812 2.884 1.484 2.09 1.27 3.136 3.388 3.136 6.356s-1.092 5.348-3.276 7.14z"></path> <path fill="#fff" d="M330.344 14.104V26.56h-2.484V14.104h-4.464v-2.268h11.412v2.268m5.256 12.456h-2.484V11.836h3.888l4.428 9.252 4.464-9.252h3.852V26.56h-2.484V15.076L346.58 25.3h-1.404l-5.112-10.224"></path> </g> </svg>
